solid OpenSCAD_Model
  facet normal -2.22045e-16 0 -1
    outer loop
      vertex 1.73205 1 1.70519e-16
      vertex -2.5 0 1.11022e-15
      vertex -2.5 11 1.11022e-15
    endloop
  endfacet
  facet normal -2.22045e-16 0 -1
    outer loop
      vertex 1.73205 1 1.70519e-16
      vertex 0 0 5.55112e-16
      vertex -2.5 0 1.11022e-15
    endloop
  endfacet
  facet normal -2.22045e-16 0 -1
    outer loop
      vertex 2.5 11 0
      vertex 1.73205 1 1.70519e-16
      vertex -2.5 11 1.11022e-15
    endloop
  endfacet
  facet normal -2.22045e-16 2.26344e-31 -1
    outer loop
      vertex 2.5 0 0
      vertex 2.3094 0 4.23215e-17
      vertex 1.73205 1 1.70519e-16
    endloop
  endfacet
  facet normal -2.22045e-16 0 -1
    outer loop
      vertex 2.5 0 0
      vertex 1.73205 1 1.70519e-16
      vertex 2.5 11 0
    endloop
  endfacet
  facet normal -0 1 0
    outer loop
      vertex -15 0 10
      vertex -12.8 0 10
      vertex -12.8 0 1.11022e-15
    endloop
  endfacet
  facet normal 0 1 0
    outer loop
      vertex -15 0 0
      vertex -15 0 10
      vertex -12.8 0 1.11022e-15
    endloop
  endfacet
  facet normal 0 1 0
    outer loop
      vertex -7.8 0 0
      vertex -15 0 0
      vertex -12.8 0 1.11022e-15
    endloop
  endfacet
  facet normal -0 1 0
    outer loop
      vertex -7.8 0 10
      vertex -2.5 0 10
      vertex -2.5 0 1.11022e-15
    endloop
  endfacet
  facet normal 0 1 0
    outer loop
      vertex -7.8 0 0
      vertex -7.8 0 10
      vertex -2.5 0 1.11022e-15
    endloop
  endfacet
  facet normal 0 1 0
    outer loop
      vertex 0 0 5.55112e-16
      vertex 0 0 0
      vertex -2.5 0 1.11022e-15
    endloop
  endfacet
  facet normal 0 1 0
    outer loop
      vertex 0 0 0
      vertex -7.8 0 0
      vertex -2.5 0 1.11022e-15
    endloop
  endfacet
  facet normal -0 1 0
    outer loop
      vertex 2.5 0 10
      vertex 7.8 0 10
      vertex 7.8 0 1.11022e-15
    endloop
  endfacet
  facet normal 0 1 0
    outer loop
      vertex 2.5 0 0
      vertex 2.5 0 10
      vertex 7.8 0 1.11022e-15
    endloop
  endfacet
  facet normal 0 1 0
    outer loop
      vertex 12.8 0 0
      vertex 2.5 0 0
      vertex 7.8 0 1.11022e-15
    endloop
  endfacet
  facet normal -0 1 0
    outer loop
      vertex 12.8 0 10
      vertex 15 0 10
      vertex 15 0 0
    endloop
  endfacet
  facet normal 0 1 0
    outer loop
      vertex 12.8 0 0
      vertex 12.8 0 10
      vertex 15 0 0
    endloop
  endfacet
  facet normal 0 1 0
    outer loop
      vertex 2.3094 0 4.23215e-17
      vertex 2.5 0 0
      vertex 2.3094 0 0
    endloop
  endfacet
  facet normal 1 0 -1.32564e-16
    outer loop
      vertex 2.5 6 3.35
      vertex 2.5 0 0
      vertex 2.5 11 0
    endloop
  endfacet
  facet normal 1 -1.72733e-16 -2.73582e-17
    outer loop
      vertex 2.5 4.43076 4.49012
      vertex 2.5 4.35 5
      vertex 2.5 0 0
    endloop
  endfacet
  facet normal 1 -1.63562e-17 -1.03269e-16
    outer loop
      vertex 2.5 5.49012 3.43076
      vertex 2.5 0 0
      vertex 2.5 6 3.35
    endloop
  endfacet
  facet normal 1 -3.63312e-17 -7.1304e-17
    outer loop
      vertex 2.5 5.03015 3.66512
      vertex 2.5 0 0
      vertex 2.5 5.49012 3.43076
    endloop
  endfacet
  facet normal 1 4.61723e-16 -7.54852e-16
    outer loop
      vertex 2.5 4.66512 4.03015
      vertex 2.5 0 0
      vertex 2.5 5.03015 3.66512
    endloop
  endfacet
  facet normal 1 -1.32197e-16 -6.73578e-17
    outer loop
      vertex 2.5 4.43076 4.49012
      vertex 2.5 0 0
      vertex 2.5 4.66512 4.03015
    endloop
  endfacet
  facet normal 1 5.10447e-17 -2.22045e-16
    outer loop
      vertex 2.5 4.35 5
      vertex 2.5 0 10
      vertex 2.5 0 0
    endloop
  endfacet
  facet normal 1 2.59099e-16 -4.10373e-17
    outer loop
      vertex 2.5 4.43076 5.50988
      vertex 2.5 0 10
      vertex 2.5 4.35 5
    endloop
  endfacet
  facet normal 1 1.98296e-16 -1.01037e-16
    outer loop
      vertex 2.5 4.66512 5.96985
      vertex 2.5 0 10
      vertex 2.5 4.43076 5.50988
    endloop
  endfacet
  facet normal 1 -4.1065e-16 -8.05925e-16
    outer loop
      vertex 2.5 5.03015 6.33488
      vertex 2.5 0 10
      vertex 2.5 4.66512 5.96985
    endloop
  endfacet
  facet normal 1 7.26624e-17 -1.42608e-16
    outer loop
      vertex 2.5 5.49012 6.56924
      vertex 2.5 0 10
      vertex 2.5 5.03015 6.33488
    endloop
  endfacet
  facet normal 1 3.27125e-17 -2.06538e-16
    outer loop
      vertex 2.5 6 6.65
      vertex 2.5 0 10
      vertex 2.5 5.49012 6.56924
    endloop
  endfacet
  facet normal 1 0 -2.65128e-16
    outer loop
      vertex 2.5 11 10
      vertex 2.5 0 10
      vertex 2.5 6 6.65
    endloop
  endfacet
  facet normal 1 -3.39634e-17 -2.14436e-16
    outer loop
      vertex 2.5 11 10
      vertex 2.5 6 6.65
      vertex 2.5 6.50988 6.56924
    endloop
  endfacet
  facet normal 1 -7.91366e-17 -1.55314e-16
    outer loop
      vertex 2.5 11 10
      vertex 2.5 6.50988 6.56924
      vertex 2.5 6.96985 6.33488
    endloop
  endfacet
  facet normal 1 -2.32971e-16 -1.18705e-16
    outer loop
      vertex 2.5 11 10
      vertex 2.5 7.33488 5.96985
      vertex 2.5 7.56924 5.50988
    endloop
  endfacet
  facet normal 1 4.64014e-16 -7.52561e-16
    outer loop
      vertex 2.5 11 10
      vertex 2.5 6.96985 6.33488
      vertex 2.5 7.33488 5.96985
    endloop
  endfacet
  facet normal 1 -3.21654e-16 -5.09451e-17
    outer loop
      vertex 2.5 7.65 5
      vertex 2.5 11 10
      vertex 2.5 7.56924 5.50988
    endloop
  endfacet
  facet normal 1 -6.6282e-17 -2.22045e-16
    outer loop
      vertex 2.5 11 0
      vertex 2.5 11 10
      vertex 2.5 7.65 5
    endloop
  endfacet
  facet normal 1 2.14436e-16 -3.39634e-17
    outer loop
      vertex 2.5 11 0
      vertex 2.5 7.65 5
      vertex 2.5 7.56924 4.49012
    endloop
  endfacet
  facet normal 1 1.55314e-16 -7.91366e-17
    outer loop
      vertex 2.5 11 0
      vertex 2.5 7.56924 4.49012
      vertex 2.5 7.33488 4.03015
    endloop
  endfacet
  facet normal 1 -5.21723e-16 -6.94851e-16
    outer loop
      vertex 2.5 11 0
      vertex 2.5 7.33488 4.03015
      vertex 2.5 6.96985 3.66512
    endloop
  endfacet
  facet normal 1 1.69817e-17 -1.07218e-16
    outer loop
      vertex 2.5 11 0
      vertex 2.5 6.50988 3.43076
      vertex 2.5 6 3.35
    endloop
  endfacet
  facet normal 1 3.95683e-17 -7.76571e-17
    outer loop
      vertex 2.5 11 0
      vertex 2.5 6.96985 3.66512
      vertex 2.5 6.50988 3.43076
    endloop
  endfacet
  facet normal 0 1 0
    outer loop
      vertex 2.5 11 0
      vertex -2.5 11 1.11022e-15
      vertex -2.5 11 10
    endloop
  endfacet
  facet normal 0 1 0
    outer loop
      vertex 2.5 11 10
      vertex 2.5 11 0
      vertex -2.5 11 10
    endloop
  endfacet
  facet normal -1 -1.32197e-16 6.73578e-17
    outer loop
      vertex -2.5 4.66512 5.96985
      vertex -2.5 4.43076 5.50988
      vertex -2.5 0 10
    endloop
  endfacet
  facet normal -1 0 2.65128e-16
    outer loop
      vertex -2.5 6 3.35
      vertex -2.5 11 1.11022e-15
      vertex -2.5 0 1.11022e-15
    endloop
  endfacet
  facet normal -1 3.27125e-17 2.06538e-16
    outer loop
      vertex -2.5 6 3.35
      vertex -2.5 0 1.11022e-15
      vertex -2.5 5.49012 3.43076
    endloop
  endfacet
  facet normal -1 -3.39634e-17 2.14436e-16
    outer loop
      vertex -2.5 6.50988 3.43076
      vertex -2.5 11 1.11022e-15
      vertex -2.5 6 3.35
    endloop
  endfacet
  facet normal -1 -7.91366e-17 1.55314e-16
    outer loop
      vertex -2.5 6.96985 3.66512
      vertex -2.5 11 1.11022e-15
      vertex -2.5 6.50988 3.43076
    endloop
  endfacet
  facet normal -1 4.64014e-16 7.52561e-16
    outer loop
      vertex -2.5 7.33488 4.03015
      vertex -2.5 11 1.11022e-15
      vertex -2.5 6.96985 3.66512
    endloop
  endfacet
  facet normal -1 -2.32971e-16 1.18705e-16
    outer loop
      vertex -2.5 7.56924 4.49012
      vertex -2.5 11 1.11022e-15
      vertex -2.5 7.33488 4.03015
    endloop
  endfacet
  facet normal -1 -3.21654e-16 5.09451e-17
    outer loop
      vertex -2.5 7.65 5
      vertex -2.5 11 1.11022e-15
      vertex -2.5 7.56924 4.49012
    endloop
  endfacet
  facet normal -1 -6.6282e-17 2.22045e-16
    outer loop
      vertex -2.5 11 10
      vertex -2.5 11 1.11022e-15
      vertex -2.5 7.65 5
    endloop
  endfacet
  facet normal -1 2.14436e-16 3.39634e-17
    outer loop
      vertex -2.5 11 10
      vertex -2.5 7.65 5
      vertex -2.5 7.56924 5.50988
    endloop
  endfacet
  facet normal -1 1.55314e-16 7.91366e-17
    outer loop
      vertex -2.5 11 10
      vertex -2.5 7.56924 5.50988
      vertex -2.5 7.33488 5.96985
    endloop
  endfacet
  facet normal -1 3.95683e-17 7.76571e-17
    outer loop
      vertex -2.5 11 10
      vertex -2.5 6.96985 6.33488
      vertex -2.5 6.50988 6.56924
    endloop
  endfacet
  facet normal -1 -5.21723e-16 6.94851e-16
    outer loop
      vertex -2.5 11 10
      vertex -2.5 7.33488 5.96985
      vertex -2.5 6.96985 6.33488
    endloop
  endfacet
  facet normal -1 1.69817e-17 1.07218e-16
    outer loop
      vertex -2.5 6 6.65
      vertex -2.5 11 10
      vertex -2.5 6.50988 6.56924
    endloop
  endfacet
  facet normal -1 0 1.32564e-16
    outer loop
      vertex -2.5 0 10
      vertex -2.5 11 10
      vertex -2.5 6 6.65
    endloop
  endfacet
  facet normal -1 -1.63562e-17 1.03269e-16
    outer loop
      vertex -2.5 0 10
      vertex -2.5 6 6.65
      vertex -2.5 5.49012 6.56924
    endloop
  endfacet
  facet normal -1 -3.63312e-17 7.1304e-17
    outer loop
      vertex -2.5 5.49012 6.56924
      vertex -2.5 5.03015 6.33488
      vertex -2.5 0 10
    endloop
  endfacet
  facet normal -1 4.61723e-16 7.54852e-16
    outer loop
      vertex -2.5 5.03015 6.33488
      vertex -2.5 4.66512 5.96985
      vertex -2.5 0 10
    endloop
  endfacet
  facet normal -1 -1.72733e-16 2.73582e-17
    outer loop
      vertex -2.5 4.35 5
      vertex -2.5 0 10
      vertex -2.5 4.43076 5.50988
    endloop
  endfacet
  facet normal -1 5.10447e-17 2.22045e-16
    outer loop
      vertex -2.5 0 1.11022e-15
      vertex -2.5 0 10
      vertex -2.5 4.35 5
    endloop
  endfacet
  facet normal -1 2.59099e-16 4.10373e-17
    outer loop
      vertex -2.5 0 1.11022e-15
      vertex -2.5 4.35 5
      vertex -2.5 4.43076 4.49012
    endloop
  endfacet
  facet normal -1 1.98296e-16 1.01037e-16
    outer loop
      vertex -2.5 0 1.11022e-15
      vertex -2.5 4.43076 4.49012
      vertex -2.5 4.66512 4.03015
    endloop
  endfacet
  facet normal -1 7.26624e-17 1.42608e-16
    outer loop
      vertex -2.5 0 1.11022e-15
      vertex -2.5 5.03015 3.66512
      vertex -2.5 5.49012 3.43076
    endloop
  endfacet
  facet normal -1 -4.1065e-16 8.05925e-16
    outer loop
      vertex -2.5 0 1.11022e-15
      vertex -2.5 4.66512 4.03015
      vertex -2.5 5.03015 3.66512
    endloop
  endfacet
  facet normal 0 0 1
    outer loop
      vertex -2.5 11 10
      vertex -2.5 0 10
      vertex 2.5 0 10
    endloop
  endfacet
  facet normal 0 0 1
    outer loop
      vertex 2.5 11 10
      vertex -2.5 11 10
      vertex 2.5 0 10
    endloop
  endfacet
  facet normal 1.75449e-16 0.156434 0.987688
    outer loop
      vertex -2.5 6 3.35
      vertex 2.5 5.49012 3.43076
      vertex 2.5 6 3.35
    endloop
  endfacet
  facet normal 1.74738e-16 0.156434 0.987688
    outer loop
      vertex -2.5 6 3.35
      vertex -2.5 5.49012 3.43076
      vertex 2.5 5.49012 3.43076
    endloop
  endfacet
  facet normal -1.75449e-16 0.156434 -0.987688
    outer loop
      vertex -2.5 5.49012 6.56924
      vertex 2.5 6 6.65
      vertex 2.5 5.49012 6.56924
    endloop
  endfacet
  facet normal -1.77426e-16 0.156434 -0.987688
    outer loop
      vertex -2.5 5.49012 6.56924
      vertex -2.5 6 6.65
      vertex 2.5 6 6.65
    endloop
  endfacet
  facet normal -8.06483e-17 -0.891007 -0.45399
    outer loop
      vertex -2.5 7.56924 5.50988
      vertex 2.5 7.33488 5.96985
      vertex -2.5 7.33488 5.96985
    endloop
  endfacet
  facet normal -8.06449e-17 -0.891007 -0.45399
    outer loop
      vertex -2.5 7.56924 5.50988
      vertex 2.5 7.56924 5.50988
      vertex 2.5 7.33488 5.96985
    endloop
  endfacet
  facet normal 2.77883e-17 0.987688 0.156434
    outer loop
      vertex -2.5 4.43076 4.49012
      vertex 2.5 4.35 5
      vertex 2.5 4.43076 4.49012
    endloop
  endfacet
  facet normal 2.9571e-17 0.987688 0.156434
    outer loop
      vertex -2.5 4.43076 4.49012
      vertex -2.5 4.35 5
      vertex 2.5 4.35 5
    endloop
  endfacet
  facet normal -1.29037e-16 -0.707107 -0.707107
    outer loop
      vertex 2.5 7.33488 5.96985
      vertex 2.5 6.96985 6.33488
      vertex -2.5 6.96985 6.33488
    endloop
  endfacet
  facet normal -1.25607e-16 -0.707107 -0.707107
    outer loop
      vertex -2.5 7.33488 5.96985
      vertex 2.5 7.33488 5.96985
      vertex -2.5 6.96985 6.33488
    endloop
  endfacet
  facet normal 1.74738e-16 -0.156434 0.987688
    outer loop
      vertex -2.5 6 3.35
      vertex 2.5 6.50988 3.43076
      vertex -2.5 6.50988 3.43076
    endloop
  endfacet
  facet normal 1.75449e-16 -0.156434 0.987688
    outer loop
      vertex -2.5 6 3.35
      vertex 2.5 6 3.35
      vertex 2.5 6.50988 3.43076
    endloop
  endfacet
  facet normal -2.77883e-17 0.987688 -0.156434
    outer loop
      vertex -2.5 4.35 5
      vertex 2.5 4.43076 5.50988
      vertex 2.5 4.35 5
    endloop
  endfacet
  facet normal -2.68828e-17 0.987688 -0.156434
    outer loop
      vertex -2.5 4.35 5
      vertex -2.5 4.43076 5.50988
      vertex 2.5 4.43076 5.50988
    endloop
  endfacet
  facet normal -2.9571e-17 -0.987688 -0.156434
    outer loop
      vertex -2.5 7.65 5
      vertex 2.5 7.56924 5.50988
      vertex -2.5 7.56924 5.50988
    endloop
  endfacet
  facet normal -2.77883e-17 -0.987688 -0.156434
    outer loop
      vertex -2.5 7.65 5
      vertex 2.5 7.65 5
      vertex 2.5 7.56924 5.50988
    endloop
  endfacet
  facet normal 2.68828e-17 -0.987688 0.156434
    outer loop
      vertex -2.5 7.56924 4.49012
      vertex 2.5 7.65 5
      vertex -2.5 7.65 5
    endloop
  endfacet
  facet normal 2.77883e-17 -0.987688 0.156434
    outer loop
      vertex -2.5 7.56924 4.49012
      vertex 2.5 7.56924 4.49012
      vertex 2.5 7.65 5
    endloop
  endfacet
  facet normal 1.25607e-16 0.707107 0.707107
    outer loop
      vertex -2.5 4.66512 4.03015
      vertex 2.5 4.66512 4.03015
      vertex 2.5 5.03015 3.66512
    endloop
  endfacet
  facet normal 1.25607e-16 0.707107 0.707107
    outer loop
      vertex -2.5 5.03015 3.66512
      vertex -2.5 4.66512 4.03015
      vertex 2.5 5.03015 3.66512
    endloop
  endfacet
  facet normal 1.58275e-16 0.45399 0.891007
    outer loop
      vertex -2.5 5.49012 3.43076
      vertex 2.5 5.03015 3.66512
      vertex 2.5 5.49012 3.43076
    endloop
  endfacet
  facet normal 1.5592e-16 0.45399 0.891007
    outer loop
      vertex -2.5 5.49012 3.43076
      vertex -2.5 5.03015 3.66512
      vertex 2.5 5.03015 3.66512
    endloop
  endfacet
  facet normal -1.25607e-16 0.707107 -0.707107
    outer loop
      vertex -2.5 5.03015 6.33488
      vertex 2.5 5.03015 6.33488
      vertex 2.5 4.66512 5.96985
    endloop
  endfacet
  facet normal -1.25607e-16 0.707107 -0.707107
    outer loop
      vertex -2.5 4.66512 5.96985
      vertex -2.5 5.03015 6.33488
      vertex 2.5 4.66512 5.96985
    endloop
  endfacet
  facet normal -8.06449e-17 0.891007 -0.45399
    outer loop
      vertex -2.5 4.43076 5.50988
      vertex 2.5 4.66512 5.96985
      vertex 2.5 4.43076 5.50988
    endloop
  endfacet
  facet normal -8.06483e-17 0.891007 -0.45399
    outer loop
      vertex -2.5 4.43076 5.50988
      vertex -2.5 4.66512 5.96985
      vertex 2.5 4.66512 5.96985
    endloop
  endfacet
  facet normal -1.74738e-16 -0.156434 -0.987688
    outer loop
      vertex -2.5 6.50988 6.56924
      vertex 2.5 6 6.65
      vertex -2.5 6 6.65
    endloop
  endfacet
  facet normal -1.75449e-16 -0.156434 -0.987688
    outer loop
      vertex -2.5 6.50988 6.56924
      vertex 2.5 6.50988 6.56924
      vertex 2.5 6 6.65
    endloop
  endfacet
  facet normal -1.5592e-16 -0.45399 -0.891007
    outer loop
      vertex -2.5 6.96985 6.33488
      vertex 2.5 6.50988 6.56924
      vertex -2.5 6.50988 6.56924
    endloop
  endfacet
  facet normal -1.58275e-16 -0.45399 -0.891007
    outer loop
      vertex -2.5 6.96985 6.33488
      vertex 2.5 6.96985 6.33488
      vertex 2.5 6.50988 6.56924
    endloop
  endfacet
  facet normal 8.06483e-17 -0.891007 0.45399
    outer loop
      vertex -2.5 7.33488 4.03015
      vertex 2.5 7.56924 4.49012
      vertex -2.5 7.56924 4.49012
    endloop
  endfacet
  facet normal 8.06449e-17 -0.891007 0.45399
    outer loop
      vertex -2.5 7.33488 4.03015
      vertex 2.5 7.33488 4.03015
      vertex 2.5 7.56924 4.49012
    endloop
  endfacet
  facet normal 1.5592e-16 -0.45399 0.891007
    outer loop
      vertex -2.5 6.50988 3.43076
      vertex 2.5 6.96985 3.66512
      vertex -2.5 6.96985 3.66512
    endloop
  endfacet
  facet normal 1.58275e-16 -0.45399 0.891007
    outer loop
      vertex -2.5 6.50988 3.43076
      vertex 2.5 6.50988 3.43076
      vertex 2.5 6.96985 3.66512
    endloop
  endfacet
  facet normal 8.06449e-17 0.891007 0.45399
    outer loop
      vertex -2.5 4.66512 4.03015
      vertex 2.5 4.43076 4.49012
      vertex 2.5 4.66512 4.03015
    endloop
  endfacet
  facet normal 8.06483e-17 0.891007 0.45399
    outer loop
      vertex -2.5 4.66512 4.03015
      vertex -2.5 4.43076 4.49012
      vertex 2.5 4.43076 4.49012
    endloop
  endfacet
  facet normal -1.58275e-16 0.45399 -0.891007
    outer loop
      vertex -2.5 5.03015 6.33488
      vertex 2.5 5.49012 6.56924
      vertex 2.5 5.03015 6.33488
    endloop
  endfacet
  facet normal -1.5592e-16 0.45399 -0.891007
    outer loop
      vertex -2.5 5.03015 6.33488
      vertex -2.5 5.49012 6.56924
      vertex 2.5 5.49012 6.56924
    endloop
  endfacet
  facet normal 1.29037e-16 -0.707107 0.707107
    outer loop
      vertex 2.5 6.96985 3.66512
      vertex 2.5 7.33488 4.03015
      vertex -2.5 7.33488 4.03015
    endloop
  endfacet
  facet normal 1.25607e-16 -0.707107 0.707107
    outer loop
      vertex -2.5 6.96985 3.66512
      vertex 2.5 6.96985 3.66512
      vertex -2.5 7.33488 4.03015
    endloop
  endfacet
  facet normal -2.22045e-16 0 -1
    outer loop
      vertex 12.8 0 0
      vertex 7.8 0 1.11022e-15
      vertex 7.8 11 1.11022e-15
    endloop
  endfacet
  facet normal -2.22045e-16 -0 -1
    outer loop
      vertex 12.8 11 0
      vertex 12.8 0 0
      vertex 7.8 11 1.11022e-15
    endloop
  endfacet
  facet normal 1 0 0
    outer loop
      vertex 12.8 6 1.95
      vertex 12.8 0 0
      vertex 12.8 11 0
    endloop
  endfacet
  facet normal 1 3.45104e-16 -1.77636e-16
    outer loop
      vertex 12.8 3.35862 6.525
      vertex 12.8 0 10
      vertex 12.8 0 0
    endloop
  endfacet
  facet normal 1 -7.53133e-16 0
    outer loop
      vertex 12.8 11 10
      vertex 12.8 8.64138 6.525
      vertex 12.8 8.64138 3.475
    endloop
  endfacet
  facet normal 1 0 0
    outer loop
      vertex 12.8 3.35862 3.475
      vertex 12.8 0 0
      vertex 12.8 6 1.95
    endloop
  endfacet
  facet normal 1 0 0
    outer loop
      vertex 12.8 3.35862 6.525
      vertex 12.8 0 0
      vertex 12.8 3.35862 3.475
    endloop
  endfacet
  facet normal 1 -2.42219e-16 -7.45289e-16
    outer loop
      vertex 12.8 6 8.05
      vertex 12.8 0 10
      vertex 12.8 3.35862 6.525
    endloop
  endfacet
  facet normal 1 0 0
    outer loop
      vertex 12.8 11 10
      vertex 12.8 0 10
      vertex 12.8 6 8.05
    endloop
  endfacet
  facet normal 1 2.71132e-16 -6.9521e-16
    outer loop
      vertex 12.8 11 10
      vertex 12.8 6 8.05
      vertex 12.8 8.64138 6.525
    endloop
  endfacet
  facet normal 1 0 0
    outer loop
      vertex 12.8 11 0
      vertex 12.8 8.64138 3.475
      vertex 12.8 6 1.95
    endloop
  endfacet
  facet normal 1 -2.61714e-16 -1.77636e-16
    outer loop
      vertex 12.8 11 0
      vertex 12.8 11 10
      vertex 12.8 8.64138 3.475
    endloop
  endfacet
  facet normal 0 1 0
    outer loop
      vertex 12.8 11 0
      vertex 7.8 11 1.11022e-15
      vertex 7.8 11 10
    endloop
  endfacet
  facet normal 0 1 0
    outer loop
      vertex 12.8 11 10
      vertex 12.8 11 0
      vertex 7.8 11 10
    endloop
  endfacet
  facet normal -1 -1.32197e-16 6.73578e-17
    outer loop
      vertex 7.8 4.66512 5.96985
      vertex 7.8 4.43076 5.50988
      vertex 7.8 0 10
    endloop
  endfacet
  facet normal -1 0 -0
    outer loop
      vertex 7.8 6 3.35
      vertex 7.8 11 1.11022e-15
      vertex 7.8 0 1.11022e-15
    endloop
  endfacet
  facet normal -1 -0 0
    outer loop
      vertex 7.8 6 3.35
      vertex 7.8 0 1.11022e-15
      vertex 7.8 5.49012 3.43076
    endloop
  endfacet
  facet normal -1 0 -0
    outer loop
      vertex 7.8 6.50988 3.43076
      vertex 7.8 11 1.11022e-15
      vertex 7.8 6 3.35
    endloop
  endfacet
  facet normal -1 0 -0
    outer loop
      vertex 7.8 6.96985 3.66512
      vertex 7.8 11 1.11022e-15
      vertex 7.8 6.50988 3.43076
    endloop
  endfacet
  facet normal -1 1.15887e-15 1.27428e-15
    outer loop
      vertex 7.8 7.33488 4.03015
      vertex 7.8 11 1.11022e-15
      vertex 7.8 6.96985 3.66512
    endloop
  endfacet
  facet normal -1 -1.55314e-16 7.91366e-17
    outer loop
      vertex 7.8 7.56924 4.49012
      vertex 7.8 11 1.11022e-15
      vertex 7.8 7.33488 4.03015
    endloop
  endfacet
  facet normal -1 -2.14436e-16 3.39634e-17
    outer loop
      vertex 7.8 7.65 5
      vertex 7.8 11 1.11022e-15
      vertex 7.8 7.56924 4.49012
    endloop
  endfacet
  facet normal -1 0 1.77636e-16
    outer loop
      vertex 7.8 11 10
      vertex 7.8 11 1.11022e-15
      vertex 7.8 7.65 5
    endloop
  endfacet
  facet normal -1 2.14436e-16 3.39634e-17
    outer loop
      vertex 7.8 11 10
      vertex 7.8 7.65 5
      vertex 7.8 7.56924 5.50988
    endloop
  endfacet
  facet normal -1 1.55314e-16 7.91366e-17
    outer loop
      vertex 7.8 11 10
      vertex 7.8 7.56924 5.50988
      vertex 7.8 7.33488 5.96985
    endloop
  endfacet
  facet normal -1 7.91366e-17 1.55314e-16
    outer loop
      vertex 7.8 11 10
      vertex 7.8 6.96985 6.33488
      vertex 7.8 6.50988 6.56924
    endloop
  endfacet
  facet normal -1 1.15419e-16 1.15419e-16
    outer loop
      vertex 7.8 11 10
      vertex 7.8 7.33488 5.96985
      vertex 7.8 6.96985 6.33488
    endloop
  endfacet
  facet normal -1 3.39634e-17 2.14436e-16
    outer loop
      vertex 7.8 6 6.65
      vertex 7.8 11 10
      vertex 7.8 6.50988 6.56924
    endloop
  endfacet
  facet normal -1 0 2.65128e-16
    outer loop
      vertex 7.8 0 10
      vertex 7.8 11 10
      vertex 7.8 6 6.65
    endloop
  endfacet
  facet normal -1 -3.27125e-17 2.06538e-16
    outer loop
      vertex 7.8 0 10
      vertex 7.8 6 6.65
      vertex 7.8 5.49012 6.56924
    endloop
  endfacet
  facet normal -1 -7.26624e-17 1.42608e-16
    outer loop
      vertex 7.8 5.49012 6.56924
      vertex 7.8 5.03015 6.33488
      vertex 7.8 0 10
    endloop
  endfacet
  facet normal -1 -1.02145e-16 1.02145e-16
    outer loop
      vertex 7.8 5.03015 6.33488
      vertex 7.8 4.66512 5.96985
      vertex 7.8 0 10
    endloop
  endfacet
  facet normal -1 -1.72733e-16 2.73582e-17
    outer loop
      vertex 7.8 4.35 5
      vertex 7.8 0 10
      vertex 7.8 4.43076 5.50988
    endloop
  endfacet
  facet normal -1 -3.62695e-32 1.77636e-16
    outer loop
      vertex 7.8 0 1.11022e-15
      vertex 7.8 0 10
      vertex 7.8 4.35 5
    endloop
  endfacet
  facet normal -1 1.72733e-16 2.73582e-17
    outer loop
      vertex 7.8 0 1.11022e-15
      vertex 7.8 4.35 5
      vertex 7.8 4.43076 4.49012
    endloop
  endfacet
  facet normal -1 1.32197e-16 6.73578e-17
    outer loop
      vertex 7.8 0 1.11022e-15
      vertex 7.8 4.43076 4.49012
      vertex 7.8 4.66512 4.03015
    endloop
  endfacet
  facet normal -1 0 0
    outer loop
      vertex 7.8 0 1.11022e-15
      vertex 7.8 5.03015 3.66512
      vertex 7.8 5.49012 3.43076
    endloop
  endfacet
  facet normal -1 -1.02559e-15 1.40756e-15
    outer loop
      vertex 7.8 0 1.11022e-15
      vertex 7.8 4.66512 4.03015
      vertex 7.8 5.03015 3.66512
    endloop
  endfacet
  facet normal 0 0 1
    outer loop
      vertex 7.8 11 10
      vertex 7.8 0 10
      vertex 12.8 0 10
    endloop
  endfacet
  facet normal 0 0 1
    outer loop
      vertex 12.8 11 10
      vertex 7.8 11 10
      vertex 12.8 0 10
    endloop
  endfacet
  facet normal 1.68701e-16 0.156434 0.987688
    outer loop
      vertex 7.8 6 3.35
      vertex 10.4 5.49012 3.43076
      vertex 10.4 6 3.35
    endloop
  endfacet
  facet normal 1.65432e-16 0.156434 0.987688
    outer loop
      vertex 7.8 6 3.35
      vertex 7.8 5.49012 3.43076
      vertex 10.4 5.49012 3.43076
    endloop
  endfacet
  facet normal -5.68674e-17 -0.987688 -0.156434
    outer loop
      vertex 7.8 7.65 5
      vertex 10.4 7.56924 5.50988
      vertex 7.8 7.56924 5.50988
    endloop
  endfacet
  facet normal -5.34391e-17 -0.987688 -0.156434
    outer loop
      vertex 7.8 7.65 5
      vertex 10.4 7.65 5
      vertex 10.4 7.56924 5.50988
    endloop
  endfacet
  facet normal -5.34391e-17 0.987688 -0.156434
    outer loop
      vertex 7.8 4.35 5
      vertex 10.4 4.43076 5.50988
      vertex 10.4 4.35 5
    endloop
  endfacet
  facet normal -5.16976e-17 0.987688 -0.156434
    outer loop
      vertex 7.8 4.35 5
      vertex 7.8 4.43076 5.50988
      vertex 10.4 4.43076 5.50988
    endloop
  endfacet
  facet normal 1.70602e-16 -0.156434 0.987688
    outer loop
      vertex 7.8 6 3.35
      vertex 10.4 6.50988 3.43076
      vertex 7.8 6.50988 3.43076
    endloop
  endfacet
  facet normal 1.68701e-16 -0.156434 0.987688
    outer loop
      vertex 7.8 6 3.35
      vertex 10.4 6 3.35
      vertex 10.4 6.50988 3.43076
    endloop
  endfacet
  facet normal -2.48149e-16 -0.707107 -0.707107
    outer loop
      vertex 10.4 7.33488 5.96985
      vertex 10.4 6.96985 6.33488
      vertex 7.8 6.96985 6.33488
    endloop
  endfacet
  facet normal -2.41553e-16 -0.707107 -0.707107
    outer loop
      vertex 7.8 7.33488 5.96985
      vertex 10.4 7.33488 5.96985
      vertex 7.8 6.96985 6.33488
    endloop
  endfacet
  facet normal -1.55093e-16 -0.891007 -0.45399
    outer loop
      vertex 7.8 7.56924 5.50988
      vertex 10.4 7.33488 5.96985
      vertex 7.8 7.33488 5.96985
    endloop
  endfacet
  facet normal -1.55086e-16 -0.891007 -0.45399
    outer loop
      vertex 7.8 7.56924 5.50988
      vertex 10.4 7.56924 5.50988
      vertex 10.4 7.33488 5.96985
    endloop
  endfacet
  facet normal 5.34391e-17 0.987688 0.156434
    outer loop
      vertex 7.8 4.43076 4.49012
      vertex 10.4 4.35 5
      vertex 10.4 4.43076 4.49012
    endloop
  endfacet
  facet normal 5.68674e-17 0.987688 0.156434
    outer loop
      vertex 7.8 4.43076 4.49012
      vertex 7.8 4.35 5
      vertex 10.4 4.35 5
    endloop
  endfacet
  facet normal 2.41553e-16 0.707107 0.707107
    outer loop
      vertex 7.8 4.66512 4.03015
      vertex 10.4 4.66512 4.03015
      vertex 10.4 5.03015 3.66512
    endloop
  endfacet
  facet normal 1.20776e-16 0.707107 0.707107
    outer loop
      vertex 7.8 5.03015 3.66512
      vertex 7.8 4.66512 4.03015
      vertex 10.4 5.03015 3.66512
    endloop
  endfacet
  facet normal 1.52187e-16 0.45399 0.891007
    outer loop
      vertex 7.8 5.49012 3.43076
      vertex 10.4 5.03015 3.66512
      vertex 10.4 5.49012 3.43076
    endloop
  endfacet
  facet normal 1.55093e-16 0.45399 0.891007
    outer loop
      vertex 7.8 5.49012 3.43076
      vertex 7.8 5.03015 3.66512
      vertex 10.4 5.03015 3.66512
    endloop
  endfacet
  facet normal -2.41553e-16 0.707107 -0.707107
    outer loop
      vertex 7.8 5.03015 6.33488
      vertex 10.4 5.03015 6.33488
      vertex 10.4 4.66512 5.96985
    endloop
  endfacet
  facet normal -2.41553e-16 0.707107 -0.707107
    outer loop
      vertex 7.8 4.66512 5.96985
      vertex 7.8 5.03015 6.33488
      vertex 10.4 4.66512 5.96985
    endloop
  endfacet
  facet normal -3.37401e-16 0.156434 -0.987688
    outer loop
      vertex 7.8 5.49012 6.56924
      vertex 10.4 6 6.65
      vertex 10.4 5.49012 6.56924
    endloop
  endfacet
  facet normal -3.41204e-16 0.156434 -0.987688
    outer loop
      vertex 7.8 5.49012 6.56924
      vertex 7.8 6 6.65
      vertex 10.4 6 6.65
    endloop
  endfacet
  facet normal -1.55086e-16 0.891007 -0.45399
    outer loop
      vertex 7.8 4.43076 5.50988
      vertex 10.4 4.66512 5.96985
      vertex 10.4 4.43076 5.50988
    endloop
  endfacet
  facet normal -1.55093e-16 0.891007 -0.45399
    outer loop
      vertex 7.8 4.43076 5.50988
      vertex 7.8 4.66512 5.96985
      vertex 10.4 4.66512 5.96985
    endloop
  endfacet
  facet normal -2.99846e-16 -0.45399 -0.891007
    outer loop
      vertex 7.8 6.96985 6.33488
      vertex 10.4 6.50988 6.56924
      vertex 7.8 6.50988 6.56924
    endloop
  endfacet
  facet normal -3.04374e-16 -0.45399 -0.891007
    outer loop
      vertex 7.8 6.96985 6.33488
      vertex 10.4 6.96985 6.33488
      vertex 10.4 6.50988 6.56924
    endloop
  endfacet
  facet normal -3.36035e-16 -0.156434 -0.987688
    outer loop
      vertex 7.8 6.50988 6.56924
      vertex 10.4 6 6.65
      vertex 7.8 6 6.65
    endloop
  endfacet
  facet normal -3.37401e-16 -0.156434 -0.987688
    outer loop
      vertex 7.8 6.50988 6.56924
      vertex 10.4 6.50988 6.56924
      vertex 10.4 6 6.65
    endloop
  endfacet
  facet normal 2.2747e-16 -0.707107 0.707107
    outer loop
      vertex 10.4 6.96985 3.66512
      vertex 10.4 7.33488 4.03015
      vertex 7.8 7.33488 4.03015
    endloop
  endfacet
  facet normal 1.20776e-16 -0.707107 0.707107
    outer loop
      vertex 7.8 6.96985 3.66512
      vertex 10.4 6.96985 3.66512
      vertex 7.8 7.33488 4.03015
    endloop
  endfacet
  facet normal 5.16976e-17 -0.987688 0.156434
    outer loop
      vertex 7.8 7.56924 4.49012
      vertex 10.4 7.65 5
      vertex 7.8 7.65 5
    endloop
  endfacet
  facet normal 5.34391e-17 -0.987688 0.156434
    outer loop
      vertex 7.8 7.56924 4.49012
      vertex 10.4 7.56924 4.49012
      vertex 10.4 7.65 5
    endloop
  endfacet
  facet normal 1.44753e-16 -0.45399 0.891007
    outer loop
      vertex 7.8 6.50988 3.43076
      vertex 10.4 6.96985 3.66512
      vertex 7.8 6.96985 3.66512
    endloop
  endfacet
  facet normal 1.52187e-16 -0.45399 0.891007
    outer loop
      vertex 7.8 6.50988 3.43076
      vertex 10.4 6.50988 3.43076
      vertex 10.4 6.96985 3.66512
    endloop
  endfacet
  facet normal -3.04374e-16 0.45399 -0.891007
    outer loop
      vertex 7.8 5.03015 6.33488
      vertex 10.4 5.49012 6.56924
      vertex 10.4 5.03015 6.33488
    endloop
  endfacet
  facet normal -2.99846e-16 0.45399 -0.891007
    outer loop
      vertex 7.8 5.03015 6.33488
      vertex 7.8 5.49012 6.56924
      vertex 10.4 5.49012 6.56924
    endloop
  endfacet
  facet normal 1.55093e-16 -0.891007 0.45399
    outer loop
      vertex 7.8 7.33488 4.03015
      vertex 10.4 7.56924 4.49012
      vertex 7.8 7.56924 4.49012
    endloop
  endfacet
  facet normal 1.55086e-16 -0.891007 0.45399
    outer loop
      vertex 7.8 7.33488 4.03015
      vertex 10.4 7.33488 4.03015
      vertex 10.4 7.56924 4.49012
    endloop
  endfacet
  facet normal 1.55086e-16 0.891007 0.45399
    outer loop
      vertex 7.8 4.66512 4.03015
      vertex 10.4 4.43076 4.49012
      vertex 10.4 4.66512 4.03015
    endloop
  endfacet
  facet normal 1.55093e-16 0.891007 0.45399
    outer loop
      vertex 7.8 4.66512 4.03015
      vertex 7.8 4.43076 4.49012
      vertex 10.4 4.43076 4.49012
    endloop
  endfacet
  facet normal 1.60247e-16 0.5 0.866025
    outer loop
      vertex 10.4 6 1.95
      vertex 12.8 3.35862 3.475
      vertex 12.8 6 1.95
    endloop
  endfacet
  facet normal 1.21336e-16 0.5 0.866025
    outer loop
      vertex 10.4 6 1.95
      vertex 10.4 3.35862 3.475
      vertex 12.8 3.35862 3.475
    endloop
  endfacet
  facet normal -0 1 2.91206e-16
    outer loop
      vertex 10.4 3.35862 6.525
      vertex 12.8 3.35862 6.525
      vertex 12.8 3.35862 3.475
    endloop
  endfacet
  facet normal 5.38839e-32 1 2.91206e-16
    outer loop
      vertex 10.4 3.35862 3.475
      vertex 10.4 3.35862 6.525
      vertex 12.8 3.35862 3.475
    endloop
  endfacet
  facet normal 2.42672e-16 -0.5 0.866025
    outer loop
      vertex 10.4 6 1.95
      vertex 12.8 8.64138 3.475
      vertex 10.4 8.64138 3.475
    endloop
  endfacet
  facet normal 1.60247e-16 -0.5 0.866025
    outer loop
      vertex 10.4 6 1.95
      vertex 12.8 6 1.95
      vertex 12.8 8.64138 3.475
    endloop
  endfacet
  facet normal 0 0.5 -0.866025
    outer loop
      vertex 10.4 6 8.05
      vertex 12.8 6 8.05
      vertex 12.8 3.35862 6.525
    endloop
  endfacet
  facet normal 0 0.5 -0.866025
    outer loop
      vertex 10.4 3.35862 6.525
      vertex 10.4 6 8.05
      vertex 12.8 3.35862 6.525
    endloop
  endfacet
  facet normal 1 0 0
    outer loop
      vertex 10.4 6 3.35
      vertex 10.4 5.49012 3.43076
      vertex 10.4 6 1.95
    endloop
  endfacet
  facet normal 1 -1.11765e-15 -5.69472e-16
    outer loop
      vertex 10.4 7.33488 5.96985
      vertex 10.4 7.56924 5.50988
      vertex 10.4 8.64138 6.525
    endloop
  endfacet
  facet normal 1 0 0
    outer loop
      vertex 10.4 6 1.95
      vertex 10.4 5.49012 3.43076
      vertex 10.4 5.03015 3.66512
    endloop
  endfacet
  facet normal 1 -0 0
    outer loop
      vertex 10.4 7.33488 4.03015
      vertex 10.4 8.64138 3.475
      vertex 10.4 7.56924 4.49012
    endloop
  endfacet
  facet normal 1 -0 0
    outer loop
      vertex 10.4 3.35862 3.475
      vertex 10.4 6 1.95
      vertex 10.4 5.03015 3.66512
    endloop
  endfacet
  facet normal 1 0 0
    outer loop
      vertex 10.4 3.35862 3.475
      vertex 10.4 4.66512 4.03015
      vertex 10.4 4.43076 4.49012
    endloop
  endfacet
  facet normal 1 0 0
    outer loop
      vertex 10.4 3.35862 3.475
      vertex 10.4 5.03015 3.66512
      vertex 10.4 4.66512 4.03015
    endloop
  endfacet
  facet normal 1 0 0
    outer loop
      vertex 10.4 4.35 5
      vertex 10.4 3.35862 3.475
      vertex 10.4 4.43076 4.49012
    endloop
  endfacet
  facet normal 1 8.95903e-16 -5.82412e-16
    outer loop
      vertex 10.4 3.35862 6.525
      vertex 10.4 3.35862 3.475
      vertex 10.4 4.35 5
    endloop
  endfacet
  facet normal 1 1.44078e-15 -2.28197e-16
    outer loop
      vertex 10.4 3.35862 6.525
      vertex 10.4 4.35 5
      vertex 10.4 4.43076 5.50988
    endloop
  endfacet
  facet normal 1 -4.96972e-16 -4.36933e-15
    outer loop
      vertex 10.4 3.35862 6.525
      vertex 10.4 4.66512 5.96985
      vertex 10.4 5.03015 6.33488
    endloop
  endfacet
  facet normal 1 1.11765e-15 -5.69472e-16
    outer loop
      vertex 10.4 3.35862 6.525
      vertex 10.4 4.43076 5.50988
      vertex 10.4 4.66512 5.96985
    endloop
  endfacet
  facet normal 1 0 0
    outer loop
      vertex 10.4 6 8.05
      vertex 10.4 3.35862 6.525
      vertex 10.4 5.03015 6.33488
    endloop
  endfacet
  facet normal 1 0 0
    outer loop
      vertex 10.4 6 8.05
      vertex 10.4 5.03015 6.33488
      vertex 10.4 5.49012 6.56924
    endloop
  endfacet
  facet normal 1 0 0
    outer loop
      vertex 10.4 6 8.05
      vertex 10.4 6 6.65
      vertex 10.4 6.50988 6.56924
    endloop
  endfacet
  facet normal 1 0 0
    outer loop
      vertex 10.4 6 8.05
      vertex 10.4 5.49012 6.56924
      vertex 10.4 6 6.65
    endloop
  endfacet
  facet normal 1 0 0
    outer loop
      vertex 10.4 6 8.05
      vertex 10.4 6.50988 6.56924
      vertex 10.4 6.96985 6.33488
    endloop
  endfacet
  facet normal 1 0 0
    outer loop
      vertex 10.4 6 8.05
      vertex 10.4 6.96985 6.33488
      vertex 10.4 8.64138 6.525
    endloop
  endfacet
  facet normal 1 4.96972e-16 -4.36933e-15
    outer loop
      vertex 10.4 6.96985 6.33488
      vertex 10.4 7.33488 5.96985
      vertex 10.4 8.64138 6.525
    endloop
  endfacet
  facet normal 1 -1.44078e-15 -2.28197e-16
    outer loop
      vertex 10.4 8.64138 6.525
      vertex 10.4 7.56924 5.50988
      vertex 10.4 7.65 5
    endloop
  endfacet
  facet normal 1 -8.95903e-16 -5.82412e-16
    outer loop
      vertex 10.4 8.64138 6.525
      vertex 10.4 7.65 5
      vertex 10.4 8.64138 3.475
    endloop
  endfacet
  facet normal 1 0 0
    outer loop
      vertex 10.4 7.65 5
      vertex 10.4 7.56924 4.49012
      vertex 10.4 8.64138 3.475
    endloop
  endfacet
  facet normal 1 -0 0
    outer loop
      vertex 10.4 6.96985 3.66512
      vertex 10.4 8.64138 3.475
      vertex 10.4 7.33488 4.03015
    endloop
  endfacet
  facet normal 1 0 0
    outer loop
      vertex 10.4 8.64138 3.475
      vertex 10.4 6.96985 3.66512
      vertex 10.4 6 1.95
    endloop
  endfacet
  facet normal 1 0 0
    outer loop
      vertex 10.4 6.96985 3.66512
      vertex 10.4 6.50988 3.43076
      vertex 10.4 6 1.95
    endloop
  endfacet
  facet normal 1 0 0
    outer loop
      vertex 10.4 6.50988 3.43076
      vertex 10.4 6 3.35
      vertex 10.4 6 1.95
    endloop
  endfacet
  facet normal 0 -0.5 -0.866025
    outer loop
      vertex 12.8 8.64138 6.525
      vertex 12.8 6 8.05
      vertex 10.4 6 8.05
    endloop
  endfacet
  facet normal 0 -0.5 -0.866025
    outer loop
      vertex 10.4 8.64138 6.525
      vertex 12.8 8.64138 6.525
      vertex 10.4 6 8.05
    endloop
  endfacet
  facet normal 0 -1 0
    outer loop
      vertex 12.8 8.64138 3.475
      vertex 12.8 8.64138 6.525
      vertex 10.4 8.64138 6.525
    endloop
  endfacet
  facet normal 0 -1 0
    outer loop
      vertex 10.4 8.64138 3.475
      vertex 12.8 8.64138 3.475
      vertex 10.4 8.64138 6.525
    endloop
  endfacet
  facet normal -2.22045e-16 0 -1
    outer loop
      vertex -7.8 0 0
      vertex -12.8 0 1.11022e-15
      vertex -12.8 11 1.11022e-15
    endloop
  endfacet
  facet normal -2.22045e-16 -0 -1
    outer loop
      vertex -7.8 11 0
      vertex -7.8 0 0
      vertex -12.8 11 1.11022e-15
    endloop
  endfacet
  facet normal 1 0 -2.65128e-16
    outer loop
      vertex -7.8 6 3.35
      vertex -7.8 0 0
      vertex -7.8 11 0
    endloop
  endfacet
  facet normal 1 -3.45466e-16 -5.47164e-17
    outer loop
      vertex -7.8 4.43076 4.49012
      vertex -7.8 4.35 5
      vertex -7.8 0 0
    endloop
  endfacet
  facet normal 1 -3.27125e-17 -2.06538e-16
    outer loop
      vertex -7.8 5.49012 3.43076
      vertex -7.8 0 0
      vertex -7.8 6 3.35
    endloop
  endfacet
  facet normal 1 -7.26624e-17 -1.42608e-16
    outer loop
      vertex -7.8 5.03015 3.66512
      vertex -7.8 0 0
      vertex -7.8 5.49012 3.43076
    endloop
  endfacet
  facet normal 1 9.23445e-16 -1.5097e-15
    outer loop
      vertex -7.8 4.66512 4.03015
      vertex -7.8 0 0
      vertex -7.8 5.03015 3.66512
    endloop
  endfacet
  facet normal 1 -2.64394e-16 -1.34716e-16
    outer loop
      vertex -7.8 4.43076 4.49012
      vertex -7.8 0 0
      vertex -7.8 4.66512 4.03015
    endloop
  endfacet
  facet normal 1 -1.02089e-16 -2.66454e-16
    outer loop
      vertex -7.8 4.35 5
      vertex -7.8 0 10
      vertex -7.8 0 0
    endloop
  endfacet
  facet normal 1 1.72733e-16 -2.73582e-17
    outer loop
      vertex -7.8 4.43076 5.50988
      vertex -7.8 0 10
      vertex -7.8 4.35 5
    endloop
  endfacet
  facet normal 1 1.32197e-16 -6.73578e-17
    outer loop
      vertex -7.8 4.66512 5.96985
      vertex -7.8 0 10
      vertex -7.8 4.43076 5.50988
    endloop
  endfacet
  facet normal 1 1.02145e-16 -1.02145e-16
    outer loop
      vertex -7.8 5.03015 6.33488
      vertex -7.8 0 10
      vertex -7.8 4.66512 5.96985
    endloop
  endfacet
  facet normal 1 7.26624e-17 -1.42608e-16
    outer loop
      vertex -7.8 5.49012 6.56924
      vertex -7.8 0 10
      vertex -7.8 5.03015 6.33488
    endloop
  endfacet
  facet normal 1 3.27125e-17 -2.06538e-16
    outer loop
      vertex -7.8 6 6.65
      vertex -7.8 0 10
      vertex -7.8 5.49012 6.56924
    endloop
  endfacet
  facet normal 1 0 -2.65128e-16
    outer loop
      vertex -7.8 11 10
      vertex -7.8 0 10
      vertex -7.8 6 6.65
    endloop
  endfacet
  facet normal 1 -3.39634e-17 -2.14436e-16
    outer loop
      vertex -7.8 11 10
      vertex -7.8 6 6.65
      vertex -7.8 6.50988 6.56924
    endloop
  endfacet
  facet normal 1 -7.91366e-17 -1.55314e-16
    outer loop
      vertex -7.8 11 10
      vertex -7.8 6.50988 6.56924
      vertex -7.8 6.96985 6.33488
    endloop
  endfacet
  facet normal 1 -1.55314e-16 -7.91366e-17
    outer loop
      vertex -7.8 11 10
      vertex -7.8 7.33488 5.96985
      vertex -7.8 7.56924 5.50988
    endloop
  endfacet
  facet normal 1 -1.15419e-16 -1.15419e-16
    outer loop
      vertex -7.8 11 10
      vertex -7.8 6.96985 6.33488
      vertex -7.8 7.33488 5.96985
    endloop
  endfacet
  facet normal 1 -2.14436e-16 -3.39634e-17
    outer loop
      vertex -7.8 7.65 5
      vertex -7.8 11 10
      vertex -7.8 7.56924 5.50988
    endloop
  endfacet
  facet normal 1 1.32564e-16 -2.66454e-16
    outer loop
      vertex -7.8 11 0
      vertex -7.8 11 10
      vertex -7.8 7.65 5
    endloop
  endfacet
  facet normal 1 4.28873e-16 -6.79267e-17
    outer loop
      vertex -7.8 11 0
      vertex -7.8 7.65 5
      vertex -7.8 7.56924 4.49012
    endloop
  endfacet
  facet normal 1 3.10629e-16 -1.58273e-16
    outer loop
      vertex -7.8 11 0
      vertex -7.8 7.56924 4.49012
      vertex -7.8 7.33488 4.03015
    endloop
  endfacet
  facet normal 1 -1.04345e-15 -1.3897e-15
    outer loop
      vertex -7.8 11 0
      vertex -7.8 7.33488 4.03015
      vertex -7.8 6.96985 3.66512
    endloop
  endfacet
  facet normal 1 3.39634e-17 -2.14436e-16
    outer loop
      vertex -7.8 11 0
      vertex -7.8 6.50988 3.43076
      vertex -7.8 6 3.35
    endloop
  endfacet
  facet normal 1 7.91366e-17 -1.55314e-16
    outer loop
      vertex -7.8 11 0
      vertex -7.8 6.96985 3.66512
      vertex -7.8 6.50988 3.43076
    endloop
  endfacet
  facet normal 0 1 0
    outer loop
      vertex -7.8 11 0
      vertex -12.8 11 1.11022e-15
      vertex -12.8 11 10
    endloop
  endfacet
  facet normal 0 1 0
    outer loop
      vertex -7.8 11 10
      vertex -7.8 11 0
      vertex -12.8 11 10
    endloop
  endfacet
  facet normal -1 -0 0
    outer loop
      vertex -12.8 4.66512 5.96985
      vertex -12.8 4.43076 5.50988
      vertex -12.8 0 10
    endloop
  endfacet
  facet normal -1 0 -0
    outer loop
      vertex -12.8 6 3.35
      vertex -12.8 11 1.11022e-15
      vertex -12.8 0 1.11022e-15
    endloop
  endfacet
  facet normal -1 -0 0
    outer loop
      vertex -12.8 6 3.35
      vertex -12.8 0 1.11022e-15
      vertex -12.8 5.49012 3.43076
    endloop
  endfacet
  facet normal -1 0 -0
    outer loop
      vertex -12.8 6.50988 3.43076
      vertex -12.8 11 1.11022e-15
      vertex -12.8 6 3.35
    endloop
  endfacet
  facet normal -1 0 -0
    outer loop
      vertex -12.8 6.96985 3.66512
      vertex -12.8 11 1.11022e-15
      vertex -12.8 6.50988 3.43076
    endloop
  endfacet
  facet normal -1 2.31773e-15 2.54857e-15
    outer loop
      vertex -12.8 7.33488 4.03015
      vertex -12.8 11 1.11022e-15
      vertex -12.8 6.96985 3.66512
    endloop
  endfacet
  facet normal -1 -3.10629e-16 1.58273e-16
    outer loop
      vertex -12.8 7.56924 4.49012
      vertex -12.8 11 1.11022e-15
      vertex -12.8 7.33488 4.03015
    endloop
  endfacet
  facet normal -1 -4.28873e-16 6.79267e-17
    outer loop
      vertex -12.8 7.65 5
      vertex -12.8 11 1.11022e-15
      vertex -12.8 7.56924 4.49012
    endloop
  endfacet
  facet normal -1 -2.65128e-16 1.77636e-16
    outer loop
      vertex -12.8 11 10
      vertex -12.8 11 1.11022e-15
      vertex -12.8 7.65 5
    endloop
  endfacet
  facet normal -1 0 0
    outer loop
      vertex -12.8 11 10
      vertex -12.8 7.65 5
      vertex -12.8 7.56924 5.50988
    endloop
  endfacet
  facet normal -1 0 0
    outer loop
      vertex -12.8 11 10
      vertex -12.8 7.56924 5.50988
      vertex -12.8 7.33488 5.96985
    endloop
  endfacet
  facet normal -1 0 0
    outer loop
      vertex -12.8 11 10
      vertex -12.8 6.96985 6.33488
      vertex -12.8 6.50988 6.56924
    endloop
  endfacet
  facet normal -1 0 0
    outer loop
      vertex -12.8 11 10
      vertex -12.8 7.33488 5.96985
      vertex -12.8 6.96985 6.33488
    endloop
  endfacet
  facet normal -1 0 0
    outer loop
      vertex -12.8 6 6.65
      vertex -12.8 11 10
      vertex -12.8 6.50988 6.56924
    endloop
  endfacet
  facet normal -1 0 0
    outer loop
      vertex -12.8 0 10
      vertex -12.8 11 10
      vertex -12.8 6 6.65
    endloop
  endfacet
  facet normal -1 0 0
    outer loop
      vertex -12.8 0 10
      vertex -12.8 6 6.65
      vertex -12.8 5.49012 6.56924
    endloop
  endfacet
  facet normal -1 -0 0
    outer loop
      vertex -12.8 5.49012 6.56924
      vertex -12.8 5.03015 6.33488
      vertex -12.8 0 10
    endloop
  endfacet
  facet normal -1 -0 0
    outer loop
      vertex -12.8 5.03015 6.33488
      vertex -12.8 4.66512 5.96985
      vertex -12.8 0 10
    endloop
  endfacet
  facet normal -1 0 0
    outer loop
      vertex -12.8 4.35 5
      vertex -12.8 0 10
      vertex -12.8 4.43076 5.50988
    endloop
  endfacet
  facet normal -1 2.04179e-16 1.77636e-16
    outer loop
      vertex -12.8 0 1.11022e-15
      vertex -12.8 0 10
      vertex -12.8 4.35 5
    endloop
  endfacet
  facet normal -1 3.45466e-16 5.47164e-17
    outer loop
      vertex -12.8 0 1.11022e-15
      vertex -12.8 4.35 5
      vertex -12.8 4.43076 4.49012
    endloop
  endfacet
  facet normal -1 2.64394e-16 1.34716e-16
    outer loop
      vertex -12.8 0 1.11022e-15
      vertex -12.8 4.43076 4.49012
      vertex -12.8 4.66512 4.03015
    endloop
  endfacet
  facet normal -1 0 0
    outer loop
      vertex -12.8 0 1.11022e-15
      vertex -12.8 5.03015 3.66512
      vertex -12.8 5.49012 3.43076
    endloop
  endfacet
  facet normal -1 -2.05118e-15 2.81512e-15
    outer loop
      vertex -12.8 0 1.11022e-15
      vertex -12.8 4.66512 4.03015
      vertex -12.8 5.03015 3.66512
    endloop
  endfacet
  facet normal 0 0 1
    outer loop
      vertex -12.8 11 10
      vertex -12.8 0 10
      vertex -7.8 0 10
    endloop
  endfacet
  facet normal 0 0 1
    outer loop
      vertex -7.8 11 10
      vertex -12.8 11 10
      vertex -7.8 0 10
    endloop
  endfacet
  facet normal 1.75449e-16 0.156434 0.987688
    outer loop
      vertex -12.8 6 3.35
      vertex -7.8 5.49012 3.43076
      vertex -7.8 6 3.35
    endloop
  endfacet
  facet normal 1.74738e-16 0.156434 0.987688
    outer loop
      vertex -12.8 6 3.35
      vertex -12.8 5.49012 3.43076
      vertex -7.8 5.49012 3.43076
    endloop
  endfacet
  facet normal -1.75449e-16 0.156434 -0.987688
    outer loop
      vertex -12.8 5.49012 6.56924
      vertex -7.8 6 6.65
      vertex -7.8 5.49012 6.56924
    endloop
  endfacet
  facet normal -1.77426e-16 0.156434 -0.987688
    outer loop
      vertex -12.8 5.49012 6.56924
      vertex -12.8 6 6.65
      vertex -7.8 6 6.65
    endloop
  endfacet
  facet normal -8.06483e-17 -0.891007 -0.45399
    outer loop
      vertex -12.8 7.56924 5.50988
      vertex -7.8 7.33488 5.96985
      vertex -12.8 7.33488 5.96985
    endloop
  endfacet
  facet normal -8.06449e-17 -0.891007 -0.45399
    outer loop
      vertex -12.8 7.56924 5.50988
      vertex -7.8 7.56924 5.50988
      vertex -7.8 7.33488 5.96985
    endloop
  endfacet
  facet normal 2.77883e-17 0.987688 0.156434
    outer loop
      vertex -12.8 4.43076 4.49012
      vertex -7.8 4.35 5
      vertex -7.8 4.43076 4.49012
    endloop
  endfacet
  facet normal 2.9571e-17 0.987688 0.156434
    outer loop
      vertex -12.8 4.43076 4.49012
      vertex -12.8 4.35 5
      vertex -7.8 4.35 5
    endloop
  endfacet
  facet normal -1.18284e-16 -0.707107 -0.707107
    outer loop
      vertex -12.8 7.33488 5.96985
      vertex -7.8 6.96985 6.33488
      vertex -12.8 6.96985 6.33488
    endloop
  endfacet
  facet normal -1.25607e-16 -0.707107 -0.707107
    outer loop
      vertex -12.8 7.33488 5.96985
      vertex -7.8 7.33488 5.96985
      vertex -7.8 6.96985 6.33488
    endloop
  endfacet
  facet normal 1.74738e-16 -0.156434 0.987688
    outer loop
      vertex -12.8 6 3.35
      vertex -7.8 6.50988 3.43076
      vertex -12.8 6.50988 3.43076
    endloop
  endfacet
  facet normal 1.75449e-16 -0.156434 0.987688
    outer loop
      vertex -12.8 6 3.35
      vertex -7.8 6 3.35
      vertex -7.8 6.50988 3.43076
    endloop
  endfacet
  facet normal -2.77883e-17 0.987688 -0.156434
    outer loop
      vertex -12.8 4.35 5
      vertex -7.8 4.43076 5.50988
      vertex -7.8 4.35 5
    endloop
  endfacet
  facet normal -2.68828e-17 0.987688 -0.156434
    outer loop
      vertex -12.8 4.35 5
      vertex -12.8 4.43076 5.50988
      vertex -7.8 4.43076 5.50988
    endloop
  endfacet
  facet normal -2.9571e-17 -0.987688 -0.156434
    outer loop
      vertex -12.8 7.65 5
      vertex -7.8 7.56924 5.50988
      vertex -12.8 7.56924 5.50988
    endloop
  endfacet
  facet normal -2.77883e-17 -0.987688 -0.156434
    outer loop
      vertex -12.8 7.65 5
      vertex -7.8 7.65 5
      vertex -7.8 7.56924 5.50988
    endloop
  endfacet
  facet normal 2.68828e-17 -0.987688 0.156434
    outer loop
      vertex -12.8 7.56924 4.49012
      vertex -7.8 7.65 5
      vertex -12.8 7.65 5
    endloop
  endfacet
  facet normal 2.77883e-17 -0.987688 0.156434
    outer loop
      vertex -12.8 7.56924 4.49012
      vertex -7.8 7.56924 4.49012
      vertex -7.8 7.65 5
    endloop
  endfacet
  facet normal 1.25607e-16 0.707107 0.707107
    outer loop
      vertex -12.8 4.66512 4.03015
      vertex -7.8 4.66512 4.03015
      vertex -7.8 5.03015 3.66512
    endloop
  endfacet
  facet normal 1.25607e-16 0.707107 0.707107
    outer loop
      vertex -12.8 5.03015 3.66512
      vertex -12.8 4.66512 4.03015
      vertex -7.8 5.03015 3.66512
    endloop
  endfacet
  facet normal 1.58275e-16 0.45399 0.891007
    outer loop
      vertex -12.8 5.49012 3.43076
      vertex -7.8 5.03015 3.66512
      vertex -7.8 5.49012 3.43076
    endloop
  endfacet
  facet normal 1.5592e-16 0.45399 0.891007
    outer loop
      vertex -12.8 5.49012 3.43076
      vertex -12.8 5.03015 3.66512
      vertex -7.8 5.03015 3.66512
    endloop
  endfacet
  facet normal -1.25607e-16 0.707107 -0.707107
    outer loop
      vertex -12.8 4.66512 5.96985
      vertex -7.8 5.03015 6.33488
      vertex -7.8 4.66512 5.96985
    endloop
  endfacet
  facet normal -1.29037e-16 0.707107 -0.707107
    outer loop
      vertex -12.8 4.66512 5.96985
      vertex -12.8 5.03015 6.33488
      vertex -7.8 5.03015 6.33488
    endloop
  endfacet
  facet normal -8.06449e-17 0.891007 -0.45399
    outer loop
      vertex -12.8 4.43076 5.50988
      vertex -7.8 4.66512 5.96985
      vertex -7.8 4.43076 5.50988
    endloop
  endfacet
  facet normal -8.06483e-17 0.891007 -0.45399
    outer loop
      vertex -12.8 4.43076 5.50988
      vertex -12.8 4.66512 5.96985
      vertex -7.8 4.66512 5.96985
    endloop
  endfacet
  facet normal -1.74738e-16 -0.156434 -0.987688
    outer loop
      vertex -12.8 6.50988 6.56924
      vertex -7.8 6 6.65
      vertex -12.8 6 6.65
    endloop
  endfacet
  facet normal -1.75449e-16 -0.156434 -0.987688
    outer loop
      vertex -12.8 6.50988 6.56924
      vertex -7.8 6.50988 6.56924
      vertex -7.8 6 6.65
    endloop
  endfacet
  facet normal -1.5592e-16 -0.45399 -0.891007
    outer loop
      vertex -12.8 6.96985 6.33488
      vertex -7.8 6.50988 6.56924
      vertex -12.8 6.50988 6.56924
    endloop
  endfacet
  facet normal -1.58275e-16 -0.45399 -0.891007
    outer loop
      vertex -12.8 6.96985 6.33488
      vertex -7.8 6.96985 6.33488
      vertex -7.8 6.50988 6.56924
    endloop
  endfacet
  facet normal 8.06483e-17 -0.891007 0.45399
    outer loop
      vertex -12.8 7.33488 4.03015
      vertex -7.8 7.56924 4.49012
      vertex -12.8 7.56924 4.49012
    endloop
  endfacet
  facet normal 8.06449e-17 -0.891007 0.45399
    outer loop
      vertex -12.8 7.33488 4.03015
      vertex -7.8 7.33488 4.03015
      vertex -7.8 7.56924 4.49012
    endloop
  endfacet
  facet normal 1.5592e-16 -0.45399 0.891007
    outer loop
      vertex -12.8 6.50988 3.43076
      vertex -7.8 6.96985 3.66512
      vertex -12.8 6.96985 3.66512
    endloop
  endfacet
  facet normal 1.58275e-16 -0.45399 0.891007
    outer loop
      vertex -12.8 6.50988 3.43076
      vertex -7.8 6.50988 3.43076
      vertex -7.8 6.96985 3.66512
    endloop
  endfacet
  facet normal 8.06449e-17 0.891007 0.45399
    outer loop
      vertex -12.8 4.66512 4.03015
      vertex -7.8 4.43076 4.49012
      vertex -7.8 4.66512 4.03015
    endloop
  endfacet
  facet normal 8.06483e-17 0.891007 0.45399
    outer loop
      vertex -12.8 4.66512 4.03015
      vertex -12.8 4.43076 4.49012
      vertex -7.8 4.43076 4.49012
    endloop
  endfacet
  facet normal -1.58275e-16 0.45399 -0.891007
    outer loop
      vertex -12.8 5.03015 6.33488
      vertex -7.8 5.49012 6.56924
      vertex -7.8 5.03015 6.33488
    endloop
  endfacet
  facet normal -1.5592e-16 0.45399 -0.891007
    outer loop
      vertex -12.8 5.03015 6.33488
      vertex -12.8 5.49012 6.56924
      vertex -7.8 5.49012 6.56924
    endloop
  endfacet
  facet normal 1.29037e-16 -0.707107 0.707107
    outer loop
      vertex -7.8 6.96985 3.66512
      vertex -7.8 7.33488 4.03015
      vertex -12.8 7.33488 4.03015
    endloop
  endfacet
  facet normal 1.25607e-16 -0.707107 0.707107
    outer loop
      vertex -12.8 6.96985 3.66512
      vertex -7.8 6.96985 3.66512
      vertex -12.8 7.33488 4.03015
    endloop
  endfacet
  facet normal -0.5 0.866025 0
    outer loop
      vertex -16.1081 -9.3 5
      vertex -17.3205 -10 0
      vertex -17.3205 -10 10
    endloop
  endfacet
  facet normal -0.5 0.866025 5.14265e-15
    outer loop
      vertex -14.7653 -8.52472 3.40783
      vertex -14.7224 -8.5 3.4
      vertex -17.3205 -10 0
    endloop
  endfacet
  facet normal -0.5 0.866025 7.1141e-16
    outer loop
      vertex -16.047 -9.26476 4.55502
      vertex -17.3205 -10 0
      vertex -16.1081 -9.3 5
    endloop
  endfacet
  facet normal -0.5 0.866025 -3.40143e-15
    outer loop
      vertex -16.0403 -9.26085 4.50557
      vertex -17.3205 -10 0
      vertex -16.047 -9.26476 4.55502
    endloop
  endfacet
  facet normal -0.5 0.866025 -2.80306e-15
    outer loop
      vertex -16.0206 -9.24948 4.46097
      vertex -17.3205 -10 0
      vertex -16.0403 -9.26085 4.50557
    endloop
  endfacet
  facet normal -0.5 0.866025 1.7771e-15
    outer loop
      vertex -15.8434 -9.14721 4.05954
      vertex -17.3205 -10 0
      vertex -16.0206 -9.24948 4.46097
    endloop
  endfacet
  facet normal -0.5 0.866025 -6.04494e-17
    outer loop
      vertex -15.5675 -8.98793 3.74097
      vertex -17.3205 -10 0
      vertex -15.8434 -9.14721 4.05954
    endloop
  endfacet
  facet normal -0.5 0.866025 -7.58263e-15
    outer loop
      vertex -15.5369 -8.97023 3.70557
      vertex -17.3205 -10 0
      vertex -15.5675 -8.98793 3.74097
    endloop
  endfacet
  facet normal -0.5 0.866025 7.13241e-15
    outer loop
      vertex -15.4983 -8.94793 3.68285
      vertex -17.3205 -10 0
      vertex -15.5369 -8.97023 3.70557
    endloop
  endfacet
  facet normal -0.5 0.866025 -6.97973e-16
    outer loop
      vertex -15.1506 -8.74721 3.47831
      vertex -17.3205 -10 0
      vertex -15.4983 -8.94793 3.68285
    endloop
  endfacet
  facet normal -0.5 0.866025 -8.36989e-16
    outer loop
      vertex -14.7653 -8.52472 3.40783
      vertex -17.3205 -10 0
      vertex -15.1506 -8.74721 3.47831
    endloop
  endfacet
  facet normal -0.5 0.866025 -4.60634e-16
    outer loop
      vertex -14.7224 -8.5 3.4
      vertex -14.2942 -8.25279 3.47831
      vertex -17.3205 -10 0
    endloop
  endfacet
  facet normal -0.5 0.866025 -3.64782e-17
    outer loop
      vertex -14.2942 -8.25279 3.47831
      vertex -5.19615 -3 0
      vertex -17.3205 -10 0
    endloop
  endfacet
  facet normal -0.5 0.866025 -1.35291e-15
    outer loop
      vertex -13.908 -8.02977 3.70557
      vertex -5.19615 -3 0
      vertex -14.2942 -8.25279 3.47831
    endloop
  endfacet
  facet normal -0.5 0.866025 -1.64057e-14
    outer loop
      vertex -13.8773 -8.01207 3.74097
      vertex -5.19615 -3 0
      vertex -13.908 -8.02977 3.70557
    endloop
  endfacet
  facet normal -0.5 0.866025 3.49381e-15
    outer loop
      vertex -13.6014 -7.85279 4.05954
      vertex -5.19615 -3 0
      vertex -13.8773 -8.01207 3.74097
    endloop
  endfacet
  facet normal -0.5 0.866025 -4.69797e-17
    outer loop
      vertex -13.4243 -7.75052 4.46097
      vertex -5.19615 -3 0
      vertex -13.6014 -7.85279 4.05954
    endloop
  endfacet
  facet normal -0.5 0.866025 5.89301e-15
    outer loop
      vertex -13.4046 -7.73915 4.50557
      vertex -5.19615 -3 0
      vertex -13.4243 -7.75052 4.46097
    endloop
  endfacet
  facet normal -0.5 0.866025 -1.19523e-14
    outer loop
      vertex -13.3978 -7.73524 4.55502
      vertex -5.19615 -3 0
      vertex -13.4046 -7.73915 4.50557
    endloop
  endfacet
  facet normal -0.5 0.866025 8.81276e-16
    outer loop
      vertex -13.3368 -7.7 5
      vertex -5.19615 -3 0
      vertex -13.3978 -7.73524 4.55502
    endloop
  endfacet
  facet normal -0.5 0.866025 0
    outer loop
      vertex -5.19615 -3 10
      vertex -5.19615 -3 0
      vertex -13.3368 -7.7 5
    endloop
  endfacet
  facet normal -0.5 0.866025 1.41004e-15
    outer loop
      vertex -5.19615 -3 10
      vertex -13.3368 -7.7 5
      vertex -13.4046 -7.73915 5.49443
    endloop
  endfacet
  facet normal -0.5 0.866025 0
    outer loop
      vertex -5.19615 -3 10
      vertex -13.4046 -7.73915 5.49443
      vertex -13.5817 -7.84142 5.89585
    endloop
  endfacet
  facet normal -0.5 0.866025 0
    outer loop
      vertex -5.19615 -3 10
      vertex -13.5817 -7.84142 5.89585
      vertex -13.6014 -7.85279 5.94046
    endloop
  endfacet
  facet normal -0.5 0.866025 -1.80388e-14
    outer loop
      vertex -5.19615 -3 10
      vertex -13.908 -8.02977 6.29443
      vertex -13.9466 -8.05207 6.31715
    endloop
  endfacet
  facet normal -0.5 0.866025 -1.45829e-15
    outer loop
      vertex -5.19615 -3 10
      vertex -13.6014 -7.85279 5.94046
      vertex -13.908 -8.02977 6.29443
    endloop
  endfacet
  facet normal -0.5 0.866025 1.2527e-15
    outer loop
      vertex -14.2942 -8.25279 6.52169
      vertex -5.19615 -3 10
      vertex -13.9466 -8.05207 6.31715
    endloop
  endfacet
  facet normal -0.5 0.866025 7.29565e-17
    outer loop
      vertex -17.3205 -10 10
      vertex -5.19615 -3 10
      vertex -14.2942 -8.25279 6.52169
    endloop
  endfacet
  facet normal -0.5 0.866025 6.14179e-16
    outer loop
      vertex -17.3205 -10 10
      vertex -14.2942 -8.25279 6.52169
      vertex -14.7224 -8.5 6.6
    endloop
  endfacet
  facet normal -0.5 0.866025 2.31782e-16
    outer loop
      vertex -17.3205 -10 10
      vertex -14.7224 -8.5 6.6
      vertex -15.1506 -8.74721 6.52169
    endloop
  endfacet
  facet normal -0.5 0.866025 2.09392e-15
    outer loop
      vertex -17.3205 -10 10
      vertex -15.1506 -8.74721 6.52169
      vertex -15.1892 -8.76952 6.49896
    endloop
  endfacet
  facet normal -0.5 0.866025 4.65315e-16
    outer loop
      vertex -17.3205 -10 10
      vertex -15.1892 -8.76952 6.49896
      vertex -15.5369 -8.97023 6.29443
    endloop
  endfacet
  facet normal -0.5 0.866025 1.08809e-16
    outer loop
      vertex -17.3205 -10 10
      vertex -15.5369 -8.97023 6.29443
      vertex -15.8434 -9.14721 5.94046
    endloop
  endfacet
  facet normal -0.5 0.866025 -1.75878e-15
    outer loop
      vertex -17.3205 -10 10
      vertex -15.8434 -9.14721 5.94046
      vertex -16.0206 -9.24948 5.53903
    endloop
  endfacet
  facet normal -0.5 0.866025 -3.07329e-16
    outer loop
      vertex -17.3205 -10 10
      vertex -16.0403 -9.26085 5.49443
      vertex -16.1081 -9.3 5
    endloop
  endfacet
  facet normal -0.5 0.866025 2.63817e-15
    outer loop
      vertex -17.3205 -10 10
      vertex -16.0206 -9.24948 5.53903
      vertex -16.0403 -9.26085 5.49443
    endloop
  endfacet
  facet normal -0.5 0.866025 0
    outer loop
      vertex 1.73205 1 1.70519e-16
      vertex 0 0 0
      vertex 0 0 5.55112e-16
    endloop
  endfacet
  facet normal -0.5 0.866025 0
    outer loop
      vertex 1.73205 1 1.70519e-16
      vertex 1.73205 1 0
      vertex 0 0 0
    endloop
  endfacet
  facet normal 0 0 -1
    outer loop
      vertex -15 -3 0
      vertex -15 0 0
      vertex -7.8 0 0
    endloop
  endfacet
  facet normal 0 0 -1
    outer loop
      vertex -14.3205 -15.1962 0
      vertex -17.3205 -10 0
      vertex -5.19615 -3 0
    endloop
  endfacet
  facet normal 0 0 -1
    outer loop
      vertex 0 0 0
      vertex 2.3094 0 0
      vertex 4.04145 -3 0
    endloop
  endfacet
  facet normal 0 0 -1
    outer loop
      vertex -15 -3 0
      vertex -7.8 0 0
      vertex -5.19615 -3 0
    endloop
  endfacet
  facet normal 0 0 -1
    outer loop
      vertex -7.8 0 0
      vertex 0 0 0
      vertex -5.19615 -3 0
    endloop
  endfacet
  facet normal 0 0 -1
    outer loop
      vertex 0 0 0
      vertex 1.73205 1 0
      vertex 2.3094 0 0
    endloop
  endfacet
  facet normal 0 0 -1
    outer loop
      vertex 4.04145 -3 0
      vertex 2.3094 0 0
      vertex 2.5 0 0
    endloop
  endfacet
  facet normal 0 0 -1
    outer loop
      vertex 4.04145 -3 0
      vertex 2.5 0 0
      vertex 12.8 0 0
    endloop
  endfacet
  facet normal 0 0 -1
    outer loop
      vertex 4.04145 -3 0
      vertex 12.8 0 0
      vertex 15 -3 0
    endloop
  endfacet
  facet normal 0 0 -1
    outer loop
      vertex 12.8 0 0
      vertex 15 0 0
      vertex 15 -3 0
    endloop
  endfacet
  facet normal 0 0 -1
    outer loop
      vertex -5.19615 -3 0
      vertex 4.04145 -3 0
      vertex 4.73205 -4.19615 0
    endloop
  endfacet
  facet normal 0 0 -1
    outer loop
      vertex -5.19615 -3 0
      vertex 0 0 0
      vertex 4.04145 -3 0
    endloop
  endfacet
  facet normal 0 -0 -1
    outer loop
      vertex -5.19615 -3 0
      vertex 4.73205 -4.19615 0
      vertex -14.3205 -15.1962 0
    endloop
  endfacet
  facet normal 0.5 -0.866025 2.50386e-16
    outer loop
      vertex -12.7942 -10.8509 3.47831
      vertex -15.8205 -12.5981 2
      vertex 0.803848 -3 2
    endloop
  endfacet
  facet normal 0.5 -0.866025 0
    outer loop
      vertex -14.6081 -11.8981 5
      vertex -15.8205 -12.5981 10
      vertex -15.8205 -12.5981 2
    endloop
  endfacet
  facet normal 0.5 -0.866025 1.94592e-15
    outer loop
      vertex -14.6081 -11.8981 5
      vertex -15.8205 -12.5981 2
      vertex -14.5674 -11.8746 4.70334
    endloop
  endfacet
  facet normal 0.5 -0.866025 3.20135e-16
    outer loop
      vertex -14.5403 -11.8589 5.49443
      vertex -15.8205 -12.5981 10
      vertex -14.6081 -11.8981 5
    endloop
  endfacet
  facet normal 0.5 -0.866025 5.87406e-16
    outer loop
      vertex -14.4615 -11.8135 5.67284
      vertex -15.8205 -12.5981 10
      vertex -14.5403 -11.8589 5.49443
    endloop
  endfacet
  facet normal 0.5 -0.866025 3.98474e-16
    outer loop
      vertex -14.3434 -11.7453 5.94046
      vertex -15.8205 -12.5981 10
      vertex -14.4615 -11.8135 5.67284
    endloop
  endfacet
  facet normal 0.5 -0.866025 -2.72022e-17
    outer loop
      vertex -14.0369 -11.5683 6.29443
      vertex -15.8205 -12.5981 10
      vertex -14.3434 -11.7453 5.94046
    endloop
  endfacet
  facet normal 0.5 -0.866025 -1.09058e-15
    outer loop
      vertex -13.8051 -11.4345 6.43079
      vertex -15.8205 -12.5981 10
      vertex -14.0369 -11.5683 6.29443
    endloop
  endfacet
  facet normal 0.5 -0.866025 9.48807e-16
    outer loop
      vertex -13.6506 -11.3453 6.52169
      vertex -15.8205 -12.5981 10
      vertex -13.8051 -11.4345 6.43079
    endloop
  endfacet
  facet normal 0.5 -0.866025 -1.15891e-16
    outer loop
      vertex -13.2224 -11.0981 6.6
      vertex -15.8205 -12.5981 10
      vertex -13.6506 -11.3453 6.52169
    endloop
  endfacet
  facet normal 0.5 -0.866025 1.68899e-15
    outer loop
      vertex -12.7942 -10.8509 6.52169
      vertex -15.8205 -12.5981 10
      vertex -13.2224 -11.0981 6.6
    endloop
  endfacet
  facet normal 0.5 -0.866025 -7.51366e-15
    outer loop
      vertex -12.408 -10.6278 6.29443
      vertex -15.8205 -12.5981 10
      vertex -12.5625 -10.7171 6.38533
    endloop
  endfacet
  facet normal 0.5 -0.866025 -2.44347e-16
    outer loop
      vertex -12.5625 -10.7171 6.38533
      vertex -15.8205 -12.5981 10
      vertex -12.7942 -10.8509 6.52169
    endloop
  endfacet
  facet normal 0.5 -0.866025 1.99779e-16
    outer loop
      vertex 0.803848 -3 10
      vertex -15.8205 -12.5981 10
      vertex -12.408 -10.6278 6.29443
    endloop
  endfacet
  facet normal 0.5 -0.866025 0
    outer loop
      vertex 0.803848 -3 10
      vertex -12.408 -10.6278 6.29443
      vertex -12.1014 -10.4509 5.94046
    endloop
  endfacet
  facet normal 0.5 -0.866025 0
    outer loop
      vertex 0.803848 -3 10
      vertex -12.1014 -10.4509 5.94046
      vertex -12.0227 -10.4054 5.76204
    endloop
  endfacet
  facet normal 0.5 -0.866025 6.2582e-15
    outer loop
      vertex 0.803848 -3 10
      vertex -12.0227 -10.4054 5.76204
      vertex -11.9046 -10.3372 5.49443
    endloop
  endfacet
  facet normal 0.5 -0.866025 0
    outer loop
      vertex 0.803848 -3 10
      vertex -11.9046 -10.3372 5.49443
      vertex -11.8368 -10.2981 5
    endloop
  endfacet
  facet normal 0.5 -0.866025 0
    outer loop
      vertex 0.803848 -3 10
      vertex -11.8368 -10.2981 5
      vertex 0.803848 -3 2
    endloop
  endfacet
  facet normal 0.5 -0.866025 -2.60732e-15
    outer loop
      vertex -11.8368 -10.2981 5
      vertex -11.8775 -10.3216 4.70334
      vertex 0.803848 -3 2
    endloop
  endfacet
  facet normal 0.5 -0.866025 4.9446e-15
    outer loop
      vertex -11.8775 -10.3216 4.70334
      vertex -11.9046 -10.3372 4.50557
      vertex 0.803848 -3 2
    endloop
  endfacet
  facet normal 0.5 -0.866025 -3.35501e-15
    outer loop
      vertex -11.9046 -10.3372 4.50557
      vertex -11.9833 -10.3827 4.32716
      vertex 0.803848 -3 2
    endloop
  endfacet
  facet normal 0.5 -0.866025 -1.43043e-15
    outer loop
      vertex -11.9833 -10.3827 4.32716
      vertex -12.1014 -10.4509 4.05954
      vertex 0.803848 -3 2
    endloop
  endfacet
  facet normal 0.5 -0.866025 3.26692e-15
    outer loop
      vertex -12.1014 -10.4509 4.05954
      vertex -12.2854 -10.5571 3.84716
      vertex 0.803848 -3 2
    endloop
  endfacet
  facet normal 0.5 -0.866025 -5.03908e-15
    outer loop
      vertex -12.2854 -10.5571 3.84716
      vertex -12.408 -10.6278 3.70557
      vertex 0.803848 -3 2
    endloop
  endfacet
  facet normal 0.5 -0.866025 -1.26048e-15
    outer loop
      vertex -12.408 -10.6278 3.70557
      vertex -12.7942 -10.8509 3.47831
      vertex 0.803848 -3 2
    endloop
  endfacet
  facet normal 0.5 -0.866025 -5.82706e-15
    outer loop
      vertex -15.8205 -12.5981 2
      vertex -12.7942 -10.8509 3.47831
      vertex -13.2224 -11.0981 3.4
    endloop
  endfacet
  facet normal 0.5 -0.866025 -5.98744e-15
    outer loop
      vertex -15.8205 -12.5981 2
      vertex -13.2224 -11.0981 3.4
      vertex -13.3937 -11.197 3.43132
    endloop
  endfacet
  facet normal 0.5 -0.866025 3.99163e-15
    outer loop
      vertex -15.8205 -12.5981 2
      vertex -13.3937 -11.197 3.43132
      vertex -13.6506 -11.3453 3.47831
    endloop
  endfacet
  facet normal 0.5 -0.866025 0
    outer loop
      vertex -15.8205 -12.5981 2
      vertex -13.6506 -11.3453 3.47831
      vertex -13.8824 -11.4791 3.61467
    endloop
  endfacet
  facet normal 0.5 -0.866025 -1.35526e-15
    outer loop
      vertex -15.8205 -12.5981 2
      vertex -13.8824 -11.4791 3.61467
      vertex -14.0369 -11.5683 3.70557
    endloop
  endfacet
  facet normal 0.5 -0.866025 2.91563e-15
    outer loop
      vertex -15.8205 -12.5981 2
      vertex -14.0369 -11.5683 3.70557
      vertex -14.1595 -11.6391 3.84716
    endloop
  endfacet
  facet normal 0.5 -0.866025 -2.77679e-16
    outer loop
      vertex -15.8205 -12.5981 2
      vertex -14.1595 -11.6391 3.84716
      vertex -14.3434 -11.7453 4.05954
    endloop
  endfacet
  facet normal 0.5 -0.866025 -6.02338e-16
    outer loop
      vertex -15.8205 -12.5981 2
      vertex -14.3434 -11.7453 4.05954
      vertex -14.4615 -11.8135 4.32716
    endloop
  endfacet
  facet normal 0.5 -0.866025 -4.19121e-15
    outer loop
      vertex -15.8205 -12.5981 2
      vertex -14.5403 -11.8589 4.50557
      vertex -14.5674 -11.8746 4.70334
    endloop
  endfacet
  facet normal 0.5 -0.866025 -9.03506e-16
    outer loop
      vertex -15.8205 -12.5981 2
      vertex -14.4615 -11.8135 4.32716
      vertex -14.5403 -11.8589 4.50557
    endloop
  endfacet
  facet normal 0 0 1
    outer loop
      vertex -5.19615 -3 10
      vertex -17.3205 -10 10
      vertex -15.8205 -12.5981 10
    endloop
  endfacet
  facet normal 0 0 1
    outer loop
      vertex 15 -3 10
      vertex 12.8 0 10
      vertex 7.8 0 10
    endloop
  endfacet
  facet normal 0 0 1
    outer loop
      vertex 0.803848 -3 10
      vertex -5.19615 -3 10
      vertex -15.8205 -12.5981 10
    endloop
  endfacet
  facet normal -0 0 1
    outer loop
      vertex -7.8 0 10
      vertex -5.19615 -3 10
      vertex -2.5 0 10
    endloop
  endfacet
  facet normal 0 0 1
    outer loop
      vertex 15 0 10
      vertex 12.8 0 10
      vertex 15 -3 10
    endloop
  endfacet
  facet normal 0 0 1
    outer loop
      vertex 15 -3 10
      vertex 7.8 0 10
      vertex 0.803848 -3 10
    endloop
  endfacet
  facet normal 0 0 1
    outer loop
      vertex 7.8 0 10
      vertex 2.5 0 10
      vertex 0.803848 -3 10
    endloop
  endfacet
  facet normal 0 0 1
    outer loop
      vertex 2.5 0 10
      vertex -2.5 0 10
      vertex 0.803848 -3 10
    endloop
  endfacet
  facet normal 0 0 1
    outer loop
      vertex -2.5 0 10
      vertex -5.19615 -3 10
      vertex 0.803848 -3 10
    endloop
  endfacet
  facet normal 0 0 1
    outer loop
      vertex -7.8 0 10
      vertex -12.8 0 10
      vertex -15 -3 10
    endloop
  endfacet
  facet normal 0 0 1
    outer loop
      vertex -7.8 0 10
      vertex -15 -3 10
      vertex -5.19615 -3 10
    endloop
  endfacet
  facet normal -0 0 1
    outer loop
      vertex -15 0 10
      vertex -15 -3 10
      vertex -12.8 0 10
    endloop
  endfacet
  facet normal -0.866025 -0.5 -0
    outer loop
      vertex -14.3205 -15.1962 2
      vertex -15.8205 -12.5981 2
      vertex -14.3205 -15.1962 0
    endloop
  endfacet
  facet normal -0.866025 -0.5 -0
    outer loop
      vertex -15.8205 -12.5981 10
      vertex -17.3205 -10 10
      vertex -15.8205 -12.5981 2
    endloop
  endfacet
  facet normal -0.866025 -0.5 0
    outer loop
      vertex -15.8205 -12.5981 2
      vertex -17.3205 -10 10
      vertex -17.3205 -10 0
    endloop
  endfacet
  facet normal -0.866025 -0.5 -3.70074e-16
    outer loop
      vertex -14.3205 -15.1962 0
      vertex -15.8205 -12.5981 2
      vertex -17.3205 -10 0
    endloop
  endfacet
  facet normal -0.855363 -0.493844 -0.156434
    outer loop
      vertex -13.4046 -7.73915 5.49443
      vertex -11.8368 -10.2981 5
      vertex -11.9046 -10.3372 5.49443
    endloop
  endfacet
  facet normal -0.855363 -0.493844 -0.156434
    outer loop
      vertex -13.4046 -7.73915 5.49443
      vertex -13.3368 -7.7 5
      vertex -11.8368 -10.2981 5
    endloop
  endfacet
  facet normal -0.612372 -0.353553 0.707107
    outer loop
      vertex -12.2854 -10.5571 3.84716
      vertex -12.1014 -10.4509 4.05954
      vertex -13.6014 -7.85279 4.05954
    endloop
  endfacet
  facet normal -0.612372 -0.353553 0.707107
    outer loop
      vertex -13.8773 -8.01207 3.74097
      vertex -12.2854 -10.5571 3.84716
      vertex -13.6014 -7.85279 4.05954
    endloop
  endfacet
  facet normal 0.855363 0.493844 0.156434
    outer loop
      vertex -16.047 -9.26476 4.55502
      vertex -14.5403 -11.8589 4.50557
      vertex -16.0403 -9.26085 4.50557
    endloop
  endfacet
  facet normal 0.855363 0.493844 0.156434
    outer loop
      vertex -16.047 -9.26476 4.55502
      vertex -14.5674 -11.8746 4.70334
      vertex -14.5403 -11.8589 4.50557
    endloop
  endfacet
  facet normal 0.393167 0.226995 -0.891007
    outer loop
      vertex -15.5369 -8.97023 6.29443
      vertex -13.8051 -11.4345 6.43079
      vertex -14.0369 -11.5683 6.29443
    endloop
  endfacet
  facet normal 0.393167 0.226995 -0.891007
    outer loop
      vertex -15.5369 -8.97023 6.29443
      vertex -15.1892 -8.76952 6.49896
      vertex -13.8051 -11.4345 6.43079
    endloop
  endfacet
  facet normal -0.771634 -0.445503 -0.45399
    outer loop
      vertex -13.4046 -7.73915 5.49443
      vertex -11.9046 -10.3372 5.49443
      vertex -12.0227 -10.4054 5.76204
    endloop
  endfacet
  facet normal -0.771634 -0.445503 -0.45399
    outer loop
      vertex -13.5817 -7.84142 5.89585
      vertex -13.4046 -7.73915 5.49443
      vertex -12.0227 -10.4054 5.76204
    endloop
  endfacet
  facet normal -0.855363 -0.493844 0.156434
    outer loop
      vertex -11.8775 -10.3216 4.70334
      vertex -11.8368 -10.2981 5
      vertex -13.3368 -7.7 5
    endloop
  endfacet
  facet normal -0.855363 -0.493844 0.156434
    outer loop
      vertex -13.3978 -7.73524 4.55502
      vertex -11.8775 -10.3216 4.70334
      vertex -13.3368 -7.7 5
    endloop
  endfacet
  facet normal -0.135476 -0.0782172 -0.987688
    outer loop
      vertex -14.7224 -8.5 6.6
      vertex -12.7942 -10.8509 6.52169
      vertex -13.2224 -11.0981 6.6
    endloop
  endfacet
  facet normal -0.135476 -0.0782172 -0.987688
    outer loop
      vertex -14.7224 -8.5 6.6
      vertex -14.2942 -8.25279 6.52169
      vertex -12.7942 -10.8509 6.52169
    endloop
  endfacet
  facet normal 0.393167 0.226995 -0.891007
    outer loop
      vertex -15.1892 -8.76952 6.49896
      vertex -13.6506 -11.3453 6.52169
      vertex -13.8051 -11.4345 6.43079
    endloop
  endfacet
  facet normal 0.393167 0.226995 -0.891007
    outer loop
      vertex -15.1892 -8.76952 6.49896
      vertex -15.1506 -8.74721 6.52169
      vertex -13.6506 -11.3453 6.52169
    endloop
  endfacet
  facet normal 0.855363 0.493844 0.156434
    outer loop
      vertex -16.1081 -9.3 5
      vertex -14.5674 -11.8746 4.70334
      vertex -16.047 -9.26476 4.55502
    endloop
  endfacet
  facet normal 0.855363 0.493844 0.156434
    outer loop
      vertex -16.1081 -9.3 5
      vertex -14.6081 -11.8981 5
      vertex -14.5674 -11.8746 4.70334
    endloop
  endfacet
  facet normal 0.771634 0.445503 0.45399
    outer loop
      vertex -14.5403 -11.8589 4.50557
      vertex -14.4615 -11.8135 4.32716
      vertex -16.0206 -9.24948 4.46097
    endloop
  endfacet
  facet normal 0.771634 0.445503 0.45399
    outer loop
      vertex -16.0403 -9.26085 4.50557
      vertex -14.5403 -11.8589 4.50557
      vertex -16.0206 -9.24948 4.46097
    endloop
  endfacet
  facet normal 0.612372 0.353553 0.707107
    outer loop
      vertex -15.5675 -8.98793 3.74097
      vertex -14.0369 -11.5683 3.70557
      vertex -15.5369 -8.97023 3.70557
    endloop
  endfacet
  facet normal 0.612372 0.353553 0.707107
    outer loop
      vertex -15.5675 -8.98793 3.74097
      vertex -14.1595 -11.6391 3.84716
      vertex -14.0369 -11.5683 3.70557
    endloop
  endfacet
  facet normal -0.612372 -0.353553 0.707107
    outer loop
      vertex -12.408 -10.6278 3.70557
      vertex -12.2854 -10.5571 3.84716
      vertex -13.8773 -8.01207 3.74097
    endloop
  endfacet
  facet normal -0.612372 -0.353553 0.707107
    outer loop
      vertex -13.908 -8.02977 3.70557
      vertex -12.408 -10.6278 3.70557
      vertex -13.8773 -8.01207 3.74097
    endloop
  endfacet
  facet normal -0.393167 -0.226995 -0.891007
    outer loop
      vertex -14.2942 -8.25279 6.52169
      vertex -12.5625 -10.7171 6.38533
      vertex -12.7942 -10.8509 6.52169
    endloop
  endfacet
  facet normal -0.393167 -0.226995 -0.891007
    outer loop
      vertex -14.2942 -8.25279 6.52169
      vertex -13.9466 -8.05207 6.31715
      vertex -12.5625 -10.7171 6.38533
    endloop
  endfacet
  facet normal -0.393167 -0.226995 -0.891007
    outer loop
      vertex -13.9466 -8.05207 6.31715
      vertex -12.408 -10.6278 6.29443
      vertex -12.5625 -10.7171 6.38533
    endloop
  endfacet
  facet normal -0.393167 -0.226995 -0.891007
    outer loop
      vertex -13.9466 -8.05207 6.31715
      vertex -13.908 -8.02977 6.29443
      vertex -12.408 -10.6278 6.29443
    endloop
  endfacet
  facet normal -0.771634 -0.445503 -0.45399
    outer loop
      vertex -13.5817 -7.84142 5.89585
      vertex -12.0227 -10.4054 5.76204
      vertex -12.1014 -10.4509 5.94046
    endloop
  endfacet
  facet normal -0.771634 -0.445503 -0.45399
    outer loop
      vertex -13.6014 -7.85279 5.94046
      vertex -13.5817 -7.84142 5.89585
      vertex -12.1014 -10.4509 5.94046
    endloop
  endfacet
  facet normal -0.612372 -0.353553 -0.707107
    outer loop
      vertex -13.6014 -7.85279 5.94046
      vertex -12.1014 -10.4509 5.94046
      vertex -12.408 -10.6278 6.29443
    endloop
  endfacet
  facet normal -0.612372 -0.353553 -0.707107
    outer loop
      vertex -13.908 -8.02977 6.29443
      vertex -13.6014 -7.85279 5.94046
      vertex -12.408 -10.6278 6.29443
    endloop
  endfacet
  facet normal 0.135476 0.0782172 -0.987688
    outer loop
      vertex -14.7224 -8.5 6.6
      vertex -13.2224 -11.0981 6.6
      vertex -13.6506 -11.3453 6.52169
    endloop
  endfacet
  facet normal 0.135476 0.0782172 -0.987688
    outer loop
      vertex -15.1506 -8.74721 6.52169
      vertex -14.7224 -8.5 6.6
      vertex -13.6506 -11.3453 6.52169
    endloop
  endfacet
  facet normal 0.855363 0.493844 -0.156434
    outer loop
      vertex -16.1081 -9.3 5
      vertex -14.5403 -11.8589 5.49443
      vertex -14.6081 -11.8981 5
    endloop
  endfacet
  facet normal 0.855363 0.493844 -0.156434
    outer loop
      vertex -16.1081 -9.3 5
      vertex -16.0403 -9.26085 5.49443
      vertex -14.5403 -11.8589 5.49443
    endloop
  endfacet
  facet normal 0.771634 0.445503 -0.45399
    outer loop
      vertex -15.8434 -9.14721 5.94046
      vertex -14.3434 -11.7453 5.94046
      vertex -14.4615 -11.8135 5.67284
    endloop
  endfacet
  facet normal 0.771634 0.445503 -0.45399
    outer loop
      vertex -16.0206 -9.24948 5.53903
      vertex -15.8434 -9.14721 5.94046
      vertex -14.4615 -11.8135 5.67284
    endloop
  endfacet
  facet normal 0.393167 0.226995 0.891007
    outer loop
      vertex -14.0369 -11.5683 3.70557
      vertex -13.8824 -11.4791 3.61467
      vertex -15.4983 -8.94793 3.68285
    endloop
  endfacet
  facet normal 0.393167 0.226995 0.891007
    outer loop
      vertex -15.5369 -8.97023 3.70557
      vertex -14.0369 -11.5683 3.70557
      vertex -15.4983 -8.94793 3.68285
    endloop
  endfacet
  facet normal 0.135476 0.0782172 0.987688
    outer loop
      vertex -14.7653 -8.52472 3.40783
      vertex -13.2224 -11.0981 3.4
      vertex -14.7224 -8.5 3.4
    endloop
  endfacet
  facet normal 0.135476 0.0782172 0.987688
    outer loop
      vertex -14.7653 -8.52472 3.40783
      vertex -13.3937 -11.197 3.43132
      vertex -13.2224 -11.0981 3.4
    endloop
  endfacet
  facet normal -0.135476 -0.0782172 0.987688
    outer loop
      vertex -14.7224 -8.5 3.4
      vertex -12.7942 -10.8509 3.47831
      vertex -14.2942 -8.25279 3.47831
    endloop
  endfacet
  facet normal -0.135476 -0.0782172 0.987688
    outer loop
      vertex -14.7224 -8.5 3.4
      vertex -13.2224 -11.0981 3.4
      vertex -12.7942 -10.8509 3.47831
    endloop
  endfacet
  facet normal -0.771634 -0.445503 0.45399
    outer loop
      vertex -13.6014 -7.85279 4.05954
      vertex -11.9833 -10.3827 4.32716
      vertex -13.4243 -7.75052 4.46097
    endloop
  endfacet
  facet normal -0.771634 -0.445503 0.45399
    outer loop
      vertex -13.6014 -7.85279 4.05954
      vertex -12.1014 -10.4509 4.05954
      vertex -11.9833 -10.3827 4.32716
    endloop
  endfacet
  facet normal 0.612372 0.353553 -0.707107
    outer loop
      vertex -15.5369 -8.97023 6.29443
      vertex -14.0369 -11.5683 6.29443
      vertex -14.3434 -11.7453 5.94046
    endloop
  endfacet
  facet normal 0.612372 0.353553 -0.707107
    outer loop
      vertex -15.8434 -9.14721 5.94046
      vertex -15.5369 -8.97023 6.29443
      vertex -14.3434 -11.7453 5.94046
    endloop
  endfacet
  facet normal 0.771634 0.445503 -0.45399
    outer loop
      vertex -16.0206 -9.24948 5.53903
      vertex -14.4615 -11.8135 5.67284
      vertex -14.5403 -11.8589 5.49443
    endloop
  endfacet
  facet normal 0.771634 0.445503 -0.45399
    outer loop
      vertex -16.0403 -9.26085 5.49443
      vertex -16.0206 -9.24948 5.53903
      vertex -14.5403 -11.8589 5.49443
    endloop
  endfacet
  facet normal 0.612372 0.353553 0.707107
    outer loop
      vertex -15.8434 -9.14721 4.05954
      vertex -14.1595 -11.6391 3.84716
      vertex -15.5675 -8.98793 3.74097
    endloop
  endfacet
  facet normal 0.612372 0.353553 0.707107
    outer loop
      vertex -15.8434 -9.14721 4.05954
      vertex -14.3434 -11.7453 4.05954
      vertex -14.1595 -11.6391 3.84716
    endloop
  endfacet
  facet normal 0.771634 0.445503 0.45399
    outer loop
      vertex -14.4615 -11.8135 4.32716
      vertex -14.3434 -11.7453 4.05954
      vertex -15.8434 -9.14721 4.05954
    endloop
  endfacet
  facet normal 0.771634 0.445503 0.45399
    outer loop
      vertex -16.0206 -9.24948 4.46097
      vertex -14.4615 -11.8135 4.32716
      vertex -15.8434 -9.14721 4.05954
    endloop
  endfacet
  facet normal 0.393167 0.226995 0.891007
    outer loop
      vertex -13.8824 -11.4791 3.61467
      vertex -13.6506 -11.3453 3.47831
      vertex -15.1506 -8.74721 3.47831
    endloop
  endfacet
  facet normal 0.393167 0.226995 0.891007
    outer loop
      vertex -15.4983 -8.94793 3.68285
      vertex -13.8824 -11.4791 3.61467
      vertex -15.1506 -8.74721 3.47831
    endloop
  endfacet
  facet normal 0.135476 0.0782172 0.987688
    outer loop
      vertex -15.1506 -8.74721 3.47831
      vertex -13.3937 -11.197 3.43132
      vertex -14.7653 -8.52472 3.40783
    endloop
  endfacet
  facet normal 0.135476 0.0782172 0.987688
    outer loop
      vertex -15.1506 -8.74721 3.47831
      vertex -13.6506 -11.3453 3.47831
      vertex -13.3937 -11.197 3.43132
    endloop
  endfacet
  facet normal -0.393167 -0.226995 0.891007
    outer loop
      vertex -14.2942 -8.25279 3.47831
      vertex -12.408 -10.6278 3.70557
      vertex -13.908 -8.02977 3.70557
    endloop
  endfacet
  facet normal -0.393167 -0.226995 0.891007
    outer loop
      vertex -14.2942 -8.25279 3.47831
      vertex -12.7942 -10.8509 3.47831
      vertex -12.408 -10.6278 3.70557
    endloop
  endfacet
  facet normal -0.771634 -0.445503 0.45399
    outer loop
      vertex -13.4243 -7.75052 4.46097
      vertex -11.9046 -10.3372 4.50557
      vertex -13.4046 -7.73915 4.50557
    endloop
  endfacet
  facet normal -0.771634 -0.445503 0.45399
    outer loop
      vertex -13.4243 -7.75052 4.46097
      vertex -11.9833 -10.3827 4.32716
      vertex -11.9046 -10.3372 4.50557
    endloop
  endfacet
  facet normal -0.855363 -0.493844 0.156434
    outer loop
      vertex -11.9046 -10.3372 4.50557
      vertex -11.8775 -10.3216 4.70334
      vertex -13.3978 -7.73524 4.55502
    endloop
  endfacet
  facet normal -0.855363 -0.493844 0.156434
    outer loop
      vertex -13.4046 -7.73915 4.50557
      vertex -11.9046 -10.3372 4.50557
      vertex -13.3978 -7.73524 4.55502
    endloop
  endfacet
  facet normal 0.866025 0.5 0
    outer loop
      vertex 2.3094 0 4.23215e-17
      vertex 1.73205 1 0
      vertex 1.73205 1 1.70519e-16
    endloop
  endfacet
  facet normal 0.866025 0.5 0
    outer loop
      vertex 2.3094 0 4.23215e-17
      vertex 2.3094 0 0
      vertex 1.73205 1 0
    endloop
  endfacet
  facet normal 0.866025 0.5 0
    outer loop
      vertex 4.73205 -4.19615 0
      vertex 4.04145 -3 0
      vertex 4.04145 -3 2
    endloop
  endfacet
  facet normal 0.866025 0.5 0
    outer loop
      vertex 4.73205 -4.19615 2
      vertex 4.73205 -4.19615 0
      vertex 4.04145 -3 2
    endloop
  endfacet
  facet normal 0.5 -0.866025 0
    outer loop
      vertex -14.3205 -15.1962 2
      vertex -14.3205 -15.1962 0
      vertex 4.73205 -4.19615 0
    endloop
  endfacet
  facet normal 0.5 -0.866025 0
    outer loop
      vertex 4.73205 -4.19615 2
      vertex -14.3205 -15.1962 2
      vertex 4.73205 -4.19615 0
    endloop
  endfacet
  facet normal 0 0 1
    outer loop
      vertex 0.803848 -3 2
      vertex -15.8205 -12.5981 2
      vertex -14.3205 -15.1962 2
    endloop
  endfacet
  facet normal 0 0 1
    outer loop
      vertex 4.04145 -3 2
      vertex 0.803848 -3 2
      vertex 4.73205 -4.19615 2
    endloop
  endfacet
  facet normal 0 0 1
    outer loop
      vertex 4.73205 -4.19615 2
      vertex 0.803848 -3 2
      vertex -14.3205 -15.1962 2
    endloop
  endfacet
  facet normal -1 0 0
    outer loop
      vertex -15 0 0
      vertex -15 -3 0
      vertex -15 -3 10
    endloop
  endfacet
  facet normal -1 -0 -0
    outer loop
      vertex -15 0 10
      vertex -15 0 0
      vertex -15 -3 10
    endloop
  endfacet
  facet normal 0 -1 0
    outer loop
      vertex -15 -3 10
      vertex -15 -3 0
      vertex -5.19615 -3 0
    endloop
  endfacet
  facet normal -0 -1 -0
    outer loop
      vertex -5.19615 -3 10
      vertex -15 -3 10
      vertex -5.19615 -3 0
    endloop
  endfacet
  facet normal 0 -1 0
    outer loop
      vertex 0.803848 -3 10
      vertex 0.803848 -3 2
      vertex 4.04145 -3 2
    endloop
  endfacet
  facet normal 0 -1 0
    outer loop
      vertex 15 -3 0
      vertex 15 -3 10
      vertex 4.04145 -3 2
    endloop
  endfacet
  facet normal 0 -1 0
    outer loop
      vertex 4.04145 -3 0
      vertex 15 -3 0
      vertex 4.04145 -3 2
    endloop
  endfacet
  facet normal 0 -1 0
    outer loop
      vertex 4.04145 -3 2
      vertex 15 -3 10
      vertex 0.803848 -3 10
    endloop
  endfacet
  facet normal 1 0 0
    outer loop
      vertex 15 -3 10
      vertex 15 -3 0
      vertex 15 0 0
    endloop
  endfacet
  facet normal 1 0 0
    outer loop
      vertex 15 0 10
      vertex 15 -3 10
      vertex 15 0 0
    endloop
  endfacet
endsolid OpenSCAD_Model
