solid OpenSCAD_Model
  facet normal 0 -1 -2.22045e-16
    outer loop
      vertex -29.9 -3.30846e-15 14.9
      vertex -31.9 -3.30846e-15 14.9
      vertex -31.9 2.22045e-17 -0.1
    endloop
  endfacet
  facet normal 0 -1 -2.22045e-16
    outer loop
      vertex -29.9 -2.66454e-15 12
      vertex -29.9 -3.30846e-15 14.9
      vertex -31.9 2.22045e-17 -0.1
    endloop
  endfacet
  facet normal 0 -1 -2.22045e-16
    outer loop
      vertex -29.9 0 0
      vertex -29.9 -2.66454e-15 12
      vertex -31.9 2.22045e-17 -0.1
    endloop
  endfacet
  facet normal 0 -1 -2.22045e-16
    outer loop
      vertex -29.9 2.22045e-17 -0.1
      vertex -29.9 0 0
      vertex -31.9 2.22045e-17 -0.1
    endloop
  endfacet
  facet normal 0 -1 -2.22045e-16
    outer loop
      vertex 17.7401 -2.04708e-15 9.21924
      vertex 21.9 -2.66454e-15 12
      vertex 16.3155 -2.66454e-15 12
    endloop
  endfacet
  facet normal 0 -1 -2.22045e-16
    outer loop
      vertex 16.9151 -1.91399e-15 8.61985
      vertex 16.3155 -2.66454e-15 12
      vertex 15.2028 -2.37526e-15 10.6972
    endloop
  endfacet
  facet normal 0 -1 -2.22045e-16
    outer loop
      vertex 16.6 -1.69864e-15 7.65
      vertex 15.2028 -2.37526e-15 10.6972
      vertex 12.6374 -1.88874e-15 8.50613
    endloop
  endfacet
  facet normal 0 -1 -2.22045e-16
    outer loop
      vertex 21.9 0 0
      vertex 12.6374 -1.88874e-15 8.50613
      vertex 9.7608 -1.49733e-15 6.74336
    endloop
  endfacet
  facet normal 0 -1 -2.22045e-16
    outer loop
      vertex -9.7608 -1.49733e-15 6.74336
      vertex -17.7401 -2.04708e-15 9.21924
      vertex -6.64387 -1.21065e-15 5.45228
    endloop
  endfacet
  facet normal 0 -1 -2.22045e-16
    outer loop
      vertex 21.9 0 0
      vertex 9.7608 -1.49733e-15 6.74336
      vertex 6.64387 -1.21065e-15 5.45228
    endloop
  endfacet
  facet normal 0 -1 -2.22045e-16
    outer loop
      vertex 21.9 0 0
      vertex 3.36334 -1.03577e-15 4.6647
      vertex -29.9 0 0
    endloop
  endfacet
  facet normal 0 -1 -2.22045e-16
    outer loop
      vertex 3.36334 -1.03577e-15 4.6647
      vertex 1.3165e-15 -9.76996e-16 4.4
      vertex -29.9 0 0
    endloop
  endfacet
  facet normal 0 -1 -2.22045e-16
    outer loop
      vertex 1.3165e-15 -9.76996e-16 4.4
      vertex -3.36334 -1.03577e-15 4.6647
      vertex -29.9 0 0
    endloop
  endfacet
  facet normal 0 -1 -2.22045e-16
    outer loop
      vertex -3.36334 -1.03577e-15 4.6647
      vertex -6.64387 -1.21065e-15 5.45228
      vertex -29.9 0 0
    endloop
  endfacet
  facet normal 0 -1 -2.22045e-16
    outer loop
      vertex -12.6374 -1.88874e-15 8.50613
      vertex -17.7401 -2.04708e-15 9.21924
      vertex -9.7608 -1.49733e-15 6.74336
    endloop
  endfacet
  facet normal 0 -1 -2.22045e-16
    outer loop
      vertex -19.9 -1.69864e-15 7.65
      vertex -29.9 -2.66454e-15 12
      vertex -29.9 0 0
    endloop
  endfacet
  facet normal 0 -1 -2.22045e-16
    outer loop
      vertex -16.6808 -1.81186e-15 8.15988
      vertex -16.6 -1.69864e-15 7.65
      vertex -6.64387 -1.21065e-15 5.45228
    endloop
  endfacet
  facet normal 0 -1 -2.22045e-16
    outer loop
      vertex -19.8192 -1.58543e-15 7.14012
      vertex -19.9 -1.69864e-15 7.65
      vertex -29.9 0 0
    endloop
  endfacet
  facet normal 0 -1 -2.22045e-16
    outer loop
      vertex -19.8192 -1.81186e-15 8.15988
      vertex -29.9 -2.66454e-15 12
      vertex -19.9 -1.69864e-15 7.65
    endloop
  endfacet
  facet normal 0 -1 -2.22045e-16
    outer loop
      vertex -19.5849 -1.91399e-15 8.61985
      vertex -29.9 -2.66454e-15 12
      vertex -19.8192 -1.81186e-15 8.15988
    endloop
  endfacet
  facet normal 0 -1 -2.22045e-16
    outer loop
      vertex -19.2198 -1.99504e-15 8.98488
      vertex -29.9 -2.66454e-15 12
      vertex -19.5849 -1.91399e-15 8.61985
    endloop
  endfacet
  facet normal 0 -1 -2.22045e-16
    outer loop
      vertex -17.2802 -1.99504e-15 8.98488
      vertex -16.9151 -1.91399e-15 8.61985
      vertex -6.64387 -1.21065e-15 5.45228
    endloop
  endfacet
  facet normal 0 -1 -2.22045e-16
    outer loop
      vertex -16.9151 -1.91399e-15 8.61985
      vertex -16.6808 -1.81186e-15 8.15988
      vertex -6.64387 -1.21065e-15 5.45228
    endloop
  endfacet
  facet normal 0 -1 -2.22045e-16
    outer loop
      vertex -19.2198 -1.99504e-15 8.98488
      vertex -18.7599 -2.04708e-15 9.21924
      vertex -29.9 -2.66454e-15 12
    endloop
  endfacet
  facet normal 0 -1 -2.22045e-16
    outer loop
      vertex -17.7401 -1.3502e-15 6.08076
      vertex -18.25 -1.33227e-15 6
      vertex -29.9 0 0
    endloop
  endfacet
  facet normal 0 -1 -2.22045e-16
    outer loop
      vertex -6.64387 -1.21065e-15 5.45228
      vertex -17.7401 -2.04708e-15 9.21924
      vertex -17.2802 -1.99504e-15 8.98488
    endloop
  endfacet
  facet normal 0 -1 -2.22045e-16
    outer loop
      vertex -16.6 -1.69864e-15 7.65
      vertex -16.6808 -1.58543e-15 7.14012
      vertex -6.64387 -1.21065e-15 5.45228
    endloop
  endfacet
  facet normal 0 -1 -2.22045e-16
    outer loop
      vertex -16.6808 -1.58543e-15 7.14012
      vertex -16.9151 -1.48329e-15 6.68015
      vertex -6.64387 -1.21065e-15 5.45228
    endloop
  endfacet
  facet normal 0 -1 -2.22045e-16
    outer loop
      vertex 16.6808 -1.81186e-15 8.15988
      vertex 16.9151 -1.91399e-15 8.61985
      vertex 15.2028 -2.37526e-15 10.6972
    endloop
  endfacet
  facet normal 0 -1 -2.22045e-16
    outer loop
      vertex -6.64387 -1.21065e-15 5.45228
      vertex -16.9151 -1.48329e-15 6.68015
      vertex -17.2802 -1.40224e-15 6.31512
    endloop
  endfacet
  facet normal 0 -1 -2.22045e-16
    outer loop
      vertex -6.64387 -1.21065e-15 5.45228
      vertex -17.7401 -1.3502e-15 6.08076
      vertex -29.9 0 0
    endloop
  endfacet
  facet normal 0 -1 -2.22045e-16
    outer loop
      vertex -6.64387 -1.21065e-15 5.45228
      vertex -17.2802 -1.40224e-15 6.31512
      vertex -17.7401 -1.3502e-15 6.08076
    endloop
  endfacet
  facet normal 0 -1 -2.22045e-16
    outer loop
      vertex 17.7401 -1.3502e-15 6.08076
      vertex 17.2802 -1.40224e-15 6.31512
      vertex 21.9 0 0
    endloop
  endfacet
  facet normal 0 -1 -2.22045e-16
    outer loop
      vertex -18.25 -1.33227e-15 6
      vertex -18.7599 -1.3502e-15 6.08076
      vertex -29.9 0 0
    endloop
  endfacet
  facet normal 0 -1 -2.22045e-16
    outer loop
      vertex -18.7599 -1.3502e-15 6.08076
      vertex -19.2198 -1.40224e-15 6.31512
      vertex -29.9 0 0
    endloop
  endfacet
  facet normal 0 -1 -2.22045e-16
    outer loop
      vertex -19.2198 -1.40224e-15 6.31512
      vertex -19.5849 -1.48329e-15 6.68015
      vertex -29.9 0 0
    endloop
  endfacet
  facet normal 0 -1 -2.22045e-16
    outer loop
      vertex -19.5849 -1.48329e-15 6.68015
      vertex -19.8192 -1.58543e-15 7.14012
      vertex -29.9 0 0
    endloop
  endfacet
  facet normal 0 -1 -2.22045e-16
    outer loop
      vertex 16.6808 -1.58543e-15 7.14012
      vertex 16.6 -1.69864e-15 7.65
      vertex 12.6374 -1.88874e-15 8.50613
    endloop
  endfacet
  facet normal 0 -1 -2.22045e-16
    outer loop
      vertex 16.6808 -1.81186e-15 8.15988
      vertex 15.2028 -2.37526e-15 10.6972
      vertex 16.6 -1.69864e-15 7.65
    endloop
  endfacet
  facet normal 0 -1 -2.22045e-16
    outer loop
      vertex 19.8192 -1.58543e-15 7.14012
      vertex 19.5849 -1.48329e-15 6.68015
      vertex 21.9 0 0
    endloop
  endfacet
  facet normal 0 -1 -2.22045e-16
    outer loop
      vertex 18.7599 -1.3502e-15 6.08076
      vertex 18.25 -1.33227e-15 6
      vertex 21.9 0 0
    endloop
  endfacet
  facet normal 0 -1 -2.22045e-16
    outer loop
      vertex 17.2802 -1.99504e-15 8.98488
      vertex 16.3155 -2.66454e-15 12
      vertex 16.9151 -1.91399e-15 8.61985
    endloop
  endfacet
  facet normal 0 -1 -2.22045e-16
    outer loop
      vertex 19.9 -1.69864e-15 7.65
      vertex 19.8192 -1.58543e-15 7.14012
      vertex 21.9 0 0
    endloop
  endfacet
  facet normal 0 -1 -2.22045e-16
    outer loop
      vertex 18.25 -2.06501e-15 9.3
      vertex 21.9 -2.66454e-15 12
      vertex 17.7401 -2.04708e-15 9.21924
    endloop
  endfacet
  facet normal 0 -1 -2.22045e-16
    outer loop
      vertex 18.7599 -2.04708e-15 9.21924
      vertex 21.9 -2.66454e-15 12
      vertex 18.25 -2.06501e-15 9.3
    endloop
  endfacet
  facet normal 0 -1 -2.22045e-16
    outer loop
      vertex 19.2198 -1.99504e-15 8.98488
      vertex 21.9 -2.66454e-15 12
      vertex 18.7599 -2.04708e-15 9.21924
    endloop
  endfacet
  facet normal 0 -1 -2.22045e-16
    outer loop
      vertex 19.5849 -1.48329e-15 6.68015
      vertex 19.2198 -1.40224e-15 6.31512
      vertex 21.9 0 0
    endloop
  endfacet
  facet normal 0 -1 -2.22045e-16
    outer loop
      vertex 19.5849 -1.91399e-15 8.61985
      vertex 21.9 -2.66454e-15 12
      vertex 19.2198 -1.99504e-15 8.98488
    endloop
  endfacet
  facet normal 0 -1 -2.22045e-16
    outer loop
      vertex 19.8192 -1.81186e-15 8.15988
      vertex 21.9 -2.66454e-15 12
      vertex 19.5849 -1.91399e-15 8.61985
    endloop
  endfacet
  facet normal 0 -1 -2.22045e-16
    outer loop
      vertex 21.9 0 0
      vertex 21.9 -2.66454e-15 12
      vertex 19.8192 -1.81186e-15 8.15988
    endloop
  endfacet
  facet normal 0 -1 -2.22045e-16
    outer loop
      vertex 21.9 0 0
      vertex 19.8192 -1.81186e-15 8.15988
      vertex 19.9 -1.69864e-15 7.65
    endloop
  endfacet
  facet normal 0 -1 -2.22045e-16
    outer loop
      vertex 19.2198 -1.40224e-15 6.31512
      vertex 18.7599 -1.3502e-15 6.08076
      vertex 21.9 0 0
    endloop
  endfacet
  facet normal 0 -1 -2.22045e-16
    outer loop
      vertex 18.25 -1.33227e-15 6
      vertex 17.7401 -1.3502e-15 6.08076
      vertex 21.9 0 0
    endloop
  endfacet
  facet normal 0 -1 -2.22045e-16
    outer loop
      vertex 17.2802 -1.99504e-15 8.98488
      vertex 17.7401 -2.04708e-15 9.21924
      vertex 16.3155 -2.66454e-15 12
    endloop
  endfacet
  facet normal 0 -1 -2.22045e-16
    outer loop
      vertex 21.9 0 0
      vertex 17.2802 -1.40224e-15 6.31512
      vertex 12.6374 -1.88874e-15 8.50613
    endloop
  endfacet
  facet normal 0 -1 -2.22045e-16
    outer loop
      vertex 17.2802 -1.40224e-15 6.31512
      vertex 16.9151 -1.48329e-15 6.68015
      vertex 12.6374 -1.88874e-15 8.50613
    endloop
  endfacet
  facet normal 0 -1 -2.22045e-16
    outer loop
      vertex 16.9151 -1.48329e-15 6.68015
      vertex 16.6808 -1.58543e-15 7.14012
      vertex 12.6374 -1.88874e-15 8.50613
    endloop
  endfacet
  facet normal 0 -1 -2.22045e-16
    outer loop
      vertex 6.64387 -1.21065e-15 5.45228
      vertex 3.36334 -1.03577e-15 4.6647
      vertex 21.9 0 0
    endloop
  endfacet
  facet normal 0 -1 -2.22045e-16
    outer loop
      vertex -15.2028 -2.37526e-15 10.6972
      vertex -17.7401 -2.04708e-15 9.21924
      vertex -12.6374 -1.88874e-15 8.50613
    endloop
  endfacet
  facet normal 0 -1 -2.22045e-16
    outer loop
      vertex -16.3155 -2.66454e-15 12
      vertex -17.7401 -2.04708e-15 9.21924
      vertex -15.2028 -2.37526e-15 10.6972
    endloop
  endfacet
  facet normal 0 -1 -2.22045e-16
    outer loop
      vertex -16.3155 -2.66454e-15 12
      vertex -18.25 -2.06501e-15 9.3
      vertex -17.7401 -2.04708e-15 9.21924
    endloop
  endfacet
  facet normal 0 -1 -2.22045e-16
    outer loop
      vertex -16.3155 -2.66454e-15 12
      vertex -18.7599 -2.04708e-15 9.21924
      vertex -18.25 -2.06501e-15 9.3
    endloop
  endfacet
  facet normal 0 -1 -2.22045e-16
    outer loop
      vertex -16.3155 -2.66454e-15 12
      vertex -29.9 -2.66454e-15 12
      vertex -18.7599 -2.04708e-15 9.21924
    endloop
  endfacet
  facet normal -1 0 0
    outer loop
      vertex -31.9 9.50988 7.83076
      vertex -31.9 46 14.9
      vertex -31.9 2.22045e-17 -0.1
    endloop
  endfacet
  facet normal -1 0 0
    outer loop
      vertex -31.9 42.3349 8.43015
      vertex -31.9 46 14.9
      vertex -31.9 46 -0.1
    endloop
  endfacet
  facet normal -1 0 0
    outer loop
      vertex -31.9 -3.30846e-15 14.9
      vertex -31.9 46 14.9
      vertex -31.9 9.05099 11.0419
    endloop
  endfacet
  facet normal -1 0 0
    outer loop
      vertex -31.9 -3.30846e-15 14.9
      vertex -31.9 9.05099 11.0419
      vertex -31.9 9 11.05
    endloop
  endfacet
  facet normal -1 0 0
    outer loop
      vertex -31.9 -3.30846e-15 14.9
      vertex -31.9 9 11.05
      vertex -31.9 8.54111 10.9773
    endloop
  endfacet
  facet normal -1 0 0
    outer loop
      vertex -31.9 -3.30846e-15 14.9
      vertex -31.9 8.54111 10.9773
      vertex -31.9 8.49012 10.9692
    endloop
  endfacet
  facet normal -1 0 0
    outer loop
      vertex -31.9 -3.30846e-15 14.9
      vertex -31.9 8.49012 10.9692
      vertex -31.9 8.07615 10.7583
    endloop
  endfacet
  facet normal -1 0 0
    outer loop
      vertex -31.9 -3.30846e-15 14.9
      vertex -31.9 8.07615 10.7583
      vertex -31.9 8.03015 10.7349
    endloop
  endfacet
  facet normal -1 0 0
    outer loop
      vertex -31.9 -3.30846e-15 14.9
      vertex -31.9 8.03015 10.7349
      vertex -31.9 7.70163 10.4063
    endloop
  endfacet
  facet normal -1 0 0
    outer loop
      vertex -31.9 -3.30846e-15 14.9
      vertex -31.9 7.70163 10.4063
      vertex -31.9 7.66512 10.3698
    endloop
  endfacet
  facet normal -1 0 0
    outer loop
      vertex -31.9 -3.30846e-15 14.9
      vertex -31.9 7.66512 10.3698
      vertex -31.9 2.22045e-17 -0.1
    endloop
  endfacet
  facet normal -1 0 0
    outer loop
      vertex -31.9 7.35808 9.45099
      vertex -31.9 2.22045e-17 -0.1
      vertex -31.9 7.43076 9.90988
    endloop
  endfacet
  facet normal -1 0 0
    outer loop
      vertex -31.9 7.35 9.4
      vertex -31.9 2.22045e-17 -0.1
      vertex -31.9 7.35808 9.45099
    endloop
  endfacet
  facet normal -1 0 0
    outer loop
      vertex -31.9 7.43076 8.89012
      vertex -31.9 2.22045e-17 -0.1
      vertex -31.9 7.35808 9.34901
    endloop
  endfacet
  facet normal -1 0 0
    outer loop
      vertex -31.9 7.35 9.4
      vertex -31.9 7.35808 9.34901
      vertex -31.9 2.22045e-17 -0.1
    endloop
  endfacet
  facet normal -1 0 0
    outer loop
      vertex -31.9 40.0302 10.7349
      vertex -31.9 2.22045e-17 -0.1
      vertex -31.9 40.4901 10.9692
    endloop
  endfacet
  facet normal -1 0 0
    outer loop
      vertex -31.9 9.96985 8.06512
      vertex -31.9 46 14.9
      vertex -31.9 9.50988 7.83076
    endloop
  endfacet
  facet normal -1 0 0
    outer loop
      vertex -31.9 7.43076 8.89012
      vertex -31.9 7.66512 8.43015
      vertex -31.9 2.22045e-17 -0.1
    endloop
  endfacet
  facet normal -1 0 0
    outer loop
      vertex -31.9 10.65 9.4
      vertex -31.9 46 14.9
      vertex -31.9 10.5692 8.89012
    endloop
  endfacet
  facet normal -1 0 0
    outer loop
      vertex -31.9 7.66512 8.43015
      vertex -31.9 7.70163 8.39365
      vertex -31.9 2.22045e-17 -0.1
    endloop
  endfacet
  facet normal -1 0 0
    outer loop
      vertex -31.9 10.5692 8.89012
      vertex -31.9 46 14.9
      vertex -31.9 10.5458 8.84413
    endloop
  endfacet
  facet normal -1 0 0
    outer loop
      vertex -31.9 7.70163 8.39365
      vertex -31.9 8.03015 8.06512
      vertex -31.9 2.22045e-17 -0.1
    endloop
  endfacet
  facet normal -1 0 0
    outer loop
      vertex -31.9 8.03015 8.06512
      vertex -31.9 8.07615 8.04169
      vertex -31.9 2.22045e-17 -0.1
    endloop
  endfacet
  facet normal -1 0 0
    outer loop
      vertex -31.9 10.5458 8.84413
      vertex -31.9 46 14.9
      vertex -31.9 10.3349 8.43015
    endloop
  endfacet
  facet normal -1 0 0
    outer loop
      vertex -31.9 8.07615 8.04169
      vertex -31.9 8.49012 7.83076
      vertex -31.9 2.22045e-17 -0.1
    endloop
  endfacet
  facet normal -1 0 0
    outer loop
      vertex -31.9 8.49012 7.83076
      vertex -31.9 8.54111 7.82268
      vertex -31.9 2.22045e-17 -0.1
    endloop
  endfacet
  facet normal -1 0 0
    outer loop
      vertex -31.9 10.3349 8.43015
      vertex -31.9 46 14.9
      vertex -31.9 9.96985 8.06512
    endloop
  endfacet
  facet normal -1 0 0
    outer loop
      vertex -31.9 8.54111 7.82268
      vertex -31.9 9 7.75
      vertex -31.9 2.22045e-17 -0.1
    endloop
  endfacet
  facet normal -1 0 0
    outer loop
      vertex -31.9 9 7.75
      vertex -31.9 9.45889 7.82268
      vertex -31.9 2.22045e-17 -0.1
    endloop
  endfacet
  facet normal -1 0 0
    outer loop
      vertex -31.9 9.45889 7.82268
      vertex -31.9 9.50988 7.83076
      vertex -31.9 2.22045e-17 -0.1
    endloop
  endfacet
  facet normal -1 0 0
    outer loop
      vertex -31.9 10.5692 9.90988
      vertex -31.9 46 14.9
      vertex -31.9 10.65 9.4
    endloop
  endfacet
  facet normal -1 0 0
    outer loop
      vertex -31.9 10.5458 9.95587
      vertex -31.9 46 14.9
      vertex -31.9 10.5692 9.90988
    endloop
  endfacet
  facet normal -1 0 0
    outer loop
      vertex -31.9 10.3349 10.3698
      vertex -31.9 46 14.9
      vertex -31.9 10.5458 9.95587
    endloop
  endfacet
  facet normal -1 0 0
    outer loop
      vertex -31.9 9.96985 10.7349
      vertex -31.9 46 14.9
      vertex -31.9 10.3349 10.3698
    endloop
  endfacet
  facet normal -1 0 0
    outer loop
      vertex -31.9 9.92385 10.7583
      vertex -31.9 46 14.9
      vertex -31.9 9.96985 10.7349
    endloop
  endfacet
  facet normal -1 0 0
    outer loop
      vertex -31.9 9.50988 10.9692
      vertex -31.9 46 14.9
      vertex -31.9 9.92385 10.7583
    endloop
  endfacet
  facet normal -1 0 0
    outer loop
      vertex -31.9 9.05099 11.0419
      vertex -31.9 46 14.9
      vertex -31.9 9.50988 10.9692
    endloop
  endfacet
  facet normal -1 0 0
    outer loop
      vertex -31.9 41 11.05
      vertex -31.9 46 14.9
      vertex -31.9 41.051 11.0419
    endloop
  endfacet
  facet normal -1 0 0
    outer loop
      vertex -31.9 40.4901 10.9692
      vertex -31.9 46 14.9
      vertex -31.9 41 11.05
    endloop
  endfacet
  facet normal -1 0 0
    outer loop
      vertex -31.9 2.22045e-17 -0.1
      vertex -31.9 46 14.9
      vertex -31.9 40.4901 10.9692
    endloop
  endfacet
  facet normal -1 0 0
    outer loop
      vertex -31.9 40.4901 7.83076
      vertex -31.9 46 -0.1
      vertex -31.9 40.0302 8.06512
    endloop
  endfacet
  facet normal -1 0 0
    outer loop
      vertex -31.9 2.22045e-17 -0.1
      vertex -31.9 40.0302 10.7349
      vertex -31.9 39.6651 10.3698
    endloop
  endfacet
  facet normal -1 0 0
    outer loop
      vertex -31.9 2.22045e-17 -0.1
      vertex -31.9 39.6651 10.3698
      vertex -31.9 39.4308 9.90988
    endloop
  endfacet
  facet normal -1 0 0
    outer loop
      vertex -31.9 2.22045e-17 -0.1
      vertex -31.9 39.4308 9.90988
      vertex -31.9 39.35 9.4
    endloop
  endfacet
  facet normal -1 0 0
    outer loop
      vertex -31.9 2.22045e-17 -0.1
      vertex -31.9 39.35 9.4
      vertex -31.9 39.4308 8.89012
    endloop
  endfacet
  facet normal -1 0 0
    outer loop
      vertex -31.9 2.22045e-17 -0.1
      vertex -31.9 39.4308 8.89012
      vertex -31.9 39.6651 8.43015
    endloop
  endfacet
  facet normal -1 0 0
    outer loop
      vertex -31.9 2.22045e-17 -0.1
      vertex -31.9 39.6651 8.43015
      vertex -31.9 46 -0.1
    endloop
  endfacet
  facet normal -1 0 0
    outer loop
      vertex -31.9 39.6651 8.43015
      vertex -31.9 40.0302 8.06512
      vertex -31.9 46 -0.1
    endloop
  endfacet
  facet normal -1 0 0
    outer loop
      vertex -31.9 41 7.75
      vertex -31.9 46 -0.1
      vertex -31.9 40.4901 7.83076
    endloop
  endfacet
  facet normal -1 0 0
    outer loop
      vertex -31.9 41.5099 7.83076
      vertex -31.9 46 -0.1
      vertex -31.9 41.051 7.75808
    endloop
  endfacet
  facet normal -1 0 0
    outer loop
      vertex -31.9 41 7.75
      vertex -31.9 41.051 7.75808
      vertex -31.9 46 -0.1
    endloop
  endfacet
  facet normal -1 0 0
    outer loop
      vertex -31.9 41.9238 8.04169
      vertex -31.9 46 -0.1
      vertex -31.9 41.5099 7.83076
    endloop
  endfacet
  facet normal -1 0 0
    outer loop
      vertex -31.9 42.3349 8.43015
      vertex -31.9 46 -0.1
      vertex -31.9 41.9698 8.06512
    endloop
  endfacet
  facet normal -1 0 0
    outer loop
      vertex -31.9 41.9238 8.04169
      vertex -31.9 41.9698 8.06512
      vertex -31.9 46 -0.1
    endloop
  endfacet
  facet normal -1 0 0
    outer loop
      vertex -31.9 42.5692 8.89012
      vertex -31.9 46 14.9
      vertex -31.9 42.3349 8.43015
    endloop
  endfacet
  facet normal -1 0 0
    outer loop
      vertex -31.9 42.5773 8.94111
      vertex -31.9 46 14.9
      vertex -31.9 42.5692 8.89012
    endloop
  endfacet
  facet normal -1 0 0
    outer loop
      vertex -31.9 42.65 9.4
      vertex -31.9 46 14.9
      vertex -31.9 42.5773 8.94111
    endloop
  endfacet
  facet normal -1 0 0
    outer loop
      vertex -31.9 42.5692 9.90988
      vertex -31.9 46 14.9
      vertex -31.9 42.65 9.4
    endloop
  endfacet
  facet normal -1 0 0
    outer loop
      vertex -31.9 42.3583 10.3238
      vertex -31.9 46 14.9
      vertex -31.9 42.5692 9.90988
    endloop
  endfacet
  facet normal -1 0 0
    outer loop
      vertex -31.9 42.3349 10.3698
      vertex -31.9 46 14.9
      vertex -31.9 42.3583 10.3238
    endloop
  endfacet
  facet normal -1 0 0
    outer loop
      vertex -31.9 41.9698 10.7349
      vertex -31.9 46 14.9
      vertex -31.9 42.3349 10.3698
    endloop
  endfacet
  facet normal -1 0 0
    outer loop
      vertex -31.9 41.9238 10.7583
      vertex -31.9 46 14.9
      vertex -31.9 41.9698 10.7349
    endloop
  endfacet
  facet normal -1 0 0
    outer loop
      vertex -31.9 41.5099 10.9692
      vertex -31.9 46 14.9
      vertex -31.9 41.9238 10.7583
    endloop
  endfacet
  facet normal -1 0 0
    outer loop
      vertex -31.9 41.051 11.0419
      vertex -31.9 46 14.9
      vertex -31.9 41.5099 10.9692
    endloop
  endfacet
  facet normal -1 0 0
    outer loop
      vertex -31.9 7.43076 9.90988
      vertex -31.9 2.22045e-17 -0.1
      vertex -31.9 7.66512 10.3698
    endloop
  endfacet
  facet normal 0 -2.22045e-16 1
    outer loop
      vertex -31.9 46 14.9
      vertex -31.9 -3.30846e-15 14.9
      vertex -29.9 -3.30846e-15 14.9
    endloop
  endfacet
  facet normal 0 -2.22045e-16 1
    outer loop
      vertex -29.9 46 14.9
      vertex -31.9 46 14.9
      vertex -29.9 -3.30846e-15 14.9
    endloop
  endfacet
  facet normal 1 0 0
    outer loop
      vertex -29.9 46 14.9
      vertex -29.9 -3.30846e-15 14.9
      vertex -29.9 -2.66454e-15 12
    endloop
  endfacet
  facet normal 1 0 0
    outer loop
      vertex -29.9 9 11.05
      vertex -29.9 46 14.9
      vertex -29.9 3 12
    endloop
  endfacet
  facet normal 1 0 0
    outer loop
      vertex -29.9 3 12
      vertex -29.9 46 14.9
      vertex -29.9 -2.66454e-15 12
    endloop
  endfacet
  facet normal 1 0 0
    outer loop
      vertex -29.9 40.4901 10.9692
      vertex -29.9 46 14.9
      vertex -29.9 3 6.66134e-16
    endloop
  endfacet
  facet normal 1 0 0
    outer loop
      vertex -29.9 2.22045e-17 -0.1
      vertex -29.9 3 6.66134e-16
      vertex -29.9 0 0
    endloop
  endfacet
  facet normal 1 0 0
    outer loop
      vertex -29.9 46 -0.1
      vertex -29.9 3 6.66134e-16
      vertex -29.9 2.22045e-17 -0.1
    endloop
  endfacet
  facet normal 1 0 0
    outer loop
      vertex -29.9 8.64309 10.9935
      vertex -29.9 9 11.05
      vertex -29.9 3 12
    endloop
  endfacet
  facet normal 1 0 0
    outer loop
      vertex -29.9 9.15296 11.0258
      vertex -29.9 46 14.9
      vertex -29.9 9 11.05
    endloop
  endfacet
  facet normal 1 0 0
    outer loop
      vertex -29.9 9.50988 10.9692
      vertex -29.9 46 14.9
      vertex -29.9 9.15296 11.0258
    endloop
  endfacet
  facet normal 1 0 0
    outer loop
      vertex -29.9 9.83186 10.8052
      vertex -29.9 46 14.9
      vertex -29.9 9.50988 10.9692
    endloop
  endfacet
  facet normal 1 0 0
    outer loop
      vertex -29.9 9.96985 10.7349
      vertex -29.9 46 14.9
      vertex -29.9 9.83186 10.8052
    endloop
  endfacet
  facet normal 1 0 0
    outer loop
      vertex -29.9 10.3349 10.3698
      vertex -29.9 46 14.9
      vertex -29.9 9.96985 10.7349
    endloop
  endfacet
  facet normal 1 0 0
    outer loop
      vertex -29.9 10.4989 10.0479
      vertex -29.9 46 14.9
      vertex -29.9 10.3349 10.3698
    endloop
  endfacet
  facet normal 1 0 0
    outer loop
      vertex -29.9 10.5692 9.90988
      vertex -29.9 46 14.9
      vertex -29.9 10.4989 10.0479
    endloop
  endfacet
  facet normal 1 0 0
    outer loop
      vertex -29.9 8.64309 7.80653
      vertex -29.9 8.49012 7.83076
      vertex -29.9 3 6.66134e-16
    endloop
  endfacet
  facet normal 1 0 0
    outer loop
      vertex -29.9 10.65 9.4
      vertex -29.9 46 14.9
      vertex -29.9 10.5692 9.90988
    endloop
  endfacet
  facet normal 1 0 0
    outer loop
      vertex -29.9 10.5692 8.89012
      vertex -29.9 46 14.9
      vertex -29.9 10.65 9.4
    endloop
  endfacet
  facet normal 1 0 0
    outer loop
      vertex -29.9 10.4989 8.75213
      vertex -29.9 46 14.9
      vertex -29.9 10.5692 8.89012
    endloop
  endfacet
  facet normal 1 0 0
    outer loop
      vertex -29.9 9.35691 7.80653
      vertex -29.9 9 7.75
      vertex -29.9 3 6.66134e-16
    endloop
  endfacet
  facet normal 1 0 0
    outer loop
      vertex -29.9 10.3349 8.43015
      vertex -29.9 46 14.9
      vertex -29.9 10.4989 8.75213
    endloop
  endfacet
  facet normal 1 0 0
    outer loop
      vertex -29.9 3 6.66134e-16
      vertex -29.9 46 14.9
      vertex -29.9 10.3349 8.43015
    endloop
  endfacet
  facet normal 1 0 0
    outer loop
      vertex -29.9 9 7.75
      vertex -29.9 8.64309 7.80653
      vertex -29.9 3 6.66134e-16
    endloop
  endfacet
  facet normal 1 0 0
    outer loop
      vertex -29.9 3 6.66134e-16
      vertex -29.9 10.3349 8.43015
      vertex -29.9 9.96985 8.06512
    endloop
  endfacet
  facet normal 1 0 0
    outer loop
      vertex -29.9 3 6.66134e-16
      vertex -29.9 9.50988 7.83076
      vertex -29.9 9.35691 7.80653
    endloop
  endfacet
  facet normal 1 0 0
    outer loop
      vertex -29.9 42.5692 9.90988
      vertex -29.9 42.65 9.4
      vertex -29.9 46 -0.1
    endloop
  endfacet
  facet normal 1 0 0
    outer loop
      vertex -29.9 8.49012 7.83076
      vertex -29.9 8.16814 7.99481
      vertex -29.9 3 6.66134e-16
    endloop
  endfacet
  facet normal 1 0 0
    outer loop
      vertex -29.9 8.16814 7.99481
      vertex -29.9 8.03015 8.06512
      vertex -29.9 3 6.66134e-16
    endloop
  endfacet
  facet normal 1 0 0
    outer loop
      vertex -29.9 8.03015 8.06512
      vertex -29.9 7.77463 8.32064
      vertex -29.9 3 6.66134e-16
    endloop
  endfacet
  facet normal 1 0 0
    outer loop
      vertex -29.9 7.77463 8.32064
      vertex -29.9 7.66512 8.43015
      vertex -29.9 3 6.66134e-16
    endloop
  endfacet
  facet normal 1 0 0
    outer loop
      vertex -29.9 7.66512 8.43015
      vertex -29.9 7.43076 8.89012
      vertex -29.9 3 6.66134e-16
    endloop
  endfacet
  facet normal 1 0 0
    outer loop
      vertex -29.9 3 6.66134e-16
      vertex -29.9 7.43076 8.89012
      vertex -29.9 3 12
    endloop
  endfacet
  facet normal 1 0 0
    outer loop
      vertex -29.9 7.43076 8.89012
      vertex -29.9 7.37423 9.24704
      vertex -29.9 3 12
    endloop
  endfacet
  facet normal 1 0 0
    outer loop
      vertex -29.9 7.37423 9.24704
      vertex -29.9 7.35 9.4
      vertex -29.9 3 12
    endloop
  endfacet
  facet normal 1 0 0
    outer loop
      vertex -29.9 7.35 9.4
      vertex -29.9 7.37423 9.55296
      vertex -29.9 3 12
    endloop
  endfacet
  facet normal 1 0 0
    outer loop
      vertex -29.9 7.37423 9.55296
      vertex -29.9 7.43076 9.90988
      vertex -29.9 3 12
    endloop
  endfacet
  facet normal 1 0 0
    outer loop
      vertex -29.9 7.43076 9.90988
      vertex -29.9 7.66512 10.3698
      vertex -29.9 3 12
    endloop
  endfacet
  facet normal 1 0 0
    outer loop
      vertex -29.9 7.66512 10.3698
      vertex -29.9 7.77463 10.4794
      vertex -29.9 3 12
    endloop
  endfacet
  facet normal 1 0 0
    outer loop
      vertex -29.9 7.77463 10.4794
      vertex -29.9 8.03015 10.7349
      vertex -29.9 3 12
    endloop
  endfacet
  facet normal 1 0 0
    outer loop
      vertex -29.9 8.03015 10.7349
      vertex -29.9 8.16814 10.8052
      vertex -29.9 3 12
    endloop
  endfacet
  facet normal 1 0 0
    outer loop
      vertex -29.9 8.16814 10.8052
      vertex -29.9 8.49012 10.9692
      vertex -29.9 3 12
    endloop
  endfacet
  facet normal 1 0 0
    outer loop
      vertex -29.9 8.49012 10.9692
      vertex -29.9 8.64309 10.9935
      vertex -29.9 3 12
    endloop
  endfacet
  facet normal 1 0 0
    outer loop
      vertex -29.9 41.153 11.0258
      vertex -29.9 46 14.9
      vertex -29.9 41 11.05
    endloop
  endfacet
  facet normal 1 0 0
    outer loop
      vertex -29.9 41.5099 10.9692
      vertex -29.9 46 14.9
      vertex -29.9 41.153 11.0258
    endloop
  endfacet
  facet normal 1 0 0
    outer loop
      vertex -29.9 41.8319 10.8052
      vertex -29.9 46 14.9
      vertex -29.9 41.5099 10.9692
    endloop
  endfacet
  facet normal 1 0 0
    outer loop
      vertex -29.9 41.9698 10.7349
      vertex -29.9 46 14.9
      vertex -29.9 41.8319 10.8052
    endloop
  endfacet
  facet normal 1 0 0
    outer loop
      vertex -29.9 42.3349 10.3698
      vertex -29.9 46 14.9
      vertex -29.9 41.9698 10.7349
    endloop
  endfacet
  facet normal 1 0 0
    outer loop
      vertex -29.9 42.4052 10.2319
      vertex -29.9 46 14.9
      vertex -29.9 42.3349 10.3698
    endloop
  endfacet
  facet normal 1 0 0
    outer loop
      vertex -29.9 42.65 9.4
      vertex -29.9 42.5935 9.04309
      vertex -29.9 46 -0.1
    endloop
  endfacet
  facet normal 1 0 0
    outer loop
      vertex -29.9 42.5692 9.90988
      vertex -29.9 46 14.9
      vertex -29.9 42.4052 10.2319
    endloop
  endfacet
  facet normal 1 0 0
    outer loop
      vertex -29.9 42.5692 8.89012
      vertex -29.9 42.3349 8.43015
      vertex -29.9 46 -0.1
    endloop
  endfacet
  facet normal 1 0 0
    outer loop
      vertex -29.9 46 -0.1
      vertex -29.9 46 14.9
      vertex -29.9 42.5692 9.90988
    endloop
  endfacet
  facet normal 1 0 0
    outer loop
      vertex -29.9 42.3349 8.43015
      vertex -29.9 41.9698 8.06512
      vertex -29.9 46 -0.1
    endloop
  endfacet
  facet normal 1 0 0
    outer loop
      vertex -29.9 46 -0.1
      vertex -29.9 42.5935 9.04309
      vertex -29.9 42.5692 8.89012
    endloop
  endfacet
  facet normal 1 0 0
    outer loop
      vertex -29.9 41 7.75
      vertex -29.9 40.4901 7.83076
      vertex -29.9 3 6.66134e-16
    endloop
  endfacet
  facet normal 1 0 0
    outer loop
      vertex -29.9 40.0302 10.7349
      vertex -29.9 40.4901 10.9692
      vertex -29.9 3 6.66134e-16
    endloop
  endfacet
  facet normal 1 0 0
    outer loop
      vertex -29.9 46 -0.1
      vertex -29.9 41.9698 8.06512
      vertex -29.9 41.8319 7.99481
    endloop
  endfacet
  facet normal 1 0 0
    outer loop
      vertex -29.9 46 -0.1
      vertex -29.9 41.5099 7.83076
      vertex -29.9 3 6.66134e-16
    endloop
  endfacet
  facet normal 1 0 0
    outer loop
      vertex -29.9 46 -0.1
      vertex -29.9 41.8319 7.99481
      vertex -29.9 41.5099 7.83076
    endloop
  endfacet
  facet normal 1 0 0
    outer loop
      vertex -29.9 41.5099 7.83076
      vertex -29.9 41.153 7.77423
      vertex -29.9 3 6.66134e-16
    endloop
  endfacet
  facet normal 1 0 0
    outer loop
      vertex -29.9 41.153 7.77423
      vertex -29.9 41 7.75
      vertex -29.9 3 6.66134e-16
    endloop
  endfacet
  facet normal 1 0 0
    outer loop
      vertex -29.9 40.4901 7.83076
      vertex -29.9 40.0302 8.06512
      vertex -29.9 3 6.66134e-16
    endloop
  endfacet
  facet normal 1 0 0
    outer loop
      vertex -29.9 40.0302 8.06512
      vertex -29.9 39.6651 8.43015
      vertex -29.9 3 6.66134e-16
    endloop
  endfacet
  facet normal 1 0 0
    outer loop
      vertex -29.9 39.6651 8.43015
      vertex -29.9 39.4308 8.89012
      vertex -29.9 3 6.66134e-16
    endloop
  endfacet
  facet normal 1 0 0
    outer loop
      vertex -29.9 39.4308 8.89012
      vertex -29.9 39.35 9.4
      vertex -29.9 3 6.66134e-16
    endloop
  endfacet
  facet normal 1 0 0
    outer loop
      vertex -29.9 39.35 9.4
      vertex -29.9 39.4308 9.90988
      vertex -29.9 3 6.66134e-16
    endloop
  endfacet
  facet normal 1 0 0
    outer loop
      vertex -29.9 39.4308 9.90988
      vertex -29.9 39.6651 10.3698
      vertex -29.9 3 6.66134e-16
    endloop
  endfacet
  facet normal 1 0 0
    outer loop
      vertex -29.9 39.6651 10.3698
      vertex -29.9 40.0302 10.7349
      vertex -29.9 3 6.66134e-16
    endloop
  endfacet
  facet normal 1 0 0
    outer loop
      vertex -29.9 41 11.05
      vertex -29.9 46 14.9
      vertex -29.9 40.4901 10.9692
    endloop
  endfacet
  facet normal 1 0 0
    outer loop
      vertex -29.9 9.96985 8.06512
      vertex -29.9 9.50988 7.83076
      vertex -29.9 3 6.66134e-16
    endloop
  endfacet
  facet normal 0 -2.22045e-16 1
    outer loop
      vertex -29.9 3 12
      vertex -29.9 -2.66454e-15 12
      vertex -16.3155 -2.66454e-15 12
    endloop
  endfacet
  facet normal 0 -2.22045e-16 1
    outer loop
      vertex -16.3155 3 12
      vertex -29.9 3 12
      vertex -16.3155 -2.66454e-15 12
    endloop
  endfacet
  facet normal 0.760406 -1.44206e-16 0.649448
    outer loop
      vertex -15.2028 -2.37526e-15 10.6972
      vertex -15.2028 3 10.6972
      vertex -16.3155 3 12
    endloop
  endfacet
  facet normal 0.760406 -1.44206e-16 0.649448
    outer loop
      vertex -16.3155 -2.66454e-15 12
      vertex -15.2028 -2.37526e-15 10.6972
      vertex -16.3155 3 12
    endloop
  endfacet
  facet normal 0.649448 -1.68844e-16 0.760406
    outer loop
      vertex -12.6374 -1.88874e-15 8.50613
      vertex -12.6374 3 8.50613
      vertex -15.2028 3 10.6972
    endloop
  endfacet
  facet normal 0.649448 -1.68844e-16 0.760406
    outer loop
      vertex -15.2028 -2.37526e-15 10.6972
      vertex -12.6374 -1.88874e-15 8.50613
      vertex -15.2028 3 10.6972
    endloop
  endfacet
  facet normal 0.522499 -1.89324e-16 0.85264
    outer loop
      vertex -9.7608 -1.49733e-15 6.74336
      vertex -9.7608 3 6.74336
      vertex -12.6374 3 8.50613
    endloop
  endfacet
  facet normal 0.522499 -1.89324e-16 0.85264
    outer loop
      vertex -12.6374 -1.88874e-15 8.50613
      vertex -9.7608 -1.49733e-15 6.74336
      vertex -12.6374 3 8.50613
    endloop
  endfacet
  facet normal 0.382683 -2.05142e-16 0.92388
    outer loop
      vertex -6.64387 -1.21065e-15 5.45228
      vertex -6.64387 3 5.45228
      vertex -9.7608 3 6.74336
    endloop
  endfacet
  facet normal 0.382683 -2.05142e-16 0.92388
    outer loop
      vertex -9.7608 -1.49733e-15 6.74336
      vertex -6.64387 -1.21065e-15 5.45228
      vertex -9.7608 3 6.74336
    endloop
  endfacet
  facet normal 0.233445 -2.15909e-16 0.97237
    outer loop
      vertex -3.36334 -1.03577e-15 4.6647
      vertex -3.36334 3 4.6647
      vertex -6.64387 3 5.45228
    endloop
  endfacet
  facet normal 0.233445 -2.15909e-16 0.97237
    outer loop
      vertex -6.64387 -1.21065e-15 5.45228
      vertex -3.36334 -1.03577e-15 4.6647
      vertex -6.64387 3 5.45228
    endloop
  endfacet
  facet normal 0.0784591 -2.2136e-16 0.996917
    outer loop
      vertex 1.3165e-15 -9.76996e-16 4.4
      vertex 1.3165e-15 3 4.4
      vertex -3.36334 3 4.6647
    endloop
  endfacet
  facet normal 0.0784591 -2.2136e-16 0.996917
    outer loop
      vertex -3.36334 -1.03577e-15 4.6647
      vertex 1.3165e-15 -9.76996e-16 4.4
      vertex -3.36334 3 4.6647
    endloop
  endfacet
  facet normal -0.0784591 -2.2136e-16 0.996917
    outer loop
      vertex 3.36334 -1.03577e-15 4.6647
      vertex 3.36334 3 4.6647
      vertex 1.3165e-15 3 4.4
    endloop
  endfacet
  facet normal -0.0784591 -2.2136e-16 0.996917
    outer loop
      vertex 1.3165e-15 -9.76996e-16 4.4
      vertex 3.36334 -1.03577e-15 4.6647
      vertex 1.3165e-15 3 4.4
    endloop
  endfacet
  facet normal -0.233445 -2.15909e-16 0.97237
    outer loop
      vertex 6.64387 -1.21065e-15 5.45228
      vertex 6.64387 3 5.45228
      vertex 3.36334 3 4.6647
    endloop
  endfacet
  facet normal -0.233445 -2.15909e-16 0.97237
    outer loop
      vertex 3.36334 -1.03577e-15 4.6647
      vertex 6.64387 -1.21065e-15 5.45228
      vertex 3.36334 3 4.6647
    endloop
  endfacet
  facet normal -0.382683 -2.05142e-16 0.92388
    outer loop
      vertex 9.7608 -1.49733e-15 6.74336
      vertex 9.7608 3 6.74336
      vertex 6.64387 3 5.45228
    endloop
  endfacet
  facet normal -0.382683 -2.05142e-16 0.92388
    outer loop
      vertex 6.64387 -1.21065e-15 5.45228
      vertex 9.7608 -1.49733e-15 6.74336
      vertex 6.64387 3 5.45228
    endloop
  endfacet
  facet normal -0.522499 -1.89324e-16 0.85264
    outer loop
      vertex 12.6374 -1.88874e-15 8.50613
      vertex 12.6374 3 8.50613
      vertex 9.7608 3 6.74336
    endloop
  endfacet
  facet normal -0.522499 -1.89324e-16 0.85264
    outer loop
      vertex 9.7608 -1.49733e-15 6.74336
      vertex 12.6374 -1.88874e-15 8.50613
      vertex 9.7608 3 6.74336
    endloop
  endfacet
  facet normal -0.649448 -1.68844e-16 0.760406
    outer loop
      vertex 15.2028 -2.37526e-15 10.6972
      vertex 15.2028 3 10.6972
      vertex 12.6374 3 8.50613
    endloop
  endfacet
  facet normal -0.649448 -1.68844e-16 0.760406
    outer loop
      vertex 12.6374 -1.88874e-15 8.50613
      vertex 15.2028 -2.37526e-15 10.6972
      vertex 12.6374 3 8.50613
    endloop
  endfacet
  facet normal -0.760406 -1.44206e-16 0.649448
    outer loop
      vertex 16.3155 3 12
      vertex 15.2028 3 10.6972
      vertex 16.3155 -2.66454e-15 12
    endloop
  endfacet
  facet normal -0.760406 -1.44206e-16 0.649448
    outer loop
      vertex 16.3155 -2.66454e-15 12
      vertex 15.2028 3 10.6972
      vertex 15.2028 -2.37526e-15 10.6972
    endloop
  endfacet
  facet normal 0 -2.22045e-16 1
    outer loop
      vertex 16.3155 3 12
      vertex 16.3155 -2.66454e-15 12
      vertex 21.9 -2.66454e-15 12
    endloop
  endfacet
  facet normal 0 -2.22045e-16 1
    outer loop
      vertex 21.9 3 12
      vertex 16.3155 3 12
      vertex 21.9 -2.66454e-15 12
    endloop
  endfacet
  facet normal 1 0 0
    outer loop
      vertex 21.9 3 12
      vertex 21.9 -2.66454e-15 12
      vertex 21.9 0 0
    endloop
  endfacet
  facet normal 1 0 0
    outer loop
      vertex 21.9 3 6.66134e-16
      vertex 21.9 3 12
      vertex 21.9 0 0
    endloop
  endfacet
  facet normal 0 2.22045e-16 -1
    outer loop
      vertex -29.9 0 0
      vertex -29.9 3 6.66134e-16
      vertex 21.9 0 0
    endloop
  endfacet
  facet normal 0 2.22045e-16 -1
    outer loop
      vertex 21.9 0 0
      vertex -29.9 3 6.66134e-16
      vertex 21.9 3 6.66134e-16
    endloop
  endfacet
  facet normal 0 2.22045e-16 -1
    outer loop
      vertex -31.9 2.22045e-17 -0.1
      vertex -31.9 46 -0.1
      vertex -29.9 2.22045e-17 -0.1
    endloop
  endfacet
  facet normal 0 2.22045e-16 -1
    outer loop
      vertex -29.9 2.22045e-17 -0.1
      vertex -31.9 46 -0.1
      vertex -29.9 46 -0.1
    endloop
  endfacet
  facet normal 0.987688 -3.47354e-17 0.156434
    outer loop
      vertex -19.8192 -1.58543e-15 7.14012
      vertex -19.8192 3 7.14012
      vertex -19.9 3 7.65
    endloop
  endfacet
  facet normal 0.987688 -3.47354e-17 0.156434
    outer loop
      vertex -19.9 -1.69864e-15 7.65
      vertex -19.8192 -1.58543e-15 7.14012
      vertex -19.9 3 7.65
    endloop
  endfacet
  facet normal 0.987688 3.47354e-17 -0.156434
    outer loop
      vertex -19.9 3 7.65
      vertex -19.8192 3 8.15988
      vertex -19.8192 -1.81186e-15 8.15988
    endloop
  endfacet
  facet normal 0.987688 3.47354e-17 -0.156434
    outer loop
      vertex -19.9 -1.69864e-15 7.65
      vertex -19.9 3 7.65
      vertex -19.8192 -1.81186e-15 8.15988
    endloop
  endfacet
  facet normal 0.891007 -1.00806e-16 0.45399
    outer loop
      vertex -19.5849 -1.48329e-15 6.68015
      vertex -19.5849 3 6.68015
      vertex -19.8192 3 7.14012
    endloop
  endfacet
  facet normal 0.891007 -1.00806e-16 0.45399
    outer loop
      vertex -19.8192 -1.58543e-15 7.14012
      vertex -19.5849 -1.48329e-15 6.68015
      vertex -19.8192 3 7.14012
    endloop
  endfacet
  facet normal 0.707107 -1.57009e-16 0.707107
    outer loop
      vertex -19.2198 -1.40224e-15 6.31512
      vertex -19.2198 3 6.31512
      vertex -19.5849 3 6.68015
    endloop
  endfacet
  facet normal 0.707107 -1.57009e-16 0.707107
    outer loop
      vertex -19.5849 -1.48329e-15 6.68015
      vertex -19.2198 -1.40224e-15 6.31512
      vertex -19.5849 3 6.68015
    endloop
  endfacet
  facet normal 0.45399 -1.97843e-16 0.891007
    outer loop
      vertex -18.7599 -1.3502e-15 6.08076
      vertex -18.7599 3 6.08076
      vertex -19.2198 3 6.31512
    endloop
  endfacet
  facet normal 0.45399 -1.97843e-16 0.891007
    outer loop
      vertex -19.2198 -1.40224e-15 6.31512
      vertex -18.7599 -1.3502e-15 6.08076
      vertex -19.2198 3 6.31512
    endloop
  endfacet
  facet normal 0.156434 -2.19311e-16 0.987688
    outer loop
      vertex -18.25 -1.33227e-15 6
      vertex -18.25 3 6
      vertex -18.7599 3 6.08076
    endloop
  endfacet
  facet normal 0.156434 -2.19311e-16 0.987688
    outer loop
      vertex -18.7599 -1.3502e-15 6.08076
      vertex -18.25 -1.33227e-15 6
      vertex -18.7599 3 6.08076
    endloop
  endfacet
  facet normal -0.156434 -2.19311e-16 0.987688
    outer loop
      vertex -17.7401 -1.3502e-15 6.08076
      vertex -17.7401 3 6.08076
      vertex -18.25 3 6
    endloop
  endfacet
  facet normal -0.156434 -2.19311e-16 0.987688
    outer loop
      vertex -18.25 -1.33227e-15 6
      vertex -17.7401 -1.3502e-15 6.08076
      vertex -18.25 3 6
    endloop
  endfacet
  facet normal -0.45399 -1.97843e-16 0.891007
    outer loop
      vertex -17.2802 -1.40224e-15 6.31512
      vertex -17.2802 3 6.31512
      vertex -17.7401 3 6.08076
    endloop
  endfacet
  facet normal -0.45399 -1.97843e-16 0.891007
    outer loop
      vertex -17.7401 -1.3502e-15 6.08076
      vertex -17.2802 -1.40224e-15 6.31512
      vertex -17.7401 3 6.08076
    endloop
  endfacet
  facet normal -0.707107 -1.57009e-16 0.707107
    outer loop
      vertex -16.9151 3 6.68015
      vertex -17.2802 3 6.31512
      vertex -16.9151 -1.48329e-15 6.68015
    endloop
  endfacet
  facet normal -0.707107 -1.57009e-16 0.707107
    outer loop
      vertex -16.9151 -1.48329e-15 6.68015
      vertex -17.2802 3 6.31512
      vertex -17.2802 -1.40224e-15 6.31512
    endloop
  endfacet
  facet normal -0.891007 -1.00806e-16 0.45399
    outer loop
      vertex -16.6808 3 7.14012
      vertex -16.9151 3 6.68015
      vertex -16.6808 -1.58543e-15 7.14012
    endloop
  endfacet
  facet normal -0.891007 -1.00806e-16 0.45399
    outer loop
      vertex -16.6808 -1.58543e-15 7.14012
      vertex -16.9151 3 6.68015
      vertex -16.9151 -1.48329e-15 6.68015
    endloop
  endfacet
  facet normal -0.987688 -3.47354e-17 0.156434
    outer loop
      vertex -16.6 3 7.65
      vertex -16.6808 3 7.14012
      vertex -16.6 -1.69864e-15 7.65
    endloop
  endfacet
  facet normal -0.987688 -3.47354e-17 0.156434
    outer loop
      vertex -16.6 -1.69864e-15 7.65
      vertex -16.6808 3 7.14012
      vertex -16.6808 -1.58543e-15 7.14012
    endloop
  endfacet
  facet normal -0.987688 3.47354e-17 -0.156434
    outer loop
      vertex -16.6 3 7.65
      vertex -16.6 -1.69864e-15 7.65
      vertex -16.6808 3 8.15988
    endloop
  endfacet
  facet normal -0.987688 3.47354e-17 -0.156434
    outer loop
      vertex -16.6808 3 8.15988
      vertex -16.6 -1.69864e-15 7.65
      vertex -16.6808 -1.81186e-15 8.15988
    endloop
  endfacet
  facet normal -0.891007 1.00806e-16 -0.45399
    outer loop
      vertex -16.6808 3 8.15988
      vertex -16.6808 -1.81186e-15 8.15988
      vertex -16.9151 3 8.61985
    endloop
  endfacet
  facet normal -0.891007 1.00806e-16 -0.45399
    outer loop
      vertex -16.9151 3 8.61985
      vertex -16.6808 -1.81186e-15 8.15988
      vertex -16.9151 -1.91399e-15 8.61985
    endloop
  endfacet
  facet normal -0.707107 1.57009e-16 -0.707107
    outer loop
      vertex -16.9151 3 8.61985
      vertex -16.9151 -1.91399e-15 8.61985
      vertex -17.2802 3 8.98488
    endloop
  endfacet
  facet normal -0.707107 1.57009e-16 -0.707107
    outer loop
      vertex -17.2802 3 8.98488
      vertex -16.9151 -1.91399e-15 8.61985
      vertex -17.2802 -1.99504e-15 8.98488
    endloop
  endfacet
  facet normal -0.45399 1.97843e-16 -0.891007
    outer loop
      vertex -17.2802 3 8.98488
      vertex -17.2802 -1.99504e-15 8.98488
      vertex -17.7401 3 9.21924
    endloop
  endfacet
  facet normal -0.45399 1.97843e-16 -0.891007
    outer loop
      vertex -17.7401 3 9.21924
      vertex -17.2802 -1.99504e-15 8.98488
      vertex -17.7401 -2.04708e-15 9.21924
    endloop
  endfacet
  facet normal -0.156434 2.19311e-16 -0.987688
    outer loop
      vertex -17.7401 3 9.21924
      vertex -17.7401 -2.04708e-15 9.21924
      vertex -18.25 3 9.3
    endloop
  endfacet
  facet normal -0.156434 2.19311e-16 -0.987688
    outer loop
      vertex -18.25 3 9.3
      vertex -17.7401 -2.04708e-15 9.21924
      vertex -18.25 -2.06501e-15 9.3
    endloop
  endfacet
  facet normal 0.156434 2.19311e-16 -0.987688
    outer loop
      vertex -18.25 3 9.3
      vertex -18.25 -2.06501e-15 9.3
      vertex -18.7599 3 9.21924
    endloop
  endfacet
  facet normal 0.156434 2.19311e-16 -0.987688
    outer loop
      vertex -18.7599 3 9.21924
      vertex -18.25 -2.06501e-15 9.3
      vertex -18.7599 -2.04708e-15 9.21924
    endloop
  endfacet
  facet normal 0.45399 1.97843e-16 -0.891007
    outer loop
      vertex -18.7599 3 9.21924
      vertex -18.7599 -2.04708e-15 9.21924
      vertex -19.2198 3 8.98488
    endloop
  endfacet
  facet normal 0.45399 1.97843e-16 -0.891007
    outer loop
      vertex -19.2198 3 8.98488
      vertex -18.7599 -2.04708e-15 9.21924
      vertex -19.2198 -1.99504e-15 8.98488
    endloop
  endfacet
  facet normal 0.707107 1.57009e-16 -0.707107
    outer loop
      vertex -19.5849 3 8.61985
      vertex -19.2198 3 8.98488
      vertex -19.2198 -1.99504e-15 8.98488
    endloop
  endfacet
  facet normal 0.707107 1.57009e-16 -0.707107
    outer loop
      vertex -19.5849 -1.91399e-15 8.61985
      vertex -19.5849 3 8.61985
      vertex -19.2198 -1.99504e-15 8.98488
    endloop
  endfacet
  facet normal 0.891007 1.00806e-16 -0.45399
    outer loop
      vertex -19.8192 3 8.15988
      vertex -19.5849 3 8.61985
      vertex -19.5849 -1.91399e-15 8.61985
    endloop
  endfacet
  facet normal 0.891007 1.00806e-16 -0.45399
    outer loop
      vertex -19.8192 -1.81186e-15 8.15988
      vertex -19.8192 3 8.15988
      vertex -19.5849 -1.91399e-15 8.61985
    endloop
  endfacet
  facet normal 0.987688 -3.47354e-17 0.156434
    outer loop
      vertex 16.6808 -1.58543e-15 7.14012
      vertex 16.6808 3 7.14012
      vertex 16.6 3 7.65
    endloop
  endfacet
  facet normal 0.987688 -3.47354e-17 0.156434
    outer loop
      vertex 16.6 -1.69864e-15 7.65
      vertex 16.6808 -1.58543e-15 7.14012
      vertex 16.6 3 7.65
    endloop
  endfacet
  facet normal 0.987688 3.47354e-17 -0.156434
    outer loop
      vertex 16.6 3 7.65
      vertex 16.6808 3 8.15988
      vertex 16.6808 -1.81186e-15 8.15988
    endloop
  endfacet
  facet normal 0.987688 3.47354e-17 -0.156434
    outer loop
      vertex 16.6 -1.69864e-15 7.65
      vertex 16.6 3 7.65
      vertex 16.6808 -1.81186e-15 8.15988
    endloop
  endfacet
  facet normal 0.891007 -1.00806e-16 0.45399
    outer loop
      vertex 16.9151 -1.48329e-15 6.68015
      vertex 16.9151 3 6.68015
      vertex 16.6808 3 7.14012
    endloop
  endfacet
  facet normal 0.891007 -1.00806e-16 0.45399
    outer loop
      vertex 16.6808 -1.58543e-15 7.14012
      vertex 16.9151 -1.48329e-15 6.68015
      vertex 16.6808 3 7.14012
    endloop
  endfacet
  facet normal 0.707107 -1.57009e-16 0.707107
    outer loop
      vertex 17.2802 -1.40224e-15 6.31512
      vertex 17.2802 3 6.31512
      vertex 16.9151 3 6.68015
    endloop
  endfacet
  facet normal 0.707107 -1.57009e-16 0.707107
    outer loop
      vertex 16.9151 -1.48329e-15 6.68015
      vertex 17.2802 -1.40224e-15 6.31512
      vertex 16.9151 3 6.68015
    endloop
  endfacet
  facet normal 0.45399 -1.97843e-16 0.891007
    outer loop
      vertex 17.7401 -1.3502e-15 6.08076
      vertex 17.7401 3 6.08076
      vertex 17.2802 3 6.31512
    endloop
  endfacet
  facet normal 0.45399 -1.97843e-16 0.891007
    outer loop
      vertex 17.2802 -1.40224e-15 6.31512
      vertex 17.7401 -1.3502e-15 6.08076
      vertex 17.2802 3 6.31512
    endloop
  endfacet
  facet normal 0.156434 -2.19311e-16 0.987688
    outer loop
      vertex 18.25 -1.33227e-15 6
      vertex 18.25 3 6
      vertex 17.7401 3 6.08076
    endloop
  endfacet
  facet normal 0.156434 -2.19311e-16 0.987688
    outer loop
      vertex 17.7401 -1.3502e-15 6.08076
      vertex 18.25 -1.33227e-15 6
      vertex 17.7401 3 6.08076
    endloop
  endfacet
  facet normal -0.156434 -2.19311e-16 0.987688
    outer loop
      vertex 18.7599 -1.3502e-15 6.08076
      vertex 18.7599 3 6.08076
      vertex 18.25 3 6
    endloop
  endfacet
  facet normal -0.156434 -2.19311e-16 0.987688
    outer loop
      vertex 18.25 -1.33227e-15 6
      vertex 18.7599 -1.3502e-15 6.08076
      vertex 18.25 3 6
    endloop
  endfacet
  facet normal -0.45399 -1.97843e-16 0.891007
    outer loop
      vertex 19.2198 -1.40224e-15 6.31512
      vertex 19.2198 3 6.31512
      vertex 18.7599 3 6.08076
    endloop
  endfacet
  facet normal -0.45399 -1.97843e-16 0.891007
    outer loop
      vertex 18.7599 -1.3502e-15 6.08076
      vertex 19.2198 -1.40224e-15 6.31512
      vertex 18.7599 3 6.08076
    endloop
  endfacet
  facet normal -0.707107 -1.57009e-16 0.707107
    outer loop
      vertex 19.5849 3 6.68015
      vertex 19.2198 3 6.31512
      vertex 19.5849 -1.48329e-15 6.68015
    endloop
  endfacet
  facet normal -0.707107 -1.57009e-16 0.707107
    outer loop
      vertex 19.5849 -1.48329e-15 6.68015
      vertex 19.2198 3 6.31512
      vertex 19.2198 -1.40224e-15 6.31512
    endloop
  endfacet
  facet normal -0.891007 -1.00806e-16 0.45399
    outer loop
      vertex 19.8192 3 7.14012
      vertex 19.5849 3 6.68015
      vertex 19.8192 -1.58543e-15 7.14012
    endloop
  endfacet
  facet normal -0.891007 -1.00806e-16 0.45399
    outer loop
      vertex 19.8192 -1.58543e-15 7.14012
      vertex 19.5849 3 6.68015
      vertex 19.5849 -1.48329e-15 6.68015
    endloop
  endfacet
  facet normal -0.987688 -3.47354e-17 0.156434
    outer loop
      vertex 19.9 3 7.65
      vertex 19.8192 3 7.14012
      vertex 19.9 -1.69864e-15 7.65
    endloop
  endfacet
  facet normal -0.987688 -3.47354e-17 0.156434
    outer loop
      vertex 19.9 -1.69864e-15 7.65
      vertex 19.8192 3 7.14012
      vertex 19.8192 -1.58543e-15 7.14012
    endloop
  endfacet
  facet normal -0.987688 3.47354e-17 -0.156434
    outer loop
      vertex 19.9 3 7.65
      vertex 19.9 -1.69864e-15 7.65
      vertex 19.8192 3 8.15988
    endloop
  endfacet
  facet normal -0.987688 3.47354e-17 -0.156434
    outer loop
      vertex 19.8192 3 8.15988
      vertex 19.9 -1.69864e-15 7.65
      vertex 19.8192 -1.81186e-15 8.15988
    endloop
  endfacet
  facet normal -0.891007 1.00806e-16 -0.45399
    outer loop
      vertex 19.8192 3 8.15988
      vertex 19.8192 -1.81186e-15 8.15988
      vertex 19.5849 3 8.61985
    endloop
  endfacet
  facet normal -0.891007 1.00806e-16 -0.45399
    outer loop
      vertex 19.5849 3 8.61985
      vertex 19.8192 -1.81186e-15 8.15988
      vertex 19.5849 -1.91399e-15 8.61985
    endloop
  endfacet
  facet normal -0.707107 1.57009e-16 -0.707107
    outer loop
      vertex 19.5849 3 8.61985
      vertex 19.5849 -1.91399e-15 8.61985
      vertex 19.2198 3 8.98488
    endloop
  endfacet
  facet normal -0.707107 1.57009e-16 -0.707107
    outer loop
      vertex 19.2198 3 8.98488
      vertex 19.5849 -1.91399e-15 8.61985
      vertex 19.2198 -1.99504e-15 8.98488
    endloop
  endfacet
  facet normal -0.45399 1.97843e-16 -0.891007
    outer loop
      vertex 19.2198 3 8.98488
      vertex 19.2198 -1.99504e-15 8.98488
      vertex 18.7599 3 9.21924
    endloop
  endfacet
  facet normal -0.45399 1.97843e-16 -0.891007
    outer loop
      vertex 18.7599 3 9.21924
      vertex 19.2198 -1.99504e-15 8.98488
      vertex 18.7599 -2.04708e-15 9.21924
    endloop
  endfacet
  facet normal -0.156434 2.19311e-16 -0.987688
    outer loop
      vertex 18.7599 3 9.21924
      vertex 18.7599 -2.04708e-15 9.21924
      vertex 18.25 3 9.3
    endloop
  endfacet
  facet normal -0.156434 2.19311e-16 -0.987688
    outer loop
      vertex 18.25 3 9.3
      vertex 18.7599 -2.04708e-15 9.21924
      vertex 18.25 -2.06501e-15 9.3
    endloop
  endfacet
  facet normal 0.156434 2.19311e-16 -0.987688
    outer loop
      vertex 18.25 3 9.3
      vertex 18.25 -2.06501e-15 9.3
      vertex 17.7401 3 9.21924
    endloop
  endfacet
  facet normal 0.156434 2.19311e-16 -0.987688
    outer loop
      vertex 17.7401 3 9.21924
      vertex 18.25 -2.06501e-15 9.3
      vertex 17.7401 -2.04708e-15 9.21924
    endloop
  endfacet
  facet normal 0.45399 1.97843e-16 -0.891007
    outer loop
      vertex 17.7401 3 9.21924
      vertex 17.7401 -2.04708e-15 9.21924
      vertex 17.2802 3 8.98488
    endloop
  endfacet
  facet normal 0.45399 1.97843e-16 -0.891007
    outer loop
      vertex 17.2802 3 8.98488
      vertex 17.7401 -2.04708e-15 9.21924
      vertex 17.2802 -1.99504e-15 8.98488
    endloop
  endfacet
  facet normal 0.707107 1.57009e-16 -0.707107
    outer loop
      vertex 16.9151 3 8.61985
      vertex 17.2802 3 8.98488
      vertex 17.2802 -1.99504e-15 8.98488
    endloop
  endfacet
  facet normal 0.707107 1.57009e-16 -0.707107
    outer loop
      vertex 16.9151 -1.91399e-15 8.61985
      vertex 16.9151 3 8.61985
      vertex 17.2802 -1.99504e-15 8.98488
    endloop
  endfacet
  facet normal 0.891007 1.00806e-16 -0.45399
    outer loop
      vertex 16.6808 3 8.15988
      vertex 16.9151 3 8.61985
      vertex 16.9151 -1.91399e-15 8.61985
    endloop
  endfacet
  facet normal 0.891007 1.00806e-16 -0.45399
    outer loop
      vertex 16.6808 -1.81186e-15 8.15988
      vertex 16.6808 3 8.15988
      vertex 16.9151 -1.91399e-15 8.61985
    endloop
  endfacet
  facet normal 0 1 2.22045e-16
    outer loop
      vertex -31.9 46 14.9
      vertex -29.9 46 14.9
      vertex -31.9 46 -0.1
    endloop
  endfacet
  facet normal 0 1 2.22045e-16
    outer loop
      vertex -31.9 46 -0.1
      vertex -29.9 46 14.9
      vertex -29.9 46 -0.1
    endloop
  endfacet
  facet normal 5.55767e-17 -0.156434 -0.987688
    outer loop
      vertex -29.9 9.50988 10.9692
      vertex -29.9 9.15296 11.0258
      vertex -31.9 9.50988 10.9692
    endloop
  endfacet
  facet normal 5.55767e-17 -0.156434 -0.987688
    outer loop
      vertex -31.9 9.50988 10.9692
      vertex -29.9 9.15296 11.0258
      vertex -31.9 9.05099 11.0419
    endloop
  endfacet
  facet normal 2.77883e-17 -0.156434 -0.987688
    outer loop
      vertex -29.9 9.15296 11.0258
      vertex -29.9 9 11.05
      vertex -31.9 9.05099 11.0419
    endloop
  endfacet
  facet normal 2.77883e-17 -0.156434 -0.987688
    outer loop
      vertex -31.9 9.05099 11.0419
      vertex -29.9 9 11.05
      vertex -31.9 9 11.05
    endloop
  endfacet
  facet normal 1.6129e-16 -0.45399 -0.891007
    outer loop
      vertex -29.9 9.83186 10.8052
      vertex -29.9 9.50988 10.9692
      vertex -31.9 9.92385 10.7583
    endloop
  endfacet
  facet normal 1.6129e-16 -0.45399 -0.891007
    outer loop
      vertex -31.9 9.92385 10.7583
      vertex -29.9 9.50988 10.9692
      vertex -31.9 9.50988 10.9692
    endloop
  endfacet
  facet normal 8.06449e-17 -0.45399 -0.891007
    outer loop
      vertex -29.9 9.96985 10.7349
      vertex -29.9 9.83186 10.8052
      vertex -31.9 9.96985 10.7349
    endloop
  endfacet
  facet normal 8.06449e-17 -0.45399 -0.891007
    outer loop
      vertex -31.9 9.96985 10.7349
      vertex -29.9 9.83186 10.8052
      vertex -31.9 9.92385 10.7583
    endloop
  endfacet
  facet normal 1.25607e-16 -0.707107 -0.707107
    outer loop
      vertex -29.9 10.3349 10.3698
      vertex -29.9 9.96985 10.7349
      vertex -31.9 10.3349 10.3698
    endloop
  endfacet
  facet normal 1.25607e-16 -0.707107 -0.707107
    outer loop
      vertex -31.9 10.3349 10.3698
      vertex -29.9 9.96985 10.7349
      vertex -31.9 9.96985 10.7349
    endloop
  endfacet
  facet normal 1.58275e-16 -0.891007 -0.45399
    outer loop
      vertex -31.9 10.5458 9.95587
      vertex -29.9 10.4989 10.0479
      vertex -29.9 10.3349 10.3698
    endloop
  endfacet
  facet normal 1.58275e-16 -0.891007 -0.45399
    outer loop
      vertex -31.9 10.3349 10.3698
      vertex -31.9 10.5458 9.95587
      vertex -29.9 10.3349 10.3698
    endloop
  endfacet
  facet normal 1.58275e-16 -0.891007 -0.45399
    outer loop
      vertex -31.9 10.5692 9.90988
      vertex -29.9 10.5692 9.90988
      vertex -29.9 10.4989 10.0479
    endloop
  endfacet
  facet normal 1.58275e-16 -0.891007 -0.45399
    outer loop
      vertex -31.9 10.5458 9.95587
      vertex -31.9 10.5692 9.90988
      vertex -29.9 10.4989 10.0479
    endloop
  endfacet
  facet normal 1.75449e-16 -0.987688 -0.156434
    outer loop
      vertex -31.9 10.65 9.4
      vertex -29.9 10.65 9.4
      vertex -29.9 10.5692 9.90988
    endloop
  endfacet
  facet normal 1.75449e-16 -0.987688 -0.156434
    outer loop
      vertex -31.9 10.5692 9.90988
      vertex -31.9 10.65 9.4
      vertex -29.9 10.5692 9.90988
    endloop
  endfacet
  facet normal 1.75449e-16 -0.987688 0.156434
    outer loop
      vertex -31.9 10.5692 8.89012
      vertex -29.9 10.5692 8.89012
      vertex -29.9 10.65 9.4
    endloop
  endfacet
  facet normal 1.75449e-16 -0.987688 0.156434
    outer loop
      vertex -31.9 10.65 9.4
      vertex -31.9 10.5692 8.89012
      vertex -29.9 10.65 9.4
    endloop
  endfacet
  facet normal 1.58275e-16 -0.891007 0.45399
    outer loop
      vertex -31.9 10.5458 8.84413
      vertex -29.9 10.4989 8.75213
      vertex -29.9 10.5692 8.89012
    endloop
  endfacet
  facet normal 1.58275e-16 -0.891007 0.45399
    outer loop
      vertex -31.9 10.5692 8.89012
      vertex -31.9 10.5458 8.84413
      vertex -29.9 10.5692 8.89012
    endloop
  endfacet
  facet normal 1.58275e-16 -0.891007 0.45399
    outer loop
      vertex -31.9 10.3349 8.43015
      vertex -29.9 10.3349 8.43015
      vertex -29.9 10.4989 8.75213
    endloop
  endfacet
  facet normal 1.58275e-16 -0.891007 0.45399
    outer loop
      vertex -31.9 10.5458 8.84413
      vertex -31.9 10.3349 8.43015
      vertex -29.9 10.4989 8.75213
    endloop
  endfacet
  facet normal 1.25607e-16 -0.707107 0.707107
    outer loop
      vertex -31.9 9.96985 8.06512
      vertex -29.9 9.96985 8.06512
      vertex -29.9 10.3349 8.43015
    endloop
  endfacet
  facet normal 1.25607e-16 -0.707107 0.707107
    outer loop
      vertex -31.9 10.3349 8.43015
      vertex -31.9 9.96985 8.06512
      vertex -29.9 10.3349 8.43015
    endloop
  endfacet
  facet normal 8.06449e-17 -0.45399 0.891007
    outer loop
      vertex -31.9 9.50988 7.83076
      vertex -29.9 9.50988 7.83076
      vertex -29.9 9.96985 8.06512
    endloop
  endfacet
  facet normal 8.06449e-17 -0.45399 0.891007
    outer loop
      vertex -31.9 9.96985 8.06512
      vertex -31.9 9.50988 7.83076
      vertex -29.9 9.96985 8.06512
    endloop
  endfacet
  facet normal 2.77883e-17 -0.156434 0.987688
    outer loop
      vertex -31.9 9.45889 7.82268
      vertex -29.9 9.35691 7.80653
      vertex -29.9 9.50988 7.83076
    endloop
  endfacet
  facet normal 2.77883e-17 -0.156434 0.987688
    outer loop
      vertex -31.9 9.50988 7.83076
      vertex -31.9 9.45889 7.82268
      vertex -29.9 9.50988 7.83076
    endloop
  endfacet
  facet normal 2.77883e-17 -0.156434 0.987688
    outer loop
      vertex -31.9 9 7.75
      vertex -29.9 9 7.75
      vertex -29.9 9.35691 7.80653
    endloop
  endfacet
  facet normal 2.77883e-17 -0.156434 0.987688
    outer loop
      vertex -31.9 9.45889 7.82268
      vertex -31.9 9 7.75
      vertex -29.9 9.35691 7.80653
    endloop
  endfacet
  facet normal -2.77883e-17 0.156434 0.987688
    outer loop
      vertex -29.9 8.64309 7.80653
      vertex -29.9 9 7.75
      vertex -31.9 9 7.75
    endloop
  endfacet
  facet normal -2.77883e-17 0.156434 0.987688
    outer loop
      vertex -31.9 8.54111 7.82268
      vertex -29.9 8.64309 7.80653
      vertex -31.9 9 7.75
    endloop
  endfacet
  facet normal -2.77883e-17 0.156434 0.987688
    outer loop
      vertex -29.9 8.49012 7.83076
      vertex -29.9 8.64309 7.80653
      vertex -31.9 8.54111 7.82268
    endloop
  endfacet
  facet normal -2.77883e-17 0.156434 0.987688
    outer loop
      vertex -31.9 8.49012 7.83076
      vertex -29.9 8.49012 7.83076
      vertex -31.9 8.54111 7.82268
    endloop
  endfacet
  facet normal -8.06449e-17 0.45399 0.891007
    outer loop
      vertex -29.9 8.16814 7.99481
      vertex -29.9 8.49012 7.83076
      vertex -31.9 8.49012 7.83076
    endloop
  endfacet
  facet normal -8.06449e-17 0.45399 0.891007
    outer loop
      vertex -31.9 8.07615 8.04169
      vertex -29.9 8.16814 7.99481
      vertex -31.9 8.49012 7.83076
    endloop
  endfacet
  facet normal -8.06449e-17 0.45399 0.891007
    outer loop
      vertex -29.9 8.03015 8.06512
      vertex -29.9 8.16814 7.99481
      vertex -31.9 8.07615 8.04169
    endloop
  endfacet
  facet normal -8.06449e-17 0.45399 0.891007
    outer loop
      vertex -31.9 8.03015 8.06512
      vertex -29.9 8.03015 8.06512
      vertex -31.9 8.07615 8.04169
    endloop
  endfacet
  facet normal -1.25607e-16 0.707107 0.707107
    outer loop
      vertex -29.9 7.77463 8.32064
      vertex -29.9 8.03015 8.06512
      vertex -31.9 8.03015 8.06512
    endloop
  endfacet
  facet normal -1.25607e-16 0.707107 0.707107
    outer loop
      vertex -31.9 7.70163 8.39365
      vertex -29.9 7.77463 8.32064
      vertex -31.9 8.03015 8.06512
    endloop
  endfacet
  facet normal -1.25607e-16 0.707107 0.707107
    outer loop
      vertex -29.9 7.66512 8.43015
      vertex -29.9 7.77463 8.32064
      vertex -31.9 7.70163 8.39365
    endloop
  endfacet
  facet normal -1.25607e-16 0.707107 0.707107
    outer loop
      vertex -31.9 7.66512 8.43015
      vertex -29.9 7.66512 8.43015
      vertex -31.9 7.70163 8.39365
    endloop
  endfacet
  facet normal -1.58275e-16 0.891007 0.45399
    outer loop
      vertex -29.9 7.66512 8.43015
      vertex -31.9 7.66512 8.43015
      vertex -29.9 7.43076 8.89012
    endloop
  endfacet
  facet normal -1.58275e-16 0.891007 0.45399
    outer loop
      vertex -29.9 7.43076 8.89012
      vertex -31.9 7.66512 8.43015
      vertex -31.9 7.43076 8.89012
    endloop
  endfacet
  facet normal -1.75449e-16 0.987688 0.156434
    outer loop
      vertex -29.9 7.43076 8.89012
      vertex -31.9 7.43076 8.89012
      vertex -29.9 7.37423 9.24704
    endloop
  endfacet
  facet normal -1.75449e-16 0.987688 0.156434
    outer loop
      vertex -29.9 7.37423 9.24704
      vertex -31.9 7.43076 8.89012
      vertex -31.9 7.35808 9.34901
    endloop
  endfacet
  facet normal -2.63173e-16 0.987688 0.156434
    outer loop
      vertex -29.9 7.37423 9.24704
      vertex -31.9 7.35808 9.34901
      vertex -29.9 7.35 9.4
    endloop
  endfacet
  facet normal -2.63173e-16 0.987688 0.156434
    outer loop
      vertex -29.9 7.35 9.4
      vertex -31.9 7.35808 9.34901
      vertex -31.9 7.35 9.4
    endloop
  endfacet
  facet normal -2.63173e-16 0.987688 -0.156434
    outer loop
      vertex -29.9 7.35 9.4
      vertex -31.9 7.35 9.4
      vertex -29.9 7.37423 9.55296
    endloop
  endfacet
  facet normal -2.63173e-16 0.987688 -0.156434
    outer loop
      vertex -29.9 7.37423 9.55296
      vertex -31.9 7.35 9.4
      vertex -31.9 7.35808 9.45099
    endloop
  endfacet
  facet normal -1.75449e-16 0.987688 -0.156434
    outer loop
      vertex -29.9 7.37423 9.55296
      vertex -31.9 7.35808 9.45099
      vertex -29.9 7.43076 9.90988
    endloop
  endfacet
  facet normal -1.75449e-16 0.987688 -0.156434
    outer loop
      vertex -29.9 7.43076 9.90988
      vertex -31.9 7.35808 9.45099
      vertex -31.9 7.43076 9.90988
    endloop
  endfacet
  facet normal -1.58275e-16 0.891007 -0.45399
    outer loop
      vertex -29.9 7.43076 9.90988
      vertex -31.9 7.43076 9.90988
      vertex -29.9 7.66512 10.3698
    endloop
  endfacet
  facet normal -1.58275e-16 0.891007 -0.45399
    outer loop
      vertex -29.9 7.66512 10.3698
      vertex -31.9 7.43076 9.90988
      vertex -31.9 7.66512 10.3698
    endloop
  endfacet
  facet normal -1.25607e-16 0.707107 -0.707107
    outer loop
      vertex -29.9 7.66512 10.3698
      vertex -31.9 7.66512 10.3698
      vertex -29.9 7.77463 10.4794
    endloop
  endfacet
  facet normal -1.25607e-16 0.707107 -0.707107
    outer loop
      vertex -29.9 7.77463 10.4794
      vertex -31.9 7.66512 10.3698
      vertex -31.9 7.70163 10.4063
    endloop
  endfacet
  facet normal -1.25607e-16 0.707107 -0.707107
    outer loop
      vertex -29.9 7.77463 10.4794
      vertex -31.9 7.70163 10.4063
      vertex -29.9 8.03015 10.7349
    endloop
  endfacet
  facet normal -1.25607e-16 0.707107 -0.707107
    outer loop
      vertex -29.9 8.03015 10.7349
      vertex -31.9 7.70163 10.4063
      vertex -31.9 8.03015 10.7349
    endloop
  endfacet
  facet normal -8.06449e-17 0.45399 -0.891007
    outer loop
      vertex -29.9 8.03015 10.7349
      vertex -31.9 8.03015 10.7349
      vertex -29.9 8.16814 10.8052
    endloop
  endfacet
  facet normal -8.06449e-17 0.45399 -0.891007
    outer loop
      vertex -29.9 8.16814 10.8052
      vertex -31.9 8.03015 10.7349
      vertex -31.9 8.07615 10.7583
    endloop
  endfacet
  facet normal -8.06449e-17 0.45399 -0.891007
    outer loop
      vertex -29.9 8.16814 10.8052
      vertex -31.9 8.07615 10.7583
      vertex -29.9 8.49012 10.9692
    endloop
  endfacet
  facet normal -8.06449e-17 0.45399 -0.891007
    outer loop
      vertex -29.9 8.49012 10.9692
      vertex -31.9 8.07615 10.7583
      vertex -31.9 8.49012 10.9692
    endloop
  endfacet
  facet normal -2.77883e-17 0.156434 -0.987688
    outer loop
      vertex -29.9 8.49012 10.9692
      vertex -31.9 8.49012 10.9692
      vertex -29.9 8.64309 10.9935
    endloop
  endfacet
  facet normal -2.77883e-17 0.156434 -0.987688
    outer loop
      vertex -29.9 8.64309 10.9935
      vertex -31.9 8.49012 10.9692
      vertex -31.9 8.54111 10.9773
    endloop
  endfacet
  facet normal -2.77883e-17 0.156434 -0.987688
    outer loop
      vertex -29.9 8.64309 10.9935
      vertex -31.9 8.54111 10.9773
      vertex -29.9 9 11.05
    endloop
  endfacet
  facet normal -2.77883e-17 0.156434 -0.987688
    outer loop
      vertex -29.9 9 11.05
      vertex -31.9 8.54111 10.9773
      vertex -31.9 9 11.05
    endloop
  endfacet
  facet normal 0 -0.156434 -0.987688
    outer loop
      vertex -29.9 41.153 11.0258
      vertex -29.9 41 11.05
      vertex -31.9 41.051 11.0419
    endloop
  endfacet
  facet normal 0 -0.156434 -0.987688
    outer loop
      vertex -31.9 41.051 11.0419
      vertex -29.9 41 11.05
      vertex -31.9 41 11.05
    endloop
  endfacet
  facet normal 1.11153e-16 -0.156434 -0.987688
    outer loop
      vertex -29.9 41.5099 10.9692
      vertex -29.9 41.153 11.0258
      vertex -31.9 41.5099 10.9692
    endloop
  endfacet
  facet normal 1.11153e-16 -0.156434 -0.987688
    outer loop
      vertex -31.9 41.5099 10.9692
      vertex -29.9 41.153 11.0258
      vertex -31.9 41.051 11.0419
    endloop
  endfacet
  facet normal 3.2258e-16 -0.45399 -0.891007
    outer loop
      vertex -29.9 41.8319 10.8052
      vertex -29.9 41.5099 10.9692
      vertex -31.9 41.9238 10.7583
    endloop
  endfacet
  facet normal 3.2258e-16 -0.45399 -0.891007
    outer loop
      vertex -31.9 41.9238 10.7583
      vertex -29.9 41.5099 10.9692
      vertex -31.9 41.5099 10.9692
    endloop
  endfacet
  facet normal 0 -0.45399 -0.891007
    outer loop
      vertex -29.9 41.9698 10.7349
      vertex -29.9 41.8319 10.8052
      vertex -31.9 41.9698 10.7349
    endloop
  endfacet
  facet normal 0 -0.45399 -0.891007
    outer loop
      vertex -31.9 41.9698 10.7349
      vertex -29.9 41.8319 10.8052
      vertex -31.9 41.9238 10.7583
    endloop
  endfacet
  facet normal 0 -0.707107 -0.707107
    outer loop
      vertex -29.9 42.3349 10.3698
      vertex -29.9 41.9698 10.7349
      vertex -31.9 42.3349 10.3698
    endloop
  endfacet
  facet normal 0 -0.707107 -0.707107
    outer loop
      vertex -31.9 42.3349 10.3698
      vertex -29.9 41.9698 10.7349
      vertex -31.9 41.9698 10.7349
    endloop
  endfacet
  facet normal 0 -0.891007 -0.45399
    outer loop
      vertex -31.9 42.3583 10.3238
      vertex -29.9 42.4052 10.2319
      vertex -29.9 42.3349 10.3698
    endloop
  endfacet
  facet normal 0 -0.891007 -0.45399
    outer loop
      vertex -31.9 42.3349 10.3698
      vertex -31.9 42.3583 10.3238
      vertex -29.9 42.3349 10.3698
    endloop
  endfacet
  facet normal 6.33098e-16 -0.891007 -0.45399
    outer loop
      vertex -31.9 42.5692 9.90988
      vertex -29.9 42.5692 9.90988
      vertex -29.9 42.4052 10.2319
    endloop
  endfacet
  facet normal 6.33098e-16 -0.891007 -0.45399
    outer loop
      vertex -31.9 42.3583 10.3238
      vertex -31.9 42.5692 9.90988
      vertex -29.9 42.4052 10.2319
    endloop
  endfacet
  facet normal 7.01795e-16 -0.987688 -0.156434
    outer loop
      vertex -31.9 42.65 9.4
      vertex -29.9 42.65 9.4
      vertex -29.9 42.5692 9.90988
    endloop
  endfacet
  facet normal 7.01795e-16 -0.987688 -0.156434
    outer loop
      vertex -31.9 42.5692 9.90988
      vertex -31.9 42.65 9.4
      vertex -29.9 42.5692 9.90988
    endloop
  endfacet
  facet normal 7.01795e-16 -0.987688 0.156434
    outer loop
      vertex -31.9 42.5773 8.94111
      vertex -29.9 42.5935 9.04309
      vertex -29.9 42.65 9.4
    endloop
  endfacet
  facet normal 7.01795e-16 -0.987688 0.156434
    outer loop
      vertex -31.9 42.65 9.4
      vertex -31.9 42.5773 8.94111
      vertex -29.9 42.65 9.4
    endloop
  endfacet
  facet normal 0 -0.987688 0.156434
    outer loop
      vertex -31.9 42.5692 8.89012
      vertex -29.9 42.5692 8.89012
      vertex -29.9 42.5935 9.04309
    endloop
  endfacet
  facet normal 0 -0.987688 0.156434
    outer loop
      vertex -31.9 42.5773 8.94111
      vertex -31.9 42.5692 8.89012
      vertex -29.9 42.5935 9.04309
    endloop
  endfacet
  facet normal 0 -0.891007 0.45399
    outer loop
      vertex -31.9 42.3349 8.43015
      vertex -29.9 42.3349 8.43015
      vertex -29.9 42.5692 8.89012
    endloop
  endfacet
  facet normal 0 -0.891007 0.45399
    outer loop
      vertex -31.9 42.5692 8.89012
      vertex -31.9 42.3349 8.43015
      vertex -29.9 42.5692 8.89012
    endloop
  endfacet
  facet normal 0 -0.707107 0.707107
    outer loop
      vertex -31.9 41.9698 8.06512
      vertex -29.9 41.9698 8.06512
      vertex -29.9 42.3349 8.43015
    endloop
  endfacet
  facet normal 0 -0.707107 0.707107
    outer loop
      vertex -31.9 42.3349 8.43015
      vertex -31.9 41.9698 8.06512
      vertex -29.9 42.3349 8.43015
    endloop
  endfacet
  facet normal 0 -0.45399 0.891007
    outer loop
      vertex -31.9 41.9238 8.04169
      vertex -29.9 41.8319 7.99481
      vertex -29.9 41.9698 8.06512
    endloop
  endfacet
  facet normal 0 -0.45399 0.891007
    outer loop
      vertex -31.9 41.9698 8.06512
      vertex -31.9 41.9238 8.04169
      vertex -29.9 41.9698 8.06512
    endloop
  endfacet
  facet normal 3.2258e-16 -0.45399 0.891007
    outer loop
      vertex -31.9 41.5099 7.83076
      vertex -29.9 41.5099 7.83076
      vertex -29.9 41.8319 7.99481
    endloop
  endfacet
  facet normal 3.2258e-16 -0.45399 0.891007
    outer loop
      vertex -31.9 41.9238 8.04169
      vertex -31.9 41.5099 7.83076
      vertex -29.9 41.8319 7.99481
    endloop
  endfacet
  facet normal 1.11153e-16 -0.156434 0.987688
    outer loop
      vertex -31.9 41.051 7.75808
      vertex -29.9 41.153 7.77423
      vertex -29.9 41.5099 7.83076
    endloop
  endfacet
  facet normal 1.11153e-16 -0.156434 0.987688
    outer loop
      vertex -31.9 41.5099 7.83076
      vertex -31.9 41.051 7.75808
      vertex -29.9 41.5099 7.83076
    endloop
  endfacet
  facet normal 0 -0.156434 0.987688
    outer loop
      vertex -31.9 41 7.75
      vertex -29.9 41 7.75
      vertex -29.9 41.153 7.77423
    endloop
  endfacet
  facet normal 0 -0.156434 0.987688
    outer loop
      vertex -31.9 41.051 7.75808
      vertex -31.9 41 7.75
      vertex -29.9 41.153 7.77423
    endloop
  endfacet
  facet normal 0 0.156434 0.987688
    outer loop
      vertex -29.9 40.4901 7.83076
      vertex -29.9 41 7.75
      vertex -31.9 41 7.75
    endloop
  endfacet
  facet normal 0 0.156434 0.987688
    outer loop
      vertex -31.9 40.4901 7.83076
      vertex -29.9 40.4901 7.83076
      vertex -31.9 41 7.75
    endloop
  endfacet
  facet normal 0 0.45399 0.891007
    outer loop
      vertex -29.9 40.0302 8.06512
      vertex -29.9 40.4901 7.83076
      vertex -31.9 40.4901 7.83076
    endloop
  endfacet
  facet normal 0 0.45399 0.891007
    outer loop
      vertex -31.9 40.0302 8.06512
      vertex -29.9 40.0302 8.06512
      vertex -31.9 40.4901 7.83076
    endloop
  endfacet
  facet normal 0 0.707107 0.707107
    outer loop
      vertex -29.9 39.6651 8.43015
      vertex -29.9 40.0302 8.06512
      vertex -31.9 40.0302 8.06512
    endloop
  endfacet
  facet normal 0 0.707107 0.707107
    outer loop
      vertex -31.9 39.6651 8.43015
      vertex -29.9 39.6651 8.43015
      vertex -31.9 40.0302 8.06512
    endloop
  endfacet
  facet normal 0 0.891007 0.45399
    outer loop
      vertex -29.9 39.6651 8.43015
      vertex -31.9 39.6651 8.43015
      vertex -29.9 39.4308 8.89012
    endloop
  endfacet
  facet normal 0 0.891007 0.45399
    outer loop
      vertex -29.9 39.4308 8.89012
      vertex -31.9 39.6651 8.43015
      vertex -31.9 39.4308 8.89012
    endloop
  endfacet
  facet normal 0 0.987688 0.156434
    outer loop
      vertex -29.9 39.4308 8.89012
      vertex -31.9 39.4308 8.89012
      vertex -29.9 39.35 9.4
    endloop
  endfacet
  facet normal 0 0.987688 0.156434
    outer loop
      vertex -29.9 39.35 9.4
      vertex -31.9 39.4308 8.89012
      vertex -31.9 39.35 9.4
    endloop
  endfacet
  facet normal 0 0.987688 -0.156434
    outer loop
      vertex -29.9 39.35 9.4
      vertex -31.9 39.35 9.4
      vertex -29.9 39.4308 9.90988
    endloop
  endfacet
  facet normal 0 0.987688 -0.156434
    outer loop
      vertex -29.9 39.4308 9.90988
      vertex -31.9 39.35 9.4
      vertex -31.9 39.4308 9.90988
    endloop
  endfacet
  facet normal 0 0.891007 -0.45399
    outer loop
      vertex -29.9 39.4308 9.90988
      vertex -31.9 39.4308 9.90988
      vertex -29.9 39.6651 10.3698
    endloop
  endfacet
  facet normal 0 0.891007 -0.45399
    outer loop
      vertex -29.9 39.6651 10.3698
      vertex -31.9 39.4308 9.90988
      vertex -31.9 39.6651 10.3698
    endloop
  endfacet
  facet normal 0 0.707107 -0.707107
    outer loop
      vertex -29.9 39.6651 10.3698
      vertex -31.9 39.6651 10.3698
      vertex -29.9 40.0302 10.7349
    endloop
  endfacet
  facet normal 0 0.707107 -0.707107
    outer loop
      vertex -29.9 40.0302 10.7349
      vertex -31.9 39.6651 10.3698
      vertex -31.9 40.0302 10.7349
    endloop
  endfacet
  facet normal 0 0.45399 -0.891007
    outer loop
      vertex -29.9 40.0302 10.7349
      vertex -31.9 40.0302 10.7349
      vertex -29.9 40.4901 10.9692
    endloop
  endfacet
  facet normal 0 0.45399 -0.891007
    outer loop
      vertex -29.9 40.4901 10.9692
      vertex -31.9 40.0302 10.7349
      vertex -31.9 40.4901 10.9692
    endloop
  endfacet
  facet normal 0 0.156434 -0.987688
    outer loop
      vertex -29.9 40.4901 10.9692
      vertex -31.9 40.4901 10.9692
      vertex -29.9 41 11.05
    endloop
  endfacet
  facet normal 0 0.156434 -0.987688
    outer loop
      vertex -29.9 41 11.05
      vertex -31.9 40.4901 10.9692
      vertex -31.9 41 11.05
    endloop
  endfacet
  facet normal 0 1 2.22045e-16
    outer loop
      vertex -29.9 3 12
      vertex -16.3155 3 12
      vertex -29.9 3 6.66134e-16
    endloop
  endfacet
  facet normal 0 1 2.22045e-16
    outer loop
      vertex -18.25 3 9.3
      vertex -16.3155 3 12
      vertex -15.2028 3 10.6972
    endloop
  endfacet
  facet normal 0 1 2.22045e-16
    outer loop
      vertex -16.6808 3 8.15988
      vertex -15.2028 3 10.6972
      vertex -12.6374 3 8.50613
    endloop
  endfacet
  facet normal 0 1 2.22045e-16
    outer loop
      vertex -12.6374 3 8.50613
      vertex -9.7608 3 6.74336
      vertex -29.9 3 6.66134e-16
    endloop
  endfacet
  facet normal 0 1 2.22045e-16
    outer loop
      vertex -9.7608 3 6.74336
      vertex -6.64387 3 5.45228
      vertex -29.9 3 6.66134e-16
    endloop
  endfacet
  facet normal 0 1 2.22045e-16
    outer loop
      vertex -6.64387 3 5.45228
      vertex -3.36334 3 4.6647
      vertex -29.9 3 6.66134e-16
    endloop
  endfacet
  facet normal 0 1 2.22045e-16
    outer loop
      vertex -3.36334 3 4.6647
      vertex 1.3165e-15 3 4.4
      vertex -29.9 3 6.66134e-16
    endloop
  endfacet
  facet normal 0 1 2.22045e-16
    outer loop
      vertex 1.3165e-15 3 4.4
      vertex 3.36334 3 4.6647
      vertex -29.9 3 6.66134e-16
    endloop
  endfacet
  facet normal 0 1 2.22045e-16
    outer loop
      vertex 3.36334 3 4.6647
      vertex 21.9 3 6.66134e-16
      vertex -29.9 3 6.66134e-16
    endloop
  endfacet
  facet normal 0 1 2.22045e-16
    outer loop
      vertex 6.64387 3 5.45228
      vertex 21.9 3 6.66134e-16
      vertex 3.36334 3 4.6647
    endloop
  endfacet
  facet normal 0 1 2.22045e-16
    outer loop
      vertex 12.6374 3 8.50613
      vertex 21.9 3 12
      vertex 9.7608 3 6.74336
    endloop
  endfacet
  facet normal 0 1 2.22045e-16
    outer loop
      vertex 15.2028 3 10.6972
      vertex 16.3155 3 12
      vertex 21.9 3 12
    endloop
  endfacet
  facet normal 0 1 2.22045e-16
    outer loop
      vertex 15.2028 3 10.6972
      vertex 21.9 3 12
      vertex 12.6374 3 8.50613
    endloop
  endfacet
  facet normal 0 1 2.22045e-16
    outer loop
      vertex 19.8192 3 7.14012
      vertex 21.9 3 12
      vertex 21.9 3 6.66134e-16
    endloop
  endfacet
  facet normal 0 1 2.22045e-16
    outer loop
      vertex 9.7608 3 6.74336
      vertex 21.9 3 6.66134e-16
      vertex 6.64387 3 5.45228
    endloop
  endfacet
  facet normal 0 1 2.22045e-16
    outer loop
      vertex 17.7401 3 6.08076
      vertex 21.9 3 6.66134e-16
      vertex 17.2802 3 6.31512
    endloop
  endfacet
  facet normal 0 1 2.22045e-16
    outer loop
      vertex -29.9 3 6.66134e-16
      vertex -19.8192 3 8.15988
      vertex -19.9 3 7.65
    endloop
  endfacet
  facet normal 0 1 2.22045e-16
    outer loop
      vertex -16.9151 3 6.68015
      vertex -12.6374 3 8.50613
      vertex -17.2802 3 6.31512
    endloop
  endfacet
  facet normal 0 1 2.22045e-16
    outer loop
      vertex -29.9 3 6.66134e-16
      vertex -19.8192 3 7.14012
      vertex -19.5849 3 6.68015
    endloop
  endfacet
  facet normal 0 1 2.22045e-16
    outer loop
      vertex -29.9 3 6.66134e-16
      vertex -19.5849 3 6.68015
      vertex -19.2198 3 6.31512
    endloop
  endfacet
  facet normal 0 1 2.22045e-16
    outer loop
      vertex -29.9 3 6.66134e-16
      vertex -19.2198 3 6.31512
      vertex -18.7599 3 6.08076
    endloop
  endfacet
  facet normal 0 1 2.22045e-16
    outer loop
      vertex -29.9 3 6.66134e-16
      vertex -18.7599 3 6.08076
      vertex -18.25 3 6
    endloop
  endfacet
  facet normal 0 1 2.22045e-16
    outer loop
      vertex -29.9 3 6.66134e-16
      vertex -18.25 3 6
      vertex -17.7401 3 6.08076
    endloop
  endfacet
  facet normal 0 1 2.22045e-16
    outer loop
      vertex -29.9 3 6.66134e-16
      vertex -17.7401 3 6.08076
      vertex -12.6374 3 8.50613
    endloop
  endfacet
  facet normal 0 1 2.22045e-16
    outer loop
      vertex -17.7401 3 6.08076
      vertex -17.2802 3 6.31512
      vertex -12.6374 3 8.50613
    endloop
  endfacet
  facet normal 0 1 2.22045e-16
    outer loop
      vertex -16.6808 3 7.14012
      vertex -12.6374 3 8.50613
      vertex -16.9151 3 6.68015
    endloop
  endfacet
  facet normal 0 1 2.22045e-16
    outer loop
      vertex -16.6 3 7.65
      vertex -12.6374 3 8.50613
      vertex -16.6808 3 7.14012
    endloop
  endfacet
  facet normal 0 1 2.22045e-16
    outer loop
      vertex -16.6808 3 8.15988
      vertex -12.6374 3 8.50613
      vertex -16.6 3 7.65
    endloop
  endfacet
  facet normal 0 1 2.22045e-16
    outer loop
      vertex -16.9151 3 8.61985
      vertex -15.2028 3 10.6972
      vertex -16.6808 3 8.15988
    endloop
  endfacet
  facet normal 0 1 2.22045e-16
    outer loop
      vertex -17.7401 3 9.21924
      vertex -15.2028 3 10.6972
      vertex -17.2802 3 8.98488
    endloop
  endfacet
  facet normal 0 1 2.22045e-16
    outer loop
      vertex -17.2802 3 8.98488
      vertex -15.2028 3 10.6972
      vertex -16.9151 3 8.61985
    endloop
  endfacet
  facet normal 0 1 2.22045e-16
    outer loop
      vertex -18.25 3 9.3
      vertex -15.2028 3 10.6972
      vertex -17.7401 3 9.21924
    endloop
  endfacet
  facet normal 0 1 2.22045e-16
    outer loop
      vertex -18.7599 3 9.21924
      vertex -16.3155 3 12
      vertex -18.25 3 9.3
    endloop
  endfacet
  facet normal 0 1 2.22045e-16
    outer loop
      vertex -19.2198 3 8.98488
      vertex -16.3155 3 12
      vertex -18.7599 3 9.21924
    endloop
  endfacet
  facet normal 0 1 2.22045e-16
    outer loop
      vertex -29.9 3 6.66134e-16
      vertex -16.3155 3 12
      vertex -19.2198 3 8.98488
    endloop
  endfacet
  facet normal 0 1 2.22045e-16
    outer loop
      vertex -29.9 3 6.66134e-16
      vertex -19.2198 3 8.98488
      vertex -19.5849 3 8.61985
    endloop
  endfacet
  facet normal 0 1 2.22045e-16
    outer loop
      vertex -29.9 3 6.66134e-16
      vertex -19.5849 3 8.61985
      vertex -19.8192 3 8.15988
    endloop
  endfacet
  facet normal 0 1 2.22045e-16
    outer loop
      vertex 9.7608 3 6.74336
      vertex 16.6808 3 8.15988
      vertex 16.6 3 7.65
    endloop
  endfacet
  facet normal 0 1 2.22045e-16
    outer loop
      vertex 9.7608 3 6.74336
      vertex 16.6 3 7.65
      vertex 16.6808 3 7.14012
    endloop
  endfacet
  facet normal 0 1 2.22045e-16
    outer loop
      vertex 9.7608 3 6.74336
      vertex 16.6808 3 7.14012
      vertex 16.9151 3 6.68015
    endloop
  endfacet
  facet normal 0 1 2.22045e-16
    outer loop
      vertex 9.7608 3 6.74336
      vertex 16.9151 3 6.68015
      vertex 21.9 3 6.66134e-16
    endloop
  endfacet
  facet normal 0 1 2.22045e-16
    outer loop
      vertex 16.9151 3 6.68015
      vertex 17.2802 3 6.31512
      vertex 21.9 3 6.66134e-16
    endloop
  endfacet
  facet normal 0 1 2.22045e-16
    outer loop
      vertex 18.25 3 6
      vertex 21.9 3 6.66134e-16
      vertex 17.7401 3 6.08076
    endloop
  endfacet
  facet normal 0 1 2.22045e-16
    outer loop
      vertex 17.7401 3 9.21924
      vertex 21.9 3 12
      vertex 18.25 3 9.3
    endloop
  endfacet
  facet normal 0 1 2.22045e-16
    outer loop
      vertex 19.9 3 7.65
      vertex 21.9 3 12
      vertex 19.8192 3 7.14012
    endloop
  endfacet
  facet normal 0 1 2.22045e-16
    outer loop
      vertex 19.5849 3 8.61985
      vertex 21.9 3 12
      vertex 19.8192 3 8.15988
    endloop
  endfacet
  facet normal 0 1 2.22045e-16
    outer loop
      vertex 18.25 3 6
      vertex 18.7599 3 6.08076
      vertex 21.9 3 6.66134e-16
    endloop
  endfacet
  facet normal 0 1 2.22045e-16
    outer loop
      vertex 18.7599 3 6.08076
      vertex 19.2198 3 6.31512
      vertex 21.9 3 6.66134e-16
    endloop
  endfacet
  facet normal 0 1 2.22045e-16
    outer loop
      vertex 19.8192 3 8.15988
      vertex 21.9 3 12
      vertex 19.9 3 7.65
    endloop
  endfacet
  facet normal 0 1 2.22045e-16
    outer loop
      vertex 19.2198 3 6.31512
      vertex 19.5849 3 6.68015
      vertex 21.9 3 6.66134e-16
    endloop
  endfacet
  facet normal 0 1 2.22045e-16
    outer loop
      vertex 19.5849 3 6.68015
      vertex 19.8192 3 7.14012
      vertex 21.9 3 6.66134e-16
    endloop
  endfacet
  facet normal 0 1 2.22045e-16
    outer loop
      vertex 19.2198 3 8.98488
      vertex 21.9 3 12
      vertex 19.5849 3 8.61985
    endloop
  endfacet
  facet normal 0 1 2.22045e-16
    outer loop
      vertex 18.7599 3 9.21924
      vertex 21.9 3 12
      vertex 19.2198 3 8.98488
    endloop
  endfacet
  facet normal 0 1 2.22045e-16
    outer loop
      vertex 18.25 3 9.3
      vertex 21.9 3 12
      vertex 18.7599 3 9.21924
    endloop
  endfacet
  facet normal 0 1 2.22045e-16
    outer loop
      vertex 9.7608 3 6.74336
      vertex 21.9 3 12
      vertex 17.7401 3 9.21924
    endloop
  endfacet
  facet normal 0 1 2.22045e-16
    outer loop
      vertex 9.7608 3 6.74336
      vertex 17.7401 3 9.21924
      vertex 17.2802 3 8.98488
    endloop
  endfacet
  facet normal 0 1 2.22045e-16
    outer loop
      vertex 9.7608 3 6.74336
      vertex 17.2802 3 8.98488
      vertex 16.9151 3 8.61985
    endloop
  endfacet
  facet normal 0 1 2.22045e-16
    outer loop
      vertex 9.7608 3 6.74336
      vertex 16.9151 3 8.61985
      vertex 16.6808 3 8.15988
    endloop
  endfacet
  facet normal 0 1 2.22045e-16
    outer loop
      vertex -19.8192 3 7.14012
      vertex -29.9 3 6.66134e-16
      vertex -19.9 3 7.65
    endloop
  endfacet
endsolid OpenSCAD_Model
