solid OpenSCAD_Model
  facet normal -1 0 0
    outer loop
      vertex -31.9 -10.9692 9.50988
      vertex -31.9 -11.0419 9.05099
      vertex -31.9 -14.9 0
    endloop
  endfacet
  facet normal -1 0 0
    outer loop
      vertex -31.9 -11.0419 9.05099
      vertex -31.9 -11.05 9
      vertex -31.9 -14.9 0
    endloop
  endfacet
  facet normal -1 0 -0
    outer loop
      vertex -31.9 -11.05 9
      vertex -31.9 -10.9773 8.54111
      vertex -31.9 -14.9 0
    endloop
  endfacet
  facet normal -1 0 -0
    outer loop
      vertex -31.9 -10.9773 8.54111
      vertex -31.9 -10.9692 8.49012
      vertex -31.9 -14.9 0
    endloop
  endfacet
  facet normal -1 0 -0
    outer loop
      vertex -31.9 -10.9692 8.49012
      vertex -31.9 -10.7583 8.07615
      vertex -31.9 -14.9 0
    endloop
  endfacet
  facet normal -1 0 -0
    outer loop
      vertex -31.9 -10.7583 8.07615
      vertex -31.9 -10.7349 8.03015
      vertex -31.9 -14.9 0
    endloop
  endfacet
  facet normal -1 0 -0
    outer loop
      vertex -31.9 -10.7349 8.03015
      vertex -31.9 -10.4063 7.70163
      vertex -31.9 -14.9 0
    endloop
  endfacet
  facet normal -1 0 -0
    outer loop
      vertex -31.9 0.1 46
      vertex -31.9 0.1 0
      vertex -31.9 -8.06512 9.96985
    endloop
  endfacet
  facet normal -1 0 -0
    outer loop
      vertex -31.9 -10.4063 7.70163
      vertex -31.9 -10.3698 7.66512
      vertex -31.9 -14.9 0
    endloop
  endfacet
  facet normal -1 0 -0
    outer loop
      vertex -31.9 -8.89012 7.43076
      vertex -31.9 0.1 0
      vertex -31.9 -14.9 0
    endloop
  endfacet
  facet normal -1 -0 0
    outer loop
      vertex -31.9 -9.90988 7.43076
      vertex -31.9 -14.9 0
      vertex -31.9 -10.3698 7.66512
    endloop
  endfacet
  facet normal -1 -0 0
    outer loop
      vertex -31.9 -9.45099 7.35808
      vertex -31.9 -14.9 0
      vertex -31.9 -9.90988 7.43076
    endloop
  endfacet
  facet normal -1 -0 0
    outer loop
      vertex -31.9 -9.4 7.35
      vertex -31.9 -14.9 0
      vertex -31.9 -9.45099 7.35808
    endloop
  endfacet
  facet normal -1 0 0
    outer loop
      vertex -31.9 -9.34901 7.35808
      vertex -31.9 -14.9 0
      vertex -31.9 -9.4 7.35
    endloop
  endfacet
  facet normal -1 0 0
    outer loop
      vertex -31.9 -8.89012 7.43076
      vertex -31.9 -14.9 0
      vertex -31.9 -9.34901 7.35808
    endloop
  endfacet
  facet normal -1 0 -0
    outer loop
      vertex -31.9 -8.43015 7.66512
      vertex -31.9 0.1 0
      vertex -31.9 -8.89012 7.43076
    endloop
  endfacet
  facet normal -1 0 -0
    outer loop
      vertex -31.9 -8.39365 7.70163
      vertex -31.9 0.1 0
      vertex -31.9 -8.43015 7.66512
    endloop
  endfacet
  facet normal -1 0 -0
    outer loop
      vertex -31.9 -8.06512 8.03015
      vertex -31.9 0.1 0
      vertex -31.9 -8.39365 7.70163
    endloop
  endfacet
  facet normal -1 0 -0
    outer loop
      vertex -31.9 -8.04169 8.07615
      vertex -31.9 0.1 0
      vertex -31.9 -8.06512 8.03015
    endloop
  endfacet
  facet normal -1 0 0
    outer loop
      vertex -31.9 0.1 0
      vertex -31.9 -7.83076 8.49012
      vertex -31.9 -7.82268 8.54111
    endloop
  endfacet
  facet normal -1 0 -0
    outer loop
      vertex -31.9 -7.83076 8.49012
      vertex -31.9 0.1 0
      vertex -31.9 -8.04169 8.07615
    endloop
  endfacet
  facet normal -1 0 0
    outer loop
      vertex -31.9 0.1 0
      vertex -31.9 -7.82268 8.54111
      vertex -31.9 -7.75 9
    endloop
  endfacet
  facet normal -1 0 0
    outer loop
      vertex -31.9 0.1 0
      vertex -31.9 -7.75 9
      vertex -31.9 -7.82268 9.45889
    endloop
  endfacet
  facet normal -1 0 0
    outer loop
      vertex -31.9 0.1 0
      vertex -31.9 -7.82268 9.45889
      vertex -31.9 -7.83076 9.50988
    endloop
  endfacet
  facet normal -1 0 0
    outer loop
      vertex -31.9 -8.89012 10.5692
      vertex -31.9 -8.89012 39.4308
      vertex -31.9 -8.84413 10.5458
    endloop
  endfacet
  facet normal -1 0 0
    outer loop
      vertex -31.9 -7.83076 9.50988
      vertex -31.9 -8.06512 9.96985
      vertex -31.9 0.1 0
    endloop
  endfacet
  facet normal -1 0 0
    outer loop
      vertex -31.9 -8.89012 10.5692
      vertex -31.9 -9.4 39.35
      vertex -31.9 -8.89012 39.4308
    endloop
  endfacet
  facet normal -1 0 -0
    outer loop
      vertex -31.9 -8.43015 39.6651
      vertex -31.9 -8.43015 10.3349
      vertex -31.9 -8.84413 10.5458
    endloop
  endfacet
  facet normal -1 0 0
    outer loop
      vertex -31.9 -9.4 10.65
      vertex -31.9 -9.4 39.35
      vertex -31.9 -8.89012 10.5692
    endloop
  endfacet
  facet normal -1 0 0
    outer loop
      vertex -31.9 -9.90988 10.5692
      vertex -31.9 -9.90988 39.4308
      vertex -31.9 -9.4 10.65
    endloop
  endfacet
  facet normal -1 0 0
    outer loop
      vertex -31.9 -9.95587 10.5458
      vertex -31.9 -9.90988 39.4308
      vertex -31.9 -9.90988 10.5692
    endloop
  endfacet
  facet normal -1 0 0
    outer loop
      vertex -31.9 -10.3698 10.3349
      vertex -31.9 -10.3698 39.6651
      vertex -31.9 -9.95587 10.5458
    endloop
  endfacet
  facet normal -1 -0 0
    outer loop
      vertex -31.9 -10.7349 9.96985
      vertex -31.9 -10.7583 9.92385
      vertex -31.9 -14.9 46
    endloop
  endfacet
  facet normal -1 -0 0
    outer loop
      vertex -31.9 -10.7583 9.92385
      vertex -31.9 -10.9692 9.50988
      vertex -31.9 -14.9 46
    endloop
  endfacet
  facet normal -1 -0 0
    outer loop
      vertex -31.9 -10.9692 9.50988
      vertex -31.9 -14.9 0
      vertex -31.9 -14.9 46
    endloop
  endfacet
  facet normal -1 -0 0
    outer loop
      vertex -31.9 -10.3698 10.3349
      vertex -31.9 -10.7349 9.96985
      vertex -31.9 -10.7349 40.0302
    endloop
  endfacet
  facet normal -1 -0 0
    outer loop
      vertex -31.9 -11.0419 41.051
      vertex -31.9 -11.05 41
      vertex -31.9 -14.9 46
    endloop
  endfacet
  facet normal -1 -0 -0
    outer loop
      vertex -31.9 -10.7349 40.0302
      vertex -31.9 -10.7349 9.96985
      vertex -31.9 -14.9 46
    endloop
  endfacet
  facet normal -1 -0 -0
    outer loop
      vertex -31.9 -11.05 41
      vertex -31.9 -10.9692 40.4901
      vertex -31.9 -14.9 46
    endloop
  endfacet
  facet normal -1 -0 -0
    outer loop
      vertex -31.9 -10.9692 40.4901
      vertex -31.9 -10.7349 40.0302
      vertex -31.9 -14.9 46
    endloop
  endfacet
  facet normal -1 0 0
    outer loop
      vertex -31.9 -10.7349 40.0302
      vertex -31.9 -10.3698 39.6651
      vertex -31.9 -10.3698 10.3349
    endloop
  endfacet
  facet normal -1 0 0
    outer loop
      vertex -31.9 -10.3698 39.6651
      vertex -31.9 -9.90988 39.4308
      vertex -31.9 -9.95587 10.5458
    endloop
  endfacet
  facet normal -1 0 0
    outer loop
      vertex -31.9 -9.90988 39.4308
      vertex -31.9 -9.4 39.35
      vertex -31.9 -9.4 10.65
    endloop
  endfacet
  facet normal -1 0 0
    outer loop
      vertex -31.9 -8.43015 39.6651
      vertex -31.9 -8.06512 9.96985
      vertex -31.9 -8.43015 10.3349
    endloop
  endfacet
  facet normal -1 0 0
    outer loop
      vertex -31.9 -8.84413 10.5458
      vertex -31.9 -8.89012 39.4308
      vertex -31.9 -8.43015 39.6651
    endloop
  endfacet
  facet normal -1 0 0
    outer loop
      vertex -31.9 -8.06512 9.96985
      vertex -31.9 -8.06512 40.0302
      vertex -31.9 0.1 46
    endloop
  endfacet
  facet normal -1 0 0
    outer loop
      vertex -31.9 -8.43015 39.6651
      vertex -31.9 -8.06512 40.0302
      vertex -31.9 -8.06512 9.96985
    endloop
  endfacet
  facet normal -1 0 0
    outer loop
      vertex -31.9 -8.06512 40.0302
      vertex -31.9 -7.83076 40.4901
      vertex -31.9 0.1 46
    endloop
  endfacet
  facet normal -1 0 0
    outer loop
      vertex -31.9 -7.83076 40.4901
      vertex -31.9 -7.75 41
      vertex -31.9 0.1 46
    endloop
  endfacet
  facet normal -1 0 0
    outer loop
      vertex -31.9 -7.75 41
      vertex -31.9 -7.75808 41.051
      vertex -31.9 0.1 46
    endloop
  endfacet
  facet normal -1 0 0
    outer loop
      vertex -31.9 -7.75808 41.051
      vertex -31.9 -7.83076 41.5099
      vertex -31.9 0.1 46
    endloop
  endfacet
  facet normal -1 0 0
    outer loop
      vertex -31.9 -7.83076 41.5099
      vertex -31.9 -8.04169 41.9238
      vertex -31.9 0.1 46
    endloop
  endfacet
  facet normal -1 0 0
    outer loop
      vertex -31.9 -8.04169 41.9238
      vertex -31.9 -8.06512 41.9698
      vertex -31.9 0.1 46
    endloop
  endfacet
  facet normal -1 0 0
    outer loop
      vertex -31.9 -11.0419 41.051
      vertex -31.9 -14.9 46
      vertex -31.9 -10.9692 41.5099
    endloop
  endfacet
  facet normal -1 0 0
    outer loop
      vertex -31.9 -8.06512 41.9698
      vertex -31.9 -8.43015 42.3349
      vertex -31.9 0.1 46
    endloop
  endfacet
  facet normal -1 0 0
    outer loop
      vertex -31.9 -8.94111 42.5773
      vertex -31.9 -14.9 46
      vertex -31.9 0.1 46
    endloop
  endfacet
  facet normal -1 0 0
    outer loop
      vertex -31.9 -8.89012 42.5692
      vertex -31.9 0.1 46
      vertex -31.9 -8.43015 42.3349
    endloop
  endfacet
  facet normal -1 0 0
    outer loop
      vertex -31.9 -8.94111 42.5773
      vertex -31.9 0.1 46
      vertex -31.9 -8.89012 42.5692
    endloop
  endfacet
  facet normal -1 0 0
    outer loop
      vertex -31.9 -9.4 42.65
      vertex -31.9 -14.9 46
      vertex -31.9 -8.94111 42.5773
    endloop
  endfacet
  facet normal -1 0 0
    outer loop
      vertex -31.9 -9.90988 42.5692
      vertex -31.9 -14.9 46
      vertex -31.9 -9.4 42.65
    endloop
  endfacet
  facet normal -1 0 0
    outer loop
      vertex -31.9 -10.3238 42.3583
      vertex -31.9 -14.9 46
      vertex -31.9 -9.90988 42.5692
    endloop
  endfacet
  facet normal -1 0 0
    outer loop
      vertex -31.9 -10.3698 42.3349
      vertex -31.9 -14.9 46
      vertex -31.9 -10.3238 42.3583
    endloop
  endfacet
  facet normal -1 0 0
    outer loop
      vertex -31.9 -10.7349 41.9698
      vertex -31.9 -14.9 46
      vertex -31.9 -10.3698 42.3349
    endloop
  endfacet
  facet normal -1 0 0
    outer loop
      vertex -31.9 -10.7583 41.9238
      vertex -31.9 -14.9 46
      vertex -31.9 -10.7349 41.9698
    endloop
  endfacet
  facet normal -1 0 0
    outer loop
      vertex -31.9 -10.9692 41.5099
      vertex -31.9 -14.9 46
      vertex -31.9 -10.7583 41.9238
    endloop
  endfacet
  facet normal 0 -1 0
    outer loop
      vertex -27.9 -14.9 0
      vertex -31.9 -14.9 46
      vertex -31.9 -14.9 0
    endloop
  endfacet
  facet normal 0 -1 0
    outer loop
      vertex -27.9 -14.9 0
      vertex -27.9 -14.9 46
      vertex -31.9 -14.9 46
    endloop
  endfacet
  facet normal 0 -0 -1
    outer loop
      vertex -27.9 -12 0
      vertex -27.9 -14.9 0
      vertex -31.9 -14.9 0
    endloop
  endfacet
  facet normal 0 0 -1
    outer loop
      vertex -31.9 0.1 0
      vertex -27.9 0.1 0
      vertex -27.9 0 0
    endloop
  endfacet
  facet normal 0 0 -1
    outer loop
      vertex -31.9 0.1 0
      vertex -27.9 -12 0
      vertex -31.9 -14.9 0
    endloop
  endfacet
  facet normal 0 0 -1
    outer loop
      vertex 21.9 -12 0
      vertex 16.3155 -12 0
      vertex 18.7599 -9.21924 0
    endloop
  endfacet
  facet normal 0 0 -1
    outer loop
      vertex 16.3155 -12 0
      vertex 15.2028 -10.6972 0
      vertex 17.2802 -8.98488 0
    endloop
  endfacet
  facet normal -0 0 -1
    outer loop
      vertex 16.6 -7.65 0
      vertex 12.6374 -8.50613 0
      vertex 16.6808 -7.14012 0
    endloop
  endfacet
  facet normal 0 0 -1
    outer loop
      vertex 21.9 0 0
      vertex 9.7608 -6.74336 0
      vertex 6.64387 -5.45228 0
    endloop
  endfacet
  facet normal 0 0 -1
    outer loop
      vertex 21.9 0 0
      vertex 6.64387 -5.45228 0
      vertex 3.36334 -4.6647 0
    endloop
  endfacet
  facet normal 0 0 -1
    outer loop
      vertex -31.9 0.1 0
      vertex -27.9 0 0
      vertex -27.9 -12 0
    endloop
  endfacet
  facet normal 0 0 -1
    outer loop
      vertex -19.8192 -7.14012 0
      vertex -19.9 -7.65 0
      vertex -27.9 -12 0
    endloop
  endfacet
  facet normal 0 0 -1
    outer loop
      vertex 1.3165e-15 -4.4 0
      vertex 21.9 0 0
      vertex 3.36334 -4.6647 0
    endloop
  endfacet
  facet normal 0 0 -1
    outer loop
      vertex -27.9 -12 0
      vertex -19.2198 -8.98488 0
      vertex -16.3155 -12 0
    endloop
  endfacet
  facet normal 0 0 -1
    outer loop
      vertex -27.9 -12 0
      vertex -19.8192 -8.15988 0
      vertex -19.5849 -8.61985 0
    endloop
  endfacet
  facet normal 0 0 -1
    outer loop
      vertex -15.2028 -10.6972 0
      vertex -16.9151 -8.61985 0
      vertex -16.6808 -8.15988 0
    endloop
  endfacet
  facet normal 0 0 -1
    outer loop
      vertex -27.9 -12 0
      vertex -19.9 -7.65 0
      vertex -19.8192 -8.15988 0
    endloop
  endfacet
  facet normal 0 0 -1
    outer loop
      vertex 1.3165e-15 -4.4 0
      vertex -27.9 0 0
      vertex 21.9 0 0
    endloop
  endfacet
  facet normal 0 0 -1
    outer loop
      vertex -6.64387 -5.45228 0
      vertex -27.9 0 0
      vertex -3.36334 -4.6647 0
    endloop
  endfacet
  facet normal 0 0 -1
    outer loop
      vertex -3.36334 -4.6647 0
      vertex -27.9 0 0
      vertex 1.3165e-15 -4.4 0
    endloop
  endfacet
  facet normal 0 -0 -1
    outer loop
      vertex -19.5849 -8.61985 0
      vertex -19.2198 -8.98488 0
      vertex -27.9 -12 0
    endloop
  endfacet
  facet normal -0 0 -1
    outer loop
      vertex -12.6374 -8.50613 0
      vertex -15.2028 -10.6972 0
      vertex -16.6808 -8.15988 0
    endloop
  endfacet
  facet normal 0 0 -1
    outer loop
      vertex -19.2198 -8.98488 0
      vertex -18.7599 -9.21924 0
      vertex -16.3155 -12 0
    endloop
  endfacet
  facet normal 0 0 -1
    outer loop
      vertex -17.2802 -8.98488 0
      vertex -15.2028 -10.6972 0
      vertex -16.3155 -12 0
    endloop
  endfacet
  facet normal 0 0 -1
    outer loop
      vertex -16.3155 -12 0
      vertex -18.25 -9.3 0
      vertex -17.7401 -9.21924 0
    endloop
  endfacet
  facet normal -0 -0 -1
    outer loop
      vertex -18.25 -9.3 0
      vertex -16.3155 -12 0
      vertex -18.7599 -9.21924 0
    endloop
  endfacet
  facet normal 0 0 -1
    outer loop
      vertex -16.3155 -12 0
      vertex -17.7401 -9.21924 0
      vertex -17.2802 -8.98488 0
    endloop
  endfacet
  facet normal 0 0 -1
    outer loop
      vertex -15.2028 -10.6972 0
      vertex -17.2802 -8.98488 0
      vertex -16.9151 -8.61985 0
    endloop
  endfacet
  facet normal 0 0 -1
    outer loop
      vertex -12.6374 -8.50613 0
      vertex -16.9151 -6.68015 0
      vertex -9.7608 -6.74336 0
    endloop
  endfacet
  facet normal 0 0 -1
    outer loop
      vertex -12.6374 -8.50613 0
      vertex -16.6808 -8.15988 0
      vertex -16.6 -7.65 0
    endloop
  endfacet
  facet normal 0 0 -1
    outer loop
      vertex -12.6374 -8.50613 0
      vertex -16.6 -7.65 0
      vertex -16.6808 -7.14012 0
    endloop
  endfacet
  facet normal 0 0 -1
    outer loop
      vertex -9.7608 -6.74336 0
      vertex -17.7401 -6.08076 0
      vertex -6.64387 -5.45228 0
    endloop
  endfacet
  facet normal 0 0 -1
    outer loop
      vertex -16.6808 -7.14012 0
      vertex -16.9151 -6.68015 0
      vertex -12.6374 -8.50613 0
    endloop
  endfacet
  facet normal 0 0 -1
    outer loop
      vertex -27.9 -12 0
      vertex -27.9 0 0
      vertex -19.8192 -7.14012 0
    endloop
  endfacet
  facet normal 0 0 -1
    outer loop
      vertex -16.9151 -6.68015 0
      vertex -17.2802 -6.31512 0
      vertex -9.7608 -6.74336 0
    endloop
  endfacet
  facet normal 0 0 -1
    outer loop
      vertex -17.7401 -6.08076 0
      vertex -27.9 0 0
      vertex -6.64387 -5.45228 0
    endloop
  endfacet
  facet normal 0 0 -1
    outer loop
      vertex -17.7401 -6.08076 0
      vertex -9.7608 -6.74336 0
      vertex -17.2802 -6.31512 0
    endloop
  endfacet
  facet normal 0 0 -1
    outer loop
      vertex -18.25 -6 0
      vertex -27.9 0 0
      vertex -17.7401 -6.08076 0
    endloop
  endfacet
  facet normal 0 0 -1
    outer loop
      vertex -18.7599 -6.08076 0
      vertex -27.9 0 0
      vertex -18.25 -6 0
    endloop
  endfacet
  facet normal 0 0 -1
    outer loop
      vertex -19.2198 -6.31512 0
      vertex -27.9 0 0
      vertex -18.7599 -6.08076 0
    endloop
  endfacet
  facet normal 0 0 -1
    outer loop
      vertex -19.5849 -6.68015 0
      vertex -27.9 0 0
      vertex -19.2198 -6.31512 0
    endloop
  endfacet
  facet normal 0 0 -1
    outer loop
      vertex -19.8192 -7.14012 0
      vertex -27.9 0 0
      vertex -19.5849 -6.68015 0
    endloop
  endfacet
  facet normal 0 0 -1
    outer loop
      vertex 16.6808 -8.15988 0
      vertex 15.2028 -10.6972 0
      vertex 12.6374 -8.50613 0
    endloop
  endfacet
  facet normal -0 0 -1
    outer loop
      vertex 16.6808 -8.15988 0
      vertex 12.6374 -8.50613 0
      vertex 16.6 -7.65 0
    endloop
  endfacet
  facet normal -0 0 -1
    outer loop
      vertex 16.9151 -8.61985 0
      vertex 15.2028 -10.6972 0
      vertex 16.6808 -8.15988 0
    endloop
  endfacet
  facet normal 0 0 -1
    outer loop
      vertex 16.3155 -12 0
      vertex 17.2802 -8.98488 0
      vertex 17.7401 -9.21924 0
    endloop
  endfacet
  facet normal -0 0 -1
    outer loop
      vertex 17.2802 -8.98488 0
      vertex 15.2028 -10.6972 0
      vertex 16.9151 -8.61985 0
    endloop
  endfacet
  facet normal 0 0 -1
    outer loop
      vertex 16.3155 -12 0
      vertex 17.7401 -9.21924 0
      vertex 18.25 -9.3 0
    endloop
  endfacet
  facet normal 0 0 -1
    outer loop
      vertex 16.3155 -12 0
      vertex 18.25 -9.3 0
      vertex 18.7599 -9.21924 0
    endloop
  endfacet
  facet normal 0 0 -1
    outer loop
      vertex 21.9 -12 0
      vertex 18.7599 -9.21924 0
      vertex 19.2198 -8.98488 0
    endloop
  endfacet
  facet normal 0 0 -1
    outer loop
      vertex 21.9 -12 0
      vertex 19.2198 -8.98488 0
      vertex 19.5849 -8.61985 0
    endloop
  endfacet
  facet normal 0 0 -1
    outer loop
      vertex 21.9 -12 0
      vertex 19.5849 -8.61985 0
      vertex 19.8192 -8.15988 0
    endloop
  endfacet
  facet normal 0 0 -1
    outer loop
      vertex 21.9 -12 0
      vertex 19.9 -7.65 0
      vertex 21.9 0 0
    endloop
  endfacet
  facet normal 0 0 -1
    outer loop
      vertex 19.8192 -8.15988 0
      vertex 19.9 -7.65 0
      vertex 21.9 -12 0
    endloop
  endfacet
  facet normal 0 0 -1
    outer loop
      vertex 19.9 -7.65 0
      vertex 19.8192 -7.14012 0
      vertex 21.9 0 0
    endloop
  endfacet
  facet normal 0 0 -1
    outer loop
      vertex 19.8192 -7.14012 0
      vertex 19.5849 -6.68015 0
      vertex 21.9 0 0
    endloop
  endfacet
  facet normal 0 0 -1
    outer loop
      vertex 19.5849 -6.68015 0
      vertex 19.2198 -6.31512 0
      vertex 21.9 0 0
    endloop
  endfacet
  facet normal 0 0 -1
    outer loop
      vertex 19.2198 -6.31512 0
      vertex 18.7599 -6.08076 0
      vertex 21.9 0 0
    endloop
  endfacet
  facet normal 0 0 -1
    outer loop
      vertex 12.6374 -8.50613 0
      vertex 9.7608 -6.74336 0
      vertex 16.9151 -6.68015 0
    endloop
  endfacet
  facet normal 0 0 -1
    outer loop
      vertex 18.7599 -6.08076 0
      vertex 18.25 -6 0
      vertex 21.9 0 0
    endloop
  endfacet
  facet normal -0 0 -1
    outer loop
      vertex 17.2802 -6.31512 0
      vertex 9.7608 -6.74336 0
      vertex 21.9 0 0
    endloop
  endfacet
  facet normal 0 0 -1
    outer loop
      vertex 17.7401 -6.08076 0
      vertex 21.9 0 0
      vertex 18.25 -6 0
    endloop
  endfacet
  facet normal 0 0 -1
    outer loop
      vertex 17.2802 -6.31512 0
      vertex 21.9 0 0
      vertex 17.7401 -6.08076 0
    endloop
  endfacet
  facet normal -0 0 -1
    outer loop
      vertex 16.9151 -6.68015 0
      vertex 9.7608 -6.74336 0
      vertex 17.2802 -6.31512 0
    endloop
  endfacet
  facet normal -0 0 -1
    outer loop
      vertex 16.6808 -7.14012 0
      vertex 12.6374 -8.50613 0
      vertex 16.9151 -6.68015 0
    endloop
  endfacet
  facet normal 0 1 0
    outer loop
      vertex -31.9 0.1 46
      vertex -27.9 0.1 0
      vertex -31.9 0.1 0
    endloop
  endfacet
  facet normal -0 1 0
    outer loop
      vertex -31.9 0.1 46
      vertex -27.9 0.1 46
      vertex -27.9 0.1 0
    endloop
  endfacet
  facet normal 0 0 1
    outer loop
      vertex -27.9 -14.9 46
      vertex -31.9 0.1 46
      vertex -31.9 -14.9 46
    endloop
  endfacet
  facet normal 0 -0 1
    outer loop
      vertex -27.9 -14.9 46
      vertex -27.9 0.1 46
      vertex -31.9 0.1 46
    endloop
  endfacet
  facet normal 1 0 0
    outer loop
      vertex -27.9 0.1 46
      vertex -27.9 -14.9 46
      vertex -27.9 -8.89012 42.5692
    endloop
  endfacet
  facet normal 1 0 -0
    outer loop
      vertex -27.9 -12 0
      vertex -27.9 -12 3
      vertex -27.9 -14.9 0
    endloop
  endfacet
  facet normal 1 0 0
    outer loop
      vertex -27.9 0 0
      vertex -27.9 0.1 0
      vertex -27.9 0 3
    endloop
  endfacet
  facet normal 1 0 -0
    outer loop
      vertex -27.9 0.1 0
      vertex -27.9 0.1 46
      vertex -27.9 0 3
    endloop
  endfacet
  facet normal 1 0 0
    outer loop
      vertex -27.9 -11.0096 8.74506
      vertex -27.9 -14.9 0
      vertex -27.9 -10.9692 8.49012
    endloop
  endfacet
  facet normal 1 0 0
    outer loop
      vertex -27.9 -11.0096 8.74506
      vertex -27.9 -11.05 9
      vertex -27.9 -14.9 0
    endloop
  endfacet
  facet normal 1 0 0
    outer loop
      vertex -27.9 -10.9692 9.50988
      vertex -27.9 -14.9 46
      vertex -27.9 -14.9 0
    endloop
  endfacet
  facet normal 1 0 0
    outer loop
      vertex -27.9 -11.0096 9.25494
      vertex -27.9 -14.9 0
      vertex -27.9 -11.05 9
    endloop
  endfacet
  facet normal 1 0 0
    outer loop
      vertex -27.9 -14.9 46
      vertex -27.9 -10.9692 9.50988
      vertex -27.9 -10.8521 9.73986
    endloop
  endfacet
  facet normal 1 0 0
    outer loop
      vertex -27.9 -10.9692 9.50988
      vertex -27.9 -14.9 0
      vertex -27.9 -11.0096 9.25494
    endloop
  endfacet
  facet normal 1 0 0
    outer loop
      vertex -27.9 -14.9 46
      vertex -27.9 -10.8521 9.73986
      vertex -27.9 -10.7349 9.96985
    endloop
  endfacet
  facet normal 1 0 -0
    outer loop
      vertex -27.9 -10.1399 10.4521
      vertex -27.9 -9.90988 39.4308
      vertex -27.9 -10.3698 39.6651
    endloop
  endfacet
  facet normal 1 0 0
    outer loop
      vertex -27.9 -8.89012 10.5692
      vertex -27.9 -8.89012 39.4308
      vertex -27.9 -9.4 39.35
    endloop
  endfacet
  facet normal 1 0 0
    outer loop
      vertex -27.9 -10.1399 10.4521
      vertex -27.9 -10.3698 39.6651
      vertex -27.9 -10.3698 10.3349
    endloop
  endfacet
  facet normal 1 0 0
    outer loop
      vertex -27.9 0.1 46
      vertex -27.9 -8.06512 9.96985
      vertex -27.9 0 3
    endloop
  endfacet
  facet normal 1 -0 0
    outer loop
      vertex -27.9 -8.43015 10.3349
      vertex -27.9 -8.06512 9.96985
      vertex -27.9 -8.43015 39.6651
    endloop
  endfacet
  facet normal 1 0 0
    outer loop
      vertex -27.9 -8.06512 9.96985
      vertex -27.9 -7.83076 9.50988
      vertex -27.9 0 3
    endloop
  endfacet
  facet normal 1 0 0
    outer loop
      vertex -27.9 -7.83076 9.50988
      vertex -27.9 -7.79038 9.25494
      vertex -27.9 0 3
    endloop
  endfacet
  facet normal 1 0 0
    outer loop
      vertex -27.9 -7.79038 9.25494
      vertex -27.9 -7.75 9
      vertex -27.9 0 3
    endloop
  endfacet
  facet normal 1 0 0
    outer loop
      vertex -27.9 -7.75 9
      vertex -27.9 -7.79038 8.74506
      vertex -27.9 0 3
    endloop
  endfacet
  facet normal 1 0 0
    outer loop
      vertex -27.9 -7.79038 8.74506
      vertex -27.9 -7.83076 8.49012
      vertex -27.9 0 3
    endloop
  endfacet
  facet normal 1 0 0
    outer loop
      vertex -27.9 -7.83076 8.49012
      vertex -27.9 -7.94794 8.26014
      vertex -27.9 0 3
    endloop
  endfacet
  facet normal 1 0 0
    outer loop
      vertex -27.9 -14.9 0
      vertex -27.9 -12 3
      vertex -27.9 -10.9692 8.49012
    endloop
  endfacet
  facet normal 1 0 0
    outer loop
      vertex -27.9 -7.94794 8.26014
      vertex -27.9 -8.06512 8.03015
      vertex -27.9 0 3
    endloop
  endfacet
  facet normal 1 0 0
    outer loop
      vertex -27.9 -8.89012 7.43076
      vertex -27.9 -12 3
      vertex -27.9 0 3
    endloop
  endfacet
  facet normal 1 -0 0
    outer loop
      vertex -27.9 -8.24764 7.84764
      vertex -27.9 0 3
      vertex -27.9 -8.06512 8.03015
    endloop
  endfacet
  facet normal 1 -0 0
    outer loop
      vertex -27.9 -8.43015 7.66512
      vertex -27.9 0 3
      vertex -27.9 -8.24764 7.84764
    endloop
  endfacet
  facet normal 1 -0 0
    outer loop
      vertex -27.9 -8.89012 7.43076
      vertex -27.9 0 3
      vertex -27.9 -8.43015 7.66512
    endloop
  endfacet
  facet normal 1 -0 0
    outer loop
      vertex -27.9 -9.14506 7.39038
      vertex -27.9 -12 3
      vertex -27.9 -8.89012 7.43076
    endloop
  endfacet
  facet normal 1 -0 0
    outer loop
      vertex -27.9 -9.4 7.35
      vertex -27.9 -12 3
      vertex -27.9 -9.14506 7.39038
    endloop
  endfacet
  facet normal 1 0 0
    outer loop
      vertex -27.9 -9.65494 7.39038
      vertex -27.9 -12 3
      vertex -27.9 -9.4 7.35
    endloop
  endfacet
  facet normal 1 0 0
    outer loop
      vertex -27.9 -9.90988 7.43076
      vertex -27.9 -12 3
      vertex -27.9 -9.65494 7.39038
    endloop
  endfacet
  facet normal 1 0 0
    outer loop
      vertex -27.9 -10.3698 7.66512
      vertex -27.9 -12 3
      vertex -27.9 -9.90988 7.43076
    endloop
  endfacet
  facet normal 1 0 0
    outer loop
      vertex -27.9 -10.5524 7.84764
      vertex -27.9 -12 3
      vertex -27.9 -10.3698 7.66512
    endloop
  endfacet
  facet normal 1 0 0
    outer loop
      vertex -27.9 -10.7349 8.03015
      vertex -27.9 -12 3
      vertex -27.9 -10.5524 7.84764
    endloop
  endfacet
  facet normal 1 0 0
    outer loop
      vertex -27.9 -10.8521 8.26014
      vertex -27.9 -12 3
      vertex -27.9 -10.7349 8.03015
    endloop
  endfacet
  facet normal 1 0 0
    outer loop
      vertex -27.9 -10.9692 8.49012
      vertex -27.9 -12 3
      vertex -27.9 -10.8521 8.26014
    endloop
  endfacet
  facet normal 1 0 0
    outer loop
      vertex -27.9 -10.1399 10.4521
      vertex -27.9 -9.90988 10.5692
      vertex -27.9 -9.90988 39.4308
    endloop
  endfacet
  facet normal 1 0 0
    outer loop
      vertex -27.9 -11.0096 41.2549
      vertex -27.9 -14.9 46
      vertex -27.9 -11.05 41
    endloop
  endfacet
  facet normal 1 0 0
    outer loop
      vertex -27.9 -10.9692 41.5099
      vertex -27.9 -14.9 46
      vertex -27.9 -11.0096 41.2549
    endloop
  endfacet
  facet normal 1 0 0
    outer loop
      vertex -27.9 -10.8521 41.7399
      vertex -27.9 -14.9 46
      vertex -27.9 -10.9692 41.5099
    endloop
  endfacet
  facet normal 1 0 0
    outer loop
      vertex -27.9 -10.7349 41.9698
      vertex -27.9 -14.9 46
      vertex -27.9 -10.8521 41.7399
    endloop
  endfacet
  facet normal 1 0 0
    outer loop
      vertex -27.9 -10.3698 42.3349
      vertex -27.9 -14.9 46
      vertex -27.9 -10.7349 41.9698
    endloop
  endfacet
  facet normal 1 0 0
    outer loop
      vertex -27.9 -10.1399 42.4521
      vertex -27.9 -14.9 46
      vertex -27.9 -10.3698 42.3349
    endloop
  endfacet
  facet normal 1 0 0
    outer loop
      vertex -27.9 -14.9 46
      vertex -27.9 -9.90988 42.5692
      vertex -27.9 -9.4 42.65
    endloop
  endfacet
  facet normal 1 0 0
    outer loop
      vertex -27.9 -9.90988 42.5692
      vertex -27.9 -14.9 46
      vertex -27.9 -10.1399 42.4521
    endloop
  endfacet
  facet normal 1 0 0
    outer loop
      vertex -27.9 -14.9 46
      vertex -27.9 -9.4 42.65
      vertex -27.9 -9.14506 42.6096
    endloop
  endfacet
  facet normal 1 0 0
    outer loop
      vertex -27.9 -14.9 46
      vertex -27.9 -9.14506 42.6096
      vertex -27.9 -8.89012 42.5692
    endloop
  endfacet
  facet normal 1 0 0
    outer loop
      vertex -27.9 0.1 46
      vertex -27.9 -8.89012 42.5692
      vertex -27.9 -8.43015 42.3349
    endloop
  endfacet
  facet normal 1 0 0
    outer loop
      vertex -27.9 0.1 46
      vertex -27.9 -8.43015 42.3349
      vertex -27.9 -8.06512 41.9698
    endloop
  endfacet
  facet normal 1 0 0
    outer loop
      vertex -27.9 0.1 46
      vertex -27.9 -8.06512 41.9698
      vertex -27.9 -7.94794 41.7399
    endloop
  endfacet
  facet normal 1 0 0
    outer loop
      vertex -27.9 0.1 46
      vertex -27.9 -7.94794 41.7399
      vertex -27.9 -7.83076 41.5099
    endloop
  endfacet
  facet normal 1 0 0
    outer loop
      vertex -27.9 0.1 46
      vertex -27.9 -7.83076 41.5099
      vertex -27.9 -7.79038 41.2549
    endloop
  endfacet
  facet normal 1 0 0
    outer loop
      vertex -27.9 -8.89012 10.5692
      vertex -27.9 -9.4 39.35
      vertex -27.9 -9.4 10.65
    endloop
  endfacet
  facet normal 1 0 0
    outer loop
      vertex -27.9 0.1 46
      vertex -27.9 -7.79038 41.2549
      vertex -27.9 -7.75 41
    endloop
  endfacet
  facet normal 1 -0 -0
    outer loop
      vertex -27.9 -8.89012 10.5692
      vertex -27.9 -8.66014 10.4521
      vertex -27.9 -8.89012 39.4308
    endloop
  endfacet
  facet normal 1 0 0
    outer loop
      vertex -27.9 0.1 46
      vertex -27.9 -8.06512 40.0302
      vertex -27.9 -8.06512 9.96985
    endloop
  endfacet
  facet normal 1 0 0
    outer loop
      vertex -27.9 -8.43015 39.6651
      vertex -27.9 -8.66014 10.4521
      vertex -27.9 -8.43015 10.3349
    endloop
  endfacet
  facet normal 1 -0 0
    outer loop
      vertex -27.9 -7.75 41
      vertex -27.9 -7.83076 40.4901
      vertex -27.9 0.1 46
    endloop
  endfacet
  facet normal 1 -0 0
    outer loop
      vertex -27.9 -7.83076 40.4901
      vertex -27.9 -8.06512 40.0302
      vertex -27.9 0.1 46
    endloop
  endfacet
  facet normal 1 0 0
    outer loop
      vertex -27.9 -9.90988 39.4308
      vertex -27.9 -9.90988 10.5692
      vertex -27.9 -9.4 10.65
    endloop
  endfacet
  facet normal 1 -0 0
    outer loop
      vertex -27.9 -8.43015 39.6651
      vertex -27.9 -8.06512 9.96985
      vertex -27.9 -8.06512 40.0302
    endloop
  endfacet
  facet normal 1 -0 0
    outer loop
      vertex -27.9 -8.89012 39.4308
      vertex -27.9 -8.66014 10.4521
      vertex -27.9 -8.43015 39.6651
    endloop
  endfacet
  facet normal 1 0 -0
    outer loop
      vertex -27.9 -9.4 10.65
      vertex -27.9 -9.4 39.35
      vertex -27.9 -9.90988 39.4308
    endloop
  endfacet
  facet normal 1 0 0
    outer loop
      vertex -27.9 -10.3698 10.3349
      vertex -27.9 -10.7349 40.0302
      vertex -27.9 -10.7349 9.96985
    endloop
  endfacet
  facet normal 1 0 -0
    outer loop
      vertex -27.9 -10.3698 10.3349
      vertex -27.9 -10.3698 39.6651
      vertex -27.9 -10.7349 40.0302
    endloop
  endfacet
  facet normal 1 0 0
    outer loop
      vertex -27.9 -10.7349 9.96985
      vertex -27.9 -10.7349 40.0302
      vertex -27.9 -14.9 46
    endloop
  endfacet
  facet normal 1 0 0
    outer loop
      vertex -27.9 -10.7349 40.0302
      vertex -27.9 -10.9692 40.4901
      vertex -27.9 -14.9 46
    endloop
  endfacet
  facet normal 1 0 0
    outer loop
      vertex -27.9 -10.9692 40.4901
      vertex -27.9 -11.05 41
      vertex -27.9 -14.9 46
    endloop
  endfacet
  facet normal 1.0165e-16 0.987688 -0.156434
    outer loop
      vertex -27.9 -11.05 9
      vertex -31.9 -11.0419 9.05099
      vertex -27.9 -11.0096 9.25494
    endloop
  endfacet
  facet normal 0 0.987688 -0.156434
    outer loop
      vertex -27.9 -11.05 9
      vertex -31.9 -11.05 9
      vertex -31.9 -11.0419 9.05099
    endloop
  endfacet
  facet normal 0 0.156434 -0.987688
    outer loop
      vertex -27.9 -9.90988 10.5692
      vertex -31.9 -9.4 10.65
      vertex -27.9 -9.4 10.65
    endloop
  endfacet
  facet normal 0 0.156434 -0.987688
    outer loop
      vertex -27.9 -9.90988 10.5692
      vertex -31.9 -9.90988 10.5692
      vertex -31.9 -9.4 10.65
    endloop
  endfacet
  facet normal -4.06602e-16 -0.156434 0.987688
    outer loop
      vertex -31.9 -9.34901 7.35808
      vertex -27.9 -9.4 7.35
      vertex -27.9 -9.14506 7.39038
    endloop
  endfacet
  facet normal -2.1921e-16 -0.156434 0.987688
    outer loop
      vertex -31.9 -9.34901 7.35808
      vertex -31.9 -9.4 7.35
      vertex -27.9 -9.4 7.35
    endloop
  endfacet
  facet normal 0 0.45399 -0.891007
    outer loop
      vertex -31.9 -9.95587 10.5458
      vertex -31.9 -9.90988 10.5692
      vertex -27.9 -9.90988 10.5692
    endloop
  endfacet
  facet normal 3.99881e-16 0.45399 -0.891007
    outer loop
      vertex -27.9 -10.1399 10.4521
      vertex -31.9 -9.95587 10.5458
      vertex -27.9 -9.90988 10.5692
    endloop
  endfacet
  facet normal 3.73372e-16 0.891007 -0.45399
    outer loop
      vertex -31.9 -10.9692 9.50988
      vertex -31.9 -10.7583 9.92385
      vertex -27.9 -10.8521 9.73986
    endloop
  endfacet
  facet normal 2.01612e-16 0.891007 -0.45399
    outer loop
      vertex -27.9 -10.9692 9.50988
      vertex -31.9 -10.9692 9.50988
      vertex -27.9 -10.8521 9.73986
    endloop
  endfacet
  facet normal 7.05672e-17 0.987688 -0.156434
    outer loop
      vertex -27.9 -11.0096 9.25494
      vertex -31.9 -10.9692 9.50988
      vertex -27.9 -10.9692 9.50988
    endloop
  endfacet
  facet normal 8.77423e-17 0.987688 -0.156434
    outer loop
      vertex -27.9 -11.0096 9.25494
      vertex -31.9 -11.0419 9.05099
      vertex -31.9 -10.9692 9.50988
    endloop
  endfacet
  facet normal 1.17612e-17 -0.987688 -0.156434
    outer loop
      vertex -27.9 -7.83076 9.50988
      vertex -31.9 -7.82268 9.45889
      vertex -27.9 -7.79038 9.25494
    endloop
  endfacet
  facet normal -0 -0.987688 -0.156434
    outer loop
      vertex -27.9 -7.83076 9.50988
      vertex -31.9 -7.83076 9.50988
      vertex -31.9 -7.82268 9.45889
    endloop
  endfacet
  facet normal 0 -0.45399 -0.891007
    outer loop
      vertex -27.9 -8.66014 10.4521
      vertex -31.9 -8.43015 10.3349
      vertex -27.9 -8.43015 10.3349
    endloop
  endfacet
  facet normal -6.534e-17 -0.45399 -0.891007
    outer loop
      vertex -27.9 -8.66014 10.4521
      vertex -31.9 -8.84413 10.5458
      vertex -31.9 -8.43015 10.3349
    endloop
  endfacet
  facet normal 0 -0.156434 0.987688
    outer loop
      vertex -31.9 -8.89012 7.43076
      vertex -27.9 -9.14506 7.39038
      vertex -27.9 -8.89012 7.43076
    endloop
  endfacet
  facet normal -1.94153e-16 -0.156434 0.987688
    outer loop
      vertex -31.9 -8.89012 7.43076
      vertex -31.9 -9.34901 7.35808
      vertex -27.9 -9.14506 7.39038
    endloop
  endfacet
  facet normal -4.10709e-17 0.45399 -0.891007
    outer loop
      vertex -31.9 -10.3698 10.3349
      vertex -31.9 -9.95587 10.5458
      vertex -27.9 -10.1399 10.4521
    endloop
  endfacet
  facet normal 0 0.45399 -0.891007
    outer loop
      vertex -27.9 -10.3698 10.3349
      vertex -31.9 -10.3698 10.3349
      vertex -27.9 -10.1399 10.4521
    endloop
  endfacet
  facet normal 1.9742e-16 -0.45399 -0.891007
    outer loop
      vertex -27.9 -8.89012 10.5692
      vertex -31.9 -8.84413 10.5458
      vertex -27.9 -8.66014 10.4521
    endloop
  endfacet
  facet normal -0 -0.45399 -0.891007
    outer loop
      vertex -27.9 -8.89012 10.5692
      vertex -31.9 -8.89012 10.5692
      vertex -31.9 -8.84413 10.5458
    endloop
  endfacet
  facet normal 0 -0.156434 -0.987688
    outer loop
      vertex -27.9 -9.4 10.65
      vertex -31.9 -8.89012 10.5692
      vertex -27.9 -8.89012 10.5692
    endloop
  endfacet
  facet normal -0 -0.156434 -0.987688
    outer loop
      vertex -27.9 -9.4 10.65
      vertex -31.9 -9.4 10.65
      vertex -31.9 -8.89012 10.5692
    endloop
  endfacet
  facet normal 0 -0.707107 -0.707107
    outer loop
      vertex -31.9 -8.43015 10.3349
      vertex -31.9 -8.06512 9.96985
      vertex -27.9 -8.06512 9.96985
    endloop
  endfacet
  facet normal -0 -0.707107 -0.707107
    outer loop
      vertex -27.9 -8.43015 10.3349
      vertex -31.9 -8.43015 10.3349
      vertex -27.9 -8.06512 9.96985
    endloop
  endfacet
  facet normal 0 -0.891007 -0.45399
    outer loop
      vertex -31.9 -8.06512 9.96985
      vertex -31.9 -7.83076 9.50988
      vertex -27.9 -7.83076 9.50988
    endloop
  endfacet
  facet normal -0 -0.891007 -0.45399
    outer loop
      vertex -27.9 -8.06512 9.96985
      vertex -31.9 -8.06512 9.96985
      vertex -27.9 -7.83076 9.50988
    endloop
  endfacet
  facet normal -0 0.45399 0.891007
    outer loop
      vertex -31.9 -9.90988 7.43076
      vertex -27.9 -10.3698 7.66512
      vertex -27.9 -9.90988 7.43076
    endloop
  endfacet
  facet normal 0 0.45399 0.891007
    outer loop
      vertex -31.9 -9.90988 7.43076
      vertex -31.9 -10.3698 7.66512
      vertex -27.9 -10.3698 7.66512
    endloop
  endfacet
  facet normal 0 0.891007 -0.45399
    outer loop
      vertex -31.9 -10.7583 9.92385
      vertex -31.9 -10.7349 9.96985
      vertex -27.9 -10.7349 9.96985
    endloop
  endfacet
  facet normal 1.9826e-16 0.891007 -0.45399
    outer loop
      vertex -27.9 -10.8521 9.73986
      vertex -31.9 -10.7583 9.92385
      vertex -27.9 -10.7349 9.96985
    endloop
  endfacet
  facet normal 0 0.707107 -0.707107
    outer loop
      vertex -27.9 -10.7349 9.96985
      vertex -31.9 -10.3698 10.3349
      vertex -27.9 -10.3698 10.3349
    endloop
  endfacet
  facet normal 0 0.707107 -0.707107
    outer loop
      vertex -27.9 -10.7349 9.96985
      vertex -31.9 -10.7349 9.96985
      vertex -31.9 -10.3698 10.3349
    endloop
  endfacet
  facet normal 0 -0.987688 0.156434
    outer loop
      vertex -31.9 -7.75 9
      vertex -27.9 -7.79038 8.74506
      vertex -27.9 -7.75 9
    endloop
  endfacet
  facet normal 1.02677e-16 -0.987688 0.156434
    outer loop
      vertex -31.9 -7.75 9
      vertex -31.9 -7.82268 8.54111
      vertex -27.9 -7.79038 8.74506
    endloop
  endfacet
  facet normal 0 -0.987688 -0.156434
    outer loop
      vertex -27.9 -7.79038 9.25494
      vertex -31.9 -7.75 9
      vertex -27.9 -7.75 9
    endloop
  endfacet
  facet normal 1.70818e-16 -0.987688 -0.156434
    outer loop
      vertex -27.9 -7.79038 9.25494
      vertex -31.9 -7.82268 9.45889
      vertex -31.9 -7.75 9
    endloop
  endfacet
  facet normal -8.7789e-17 0.987688 0.156434
    outer loop
      vertex -31.9 -10.9773 8.54111
      vertex -27.9 -11.0096 8.74506
      vertex -27.9 -10.9692 8.49012
    endloop
  endfacet
  facet normal -0 0.987688 0.156434
    outer loop
      vertex -31.9 -10.9692 8.49012
      vertex -31.9 -10.9773 8.54111
      vertex -27.9 -10.9692 8.49012
    endloop
  endfacet
  facet normal -0 0.987688 0.156434
    outer loop
      vertex -31.9 -11.05 9
      vertex -27.9 -11.05 9
      vertex -27.9 -11.0096 8.74506
    endloop
  endfacet
  facet normal -1.77352e-17 0.987688 0.156434
    outer loop
      vertex -31.9 -10.9773 8.54111
      vertex -31.9 -11.05 9
      vertex -27.9 -11.0096 8.74506
    endloop
  endfacet
  facet normal -6.21664e-17 0.707107 0.707107
    outer loop
      vertex -31.9 -10.4063 7.70163
      vertex -27.9 -10.5524 7.84764
      vertex -27.9 -10.3698 7.66512
    endloop
  endfacet
  facet normal -0 0.707107 0.707107
    outer loop
      vertex -31.9 -10.3698 7.66512
      vertex -31.9 -10.4063 7.70163
      vertex -27.9 -10.3698 7.66512
    endloop
  endfacet
  facet normal 0 -0.45399 0.891007
    outer loop
      vertex -31.9 -8.43015 7.66512
      vertex -27.9 -8.89012 7.43076
      vertex -27.9 -8.43015 7.66512
    endloop
  endfacet
  facet normal 0 -0.45399 0.891007
    outer loop
      vertex -31.9 -8.43015 7.66512
      vertex -31.9 -8.89012 7.43076
      vertex -27.9 -8.89012 7.43076
    endloop
  endfacet
  facet normal -3.13352e-16 -0.707107 0.707107
    outer loop
      vertex -31.9 -8.39365 7.70163
      vertex -27.9 -8.43015 7.66512
      vertex -27.9 -8.24764 7.84764
    endloop
  endfacet
  facet normal 0 -0.707107 0.707107
    outer loop
      vertex -31.9 -8.39365 7.70163
      vertex -31.9 -8.43015 7.66512
      vertex -27.9 -8.43015 7.66512
    endloop
  endfacet
  facet normal 0 -0.707107 0.707107
    outer loop
      vertex -31.9 -8.06512 8.03015
      vertex -27.9 -8.24764 7.84764
      vertex -27.9 -8.06512 8.03015
    endloop
  endfacet
  facet normal -2.46425e-16 -0.707107 0.707107
    outer loop
      vertex -31.9 -8.06512 8.03015
      vertex -31.9 -8.39365 7.70163
      vertex -27.9 -8.24764 7.84764
    endloop
  endfacet
  facet normal 0 -0.891007 0.45399
    outer loop
      vertex -31.9 -7.83076 8.49012
      vertex -27.9 -7.94794 8.26014
      vertex -27.9 -7.83076 8.49012
    endloop
  endfacet
  facet normal -4.48046e-17 -0.891007 0.45399
    outer loop
      vertex -31.9 -7.83076 8.49012
      vertex -31.9 -8.04169 8.07615
      vertex -27.9 -7.94794 8.26014
    endloop
  endfacet
  facet normal -4.38945e-17 -0.987688 0.156434
    outer loop
      vertex -31.9 -7.82268 8.54111
      vertex -27.9 -7.83076 8.49012
      vertex -27.9 -7.79038 8.74506
    endloop
  endfacet
  facet normal 0 -0.987688 0.156434
    outer loop
      vertex -31.9 -7.82268 8.54111
      vertex -31.9 -7.83076 8.49012
      vertex -27.9 -7.83076 8.49012
    endloop
  endfacet
  facet normal -0 0.891007 0.45399
    outer loop
      vertex -31.9 -10.9692 8.49012
      vertex -27.9 -10.9692 8.49012
      vertex -27.9 -10.8521 8.26014
    endloop
  endfacet
  facet normal 4.48046e-17 0.891007 0.45399
    outer loop
      vertex -31.9 -10.7583 8.07615
      vertex -31.9 -10.9692 8.49012
      vertex -27.9 -10.8521 8.26014
    endloop
  endfacet
  facet normal -8.23285e-17 0.891007 0.45399
    outer loop
      vertex -31.9 -10.7583 8.07615
      vertex -27.9 -10.8521 8.26014
      vertex -27.9 -10.7349 8.03015
    endloop
  endfacet
  facet normal -0 0.891007 0.45399
    outer loop
      vertex -31.9 -10.7349 8.03015
      vertex -31.9 -10.7583 8.07615
      vertex -27.9 -10.7349 8.03015
    endloop
  endfacet
  facet normal -0 0.707107 0.707107
    outer loop
      vertex -31.9 -10.7349 8.03015
      vertex -27.9 -10.7349 8.03015
      vertex -27.9 -10.5524 7.84764
    endloop
  endfacet
  facet normal -3.84573e-16 0.707107 0.707107
    outer loop
      vertex -31.9 -10.4063 7.70163
      vertex -31.9 -10.7349 8.03015
      vertex -27.9 -10.5524 7.84764
    endloop
  endfacet
  facet normal -0 0.156434 0.987688
    outer loop
      vertex -31.9 -9.90988 7.43076
      vertex -27.9 -9.90988 7.43076
      vertex -27.9 -9.65494 7.39038
    endloop
  endfacet
  facet normal -2.2589e-16 0.156434 0.987688
    outer loop
      vertex -31.9 -9.45099 7.35808
      vertex -31.9 -9.90988 7.43076
      vertex -27.9 -9.65494 7.39038
    endloop
  endfacet
  facet normal -3.50946e-16 0.156434 0.987688
    outer loop
      vertex -31.9 -9.45099 7.35808
      vertex -27.9 -9.65494 7.39038
      vertex -27.9 -9.4 7.35
    endloop
  endfacet
  facet normal -2.19311e-16 0.156434 0.987688
    outer loop
      vertex -31.9 -9.4 7.35
      vertex -31.9 -9.45099 7.35808
      vertex -27.9 -9.4 7.35
    endloop
  endfacet
  facet normal -8.23285e-17 -0.891007 0.45399
    outer loop
      vertex -31.9 -8.04169 8.07615
      vertex -27.9 -8.06512 8.03015
      vertex -27.9 -7.94794 8.26014
    endloop
  endfacet
  facet normal 0 -0.891007 0.45399
    outer loop
      vertex -31.9 -8.04169 8.07615
      vertex -31.9 -8.06512 8.03015
      vertex -27.9 -8.06512 8.03015
    endloop
  endfacet
  facet normal 8.7789e-17 0.987688 -0.156434
    outer loop
      vertex -27.9 -11.05 41
      vertex -31.9 -11.0419 41.051
      vertex -27.9 -11.0096 41.2549
    endloop
  endfacet
  facet normal 0 0.987688 -0.156434
    outer loop
      vertex -27.9 -11.05 41
      vertex -31.9 -11.05 41
      vertex -31.9 -11.0419 41.051
    endloop
  endfacet
  facet normal 0 0.156434 -0.987688
    outer loop
      vertex -27.9 -9.90988 42.5692
      vertex -31.9 -9.4 42.65
      vertex -27.9 -9.4 42.65
    endloop
  endfacet
  facet normal 0 0.156434 -0.987688
    outer loop
      vertex -27.9 -9.90988 42.5692
      vertex -31.9 -9.90988 42.5692
      vertex -31.9 -9.4 42.65
    endloop
  endfacet
  facet normal 2.6136e-16 0.891007 -0.45399
    outer loop
      vertex -31.9 -10.9692 41.5099
      vertex -31.9 -10.7583 41.9238
      vertex -27.9 -10.8521 41.7399
    endloop
  endfacet
  facet normal 0 0.891007 -0.45399
    outer loop
      vertex -27.9 -10.9692 41.5099
      vertex -31.9 -10.9692 41.5099
      vertex -27.9 -10.8521 41.7399
    endloop
  endfacet
  facet normal 0 0.891007 -0.45399
    outer loop
      vertex -31.9 -10.7583 41.9238
      vertex -31.9 -10.7349 41.9698
      vertex -27.9 -10.7349 41.9698
    endloop
  endfacet
  facet normal 1.57936e-16 0.891007 -0.45399
    outer loop
      vertex -27.9 -10.8521 41.7399
      vertex -31.9 -10.7583 41.9238
      vertex -27.9 -10.7349 41.9698
    endloop
  endfacet
  facet normal 0 0.987688 -0.156434
    outer loop
      vertex -27.9 -11.0096 41.2549
      vertex -31.9 -10.9692 41.5099
      vertex -27.9 -10.9692 41.5099
    endloop
  endfacet
  facet normal 4.85383e-17 0.987688 -0.156434
    outer loop
      vertex -27.9 -11.0096 41.2549
      vertex -31.9 -11.0419 41.051
      vertex -31.9 -10.9692 41.5099
    endloop
  endfacet
  facet normal 0 -0.45399 -0.891007
    outer loop
      vertex -27.9 -8.89012 42.5692
      vertex -31.9 -8.43015 42.3349
      vertex -27.9 -8.43015 42.3349
    endloop
  endfacet
  facet normal -0 -0.45399 -0.891007
    outer loop
      vertex -27.9 -8.89012 42.5692
      vertex -31.9 -8.89012 42.5692
      vertex -31.9 -8.43015 42.3349
    endloop
  endfacet
  facet normal 1.26601e-15 0.45399 -0.891007
    outer loop
      vertex -27.9 -10.3698 42.3349
      vertex -31.9 -10.3238 42.3583
      vertex -27.9 -10.1399 42.4521
    endloop
  endfacet
  facet normal 0 0.45399 -0.891007
    outer loop
      vertex -27.9 -10.3698 42.3349
      vertex -31.9 -10.3698 42.3349
      vertex -31.9 -10.3238 42.3583
    endloop
  endfacet
  facet normal 0 0.45399 -0.891007
    outer loop
      vertex -27.9 -10.1399 42.4521
      vertex -31.9 -9.90988 42.5692
      vertex -27.9 -9.90988 42.5692
    endloop
  endfacet
  facet normal 6.14196e-16 0.45399 -0.891007
    outer loop
      vertex -27.9 -10.1399 42.4521
      vertex -31.9 -10.3238 42.3583
      vertex -31.9 -9.90988 42.5692
    endloop
  endfacet
  facet normal -0 0.987688 0.156434
    outer loop
      vertex -31.9 -11.05 41
      vertex -27.9 -11.05 41
      vertex -27.9 -10.9692 40.4901
    endloop
  endfacet
  facet normal -0 0.987688 0.156434
    outer loop
      vertex -31.9 -10.9692 40.4901
      vertex -31.9 -11.05 41
      vertex -27.9 -10.9692 40.4901
    endloop
  endfacet
  facet normal 0 -0.156434 -0.987688
    outer loop
      vertex -31.9 -8.94111 42.5773
      vertex -31.9 -8.89012 42.5692
      vertex -27.9 -8.89012 42.5692
    endloop
  endfacet
  facet normal 1.3895e-15 -0.156434 -0.987688
    outer loop
      vertex -27.9 -9.14506 42.6096
      vertex -31.9 -8.94111 42.5773
      vertex -27.9 -8.89012 42.5692
    endloop
  endfacet
  facet normal 1.55323e-15 -0.156434 -0.987688
    outer loop
      vertex -31.9 -9.4 42.65
      vertex -31.9 -8.94111 42.5773
      vertex -27.9 -9.14506 42.6096
    endloop
  endfacet
  facet normal -0 -0.156434 -0.987688
    outer loop
      vertex -27.9 -9.4 42.65
      vertex -31.9 -9.4 42.65
      vertex -27.9 -9.14506 42.6096
    endloop
  endfacet
  facet normal 0 -0.707107 -0.707107
    outer loop
      vertex -31.9 -8.43015 42.3349
      vertex -31.9 -8.06512 41.9698
      vertex -27.9 -8.06512 41.9698
    endloop
  endfacet
  facet normal -0 -0.707107 -0.707107
    outer loop
      vertex -27.9 -8.43015 42.3349
      vertex -31.9 -8.43015 42.3349
      vertex -27.9 -8.06512 41.9698
    endloop
  endfacet
  facet normal 0 0.707107 -0.707107
    outer loop
      vertex -27.9 -10.7349 41.9698
      vertex -31.9 -10.3698 42.3349
      vertex -27.9 -10.3698 42.3349
    endloop
  endfacet
  facet normal 0 0.707107 -0.707107
    outer loop
      vertex -27.9 -10.7349 41.9698
      vertex -31.9 -10.7349 41.9698
      vertex -31.9 -10.3698 42.3349
    endloop
  endfacet
  facet normal 0 -0.156434 0.987688
    outer loop
      vertex -31.9 -8.89012 39.4308
      vertex -27.9 -9.4 39.35
      vertex -27.9 -8.89012 39.4308
    endloop
  endfacet
  facet normal 0 -0.156434 0.987688
    outer loop
      vertex -31.9 -8.89012 39.4308
      vertex -31.9 -9.4 39.35
      vertex -27.9 -9.4 39.35
    endloop
  endfacet
  facet normal -7.28075e-17 -0.987688 -0.156434
    outer loop
      vertex -31.9 -7.83076 41.5099
      vertex -31.9 -7.75808 41.051
      vertex -27.9 -7.79038 41.2549
    endloop
  endfacet
  facet normal -0 -0.987688 -0.156434
    outer loop
      vertex -27.9 -7.83076 41.5099
      vertex -31.9 -7.83076 41.5099
      vertex -27.9 -7.79038 41.2549
    endloop
  endfacet
  facet normal 0 -0.987688 -0.156434
    outer loop
      vertex -31.9 -7.75808 41.051
      vertex -31.9 -7.75 41
      vertex -27.9 -7.75 41
    endloop
  endfacet
  facet normal -1.32734e-16 -0.987688 -0.156434
    outer loop
      vertex -27.9 -7.79038 41.2549
      vertex -31.9 -7.75808 41.051
      vertex -27.9 -7.75 41
    endloop
  endfacet
  facet normal 0 -0.707107 0.707107
    outer loop
      vertex -31.9 -8.06512 40.0302
      vertex -27.9 -8.43015 39.6651
      vertex -27.9 -8.06512 40.0302
    endloop
  endfacet
  facet normal 0 -0.707107 0.707107
    outer loop
      vertex -31.9 -8.06512 40.0302
      vertex -31.9 -8.43015 39.6651
      vertex -27.9 -8.43015 39.6651
    endloop
  endfacet
  facet normal 0 -0.891007 -0.45399
    outer loop
      vertex -27.9 -7.94794 41.7399
      vertex -31.9 -7.83076 41.5099
      vertex -27.9 -7.83076 41.5099
    endloop
  endfacet
  facet normal 6.534e-17 -0.891007 -0.45399
    outer loop
      vertex -27.9 -7.94794 41.7399
      vertex -31.9 -8.04169 41.9238
      vertex -31.9 -7.83076 41.5099
    endloop
  endfacet
  facet normal -0 0.707107 0.707107
    outer loop
      vertex -31.9 -10.3698 39.6651
      vertex -27.9 -10.7349 40.0302
      vertex -27.9 -10.3698 39.6651
    endloop
  endfacet
  facet normal 0 0.707107 0.707107
    outer loop
      vertex -31.9 -10.3698 39.6651
      vertex -31.9 -10.7349 40.0302
      vertex -27.9 -10.7349 40.0302
    endloop
  endfacet
  facet normal -0 0.45399 0.891007
    outer loop
      vertex -31.9 -9.90988 39.4308
      vertex -27.9 -10.3698 39.6651
      vertex -27.9 -9.90988 39.4308
    endloop
  endfacet
  facet normal 0 0.45399 0.891007
    outer loop
      vertex -31.9 -9.90988 39.4308
      vertex -31.9 -10.3698 39.6651
      vertex -27.9 -10.3698 39.6651
    endloop
  endfacet
  facet normal -0 0.156434 0.987688
    outer loop
      vertex -31.9 -9.4 39.35
      vertex -27.9 -9.90988 39.4308
      vertex -27.9 -9.4 39.35
    endloop
  endfacet
  facet normal 0 0.156434 0.987688
    outer loop
      vertex -31.9 -9.4 39.35
      vertex -31.9 -9.90988 39.4308
      vertex -27.9 -9.90988 39.4308
    endloop
  endfacet
  facet normal 0 -0.987688 0.156434
    outer loop
      vertex -31.9 -7.75 41
      vertex -27.9 -7.83076 40.4901
      vertex -27.9 -7.75 41
    endloop
  endfacet
  facet normal 0 -0.987688 0.156434
    outer loop
      vertex -31.9 -7.75 41
      vertex -31.9 -7.83076 40.4901
      vertex -27.9 -7.83076 40.4901
    endloop
  endfacet
  facet normal 0 -0.45399 0.891007
    outer loop
      vertex -31.9 -8.43015 39.6651
      vertex -27.9 -8.89012 39.4308
      vertex -27.9 -8.43015 39.6651
    endloop
  endfacet
  facet normal 0 -0.45399 0.891007
    outer loop
      vertex -31.9 -8.43015 39.6651
      vertex -31.9 -8.89012 39.4308
      vertex -27.9 -8.89012 39.4308
    endloop
  endfacet
  facet normal 0 -0.891007 0.45399
    outer loop
      vertex -31.9 -7.83076 40.4901
      vertex -27.9 -8.06512 40.0302
      vertex -27.9 -7.83076 40.4901
    endloop
  endfacet
  facet normal 0 -0.891007 0.45399
    outer loop
      vertex -31.9 -7.83076 40.4901
      vertex -31.9 -8.06512 40.0302
      vertex -27.9 -8.06512 40.0302
    endloop
  endfacet
  facet normal 1.18452e-16 -0.891007 -0.45399
    outer loop
      vertex -27.9 -8.06512 41.9698
      vertex -31.9 -8.04169 41.9238
      vertex -27.9 -7.94794 41.7399
    endloop
  endfacet
  facet normal -0 -0.891007 -0.45399
    outer loop
      vertex -27.9 -8.06512 41.9698
      vertex -31.9 -8.06512 41.9698
      vertex -31.9 -8.04169 41.9238
    endloop
  endfacet
  facet normal -0 0.891007 0.45399
    outer loop
      vertex -31.9 -10.9692 40.4901
      vertex -27.9 -10.9692 40.4901
      vertex -27.9 -10.7349 40.0302
    endloop
  endfacet
  facet normal -0 0.891007 0.45399
    outer loop
      vertex -31.9 -10.7349 40.0302
      vertex -31.9 -10.9692 40.4901
      vertex -27.9 -10.7349 40.0302
    endloop
  endfacet
  facet normal 0 -1 0
    outer loop
      vertex 21.9 -12 0
      vertex 16.3155 -12 3
      vertex 16.3155 -12 0
    endloop
  endfacet
  facet normal 0 -1 0
    outer loop
      vertex 21.9 -12 0
      vertex 21.9 -12 3
      vertex 16.3155 -12 3
    endloop
  endfacet
  facet normal 0 -1 0
    outer loop
      vertex -16.3155 -12 0
      vertex -27.9 -12 3
      vertex -27.9 -12 0
    endloop
  endfacet
  facet normal 0 -1 0
    outer loop
      vertex -16.3155 -12 0
      vertex -16.3155 -12 3
      vertex -27.9 -12 3
    endloop
  endfacet
  facet normal 0 1 0
    outer loop
      vertex -27.9 0 3
      vertex 21.9 0 0
      vertex -27.9 0 0
    endloop
  endfacet
  facet normal -0 1 0
    outer loop
      vertex -27.9 0 3
      vertex 21.9 0 3
      vertex 21.9 0 0
    endloop
  endfacet
  facet normal 0 0 1
    outer loop
      vertex -19.8192 -7.14012 3
      vertex -27.9 0 3
      vertex -27.9 -12 3
    endloop
  endfacet
  facet normal 0 0 1
    outer loop
      vertex -12.6374 -8.50613 3
      vertex -16.6 -7.65 3
      vertex -16.6808 -8.15988 3
    endloop
  endfacet
  facet normal 0 0 1
    outer loop
      vertex -3.36334 -4.6647 3
      vertex -27.9 0 3
      vertex -6.64387 -5.45228 3
    endloop
  endfacet
  facet normal 0 0 1
    outer loop
      vertex 1.3165e-15 -4.4 3
      vertex -27.9 0 3
      vertex -3.36334 -4.6647 3
    endloop
  endfacet
  facet normal 0 0 1
    outer loop
      vertex 21.9 0 3
      vertex -27.9 0 3
      vertex 1.3165e-15 -4.4 3
    endloop
  endfacet
  facet normal 0 0 1
    outer loop
      vertex 21.9 0 3
      vertex 1.3165e-15 -4.4 3
      vertex 3.36334 -4.6647 3
    endloop
  endfacet
  facet normal 0 0 1
    outer loop
      vertex 21.9 0 3
      vertex 3.36334 -4.6647 3
      vertex 6.64387 -5.45228 3
    endloop
  endfacet
  facet normal 0 0 1
    outer loop
      vertex 21.9 0 3
      vertex 9.7608 -6.74336 3
      vertex 17.2802 -6.31512 3
    endloop
  endfacet
  facet normal -0 0 1
    outer loop
      vertex 9.7608 -6.74336 3
      vertex 12.6374 -8.50613 3
      vertex 16.9151 -6.68015 3
    endloop
  endfacet
  facet normal 0 0 1
    outer loop
      vertex 21.9 0 3
      vertex 6.64387 -5.45228 3
      vertex 9.7608 -6.74336 3
    endloop
  endfacet
  facet normal 0 0 1
    outer loop
      vertex -19.8192 -8.15988 3
      vertex -19.9 -7.65 3
      vertex -27.9 -12 3
    endloop
  endfacet
  facet normal 0 -0 1
    outer loop
      vertex -19.9 -7.65 3
      vertex -19.8192 -7.14012 3
      vertex -27.9 -12 3
    endloop
  endfacet
  facet normal 0 -0 1
    outer loop
      vertex -19.8192 -7.14012 3
      vertex -19.5849 -6.68015 3
      vertex -27.9 0 3
    endloop
  endfacet
  facet normal 0 -0 1
    outer loop
      vertex -19.5849 -6.68015 3
      vertex -19.2198 -6.31512 3
      vertex -27.9 0 3
    endloop
  endfacet
  facet normal 0 0 1
    outer loop
      vertex -27.9 0 3
      vertex -18.25 -6 3
      vertex -17.7401 -6.08076 3
    endloop
  endfacet
  facet normal 0 -0 1
    outer loop
      vertex -19.2198 -6.31512 3
      vertex -18.7599 -6.08076 3
      vertex -27.9 0 3
    endloop
  endfacet
  facet normal 0 -0 1
    outer loop
      vertex -9.7608 -6.74336 3
      vertex -6.64387 -5.45228 3
      vertex -17.7401 -6.08076 3
    endloop
  endfacet
  facet normal 0 -0 1
    outer loop
      vertex -18.7599 -6.08076 3
      vertex -18.25 -6 3
      vertex -27.9 0 3
    endloop
  endfacet
  facet normal 0 -0 1
    outer loop
      vertex -17.7401 -6.08076 3
      vertex -6.64387 -5.45228 3
      vertex -27.9 0 3
    endloop
  endfacet
  facet normal 0 0 1
    outer loop
      vertex -9.7608 -6.74336 3
      vertex -16.9151 -6.68015 3
      vertex -12.6374 -8.50613 3
    endloop
  endfacet
  facet normal 0 0 1
    outer loop
      vertex -17.7401 -6.08076 3
      vertex -17.2802 -6.31512 3
      vertex -9.7608 -6.74336 3
    endloop
  endfacet
  facet normal 0 0 1
    outer loop
      vertex -17.2802 -6.31512 3
      vertex -16.9151 -6.68015 3
      vertex -9.7608 -6.74336 3
    endloop
  endfacet
  facet normal 0 -0 1
    outer loop
      vertex -16.3155 -12 3
      vertex -15.2028 -10.6972 3
      vertex -17.2802 -8.98488 3
    endloop
  endfacet
  facet normal 0 0 1
    outer loop
      vertex -16.9151 -6.68015 3
      vertex -16.6808 -7.14012 3
      vertex -12.6374 -8.50613 3
    endloop
  endfacet
  facet normal 0 0 1
    outer loop
      vertex -16.6808 -8.15988 3
      vertex -15.2028 -10.6972 3
      vertex -12.6374 -8.50613 3
    endloop
  endfacet
  facet normal -0 -0 1
    outer loop
      vertex -16.6 -7.65 3
      vertex -12.6374 -8.50613 3
      vertex -16.6808 -7.14012 3
    endloop
  endfacet
  facet normal 0 0 1
    outer loop
      vertex -15.2028 -10.6972 3
      vertex -16.6808 -8.15988 3
      vertex -16.9151 -8.61985 3
    endloop
  endfacet
  facet normal 0 0 1
    outer loop
      vertex -15.2028 -10.6972 3
      vertex -16.9151 -8.61985 3
      vertex -17.2802 -8.98488 3
    endloop
  endfacet
  facet normal 0 0 1
    outer loop
      vertex -16.3155 -12 3
      vertex -17.2802 -8.98488 3
      vertex -17.7401 -9.21924 3
    endloop
  endfacet
  facet normal 0 0 1
    outer loop
      vertex -16.3155 -12 3
      vertex -17.7401 -9.21924 3
      vertex -18.25 -9.3 3
    endloop
  endfacet
  facet normal 0 0 1
    outer loop
      vertex -16.3155 -12 3
      vertex -19.2198 -8.98488 3
      vertex -27.9 -12 3
    endloop
  endfacet
  facet normal 0 0 1
    outer loop
      vertex -18.25 -9.3 3
      vertex -18.7599 -9.21924 3
      vertex -16.3155 -12 3
    endloop
  endfacet
  facet normal 0 0 1
    outer loop
      vertex -18.7599 -9.21924 3
      vertex -19.2198 -8.98488 3
      vertex -16.3155 -12 3
    endloop
  endfacet
  facet normal 0 0 1
    outer loop
      vertex -19.2198 -8.98488 3
      vertex -19.5849 -8.61985 3
      vertex -27.9 -12 3
    endloop
  endfacet
  facet normal 0 0 1
    outer loop
      vertex -19.5849 -8.61985 3
      vertex -19.8192 -8.15988 3
      vertex -27.9 -12 3
    endloop
  endfacet
  facet normal 0 0 1
    outer loop
      vertex 16.6808 -8.15988 3
      vertex 12.6374 -8.50613 3
      vertex 15.2028 -10.6972 3
    endloop
  endfacet
  facet normal 0 0 1
    outer loop
      vertex 16.6 -7.65 3
      vertex 12.6374 -8.50613 3
      vertex 16.6808 -8.15988 3
    endloop
  endfacet
  facet normal 0 0 1
    outer loop
      vertex 16.6808 -7.14012 3
      vertex 12.6374 -8.50613 3
      vertex 16.6 -7.65 3
    endloop
  endfacet
  facet normal 0 0 1
    outer loop
      vertex 9.7608 -6.74336 3
      vertex 16.9151 -6.68015 3
      vertex 17.2802 -6.31512 3
    endloop
  endfacet
  facet normal 0 0 1
    outer loop
      vertex 16.9151 -6.68015 3
      vertex 12.6374 -8.50613 3
      vertex 16.6808 -7.14012 3
    endloop
  endfacet
  facet normal 0 0 1
    outer loop
      vertex 21.9 0 3
      vertex 17.2802 -6.31512 3
      vertex 17.7401 -6.08076 3
    endloop
  endfacet
  facet normal 0 0 1
    outer loop
      vertex 21.9 0 3
      vertex 17.7401 -6.08076 3
      vertex 18.25 -6 3
    endloop
  endfacet
  facet normal 0 0 1
    outer loop
      vertex 21.9 0 3
      vertex 18.25 -6 3
      vertex 18.7599 -6.08076 3
    endloop
  endfacet
  facet normal 0 0 1
    outer loop
      vertex 21.9 0 3
      vertex 18.7599 -6.08076 3
      vertex 19.2198 -6.31512 3
    endloop
  endfacet
  facet normal 0 0 1
    outer loop
      vertex 21.9 0 3
      vertex 19.2198 -6.31512 3
      vertex 19.5849 -6.68015 3
    endloop
  endfacet
  facet normal 0 0 1
    outer loop
      vertex 21.9 0 3
      vertex 19.5849 -6.68015 3
      vertex 19.8192 -7.14012 3
    endloop
  endfacet
  facet normal 0 0 1
    outer loop
      vertex 21.9 0 3
      vertex 19.9 -7.65 3
      vertex 21.9 -12 3
    endloop
  endfacet
  facet normal -0 0 1
    outer loop
      vertex 19.8192 -7.14012 3
      vertex 19.9 -7.65 3
      vertex 21.9 0 3
    endloop
  endfacet
  facet normal 0 0 1
    outer loop
      vertex 19.9 -7.65 3
      vertex 19.8192 -8.15988 3
      vertex 21.9 -12 3
    endloop
  endfacet
  facet normal -0 0 1
    outer loop
      vertex 15.2028 -10.6972 3
      vertex 16.3155 -12 3
      vertex 17.2802 -8.98488 3
    endloop
  endfacet
  facet normal 0 0 1
    outer loop
      vertex 19.8192 -8.15988 3
      vertex 19.5849 -8.61985 3
      vertex 21.9 -12 3
    endloop
  endfacet
  facet normal 0 0 1
    outer loop
      vertex 18.7599 -9.21924 3
      vertex 16.3155 -12 3
      vertex 21.9 -12 3
    endloop
  endfacet
  facet normal -0 0 1
    outer loop
      vertex 19.2198 -8.98488 3
      vertex 21.9 -12 3
      vertex 19.5849 -8.61985 3
    endloop
  endfacet
  facet normal -0 0 1
    outer loop
      vertex 18.7599 -9.21924 3
      vertex 21.9 -12 3
      vertex 19.2198 -8.98488 3
    endloop
  endfacet
  facet normal 0 0 1
    outer loop
      vertex 18.7599 -9.21924 3
      vertex 18.25 -9.3 3
      vertex 16.3155 -12 3
    endloop
  endfacet
  facet normal 0 0 1
    outer loop
      vertex 18.25 -9.3 3
      vertex 17.7401 -9.21924 3
      vertex 16.3155 -12 3
    endloop
  endfacet
  facet normal 0 0 1
    outer loop
      vertex 17.7401 -9.21924 3
      vertex 17.2802 -8.98488 3
      vertex 16.3155 -12 3
    endloop
  endfacet
  facet normal 0 0 1
    outer loop
      vertex 17.2802 -8.98488 3
      vertex 16.9151 -8.61985 3
      vertex 15.2028 -10.6972 3
    endloop
  endfacet
  facet normal 0 0 1
    outer loop
      vertex 16.9151 -8.61985 3
      vertex 16.6808 -8.15988 3
      vertex 15.2028 -10.6972 3
    endloop
  endfacet
  facet normal 1 0 0
    outer loop
      vertex 21.9 0 0
      vertex 21.9 -12 3
      vertex 21.9 -12 0
    endloop
  endfacet
  facet normal 1 0 -0
    outer loop
      vertex 21.9 0 0
      vertex 21.9 0 3
      vertex 21.9 -12 3
    endloop
  endfacet
  facet normal -0.522499 -0.85264 0
    outer loop
      vertex 9.7608 -6.74336 3
      vertex 12.6374 -8.50613 0
      vertex 12.6374 -8.50613 3
    endloop
  endfacet
  facet normal -0.522499 -0.85264 -0
    outer loop
      vertex 9.7608 -6.74336 3
      vertex 9.7608 -6.74336 0
      vertex 12.6374 -8.50613 0
    endloop
  endfacet
  facet normal -0.382683 -0.92388 0
    outer loop
      vertex 6.64387 -5.45228 3
      vertex 9.7608 -6.74336 0
      vertex 9.7608 -6.74336 3
    endloop
  endfacet
  facet normal -0.382683 -0.92388 -0
    outer loop
      vertex 6.64387 -5.45228 3
      vertex 6.64387 -5.45228 0
      vertex 9.7608 -6.74336 0
    endloop
  endfacet
  facet normal 0.0784591 -0.996917 0
    outer loop
      vertex -3.36334 -4.6647 3
      vertex 1.3165e-15 -4.4 0
      vertex 1.3165e-15 -4.4 3
    endloop
  endfacet
  facet normal 0.0784591 -0.996917 0
    outer loop
      vertex -3.36334 -4.6647 3
      vertex -3.36334 -4.6647 0
      vertex 1.3165e-15 -4.4 0
    endloop
  endfacet
  facet normal 0.649448 -0.760406 0
    outer loop
      vertex -15.2028 -10.6972 3
      vertex -12.6374 -8.50613 0
      vertex -12.6374 -8.50613 3
    endloop
  endfacet
  facet normal 0.649448 -0.760406 0
    outer loop
      vertex -15.2028 -10.6972 3
      vertex -15.2028 -10.6972 0
      vertex -12.6374 -8.50613 0
    endloop
  endfacet
  facet normal -0.649448 -0.760406 0
    outer loop
      vertex 12.6374 -8.50613 3
      vertex 15.2028 -10.6972 0
      vertex 15.2028 -10.6972 3
    endloop
  endfacet
  facet normal -0.649448 -0.760406 -0
    outer loop
      vertex 12.6374 -8.50613 3
      vertex 12.6374 -8.50613 0
      vertex 15.2028 -10.6972 0
    endloop
  endfacet
  facet normal -0.760406 -0.649448 0
    outer loop
      vertex 15.2028 -10.6972 0
      vertex 16.3155 -12 0
      vertex 16.3155 -12 3
    endloop
  endfacet
  facet normal -0.760406 -0.649448 -0
    outer loop
      vertex 15.2028 -10.6972 3
      vertex 15.2028 -10.6972 0
      vertex 16.3155 -12 3
    endloop
  endfacet
  facet normal -0.233445 -0.97237 0
    outer loop
      vertex 3.36334 -4.6647 3
      vertex 6.64387 -5.45228 0
      vertex 6.64387 -5.45228 3
    endloop
  endfacet
  facet normal -0.233445 -0.97237 -0
    outer loop
      vertex 3.36334 -4.6647 3
      vertex 3.36334 -4.6647 0
      vertex 6.64387 -5.45228 0
    endloop
  endfacet
  facet normal -0.0784591 -0.996917 0
    outer loop
      vertex 1.3165e-15 -4.4 3
      vertex 3.36334 -4.6647 0
      vertex 3.36334 -4.6647 3
    endloop
  endfacet
  facet normal -0.0784591 -0.996917 -0
    outer loop
      vertex 1.3165e-15 -4.4 3
      vertex 1.3165e-15 -4.4 0
      vertex 3.36334 -4.6647 0
    endloop
  endfacet
  facet normal 0.233445 -0.97237 0
    outer loop
      vertex -6.64387 -5.45228 3
      vertex -3.36334 -4.6647 0
      vertex -3.36334 -4.6647 3
    endloop
  endfacet
  facet normal 0.233445 -0.97237 0
    outer loop
      vertex -6.64387 -5.45228 3
      vertex -6.64387 -5.45228 0
      vertex -3.36334 -4.6647 0
    endloop
  endfacet
  facet normal 0.522499 -0.85264 0
    outer loop
      vertex -12.6374 -8.50613 3
      vertex -9.7608 -6.74336 0
      vertex -9.7608 -6.74336 3
    endloop
  endfacet
  facet normal 0.522499 -0.85264 0
    outer loop
      vertex -12.6374 -8.50613 3
      vertex -12.6374 -8.50613 0
      vertex -9.7608 -6.74336 0
    endloop
  endfacet
  facet normal 0.382683 -0.92388 0
    outer loop
      vertex -9.7608 -6.74336 3
      vertex -6.64387 -5.45228 0
      vertex -6.64387 -5.45228 3
    endloop
  endfacet
  facet normal 0.382683 -0.92388 0
    outer loop
      vertex -9.7608 -6.74336 3
      vertex -9.7608 -6.74336 0
      vertex -6.64387 -5.45228 0
    endloop
  endfacet
  facet normal 0.760406 -0.649448 0
    outer loop
      vertex -16.3155 -12 3
      vertex -15.2028 -10.6972 0
      vertex -15.2028 -10.6972 3
    endloop
  endfacet
  facet normal 0.760406 -0.649448 0
    outer loop
      vertex -16.3155 -12 3
      vertex -16.3155 -12 0
      vertex -15.2028 -10.6972 0
    endloop
  endfacet
  facet normal 0.987688 0.156434 -0
    outer loop
      vertex 16.6 -7.65 0
      vertex 16.6 -7.65 3
      vertex 16.6808 -8.15988 3
    endloop
  endfacet
  facet normal 0.987688 0.156434 -0
    outer loop
      vertex 16.6808 -8.15988 0
      vertex 16.6 -7.65 0
      vertex 16.6808 -8.15988 3
    endloop
  endfacet
  facet normal 0.156434 -0.987688 0
    outer loop
      vertex 17.7401 -6.08076 3
      vertex 18.25 -6 0
      vertex 18.25 -6 3
    endloop
  endfacet
  facet normal 0.156434 -0.987688 0
    outer loop
      vertex 17.7401 -6.08076 3
      vertex 17.7401 -6.08076 0
      vertex 18.25 -6 0
    endloop
  endfacet
  facet normal -0.987688 -0.156434 0
    outer loop
      vertex 19.8192 -7.14012 0
      vertex 19.9 -7.65 0
      vertex 19.9 -7.65 3
    endloop
  endfacet
  facet normal -0.987688 -0.156434 -0
    outer loop
      vertex 19.8192 -7.14012 3
      vertex 19.8192 -7.14012 0
      vertex 19.9 -7.65 3
    endloop
  endfacet
  facet normal -0.45399 0.891007 0
    outer loop
      vertex 19.2198 -8.98488 0
      vertex 18.7599 -9.21924 3
      vertex 19.2198 -8.98488 3
    endloop
  endfacet
  facet normal -0.45399 0.891007 0
    outer loop
      vertex 19.2198 -8.98488 0
      vertex 18.7599 -9.21924 0
      vertex 18.7599 -9.21924 3
    endloop
  endfacet
  facet normal 0.45399 0.891007 -0
    outer loop
      vertex 17.7401 -9.21924 0
      vertex 17.2802 -8.98488 3
      vertex 17.7401 -9.21924 3
    endloop
  endfacet
  facet normal 0.45399 0.891007 0
    outer loop
      vertex 17.7401 -9.21924 0
      vertex 17.2802 -8.98488 0
      vertex 17.2802 -8.98488 3
    endloop
  endfacet
  facet normal -0.156434 0.987688 0
    outer loop
      vertex 18.7599 -9.21924 0
      vertex 18.25 -9.3 3
      vertex 18.7599 -9.21924 3
    endloop
  endfacet
  facet normal -0.156434 0.987688 0
    outer loop
      vertex 18.7599 -9.21924 0
      vertex 18.25 -9.3 0
      vertex 18.25 -9.3 3
    endloop
  endfacet
  facet normal 0.891007 0.45399 -0
    outer loop
      vertex 16.6808 -8.15988 0
      vertex 16.6808 -8.15988 3
      vertex 16.9151 -8.61985 3
    endloop
  endfacet
  facet normal 0.891007 0.45399 -0
    outer loop
      vertex 16.9151 -8.61985 0
      vertex 16.6808 -8.15988 0
      vertex 16.9151 -8.61985 3
    endloop
  endfacet
  facet normal 0.987688 -0.156434 0
    outer loop
      vertex 16.6 -7.65 3
      vertex 16.6808 -7.14012 0
      vertex 16.6808 -7.14012 3
    endloop
  endfacet
  facet normal 0.987688 -0.156434 0
    outer loop
      vertex 16.6 -7.65 3
      vertex 16.6 -7.65 0
      vertex 16.6808 -7.14012 0
    endloop
  endfacet
  facet normal -0.707107 -0.707107 0
    outer loop
      vertex 19.2198 -6.31512 0
      vertex 19.5849 -6.68015 0
      vertex 19.5849 -6.68015 3
    endloop
  endfacet
  facet normal -0.707107 -0.707107 -0
    outer loop
      vertex 19.2198 -6.31512 3
      vertex 19.2198 -6.31512 0
      vertex 19.5849 -6.68015 3
    endloop
  endfacet
  facet normal -0.891007 -0.45399 0
    outer loop
      vertex 19.5849 -6.68015 0
      vertex 19.8192 -7.14012 0
      vertex 19.8192 -7.14012 3
    endloop
  endfacet
  facet normal -0.891007 -0.45399 -0
    outer loop
      vertex 19.5849 -6.68015 3
      vertex 19.5849 -6.68015 0
      vertex 19.8192 -7.14012 3
    endloop
  endfacet
  facet normal 0.707107 0.707107 -0
    outer loop
      vertex 16.9151 -8.61985 0
      vertex 16.9151 -8.61985 3
      vertex 17.2802 -8.98488 3
    endloop
  endfacet
  facet normal 0.707107 0.707107 -0
    outer loop
      vertex 17.2802 -8.98488 0
      vertex 16.9151 -8.61985 0
      vertex 17.2802 -8.98488 3
    endloop
  endfacet
  facet normal -0.891007 0.45399 0
    outer loop
      vertex 19.8192 -8.15988 0
      vertex 19.5849 -8.61985 3
      vertex 19.8192 -8.15988 3
    endloop
  endfacet
  facet normal -0.891007 0.45399 0
    outer loop
      vertex 19.8192 -8.15988 0
      vertex 19.5849 -8.61985 0
      vertex 19.5849 -8.61985 3
    endloop
  endfacet
  facet normal -0.707107 0.707107 0
    outer loop
      vertex 19.5849 -8.61985 0
      vertex 19.2198 -8.98488 3
      vertex 19.5849 -8.61985 3
    endloop
  endfacet
  facet normal -0.707107 0.707107 0
    outer loop
      vertex 19.5849 -8.61985 0
      vertex 19.2198 -8.98488 0
      vertex 19.2198 -8.98488 3
    endloop
  endfacet
  facet normal -0.156434 -0.987688 0
    outer loop
      vertex 18.25 -6 3
      vertex 18.7599 -6.08076 0
      vertex 18.7599 -6.08076 3
    endloop
  endfacet
  facet normal -0.156434 -0.987688 -0
    outer loop
      vertex 18.25 -6 3
      vertex 18.25 -6 0
      vertex 18.7599 -6.08076 0
    endloop
  endfacet
  facet normal -0.45399 -0.891007 0
    outer loop
      vertex 18.7599 -6.08076 3
      vertex 19.2198 -6.31512 0
      vertex 19.2198 -6.31512 3
    endloop
  endfacet
  facet normal -0.45399 -0.891007 -0
    outer loop
      vertex 18.7599 -6.08076 3
      vertex 18.7599 -6.08076 0
      vertex 19.2198 -6.31512 0
    endloop
  endfacet
  facet normal 0.707107 -0.707107 0
    outer loop
      vertex 16.9151 -6.68015 3
      vertex 17.2802 -6.31512 0
      vertex 17.2802 -6.31512 3
    endloop
  endfacet
  facet normal 0.707107 -0.707107 0
    outer loop
      vertex 16.9151 -6.68015 3
      vertex 16.9151 -6.68015 0
      vertex 17.2802 -6.31512 0
    endloop
  endfacet
  facet normal 0.45399 -0.891007 0
    outer loop
      vertex 17.2802 -6.31512 3
      vertex 17.7401 -6.08076 0
      vertex 17.7401 -6.08076 3
    endloop
  endfacet
  facet normal 0.45399 -0.891007 0
    outer loop
      vertex 17.2802 -6.31512 3
      vertex 17.2802 -6.31512 0
      vertex 17.7401 -6.08076 0
    endloop
  endfacet
  facet normal 0.891007 -0.45399 0
    outer loop
      vertex 16.6808 -7.14012 3
      vertex 16.9151 -6.68015 0
      vertex 16.9151 -6.68015 3
    endloop
  endfacet
  facet normal 0.891007 -0.45399 0
    outer loop
      vertex 16.6808 -7.14012 3
      vertex 16.6808 -7.14012 0
      vertex 16.9151 -6.68015 0
    endloop
  endfacet
  facet normal 0.156434 0.987688 -0
    outer loop
      vertex 18.25 -9.3 0
      vertex 17.7401 -9.21924 3
      vertex 18.25 -9.3 3
    endloop
  endfacet
  facet normal 0.156434 0.987688 0
    outer loop
      vertex 18.25 -9.3 0
      vertex 17.7401 -9.21924 0
      vertex 17.7401 -9.21924 3
    endloop
  endfacet
  facet normal -0.987688 0.156434 0
    outer loop
      vertex 19.9 -7.65 0
      vertex 19.8192 -8.15988 3
      vertex 19.9 -7.65 3
    endloop
  endfacet
  facet normal -0.987688 0.156434 0
    outer loop
      vertex 19.9 -7.65 0
      vertex 19.8192 -8.15988 0
      vertex 19.8192 -8.15988 3
    endloop
  endfacet
  facet normal 0.987688 0.156434 -0
    outer loop
      vertex -19.9 -7.65 0
      vertex -19.9 -7.65 3
      vertex -19.8192 -8.15988 3
    endloop
  endfacet
  facet normal 0.987688 0.156434 -0
    outer loop
      vertex -19.8192 -8.15988 0
      vertex -19.9 -7.65 0
      vertex -19.8192 -8.15988 3
    endloop
  endfacet
  facet normal -0.45399 -0.891007 0
    outer loop
      vertex -17.7401 -6.08076 3
      vertex -17.2802 -6.31512 0
      vertex -17.2802 -6.31512 3
    endloop
  endfacet
  facet normal -0.45399 -0.891007 -0
    outer loop
      vertex -17.7401 -6.08076 3
      vertex -17.7401 -6.08076 0
      vertex -17.2802 -6.31512 0
    endloop
  endfacet
  facet normal -0.987688 -0.156434 0
    outer loop
      vertex -16.6808 -7.14012 0
      vertex -16.6 -7.65 0
      vertex -16.6 -7.65 3
    endloop
  endfacet
  facet normal -0.987688 -0.156434 -0
    outer loop
      vertex -16.6808 -7.14012 3
      vertex -16.6808 -7.14012 0
      vertex -16.6 -7.65 3
    endloop
  endfacet
  facet normal 0.891007 0.45399 -0
    outer loop
      vertex -19.8192 -8.15988 0
      vertex -19.8192 -8.15988 3
      vertex -19.5849 -8.61985 3
    endloop
  endfacet
  facet normal 0.891007 0.45399 -0
    outer loop
      vertex -19.5849 -8.61985 0
      vertex -19.8192 -8.15988 0
      vertex -19.5849 -8.61985 3
    endloop
  endfacet
  facet normal -0.707107 -0.707107 0
    outer loop
      vertex -17.2802 -6.31512 0
      vertex -16.9151 -6.68015 0
      vertex -16.9151 -6.68015 3
    endloop
  endfacet
  facet normal -0.707107 -0.707107 -0
    outer loop
      vertex -17.2802 -6.31512 3
      vertex -17.2802 -6.31512 0
      vertex -16.9151 -6.68015 3
    endloop
  endfacet
  facet normal 0.987688 -0.156434 0
    outer loop
      vertex -19.9 -7.65 3
      vertex -19.8192 -7.14012 0
      vertex -19.8192 -7.14012 3
    endloop
  endfacet
  facet normal 0.987688 -0.156434 0
    outer loop
      vertex -19.9 -7.65 3
      vertex -19.9 -7.65 0
      vertex -19.8192 -7.14012 0
    endloop
  endfacet
  facet normal -0.45399 0.891007 0
    outer loop
      vertex -17.2802 -8.98488 0
      vertex -17.7401 -9.21924 3
      vertex -17.2802 -8.98488 3
    endloop
  endfacet
  facet normal -0.45399 0.891007 0
    outer loop
      vertex -17.2802 -8.98488 0
      vertex -17.7401 -9.21924 0
      vertex -17.7401 -9.21924 3
    endloop
  endfacet
  facet normal -0.891007 -0.45399 0
    outer loop
      vertex -16.9151 -6.68015 0
      vertex -16.6808 -7.14012 0
      vertex -16.6808 -7.14012 3
    endloop
  endfacet
  facet normal -0.891007 -0.45399 -0
    outer loop
      vertex -16.9151 -6.68015 3
      vertex -16.9151 -6.68015 0
      vertex -16.6808 -7.14012 3
    endloop
  endfacet
  facet normal 0.156434 -0.987688 0
    outer loop
      vertex -18.7599 -6.08076 3
      vertex -18.25 -6 0
      vertex -18.25 -6 3
    endloop
  endfacet
  facet normal 0.156434 -0.987688 0
    outer loop
      vertex -18.7599 -6.08076 3
      vertex -18.7599 -6.08076 0
      vertex -18.25 -6 0
    endloop
  endfacet
  facet normal 0.45399 -0.891007 0
    outer loop
      vertex -19.2198 -6.31512 3
      vertex -18.7599 -6.08076 0
      vertex -18.7599 -6.08076 3
    endloop
  endfacet
  facet normal 0.45399 -0.891007 0
    outer loop
      vertex -19.2198 -6.31512 3
      vertex -19.2198 -6.31512 0
      vertex -18.7599 -6.08076 0
    endloop
  endfacet
  facet normal 0.45399 0.891007 -0
    outer loop
      vertex -18.7599 -9.21924 0
      vertex -19.2198 -8.98488 3
      vertex -18.7599 -9.21924 3
    endloop
  endfacet
  facet normal 0.45399 0.891007 0
    outer loop
      vertex -18.7599 -9.21924 0
      vertex -19.2198 -8.98488 0
      vertex -19.2198 -8.98488 3
    endloop
  endfacet
  facet normal -0.156434 0.987688 0
    outer loop
      vertex -17.7401 -9.21924 0
      vertex -18.25 -9.3 3
      vertex -17.7401 -9.21924 3
    endloop
  endfacet
  facet normal -0.156434 0.987688 0
    outer loop
      vertex -17.7401 -9.21924 0
      vertex -18.25 -9.3 0
      vertex -18.25 -9.3 3
    endloop
  endfacet
  facet normal 0.707107 0.707107 -0
    outer loop
      vertex -19.5849 -8.61985 0
      vertex -19.5849 -8.61985 3
      vertex -19.2198 -8.98488 3
    endloop
  endfacet
  facet normal 0.707107 0.707107 -0
    outer loop
      vertex -19.2198 -8.98488 0
      vertex -19.5849 -8.61985 0
      vertex -19.2198 -8.98488 3
    endloop
  endfacet
  facet normal -0.891007 0.45399 0
    outer loop
      vertex -16.6808 -8.15988 0
      vertex -16.9151 -8.61985 3
      vertex -16.6808 -8.15988 3
    endloop
  endfacet
  facet normal -0.891007 0.45399 0
    outer loop
      vertex -16.6808 -8.15988 0
      vertex -16.9151 -8.61985 0
      vertex -16.9151 -8.61985 3
    endloop
  endfacet
  facet normal -0.707107 0.707107 0
    outer loop
      vertex -16.9151 -8.61985 0
      vertex -17.2802 -8.98488 3
      vertex -16.9151 -8.61985 3
    endloop
  endfacet
  facet normal -0.707107 0.707107 0
    outer loop
      vertex -16.9151 -8.61985 0
      vertex -17.2802 -8.98488 0
      vertex -17.2802 -8.98488 3
    endloop
  endfacet
  facet normal -0.156434 -0.987688 0
    outer loop
      vertex -18.25 -6 3
      vertex -17.7401 -6.08076 0
      vertex -17.7401 -6.08076 3
    endloop
  endfacet
  facet normal -0.156434 -0.987688 -0
    outer loop
      vertex -18.25 -6 3
      vertex -18.25 -6 0
      vertex -17.7401 -6.08076 0
    endloop
  endfacet
  facet normal 0.707107 -0.707107 0
    outer loop
      vertex -19.5849 -6.68015 3
      vertex -19.2198 -6.31512 0
      vertex -19.2198 -6.31512 3
    endloop
  endfacet
  facet normal 0.707107 -0.707107 0
    outer loop
      vertex -19.5849 -6.68015 3
      vertex -19.5849 -6.68015 0
      vertex -19.2198 -6.31512 0
    endloop
  endfacet
  facet normal 0.156434 0.987688 -0
    outer loop
      vertex -18.25 -9.3 0
      vertex -18.7599 -9.21924 3
      vertex -18.25 -9.3 3
    endloop
  endfacet
  facet normal 0.156434 0.987688 0
    outer loop
      vertex -18.25 -9.3 0
      vertex -18.7599 -9.21924 0
      vertex -18.7599 -9.21924 3
    endloop
  endfacet
  facet normal -0.987688 0.156434 0
    outer loop
      vertex -16.6 -7.65 0
      vertex -16.6808 -8.15988 3
      vertex -16.6 -7.65 3
    endloop
  endfacet
  facet normal -0.987688 0.156434 0
    outer loop
      vertex -16.6 -7.65 0
      vertex -16.6808 -8.15988 0
      vertex -16.6808 -8.15988 3
    endloop
  endfacet
  facet normal 0.891007 -0.45399 0
    outer loop
      vertex -19.8192 -7.14012 3
      vertex -19.5849 -6.68015 0
      vertex -19.5849 -6.68015 3
    endloop
  endfacet
  facet normal 0.891007 -0.45399 0
    outer loop
      vertex -19.8192 -7.14012 3
      vertex -19.8192 -7.14012 0
      vertex -19.5849 -6.68015 0
    endloop
  endfacet
endsolid OpenSCAD_Model
