solid OpenSCAD_Model
  facet normal -0.994522 0.104528 0
    outer loop
      vertex -6 3.39932e-15 0
      vertex -6 3.39932e-15 1.3
      vertex -5.86889 1.24747 0
    endloop
  endfacet
  facet normal -0.994522 0.104528 0
    outer loop
      vertex -5.86889 1.24747 0
      vertex -6 3.39932e-15 1.3
      vertex -5.86889 1.24747 1.3
    endloop
  endfacet
  facet normal -0.994522 -0.104528 0
    outer loop
      vertex -6 3.39932e-15 0
      vertex -5.86889 -1.24747 0
      vertex -6 3.39932e-15 1.3
    endloop
  endfacet
  facet normal -0.994522 -0.104528 0
    outer loop
      vertex -6 3.39932e-15 1.3
      vertex -5.86889 -1.24747 0
      vertex -5.86889 -1.24747 1.3
    endloop
  endfacet
  facet normal 0 0 -1
    outer loop
      vertex -6 3.39932e-15 0
      vertex -5.86889 1.24747 0
      vertex -5.86889 -1.24747 0
    endloop
  endfacet
  facet normal 0 0 -1
    outer loop
      vertex -5.86889 -1.24747 0
      vertex -5.86889 1.24747 0
      vertex -5.48127 2.44042 0
    endloop
  endfacet
  facet normal 0 0 -1
    outer loop
      vertex -5.86889 -1.24747 0
      vertex -5.48127 2.44042 0
      vertex -4.8541 3.52671 0
    endloop
  endfacet
  facet normal 0 0 -1
    outer loop
      vertex -5.86889 -1.24747 0
      vertex -4.8541 3.52671 0
      vertex -4.01478 4.45887 0
    endloop
  endfacet
  facet normal 0 0 -1
    outer loop
      vertex -5.86889 -1.24747 0
      vertex -4.01478 4.45887 0
      vertex -3 5.19615 0
    endloop
  endfacet
  facet normal 0 0 -1
    outer loop
      vertex -5.86889 -1.24747 0
      vertex -3 5.19615 0
      vertex -1.8541 5.70634 0
    endloop
  endfacet
  facet normal 0 0 -1
    outer loop
      vertex -3.31697 2.40992 0
      vertex -1.8541 5.70634 0
      vertex -0.627171 5.96713 0
    endloop
  endfacet
  facet normal 0 0 -1
    outer loop
      vertex -1.26697 3.89933 0
      vertex -0.627171 5.96713 0
      vertex 0.627171 5.96713 0
    endloop
  endfacet
  facet normal 0 0 -1
    outer loop
      vertex -0.428567 4.07754 0
      vertex 0.627171 5.96713 0
      vertex 1.8541 5.70634 0
    endloop
  endfacet
  facet normal 0 0 -1
    outer loop
      vertex 0.428567 4.07754 0
      vertex 1.8541 5.70634 0
      vertex 3 5.19615 0
    endloop
  endfacet
  facet normal 0 0 -1
    outer loop
      vertex 2.05 3.5507 0
      vertex 3 5.19615 0
      vertex 4.01478 4.45887 0
    endloop
  endfacet
  facet normal 0 0 -1
    outer loop
      vertex 2.74344 3.04689 0
      vertex 4.01478 4.45887 0
      vertex 4.8541 3.52671 0
    endloop
  endfacet
  facet normal 0 0 -1
    outer loop
      vertex 3.31697 2.40992 0
      vertex 4.8541 3.52671 0
      vertex 5.48127 2.44042 0
    endloop
  endfacet
  facet normal 0 0 -1
    outer loop
      vertex 3.74554 1.66762 0
      vertex 5.48127 2.44042 0
      vertex 5.86889 1.24747 0
    endloop
  endfacet
  facet normal 0 0 -1
    outer loop
      vertex 4.1 0 0
      vertex 5.86889 1.24747 0
      vertex 6 0 0
    endloop
  endfacet
  facet normal 0 0 -1
    outer loop
      vertex 4.01041 -0.852438 0
      vertex 6 0 0
      vertex 5.86889 -1.24747 0
    endloop
  endfacet
  facet normal 0 0 -1
    outer loop
      vertex 3.74554 -1.66762 0
      vertex 5.86889 -1.24747 0
      vertex 5.48127 -2.44042 0
    endloop
  endfacet
  facet normal 0 0 -1
    outer loop
      vertex 2.74344 -3.04689 0
      vertex 5.48127 -2.44042 0
      vertex 4.8541 -3.52671 0
    endloop
  endfacet
  facet normal 0 0 -1
    outer loop
      vertex 2.05 -3.5507 0
      vertex 4.8541 -3.52671 0
      vertex 4.01478 -4.45887 0
    endloop
  endfacet
  facet normal 0 0 -1
    outer loop
      vertex 1.26697 -3.89933 0
      vertex 4.01478 -4.45887 0
      vertex 3 -5.19615 0
    endloop
  endfacet
  facet normal 0 0 -1
    outer loop
      vertex -0.428567 -4.07754 0
      vertex 3 -5.19615 0
      vertex 1.8541 -5.70634 0
    endloop
  endfacet
  facet normal 0 0 -1
    outer loop
      vertex -2.05 -3.5507 0
      vertex 1.8541 -5.70634 0
      vertex 0.627171 -5.96713 0
    endloop
  endfacet
  facet normal 0 0 -1
    outer loop
      vertex -5.86889 -1.24747 0
      vertex 0.627171 -5.96713 0
      vertex -0.627171 -5.96713 0
    endloop
  endfacet
  facet normal 0 0 -1
    outer loop
      vertex -5.86889 -1.24747 0
      vertex -0.627171 -5.96713 0
      vertex -1.8541 -5.70634 0
    endloop
  endfacet
  facet normal 0 0 -1
    outer loop
      vertex -5.86889 -1.24747 0
      vertex -1.8541 -5.70634 0
      vertex -3 -5.19615 0
    endloop
  endfacet
  facet normal 0 0 -1
    outer loop
      vertex -5.86889 -1.24747 0
      vertex -3 -5.19615 0
      vertex -4.01478 -4.45887 0
    endloop
  endfacet
  facet normal 0 0 -1
    outer loop
      vertex -5.86889 -1.24747 0
      vertex -4.01478 -4.45887 0
      vertex -4.8541 -3.52671 0
    endloop
  endfacet
  facet normal 0 0 -1
    outer loop
      vertex -5.86889 -1.24747 0
      vertex -4.8541 -3.52671 0
      vertex -5.48127 -2.44042 0
    endloop
  endfacet
  facet normal 0 0 -1
    outer loop
      vertex -4.01041 -0.852438 0
      vertex -5.86889 -1.24747 0
      vertex -4.1 2.32287e-15 0
    endloop
  endfacet
  facet normal 0 0 -1
    outer loop
      vertex -3.74554 -1.66762 0
      vertex -5.86889 -1.24747 0
      vertex -4.01041 -0.852438 0
    endloop
  endfacet
  facet normal 0 0 -1
    outer loop
      vertex -3.31697 -2.40992 0
      vertex -5.86889 -1.24747 0
      vertex -3.74554 -1.66762 0
    endloop
  endfacet
  facet normal 0 0 -1
    outer loop
      vertex -2.05 -3.5507 0
      vertex -5.86889 -1.24747 0
      vertex -2.74344 -3.04689 0
    endloop
  endfacet
  facet normal 0 0 -1
    outer loop
      vertex -5.86889 -1.24747 0
      vertex -3.31697 -2.40992 0
      vertex -2.74344 -3.04689 0
    endloop
  endfacet
  facet normal 0 0 -1
    outer loop
      vertex -1.26697 -3.89933 0
      vertex 1.8541 -5.70634 0
      vertex -2.05 -3.5507 0
    endloop
  endfacet
  facet normal 0 0 -1
    outer loop
      vertex -5.86889 -1.24747 0
      vertex -2.05 -3.5507 0
      vertex 0.627171 -5.96713 0
    endloop
  endfacet
  facet normal 0 0 -1
    outer loop
      vertex -0.428567 -4.07754 0
      vertex 1.8541 -5.70634 0
      vertex -1.26697 -3.89933 0
    endloop
  endfacet
  facet normal 0 0 -1
    outer loop
      vertex 0.428567 -4.07754 0
      vertex 3 -5.19615 0
      vertex -0.428567 -4.07754 0
    endloop
  endfacet
  facet normal 0 0 -1
    outer loop
      vertex 1.26697 -3.89933 0
      vertex 3 -5.19615 0
      vertex 0.428567 -4.07754 0
    endloop
  endfacet
  facet normal 0 0 -1
    outer loop
      vertex 3.31697 -2.40992 0
      vertex 5.48127 -2.44042 0
      vertex 2.74344 -3.04689 0
    endloop
  endfacet
  facet normal 0 0 -1
    outer loop
      vertex 3.74554 -1.66762 0
      vertex 5.48127 -2.44042 0
      vertex 3.31697 -2.40992 0
    endloop
  endfacet
  facet normal 0 0 -1
    outer loop
      vertex 2.74344 -3.04689 0
      vertex 4.8541 -3.52671 0
      vertex 2.05 -3.5507 0
    endloop
  endfacet
  facet normal 0 0 -1
    outer loop
      vertex 2.05 -3.5507 0
      vertex 4.01478 -4.45887 0
      vertex 1.26697 -3.89933 0
    endloop
  endfacet
  facet normal 0 0 -1
    outer loop
      vertex 4.01041 0.852438 0
      vertex 5.86889 1.24747 0
      vertex 4.1 0 0
    endloop
  endfacet
  facet normal 0 0 -1
    outer loop
      vertex 3.74554 1.66762 0
      vertex 5.86889 1.24747 0
      vertex 4.01041 0.852438 0
    endloop
  endfacet
  facet normal 0 0 -1
    outer loop
      vertex 4.1 0 0
      vertex 6 0 0
      vertex 4.01041 -0.852438 0
    endloop
  endfacet
  facet normal 0 0 -1
    outer loop
      vertex 4.01041 -0.852438 0
      vertex 5.86889 -1.24747 0
      vertex 3.74554 -1.66762 0
    endloop
  endfacet
  facet normal 0 0 -1
    outer loop
      vertex 1.26697 3.89933 0
      vertex 3 5.19615 0
      vertex 2.05 3.5507 0
    endloop
  endfacet
  facet normal 0 0 -1
    outer loop
      vertex 0.428567 4.07754 0
      vertex 3 5.19615 0
      vertex 1.26697 3.89933 0
    endloop
  endfacet
  facet normal 0 0 -1
    outer loop
      vertex 2.05 3.5507 0
      vertex 4.01478 4.45887 0
      vertex 2.74344 3.04689 0
    endloop
  endfacet
  facet normal 0 0 -1
    outer loop
      vertex 2.74344 3.04689 0
      vertex 4.8541 3.52671 0
      vertex 3.31697 2.40992 0
    endloop
  endfacet
  facet normal 0 0 -1
    outer loop
      vertex -2.05 3.5507 0
      vertex -0.627171 5.96713 0
      vertex -1.26697 3.89933 0
    endloop
  endfacet
  facet normal 0 0 -1
    outer loop
      vertex -2.74344 3.04689 0
      vertex -0.627171 5.96713 0
      vertex -2.05 3.5507 0
    endloop
  endfacet
  facet normal 0 0 -1
    outer loop
      vertex -5.86889 -1.24747 0
      vertex -1.8541 5.70634 0
      vertex -3.31697 2.40992 0
    endloop
  endfacet
  facet normal 0 0 -1
    outer loop
      vertex -3.74554 1.66762 0
      vertex -5.86889 -1.24747 0
      vertex -3.31697 2.40992 0
    endloop
  endfacet
  facet normal 0 0 -1
    outer loop
      vertex -4.01041 0.852438 0
      vertex -5.86889 -1.24747 0
      vertex -3.74554 1.66762 0
    endloop
  endfacet
  facet normal 0 0 -1
    outer loop
      vertex 3.31697 2.40992 0
      vertex 5.48127 2.44042 0
      vertex 3.74554 1.66762 0
    endloop
  endfacet
  facet normal 0 0 -1
    outer loop
      vertex -4.1 2.32287e-15 0
      vertex -5.86889 -1.24747 0
      vertex -4.01041 0.852438 0
    endloop
  endfacet
  facet normal 0 0 -1
    outer loop
      vertex -3.31697 2.40992 0
      vertex -0.627171 5.96713 0
      vertex -2.74344 3.04689 0
    endloop
  endfacet
  facet normal 0 0 -1
    outer loop
      vertex -1.26697 3.89933 0
      vertex 0.627171 5.96713 0
      vertex -0.428567 4.07754 0
    endloop
  endfacet
  facet normal 0 0 -1
    outer loop
      vertex -0.428567 4.07754 0
      vertex 1.8541 5.70634 0
      vertex 0.428567 4.07754 0
    endloop
  endfacet
  facet normal -0.951057 0.309017 0
    outer loop
      vertex -5.86889 1.24747 0
      vertex -5.86889 1.24747 1.3
      vertex -5.48127 2.44042 0
    endloop
  endfacet
  facet normal -0.951057 0.309017 0
    outer loop
      vertex -5.48127 2.44042 0
      vertex -5.86889 1.24747 1.3
      vertex -5.48127 2.44042 1.3
    endloop
  endfacet
  facet normal 0 0 1
    outer loop
      vertex -5.86889 1.24747 1.3
      vertex -6 3.39932e-15 1.3
      vertex -5.86889 -1.24747 1.3
    endloop
  endfacet
  facet normal 0 0 1
    outer loop
      vertex -4.8541 -3.52671 1.3
      vertex -5.86889 1.24747 1.3
      vertex -5.48127 -2.44042 1.3
    endloop
  endfacet
  facet normal 0 0 1
    outer loop
      vertex -5.48127 -2.44042 1.3
      vertex -5.86889 1.24747 1.3
      vertex -5.86889 -1.24747 1.3
    endloop
  endfacet
  facet normal 0 0 1
    outer loop
      vertex -4.01478 -4.45887 1.3
      vertex -5.86889 1.24747 1.3
      vertex -4.8541 -3.52671 1.3
    endloop
  endfacet
  facet normal 0 0 1
    outer loop
      vertex -3 -5.19615 1.3
      vertex -5.86889 1.24747 1.3
      vertex -4.01478 -4.45887 1.3
    endloop
  endfacet
  facet normal 0 0 1
    outer loop
      vertex -1.8541 -5.70634 1.3
      vertex -5.86889 1.24747 1.3
      vertex -3 -5.19615 1.3
    endloop
  endfacet
  facet normal 0 0 1
    outer loop
      vertex -3.31697 -2.40992 1.3
      vertex -5.86889 1.24747 1.3
      vertex -1.8541 -5.70634 1.3
    endloop
  endfacet
  facet normal 0 0 1
    outer loop
      vertex -3.31697 -2.40992 1.3
      vertex -3.74554 -1.66762 1.3
      vertex -5.86889 1.24747 1.3
    endloop
  endfacet
  facet normal 0 0 1
    outer loop
      vertex 1.26697 -3.89933 1.3
      vertex 0.428567 -4.07754 1.3
      vertex 3 -5.19615 1.3
    endloop
  endfacet
  facet normal 0 0 1
    outer loop
      vertex 3.31697 2.40992 1.3
      vertex 3.74554 1.66762 1.3
      vertex 5.48127 2.44042 1.3
    endloop
  endfacet
  facet normal 0 0 1
    outer loop
      vertex 2.05 3.5507 1.3
      vertex 2.74344 3.04689 1.3
      vertex 4.8541 3.52671 1.3
    endloop
  endfacet
  facet normal 0 0 1
    outer loop
      vertex -1.26697 3.89933 1.3
      vertex -0.428567 4.07754 1.3
      vertex 1.8541 5.70634 1.3
    endloop
  endfacet
  facet normal 0 0 1
    outer loop
      vertex -0.627171 5.96713 1.3
      vertex -5.86889 1.24747 1.3
      vertex 0.627171 5.96713 1.3
    endloop
  endfacet
  facet normal 0 0 1
    outer loop
      vertex -1.8541 5.70634 1.3
      vertex -5.86889 1.24747 1.3
      vertex -0.627171 5.96713 1.3
    endloop
  endfacet
  facet normal 0 0 1
    outer loop
      vertex -3 5.19615 1.3
      vertex -5.86889 1.24747 1.3
      vertex -1.8541 5.70634 1.3
    endloop
  endfacet
  facet normal 0 0 1
    outer loop
      vertex -4.01478 4.45887 1.3
      vertex -5.86889 1.24747 1.3
      vertex -3 5.19615 1.3
    endloop
  endfacet
  facet normal 0 0 1
    outer loop
      vertex -4.8541 3.52671 1.3
      vertex -5.86889 1.24747 1.3
      vertex -4.01478 4.45887 1.3
    endloop
  endfacet
  facet normal 0 0 1
    outer loop
      vertex -5.48127 2.44042 1.3
      vertex -5.86889 1.24747 1.3
      vertex -4.8541 3.52671 1.3
    endloop
  endfacet
  facet normal 0 0 1
    outer loop
      vertex -2.74344 -3.04689 1.3
      vertex -3.31697 -2.40992 1.3
      vertex -0.627171 -5.96713 1.3
    endloop
  endfacet
  facet normal 0 0 1
    outer loop
      vertex -4.1 2.32287e-15 1.3
      vertex -4.01041 0.852438 1.3
      vertex -5.86889 1.24747 1.3
    endloop
  endfacet
  facet normal 0 0 1
    outer loop
      vertex 0.428567 -4.07754 1.3
      vertex -0.428567 -4.07754 1.3
      vertex 1.8541 -5.70634 1.3
    endloop
  endfacet
  facet normal 0 0 1
    outer loop
      vertex 2.74344 -3.04689 1.3
      vertex 2.05 -3.5507 1.3
      vertex 4.01478 -4.45887 1.3
    endloop
  endfacet
  facet normal 0 0 1
    outer loop
      vertex 3.31697 -2.40992 1.3
      vertex 2.74344 -3.04689 1.3
      vertex 4.8541 -3.52671 1.3
    endloop
  endfacet
  facet normal 0 0 1
    outer loop
      vertex 3.74554 1.66762 1.3
      vertex 4.01041 0.852438 1.3
      vertex 5.86889 1.24747 1.3
    endloop
  endfacet
  facet normal 0 0 1
    outer loop
      vertex 1.26697 3.89933 1.3
      vertex 2.05 3.5507 1.3
      vertex 4.01478 4.45887 1.3
    endloop
  endfacet
  facet normal 0 0 1
    outer loop
      vertex -2.74344 3.04689 1.3
      vertex -5.86889 1.24747 1.3
      vertex -3.31697 2.40992 1.3
    endloop
  endfacet
  facet normal 0 0 1
    outer loop
      vertex -2.05 3.5507 1.3
      vertex -1.26697 3.89933 1.3
      vertex 1.8541 5.70634 1.3
    endloop
  endfacet
  facet normal 0 0 1
    outer loop
      vertex 0.627171 5.96713 1.3
      vertex -2.05 3.5507 1.3
      vertex 1.8541 5.70634 1.3
    endloop
  endfacet
  facet normal 0 0 1
    outer loop
      vertex 0.627171 5.96713 1.3
      vertex -5.86889 1.24747 1.3
      vertex -2.05 3.5507 1.3
    endloop
  endfacet
  facet normal 0 0 1
    outer loop
      vertex 0.428567 4.07754 1.3
      vertex 1.26697 3.89933 1.3
      vertex 3 5.19615 1.3
    endloop
  endfacet
  facet normal 0 0 1
    outer loop
      vertex 1.8541 5.70634 1.3
      vertex -0.428567 4.07754 1.3
      vertex 3 5.19615 1.3
    endloop
  endfacet
  facet normal 0 0 1
    outer loop
      vertex -0.428567 4.07754 1.3
      vertex 0.428567 4.07754 1.3
      vertex 3 5.19615 1.3
    endloop
  endfacet
  facet normal 0 0 1
    outer loop
      vertex 3 5.19615 1.3
      vertex 1.26697 3.89933 1.3
      vertex 4.01478 4.45887 1.3
    endloop
  endfacet
  facet normal 0 0 1
    outer loop
      vertex -2.74344 3.04689 1.3
      vertex -2.05 3.5507 1.3
      vertex -5.86889 1.24747 1.3
    endloop
  endfacet
  facet normal 0 0 1
    outer loop
      vertex 4.01478 4.45887 1.3
      vertex 2.05 3.5507 1.3
      vertex 4.8541 3.52671 1.3
    endloop
  endfacet
  facet normal 0 0 1
    outer loop
      vertex 4.8541 3.52671 1.3
      vertex 2.74344 3.04689 1.3
      vertex 5.48127 2.44042 1.3
    endloop
  endfacet
  facet normal 0 0 1
    outer loop
      vertex 2.74344 3.04689 1.3
      vertex 3.31697 2.40992 1.3
      vertex 5.48127 2.44042 1.3
    endloop
  endfacet
  facet normal 0 0 1
    outer loop
      vertex 5.48127 2.44042 1.3
      vertex 3.74554 1.66762 1.3
      vertex 5.86889 1.24747 1.3
    endloop
  endfacet
  facet normal 0 0 1
    outer loop
      vertex 5.86889 1.24747 1.3
      vertex 4.01041 0.852438 1.3
      vertex 6 0 1.3
    endloop
  endfacet
  facet normal 0 0 1
    outer loop
      vertex 4.1 0 1.3
      vertex 4.01041 -0.852438 1.3
      vertex 5.86889 -1.24747 1.3
    endloop
  endfacet
  facet normal 0 0 1
    outer loop
      vertex 6 0 1.3
      vertex 4.1 0 1.3
      vertex 5.86889 -1.24747 1.3
    endloop
  endfacet
  facet normal 0 0 1
    outer loop
      vertex -3.74554 1.66762 1.3
      vertex -3.31697 2.40992 1.3
      vertex -5.86889 1.24747 1.3
    endloop
  endfacet
  facet normal 0 0 1
    outer loop
      vertex 5.86889 -1.24747 1.3
      vertex 4.01041 -0.852438 1.3
      vertex 5.48127 -2.44042 1.3
    endloop
  endfacet
  facet normal 0 0 1
    outer loop
      vertex 4.01041 -0.852438 1.3
      vertex 3.74554 -1.66762 1.3
      vertex 5.48127 -2.44042 1.3
    endloop
  endfacet
  facet normal 0 0 1
    outer loop
      vertex 5.48127 -2.44042 1.3
      vertex 3.31697 -2.40992 1.3
      vertex 4.8541 -3.52671 1.3
    endloop
  endfacet
  facet normal 0 0 1
    outer loop
      vertex 4.01041 0.852438 1.3
      vertex 4.1 0 1.3
      vertex 6 0 1.3
    endloop
  endfacet
  facet normal 0 0 1
    outer loop
      vertex 4.8541 -3.52671 1.3
      vertex 2.74344 -3.04689 1.3
      vertex 4.01478 -4.45887 1.3
    endloop
  endfacet
  facet normal 0 0 1
    outer loop
      vertex 4.01478 -4.45887 1.3
      vertex 2.05 -3.5507 1.3
      vertex 3 -5.19615 1.3
    endloop
  endfacet
  facet normal 0 0 1
    outer loop
      vertex 2.05 -3.5507 1.3
      vertex 1.26697 -3.89933 1.3
      vertex 3 -5.19615 1.3
    endloop
  endfacet
  facet normal 0 0 1
    outer loop
      vertex 3 -5.19615 1.3
      vertex 0.428567 -4.07754 1.3
      vertex 1.8541 -5.70634 1.3
    endloop
  endfacet
  facet normal 0 0 1
    outer loop
      vertex 1.8541 -5.70634 1.3
      vertex -0.428567 -4.07754 1.3
      vertex 0.627171 -5.96713 1.3
    endloop
  endfacet
  facet normal 0 0 1
    outer loop
      vertex -0.428567 -4.07754 1.3
      vertex -1.26697 -3.89933 1.3
      vertex 0.627171 -5.96713 1.3
    endloop
  endfacet
  facet normal 0 0 1
    outer loop
      vertex 0.627171 -5.96713 1.3
      vertex -1.26697 -3.89933 1.3
      vertex -0.627171 -5.96713 1.3
    endloop
  endfacet
  facet normal 0 0 1
    outer loop
      vertex -1.26697 -3.89933 1.3
      vertex -2.05 -3.5507 1.3
      vertex -0.627171 -5.96713 1.3
    endloop
  endfacet
  facet normal 0 0 1
    outer loop
      vertex -0.627171 -5.96713 1.3
      vertex -3.31697 -2.40992 1.3
      vertex -1.8541 -5.70634 1.3
    endloop
  endfacet
  facet normal 0 0 1
    outer loop
      vertex -4.01041 -0.852438 1.3
      vertex -5.86889 1.24747 1.3
      vertex -3.74554 -1.66762 1.3
    endloop
  endfacet
  facet normal 0 0 1
    outer loop
      vertex -2.05 -3.5507 1.3
      vertex -2.74344 -3.04689 1.3
      vertex -0.627171 -5.96713 1.3
    endloop
  endfacet
  facet normal 0 0 1
    outer loop
      vertex -4.01041 -0.852438 1.3
      vertex -4.1 2.32287e-15 1.3
      vertex -5.86889 1.24747 1.3
    endloop
  endfacet
  facet normal 0 0 1
    outer loop
      vertex 3.74554 -1.66762 1.3
      vertex 3.31697 -2.40992 1.3
      vertex 5.48127 -2.44042 1.3
    endloop
  endfacet
  facet normal 0 0 1
    outer loop
      vertex -4.01041 0.852438 1.3
      vertex -3.74554 1.66762 1.3
      vertex -5.86889 1.24747 1.3
    endloop
  endfacet
  facet normal -0.951057 -0.309017 0
    outer loop
      vertex -5.86889 -1.24747 0
      vertex -5.48127 -2.44042 0
      vertex -5.86889 -1.24747 1.3
    endloop
  endfacet
  facet normal -0.951057 -0.309017 0
    outer loop
      vertex -5.86889 -1.24747 1.3
      vertex -5.48127 -2.44042 0
      vertex -5.48127 -2.44042 1.3
    endloop
  endfacet
  facet normal -0.866025 -0.5 0
    outer loop
      vertex -5.48127 -2.44042 0
      vertex -4.8541 -3.52671 0
      vertex -5.48127 -2.44042 1.3
    endloop
  endfacet
  facet normal -0.866025 -0.5 0
    outer loop
      vertex -5.48127 -2.44042 1.3
      vertex -4.8541 -3.52671 0
      vertex -4.8541 -3.52671 1.3
    endloop
  endfacet
  facet normal -0.743145 -0.669131 0
    outer loop
      vertex -4.8541 -3.52671 0
      vertex -4.01478 -4.45887 0
      vertex -4.8541 -3.52671 1.3
    endloop
  endfacet
  facet normal -0.743145 -0.669131 0
    outer loop
      vertex -4.8541 -3.52671 1.3
      vertex -4.01478 -4.45887 0
      vertex -4.01478 -4.45887 1.3
    endloop
  endfacet
  facet normal -0.587785 -0.809017 0
    outer loop
      vertex -4.01478 -4.45887 1.3
      vertex -4.01478 -4.45887 0
      vertex -3 -5.19615 0
    endloop
  endfacet
  facet normal -0.587785 -0.809017 0
    outer loop
      vertex -3 -5.19615 1.3
      vertex -4.01478 -4.45887 1.3
      vertex -3 -5.19615 0
    endloop
  endfacet
  facet normal -0.406737 -0.913545 0
    outer loop
      vertex -3 -5.19615 1.3
      vertex -3 -5.19615 0
      vertex -1.8541 -5.70634 0
    endloop
  endfacet
  facet normal -0.406737 -0.913545 0
    outer loop
      vertex -1.8541 -5.70634 1.3
      vertex -3 -5.19615 1.3
      vertex -1.8541 -5.70634 0
    endloop
  endfacet
  facet normal -0.207912 -0.978148 0
    outer loop
      vertex -1.8541 -5.70634 1.3
      vertex -1.8541 -5.70634 0
      vertex -0.627171 -5.96713 0
    endloop
  endfacet
  facet normal -0.207912 -0.978148 0
    outer loop
      vertex -0.627171 -5.96713 1.3
      vertex -1.8541 -5.70634 1.3
      vertex -0.627171 -5.96713 0
    endloop
  endfacet
  facet normal -7.08083e-16 -1 0
    outer loop
      vertex -0.627171 -5.96713 1.3
      vertex -0.627171 -5.96713 0
      vertex 0.627171 -5.96713 0
    endloop
  endfacet
  facet normal -7.08083e-16 -1 0
    outer loop
      vertex 0.627171 -5.96713 1.3
      vertex -0.627171 -5.96713 1.3
      vertex 0.627171 -5.96713 0
    endloop
  endfacet
  facet normal 0.207912 -0.978148 0
    outer loop
      vertex 0.627171 -5.96713 1.3
      vertex 0.627171 -5.96713 0
      vertex 1.8541 -5.70634 0
    endloop
  endfacet
  facet normal 0.207912 -0.978148 0
    outer loop
      vertex 1.8541 -5.70634 1.3
      vertex 0.627171 -5.96713 1.3
      vertex 1.8541 -5.70634 0
    endloop
  endfacet
  facet normal 0.406737 -0.913545 0
    outer loop
      vertex 1.8541 -5.70634 1.3
      vertex 1.8541 -5.70634 0
      vertex 3 -5.19615 0
    endloop
  endfacet
  facet normal 0.406737 -0.913545 0
    outer loop
      vertex 3 -5.19615 1.3
      vertex 1.8541 -5.70634 1.3
      vertex 3 -5.19615 0
    endloop
  endfacet
  facet normal 0.587785 -0.809017 0
    outer loop
      vertex 3 -5.19615 1.3
      vertex 3 -5.19615 0
      vertex 4.01478 -4.45887 0
    endloop
  endfacet
  facet normal 0.587785 -0.809017 0
    outer loop
      vertex 4.01478 -4.45887 1.3
      vertex 3 -5.19615 1.3
      vertex 4.01478 -4.45887 0
    endloop
  endfacet
  facet normal 0.743145 -0.669131 0
    outer loop
      vertex 4.01478 -4.45887 1.3
      vertex 4.01478 -4.45887 0
      vertex 4.8541 -3.52671 0
    endloop
  endfacet
  facet normal 0.743145 -0.669131 0
    outer loop
      vertex 4.8541 -3.52671 1.3
      vertex 4.01478 -4.45887 1.3
      vertex 4.8541 -3.52671 0
    endloop
  endfacet
  facet normal 0.866025 -0.5 0
    outer loop
      vertex 4.8541 -3.52671 1.3
      vertex 4.8541 -3.52671 0
      vertex 5.48127 -2.44042 0
    endloop
  endfacet
  facet normal 0.866025 -0.5 0
    outer loop
      vertex 5.48127 -2.44042 1.3
      vertex 4.8541 -3.52671 1.3
      vertex 5.48127 -2.44042 0
    endloop
  endfacet
  facet normal 0.951057 -0.309017 0
    outer loop
      vertex 5.48127 -2.44042 1.3
      vertex 5.48127 -2.44042 0
      vertex 5.86889 -1.24747 0
    endloop
  endfacet
  facet normal 0.951057 -0.309017 0
    outer loop
      vertex 5.86889 -1.24747 1.3
      vertex 5.48127 -2.44042 1.3
      vertex 5.86889 -1.24747 0
    endloop
  endfacet
  facet normal 0.994522 -0.104528 0
    outer loop
      vertex 5.86889 -1.24747 1.3
      vertex 5.86889 -1.24747 0
      vertex 6 0 0
    endloop
  endfacet
  facet normal 0.994522 -0.104528 0
    outer loop
      vertex 6 0 1.3
      vertex 5.86889 -1.24747 1.3
      vertex 6 0 0
    endloop
  endfacet
  facet normal 0.994522 0.104528 0
    outer loop
      vertex 6 0 0
      vertex 5.86889 1.24747 0
      vertex 5.86889 1.24747 1.3
    endloop
  endfacet
  facet normal 0.994522 0.104528 0
    outer loop
      vertex 6 0 1.3
      vertex 6 0 0
      vertex 5.86889 1.24747 1.3
    endloop
  endfacet
  facet normal 0.951057 0.309017 0
    outer loop
      vertex 5.86889 1.24747 0
      vertex 5.48127 2.44042 0
      vertex 5.48127 2.44042 1.3
    endloop
  endfacet
  facet normal 0.951057 0.309017 0
    outer loop
      vertex 5.86889 1.24747 1.3
      vertex 5.86889 1.24747 0
      vertex 5.48127 2.44042 1.3
    endloop
  endfacet
  facet normal 0.866025 0.5 0
    outer loop
      vertex 5.48127 2.44042 0
      vertex 4.8541 3.52671 0
      vertex 4.8541 3.52671 1.3
    endloop
  endfacet
  facet normal 0.866025 0.5 0
    outer loop
      vertex 5.48127 2.44042 1.3
      vertex 5.48127 2.44042 0
      vertex 4.8541 3.52671 1.3
    endloop
  endfacet
  facet normal 0.743145 0.669131 0
    outer loop
      vertex 4.8541 3.52671 0
      vertex 4.01478 4.45887 0
      vertex 4.01478 4.45887 1.3
    endloop
  endfacet
  facet normal 0.743145 0.669131 0
    outer loop
      vertex 4.8541 3.52671 1.3
      vertex 4.8541 3.52671 0
      vertex 4.01478 4.45887 1.3
    endloop
  endfacet
  facet normal 0.587785 0.809017 0
    outer loop
      vertex 3 5.19615 0
      vertex 3 5.19615 1.3
      vertex 4.01478 4.45887 0
    endloop
  endfacet
  facet normal 0.587785 0.809017 0
    outer loop
      vertex 4.01478 4.45887 0
      vertex 3 5.19615 1.3
      vertex 4.01478 4.45887 1.3
    endloop
  endfacet
  facet normal 0.406737 0.913545 0
    outer loop
      vertex 1.8541 5.70634 0
      vertex 1.8541 5.70634 1.3
      vertex 3 5.19615 0
    endloop
  endfacet
  facet normal 0.406737 0.913545 0
    outer loop
      vertex 3 5.19615 0
      vertex 1.8541 5.70634 1.3
      vertex 3 5.19615 1.3
    endloop
  endfacet
  facet normal 0.207912 0.978148 0
    outer loop
      vertex 0.627171 5.96713 0
      vertex 0.627171 5.96713 1.3
      vertex 1.8541 5.70634 0
    endloop
  endfacet
  facet normal 0.207912 0.978148 0
    outer loop
      vertex 1.8541 5.70634 0
      vertex 0.627171 5.96713 1.3
      vertex 1.8541 5.70634 1.3
    endloop
  endfacet
  facet normal 7.08083e-16 1 0
    outer loop
      vertex -0.627171 5.96713 0
      vertex -0.627171 5.96713 1.3
      vertex 0.627171 5.96713 0
    endloop
  endfacet
  facet normal 7.08083e-16 1 0
    outer loop
      vertex 0.627171 5.96713 0
      vertex -0.627171 5.96713 1.3
      vertex 0.627171 5.96713 1.3
    endloop
  endfacet
  facet normal -0.207912 0.978148 0
    outer loop
      vertex -1.8541 5.70634 0
      vertex -1.8541 5.70634 1.3
      vertex -0.627171 5.96713 0
    endloop
  endfacet
  facet normal -0.207912 0.978148 0
    outer loop
      vertex -0.627171 5.96713 0
      vertex -1.8541 5.70634 1.3
      vertex -0.627171 5.96713 1.3
    endloop
  endfacet
  facet normal -0.406737 0.913545 0
    outer loop
      vertex -3 5.19615 0
      vertex -3 5.19615 1.3
      vertex -1.8541 5.70634 0
    endloop
  endfacet
  facet normal -0.406737 0.913545 0
    outer loop
      vertex -1.8541 5.70634 0
      vertex -3 5.19615 1.3
      vertex -1.8541 5.70634 1.3
    endloop
  endfacet
  facet normal -0.587785 0.809017 0
    outer loop
      vertex -4.01478 4.45887 0
      vertex -4.01478 4.45887 1.3
      vertex -3 5.19615 0
    endloop
  endfacet
  facet normal -0.587785 0.809017 0
    outer loop
      vertex -3 5.19615 0
      vertex -4.01478 4.45887 1.3
      vertex -3 5.19615 1.3
    endloop
  endfacet
  facet normal -0.743145 0.669131 0
    outer loop
      vertex -4.8541 3.52671 0
      vertex -4.8541 3.52671 1.3
      vertex -4.01478 4.45887 0
    endloop
  endfacet
  facet normal -0.743145 0.669131 0
    outer loop
      vertex -4.01478 4.45887 0
      vertex -4.8541 3.52671 1.3
      vertex -4.01478 4.45887 1.3
    endloop
  endfacet
  facet normal -0.866025 0.5 0
    outer loop
      vertex -5.48127 2.44042 0
      vertex -5.48127 2.44042 1.3
      vertex -4.8541 3.52671 0
    endloop
  endfacet
  facet normal -0.866025 0.5 0
    outer loop
      vertex -4.8541 3.52671 0
      vertex -5.48127 2.44042 1.3
      vertex -4.8541 3.52671 1.3
    endloop
  endfacet
  facet normal 0.994522 0.104528 0
    outer loop
      vertex -4.1 2.32287e-15 1.3
      vertex -4.01041 -0.852438 1.3
      vertex -4.01041 -0.852438 0
    endloop
  endfacet
  facet normal 0.994522 0.104528 0
    outer loop
      vertex -4.1 2.32287e-15 0
      vertex -4.1 2.32287e-15 1.3
      vertex -4.01041 -0.852438 0
    endloop
  endfacet
  facet normal 0.994522 -0.104528 0
    outer loop
      vertex -4.01041 0.852438 0
      vertex -4.01041 0.852438 1.3
      vertex -4.1 2.32287e-15 1.3
    endloop
  endfacet
  facet normal 0.994522 -0.104528 0
    outer loop
      vertex -4.1 2.32287e-15 0
      vertex -4.01041 0.852438 0
      vertex -4.1 2.32287e-15 1.3
    endloop
  endfacet
  facet normal 0.951057 -0.309017 0
    outer loop
      vertex -3.74554 1.66762 0
      vertex -3.74554 1.66762 1.3
      vertex -4.01041 0.852438 1.3
    endloop
  endfacet
  facet normal 0.951057 -0.309017 0
    outer loop
      vertex -4.01041 0.852438 0
      vertex -3.74554 1.66762 0
      vertex -4.01041 0.852438 1.3
    endloop
  endfacet
  facet normal 0.866025 -0.5 0
    outer loop
      vertex -3.31697 2.40992 0
      vertex -3.31697 2.40992 1.3
      vertex -3.74554 1.66762 1.3
    endloop
  endfacet
  facet normal 0.866025 -0.5 0
    outer loop
      vertex -3.74554 1.66762 0
      vertex -3.31697 2.40992 0
      vertex -3.74554 1.66762 1.3
    endloop
  endfacet
  facet normal 0.743145 -0.669131 0
    outer loop
      vertex -2.74344 3.04689 0
      vertex -2.74344 3.04689 1.3
      vertex -3.31697 2.40992 1.3
    endloop
  endfacet
  facet normal 0.743145 -0.669131 0
    outer loop
      vertex -3.31697 2.40992 0
      vertex -2.74344 3.04689 0
      vertex -3.31697 2.40992 1.3
    endloop
  endfacet
  facet normal 0.587785 -0.809017 0
    outer loop
      vertex -2.05 3.5507 0
      vertex -2.05 3.5507 1.3
      vertex -2.74344 3.04689 1.3
    endloop
  endfacet
  facet normal 0.587785 -0.809017 0
    outer loop
      vertex -2.74344 3.04689 0
      vertex -2.05 3.5507 0
      vertex -2.74344 3.04689 1.3
    endloop
  endfacet
  facet normal 0.406737 -0.913545 0
    outer loop
      vertex -1.26697 3.89933 0
      vertex -1.26697 3.89933 1.3
      vertex -2.05 3.5507 1.3
    endloop
  endfacet
  facet normal 0.406737 -0.913545 0
    outer loop
      vertex -2.05 3.5507 0
      vertex -1.26697 3.89933 0
      vertex -2.05 3.5507 1.3
    endloop
  endfacet
  facet normal 0.207912 -0.978148 0
    outer loop
      vertex -0.428567 4.07754 0
      vertex -0.428567 4.07754 1.3
      vertex -1.26697 3.89933 1.3
    endloop
  endfacet
  facet normal 0.207912 -0.978148 0
    outer loop
      vertex -1.26697 3.89933 0
      vertex -0.428567 4.07754 0
      vertex -1.26697 3.89933 1.3
    endloop
  endfacet
  facet normal -1.03622e-15 -1 0
    outer loop
      vertex 0.428567 4.07754 0
      vertex 0.428567 4.07754 1.3
      vertex -0.428567 4.07754 1.3
    endloop
  endfacet
  facet normal -1.03622e-15 -1 0
    outer loop
      vertex -0.428567 4.07754 0
      vertex 0.428567 4.07754 0
      vertex -0.428567 4.07754 1.3
    endloop
  endfacet
  facet normal -0.207912 -0.978148 0
    outer loop
      vertex 1.26697 3.89933 0
      vertex 1.26697 3.89933 1.3
      vertex 0.428567 4.07754 1.3
    endloop
  endfacet
  facet normal -0.207912 -0.978148 0
    outer loop
      vertex 0.428567 4.07754 0
      vertex 1.26697 3.89933 0
      vertex 0.428567 4.07754 1.3
    endloop
  endfacet
  facet normal -0.406737 -0.913545 0
    outer loop
      vertex 2.05 3.5507 0
      vertex 2.05 3.5507 1.3
      vertex 1.26697 3.89933 1.3
    endloop
  endfacet
  facet normal -0.406737 -0.913545 0
    outer loop
      vertex 1.26697 3.89933 0
      vertex 2.05 3.5507 0
      vertex 1.26697 3.89933 1.3
    endloop
  endfacet
  facet normal -0.587785 -0.809017 0
    outer loop
      vertex 2.74344 3.04689 0
      vertex 2.74344 3.04689 1.3
      vertex 2.05 3.5507 1.3
    endloop
  endfacet
  facet normal -0.587785 -0.809017 0
    outer loop
      vertex 2.05 3.5507 0
      vertex 2.74344 3.04689 0
      vertex 2.05 3.5507 1.3
    endloop
  endfacet
  facet normal -0.743145 -0.669131 0
    outer loop
      vertex 3.31697 2.40992 1.3
      vertex 2.74344 3.04689 1.3
      vertex 3.31697 2.40992 0
    endloop
  endfacet
  facet normal -0.743145 -0.669131 0
    outer loop
      vertex 3.31697 2.40992 0
      vertex 2.74344 3.04689 1.3
      vertex 2.74344 3.04689 0
    endloop
  endfacet
  facet normal -0.866025 -0.5 0
    outer loop
      vertex 3.74554 1.66762 1.3
      vertex 3.31697 2.40992 1.3
      vertex 3.74554 1.66762 0
    endloop
  endfacet
  facet normal -0.866025 -0.5 0
    outer loop
      vertex 3.74554 1.66762 0
      vertex 3.31697 2.40992 1.3
      vertex 3.31697 2.40992 0
    endloop
  endfacet
  facet normal -0.951057 -0.309017 0
    outer loop
      vertex 4.01041 0.852438 1.3
      vertex 3.74554 1.66762 1.3
      vertex 4.01041 0.852438 0
    endloop
  endfacet
  facet normal -0.951057 -0.309017 0
    outer loop
      vertex 4.01041 0.852438 0
      vertex 3.74554 1.66762 1.3
      vertex 3.74554 1.66762 0
    endloop
  endfacet
  facet normal -0.994522 -0.104528 0
    outer loop
      vertex 4.1 0 1.3
      vertex 4.01041 0.852438 1.3
      vertex 4.1 0 0
    endloop
  endfacet
  facet normal -0.994522 -0.104528 0
    outer loop
      vertex 4.1 0 0
      vertex 4.01041 0.852438 1.3
      vertex 4.01041 0.852438 0
    endloop
  endfacet
  facet normal -0.994522 0.104528 0
    outer loop
      vertex 4.1 0 1.3
      vertex 4.1 0 0
      vertex 4.01041 -0.852438 1.3
    endloop
  endfacet
  facet normal -0.994522 0.104528 0
    outer loop
      vertex 4.01041 -0.852438 1.3
      vertex 4.1 0 0
      vertex 4.01041 -0.852438 0
    endloop
  endfacet
  facet normal -0.951057 0.309017 0
    outer loop
      vertex 4.01041 -0.852438 1.3
      vertex 4.01041 -0.852438 0
      vertex 3.74554 -1.66762 1.3
    endloop
  endfacet
  facet normal -0.951057 0.309017 0
    outer loop
      vertex 3.74554 -1.66762 1.3
      vertex 4.01041 -0.852438 0
      vertex 3.74554 -1.66762 0
    endloop
  endfacet
  facet normal -0.866025 0.5 0
    outer loop
      vertex 3.74554 -1.66762 1.3
      vertex 3.74554 -1.66762 0
      vertex 3.31697 -2.40992 1.3
    endloop
  endfacet
  facet normal -0.866025 0.5 0
    outer loop
      vertex 3.31697 -2.40992 1.3
      vertex 3.74554 -1.66762 0
      vertex 3.31697 -2.40992 0
    endloop
  endfacet
  facet normal -0.743145 0.669131 0
    outer loop
      vertex 3.31697 -2.40992 1.3
      vertex 3.31697 -2.40992 0
      vertex 2.74344 -3.04689 1.3
    endloop
  endfacet
  facet normal -0.743145 0.669131 0
    outer loop
      vertex 2.74344 -3.04689 1.3
      vertex 3.31697 -2.40992 0
      vertex 2.74344 -3.04689 0
    endloop
  endfacet
  facet normal -0.587785 0.809017 0
    outer loop
      vertex 2.74344 -3.04689 1.3
      vertex 2.74344 -3.04689 0
      vertex 2.05 -3.5507 1.3
    endloop
  endfacet
  facet normal -0.587785 0.809017 0
    outer loop
      vertex 2.05 -3.5507 1.3
      vertex 2.74344 -3.04689 0
      vertex 2.05 -3.5507 0
    endloop
  endfacet
  facet normal -0.406737 0.913545 0
    outer loop
      vertex 2.05 -3.5507 1.3
      vertex 2.05 -3.5507 0
      vertex 1.26697 -3.89933 1.3
    endloop
  endfacet
  facet normal -0.406737 0.913545 0
    outer loop
      vertex 1.26697 -3.89933 1.3
      vertex 2.05 -3.5507 0
      vertex 1.26697 -3.89933 0
    endloop
  endfacet
  facet normal -0.207912 0.978148 0
    outer loop
      vertex 1.26697 -3.89933 1.3
      vertex 1.26697 -3.89933 0
      vertex 0.428567 -4.07754 1.3
    endloop
  endfacet
  facet normal -0.207912 0.978148 0
    outer loop
      vertex 0.428567 -4.07754 1.3
      vertex 1.26697 -3.89933 0
      vertex 0.428567 -4.07754 0
    endloop
  endfacet
  facet normal 1.03622e-15 1 0
    outer loop
      vertex 0.428567 -4.07754 1.3
      vertex 0.428567 -4.07754 0
      vertex -0.428567 -4.07754 1.3
    endloop
  endfacet
  facet normal 1.03622e-15 1 0
    outer loop
      vertex -0.428567 -4.07754 1.3
      vertex 0.428567 -4.07754 0
      vertex -0.428567 -4.07754 0
    endloop
  endfacet
  facet normal 0.207912 0.978148 0
    outer loop
      vertex -0.428567 -4.07754 1.3
      vertex -0.428567 -4.07754 0
      vertex -1.26697 -3.89933 1.3
    endloop
  endfacet
  facet normal 0.207912 0.978148 0
    outer loop
      vertex -1.26697 -3.89933 1.3
      vertex -0.428567 -4.07754 0
      vertex -1.26697 -3.89933 0
    endloop
  endfacet
  facet normal 0.406737 0.913545 0
    outer loop
      vertex -1.26697 -3.89933 1.3
      vertex -1.26697 -3.89933 0
      vertex -2.05 -3.5507 1.3
    endloop
  endfacet
  facet normal 0.406737 0.913545 0
    outer loop
      vertex -2.05 -3.5507 1.3
      vertex -1.26697 -3.89933 0
      vertex -2.05 -3.5507 0
    endloop
  endfacet
  facet normal 0.587785 0.809017 0
    outer loop
      vertex -2.05 -3.5507 1.3
      vertex -2.05 -3.5507 0
      vertex -2.74344 -3.04689 1.3
    endloop
  endfacet
  facet normal 0.587785 0.809017 0
    outer loop
      vertex -2.74344 -3.04689 1.3
      vertex -2.05 -3.5507 0
      vertex -2.74344 -3.04689 0
    endloop
  endfacet
  facet normal 0.743145 0.669131 0
    outer loop
      vertex -3.31697 -2.40992 1.3
      vertex -2.74344 -3.04689 1.3
      vertex -2.74344 -3.04689 0
    endloop
  endfacet
  facet normal 0.743145 0.669131 0
    outer loop
      vertex -3.31697 -2.40992 0
      vertex -3.31697 -2.40992 1.3
      vertex -2.74344 -3.04689 0
    endloop
  endfacet
  facet normal 0.866025 0.5 0
    outer loop
      vertex -3.74554 -1.66762 1.3
      vertex -3.31697 -2.40992 1.3
      vertex -3.31697 -2.40992 0
    endloop
  endfacet
  facet normal 0.866025 0.5 0
    outer loop
      vertex -3.74554 -1.66762 0
      vertex -3.74554 -1.66762 1.3
      vertex -3.31697 -2.40992 0
    endloop
  endfacet
  facet normal 0.951057 0.309017 0
    outer loop
      vertex -4.01041 -0.852438 1.3
      vertex -3.74554 -1.66762 1.3
      vertex -3.74554 -1.66762 0
    endloop
  endfacet
  facet normal 0.951057 0.309017 0
    outer loop
      vertex -4.01041 -0.852438 0
      vertex -4.01041 -0.852438 1.3
      vertex -3.74554 -1.66762 0
    endloop
  endfacet
endsolid OpenSCAD_Model
