solid OpenSCAD_Model
  facet normal -0.994522 -0.104528 0
    outer loop
      vertex -5 2.83277e-15 0
      vertex -4.89074 -1.03956 0
      vertex -5 2.83277e-15 4.8
    endloop
  endfacet
  facet normal -0.994522 -0.104528 0
    outer loop
      vertex -5 2.83277e-15 4.8
      vertex -4.89074 -1.03956 0
      vertex -4.89074 -1.03956 4.8
    endloop
  endfacet
  facet normal 0 0 -1
    outer loop
      vertex -5 2.83277e-15 0
      vertex -5 30 0
      vertex -4.89074 -1.03956 0
    endloop
  endfacet
  facet normal 0 0 -1
    outer loop
      vertex -4.89074 -1.03956 0
      vertex -5 30 0
      vertex -4.89074 31.0396 0
    endloop
  endfacet
  facet normal 0 0 -1
    outer loop
      vertex -4.89074 -1.03956 0
      vertex -4.89074 31.0396 0
      vertex -4.56773 32.0337 0
    endloop
  endfacet
  facet normal 0 0 -1
    outer loop
      vertex -4.89074 -1.03956 0
      vertex -4.56773 32.0337 0
      vertex -4.04508 32.9389 0
    endloop
  endfacet
  facet normal 0 0 -1
    outer loop
      vertex -4.89074 -1.03956 0
      vertex -4.04508 32.9389 0
      vertex -3.34565 33.7157 0
    endloop
  endfacet
  facet normal 0 0 -1
    outer loop
      vertex -4.89074 -1.03956 0
      vertex -3.34565 33.7157 0
      vertex -2.5 34.3301 0
    endloop
  endfacet
  facet normal 0 0 -1
    outer loop
      vertex -4.89074 -1.03956 0
      vertex -2.5 34.3301 0
      vertex -1.54508 34.7553 0
    endloop
  endfacet
  facet normal 0 0 -1
    outer loop
      vertex -1.50735 30.6711 0
      vertex -1.54508 34.7553 0
      vertex -0.522642 34.9726 0
    endloop
  endfacet
  facet normal 0 0 -1
    outer loop
      vertex -0.509878 31.5692 0
      vertex -0.522642 34.9726 0
      vertex 0.522642 34.9726 0
    endloop
  endfacet
  facet normal 0 0 -1
    outer loop
      vertex 0.509878 31.5692 0
      vertex 0.522642 34.9726 0
      vertex 1.54508 34.7553 0
    endloop
  endfacet
  facet normal 0 0 -1
    outer loop
      vertex 1.33488 30.9698 0
      vertex 1.54508 34.7553 0
      vertex 2.5 34.3301 0
    endloop
  endfacet
  facet normal 0 0 -1
    outer loop
      vertex 1.61394 29.6569 0
      vertex 2.5 34.3301 0
      vertex 3.34565 33.7157 0
    endloop
  endfacet
  facet normal 0 0 -1
    outer loop
      vertex -4.89074 -1.03956 0
      vertex 3.34565 33.7157 0
      vertex 4.04508 32.9389 0
    endloop
  endfacet
  facet normal 0 0 -1
    outer loop
      vertex -4.89074 -1.03956 0
      vertex 4.04508 32.9389 0
      vertex 4.56773 32.0337 0
    endloop
  endfacet
  facet normal 0 0 -1
    outer loop
      vertex -4.89074 -1.03956 0
      vertex 4.56773 32.0337 0
      vertex 4.89074 31.0396 0
    endloop
  endfacet
  facet normal 0 0 -1
    outer loop
      vertex -4.89074 -1.03956 0
      vertex 4.89074 31.0396 0
      vertex 5 30 0
    endloop
  endfacet
  facet normal 0 0 -1
    outer loop
      vertex 1.61394 0.343054 0
      vertex 5 30 0
      vertex 5 0 0
    endloop
  endfacet
  facet normal 0 0 -1
    outer loop
      vertex 1.33488 -0.969846 0
      vertex 5 0 0
      vertex 4.89074 -1.03956 0
    endloop
  endfacet
  facet normal 0 0 -1
    outer loop
      vertex 0.825 -1.42894 0
      vertex 4.89074 -1.03956 0
      vertex 4.56773 -2.03368 0
    endloop
  endfacet
  facet normal 0 0 -1
    outer loop
      vertex -0.172472 -1.64096 0
      vertex 4.56773 -2.03368 0
      vertex 4.04508 -2.93893 0
    endloop
  endfacet
  facet normal 0 0 -1
    outer loop
      vertex -4.89074 -1.03956 0
      vertex 4.04508 -2.93893 0
      vertex 3.34565 -3.71572 0
    endloop
  endfacet
  facet normal 0 0 -1
    outer loop
      vertex -4.89074 -1.03956 0
      vertex 3.34565 -3.71572 0
      vertex 2.5 -4.33013 0
    endloop
  endfacet
  facet normal 0 0 -1
    outer loop
      vertex -4.89074 -1.03956 0
      vertex 2.5 -4.33013 0
      vertex 1.54508 -4.75528 0
    endloop
  endfacet
  facet normal 0 0 -1
    outer loop
      vertex -4.89074 -1.03956 0
      vertex 1.54508 -4.75528 0
      vertex 0.522642 -4.97261 0
    endloop
  endfacet
  facet normal 0 0 -1
    outer loop
      vertex -4.89074 -1.03956 0
      vertex 0.522642 -4.97261 0
      vertex -0.522642 -4.97261 0
    endloop
  endfacet
  facet normal 0 0 -1
    outer loop
      vertex -4.89074 -1.03956 0
      vertex -0.522642 -4.97261 0
      vertex -1.54508 -4.75528 0
    endloop
  endfacet
  facet normal 0 0 -1
    outer loop
      vertex -4.89074 -1.03956 0
      vertex -1.54508 -4.75528 0
      vertex -2.5 -4.33013 0
    endloop
  endfacet
  facet normal 0 0 -1
    outer loop
      vertex -4.89074 -1.03956 0
      vertex -2.5 -4.33013 0
      vertex -3.34565 -3.71572 0
    endloop
  endfacet
  facet normal 0 0 -1
    outer loop
      vertex -4.89074 -1.03956 0
      vertex -3.34565 -3.71572 0
      vertex -4.04508 -2.93893 0
    endloop
  endfacet
  facet normal 0 0 -1
    outer loop
      vertex -4.89074 -1.03956 0
      vertex -4.04508 -2.93893 0
      vertex -4.56773 -2.03368 0
    endloop
  endfacet
  facet normal 0 0 -1
    outer loop
      vertex -1.10407 28.7738 0
      vertex -4.89074 -1.03956 0
      vertex -1.33488 29.0302 0
    endloop
  endfacet
  facet normal 0 0 -1
    outer loop
      vertex -4.89074 -1.03956 0
      vertex -1.65 9.34814e-16 0
      vertex -1.61394 -0.343054 0
    endloop
  endfacet
  facet normal 0 0 -1
    outer loop
      vertex -4.89074 -1.03956 0
      vertex -1.61394 -0.343054 0
      vertex -1.50735 -0.671115 0
    endloop
  endfacet
  facet normal 0 0 -1
    outer loop
      vertex -1.10407 -1.22619 0
      vertex -4.89074 -1.03956 0
      vertex -1.33488 -0.969846 0
    endloop
  endfacet
  facet normal 0 0 -1
    outer loop
      vertex -0.509878 -1.56924 0
      vertex -4.89074 -1.03956 0
      vertex -0.825 -1.42894 0
    endloop
  endfacet
  facet normal 0 0 -1
    outer loop
      vertex -4.89074 -1.03956 0
      vertex -1.10407 -1.22619 0
      vertex -0.825 -1.42894 0
    endloop
  endfacet
  facet normal 0 0 -1
    outer loop
      vertex 0.509878 -1.56924 0
      vertex 4.56773 -2.03368 0
      vertex 0.172472 -1.64096 0
    endloop
  endfacet
  facet normal 0 0 -1
    outer loop
      vertex -4.89074 -1.03956 0
      vertex -0.509878 -1.56924 0
      vertex 4.04508 -2.93893 0
    endloop
  endfacet
  facet normal 0 0 -1
    outer loop
      vertex 0.172472 -1.64096 0
      vertex 4.56773 -2.03368 0
      vertex -0.172472 -1.64096 0
    endloop
  endfacet
  facet normal 0 0 -1
    outer loop
      vertex -0.509878 -1.56924 0
      vertex -0.172472 -1.64096 0
      vertex 4.04508 -2.93893 0
    endloop
  endfacet
  facet normal 0 0 -1
    outer loop
      vertex 0.825 -1.42894 0
      vertex 4.56773 -2.03368 0
      vertex 0.509878 -1.56924 0
    endloop
  endfacet
  facet normal 0 0 -1
    outer loop
      vertex 1.10407 -1.22619 0
      vertex 4.89074 -1.03956 0
      vertex 0.825 -1.42894 0
    endloop
  endfacet
  facet normal 0 0 -1
    outer loop
      vertex 1.33488 -0.969846 0
      vertex 4.89074 -1.03956 0
      vertex 1.10407 -1.22619 0
    endloop
  endfacet
  facet normal 0 0 -1
    outer loop
      vertex 1.50735 -0.671115 0
      vertex 5 0 0
      vertex 1.33488 -0.969846 0
    endloop
  endfacet
  facet normal 0 0 -1
    outer loop
      vertex 1.61394 -0.343054 0
      vertex 5 0 0
      vertex 1.50735 -0.671115 0
    endloop
  endfacet
  facet normal 0 0 -1
    outer loop
      vertex 1.65 0 0
      vertex 5 0 0
      vertex 1.61394 -0.343054 0
    endloop
  endfacet
  facet normal 0 0 -1
    outer loop
      vertex 1.61394 0.343054 0
      vertex 5 0 0
      vertex 1.65 0 0
    endloop
  endfacet
  facet normal 0 0 -1
    outer loop
      vertex 1.50735 0.671115 0
      vertex 5 30 0
      vertex 1.61394 0.343054 0
    endloop
  endfacet
  facet normal 0 0 -1
    outer loop
      vertex -1.50735 0.671115 0
      vertex 5 30 0
      vertex -1.33488 0.969846 0
    endloop
  endfacet
  facet normal 0 0 -1
    outer loop
      vertex 1.33488 0.969846 0
      vertex 5 30 0
      vertex 1.50735 0.671115 0
    endloop
  endfacet
  facet normal 0 0 -1
    outer loop
      vertex 1.10407 1.22619 0
      vertex 5 30 0
      vertex 1.33488 0.969846 0
    endloop
  endfacet
  facet normal 0 0 -1
    outer loop
      vertex 0.825 1.42894 0
      vertex 5 30 0
      vertex 1.10407 1.22619 0
    endloop
  endfacet
  facet normal 0 0 -1
    outer loop
      vertex 0.509878 1.56924 0
      vertex 5 30 0
      vertex 0.825 1.42894 0
    endloop
  endfacet
  facet normal 0 0 -1
    outer loop
      vertex 0.172472 1.64096 0
      vertex 5 30 0
      vertex 0.509878 1.56924 0
    endloop
  endfacet
  facet normal 0 0 -1
    outer loop
      vertex -0.172472 1.64096 0
      vertex 5 30 0
      vertex 0.172472 1.64096 0
    endloop
  endfacet
  facet normal 0 0 -1
    outer loop
      vertex -0.509878 1.56924 0
      vertex 5 30 0
      vertex -0.172472 1.64096 0
    endloop
  endfacet
  facet normal 0 0 -1
    outer loop
      vertex -0.825 1.42894 0
      vertex 5 30 0
      vertex -0.509878 1.56924 0
    endloop
  endfacet
  facet normal 0 0 -1
    outer loop
      vertex -1.10407 1.22619 0
      vertex 5 30 0
      vertex -0.825 1.42894 0
    endloop
  endfacet
  facet normal 0 0 -1
    outer loop
      vertex -1.33488 0.969846 0
      vertex 5 30 0
      vertex -1.10407 1.22619 0
    endloop
  endfacet
  facet normal 0 0 -1
    outer loop
      vertex -4.89074 -1.03956 0
      vertex 5 30 0
      vertex -1.50735 0.671115 0
    endloop
  endfacet
  facet normal 0 0 -1
    outer loop
      vertex -4.89074 -1.03956 0
      vertex -1.50735 0.671115 0
      vertex -1.61394 0.343054 0
    endloop
  endfacet
  facet normal 0 0 -1
    outer loop
      vertex -4.89074 -1.03956 0
      vertex -1.61394 0.343054 0
      vertex -1.65 9.34814e-16 0
    endloop
  endfacet
  facet normal 0 0 -1
    outer loop
      vertex -4.89074 -1.03956 0
      vertex -1.54508 34.7553 0
      vertex -1.65 30 0
    endloop
  endfacet
  facet normal 0 0 -1
    outer loop
      vertex -4.89074 -1.03956 0
      vertex -1.65 30 0
      vertex -1.61394 29.6569 0
    endloop
  endfacet
  facet normal 0 0 -1
    outer loop
      vertex -4.89074 -1.03956 0
      vertex -1.61394 29.6569 0
      vertex -1.50735 29.3289 0
    endloop
  endfacet
  facet normal 0 0 -1
    outer loop
      vertex -4.89074 -1.03956 0
      vertex -1.50735 29.3289 0
      vertex -1.33488 29.0302 0
    endloop
  endfacet
  facet normal 0 0 -1
    outer loop
      vertex -0.172472 28.359 0
      vertex -4.89074 -1.03956 0
      vertex -0.509878 28.4308 0
    endloop
  endfacet
  facet normal 0 0 -1
    outer loop
      vertex -4.89074 -1.03956 0
      vertex -1.10407 28.7738 0
      vertex -0.825 28.5711 0
    endloop
  endfacet
  facet normal 0 0 -1
    outer loop
      vertex -4.89074 -1.03956 0
      vertex -0.825 28.5711 0
      vertex -0.509878 28.4308 0
    endloop
  endfacet
  facet normal 0 0 -1
    outer loop
      vertex 0.509878 28.4308 0
      vertex -4.89074 -1.03956 0
      vertex 0.172472 28.359 0
    endloop
  endfacet
  facet normal 0 0 -1
    outer loop
      vertex -4.89074 -1.03956 0
      vertex -0.172472 28.359 0
      vertex 0.172472 28.359 0
    endloop
  endfacet
  facet normal 0 0 -1
    outer loop
      vertex 1.50735 29.3289 0
      vertex -4.89074 -1.03956 0
      vertex 1.33488 29.0302 0
    endloop
  endfacet
  facet normal 0 0 -1
    outer loop
      vertex -4.89074 -1.03956 0
      vertex 0.509878 28.4308 0
      vertex 0.825 28.5711 0
    endloop
  endfacet
  facet normal 0 0 -1
    outer loop
      vertex -4.89074 -1.03956 0
      vertex 0.825 28.5711 0
      vertex 1.10407 28.7738 0
    endloop
  endfacet
  facet normal 0 0 -1
    outer loop
      vertex -4.89074 -1.03956 0
      vertex 1.10407 28.7738 0
      vertex 1.33488 29.0302 0
    endloop
  endfacet
  facet normal 0 0 -1
    outer loop
      vertex 1.61394 30.3431 0
      vertex 2.5 34.3301 0
      vertex 1.65 30 0
    endloop
  endfacet
  facet normal 0 0 -1
    outer loop
      vertex -4.89074 -1.03956 0
      vertex 1.50735 29.3289 0
      vertex 3.34565 33.7157 0
    endloop
  endfacet
  facet normal 0 0 -1
    outer loop
      vertex 1.65 30 0
      vertex 2.5 34.3301 0
      vertex 1.61394 29.6569 0
    endloop
  endfacet
  facet normal 0 0 -1
    outer loop
      vertex 1.50735 29.3289 0
      vertex 1.61394 29.6569 0
      vertex 3.34565 33.7157 0
    endloop
  endfacet
  facet normal 0 0 -1
    outer loop
      vertex 1.50735 30.6711 0
      vertex 2.5 34.3301 0
      vertex 1.61394 30.3431 0
    endloop
  endfacet
  facet normal 0 0 -1
    outer loop
      vertex 1.33488 30.9698 0
      vertex 2.5 34.3301 0
      vertex 1.50735 30.6711 0
    endloop
  endfacet
  facet normal 0 0 -1
    outer loop
      vertex 1.10407 31.2262 0
      vertex 1.54508 34.7553 0
      vertex 1.33488 30.9698 0
    endloop
  endfacet
  facet normal 0 0 -1
    outer loop
      vertex 0.825 31.4289 0
      vertex 1.54508 34.7553 0
      vertex 1.10407 31.2262 0
    endloop
  endfacet
  facet normal 0 0 -1
    outer loop
      vertex 0.509878 31.5692 0
      vertex 1.54508 34.7553 0
      vertex 0.825 31.4289 0
    endloop
  endfacet
  facet normal 0 0 -1
    outer loop
      vertex 0.172472 31.641 0
      vertex 0.522642 34.9726 0
      vertex 0.509878 31.5692 0
    endloop
  endfacet
  facet normal 0 0 -1
    outer loop
      vertex -0.172472 31.641 0
      vertex 0.522642 34.9726 0
      vertex 0.172472 31.641 0
    endloop
  endfacet
  facet normal 0 0 -1
    outer loop
      vertex -0.509878 31.5692 0
      vertex 0.522642 34.9726 0
      vertex -0.172472 31.641 0
    endloop
  endfacet
  facet normal 0 0 -1
    outer loop
      vertex -0.825 31.4289 0
      vertex -0.522642 34.9726 0
      vertex -0.509878 31.5692 0
    endloop
  endfacet
  facet normal 0 0 -1
    outer loop
      vertex -1.10407 31.2262 0
      vertex -0.522642 34.9726 0
      vertex -0.825 31.4289 0
    endloop
  endfacet
  facet normal 0 0 -1
    outer loop
      vertex -1.33488 30.9698 0
      vertex -0.522642 34.9726 0
      vertex -1.10407 31.2262 0
    endloop
  endfacet
  facet normal 0 0 -1
    outer loop
      vertex -1.50735 30.6711 0
      vertex -0.522642 34.9726 0
      vertex -1.33488 30.9698 0
    endloop
  endfacet
  facet normal 0 0 -1
    outer loop
      vertex -1.61394 30.3431 0
      vertex -1.54508 34.7553 0
      vertex -1.50735 30.6711 0
    endloop
  endfacet
  facet normal 0 0 -1
    outer loop
      vertex -1.65 30 0
      vertex -1.54508 34.7553 0
      vertex -1.61394 30.3431 0
    endloop
  endfacet
  facet normal 0 0 -1
    outer loop
      vertex -1.33488 -0.969846 0
      vertex -4.89074 -1.03956 0
      vertex -1.50735 -0.671115 0
    endloop
  endfacet
  facet normal -1 0 0
    outer loop
      vertex -5 2.83277e-15 0
      vertex -5 2.83277e-15 4.8
      vertex -5 30 0
    endloop
  endfacet
  facet normal -1 0 0
    outer loop
      vertex -5 30 0
      vertex -5 2.83277e-15 4.8
      vertex -5 30 4.8
    endloop
  endfacet
  facet normal 0 0 1
    outer loop
      vertex -5 30 4.8
      vertex -5 2.83277e-15 4.8
      vertex -4.89074 -1.03956 4.8
    endloop
  endfacet
  facet normal 0 0 1
    outer loop
      vertex -4.04508 -2.93893 4.8
      vertex -5 30 4.8
      vertex -4.56773 -2.03368 4.8
    endloop
  endfacet
  facet normal 0 0 1
    outer loop
      vertex -4.56773 -2.03368 4.8
      vertex -5 30 4.8
      vertex -4.89074 -1.03956 4.8
    endloop
  endfacet
  facet normal 0 0 1
    outer loop
      vertex -3.34565 -3.71572 4.8
      vertex -5 30 4.8
      vertex -4.04508 -2.93893 4.8
    endloop
  endfacet
  facet normal 0 0 1
    outer loop
      vertex -2.5 -4.33013 4.8
      vertex -5 30 4.8
      vertex -3.34565 -3.71572 4.8
    endloop
  endfacet
  facet normal 0 0 1
    outer loop
      vertex -1.54508 -4.75528 4.8
      vertex -5 30 4.8
      vertex -2.5 -4.33013 4.8
    endloop
  endfacet
  facet normal 0 0 1
    outer loop
      vertex -1.61394 -0.343054 4.8
      vertex -5 30 4.8
      vertex -1.54508 -4.75528 4.8
    endloop
  endfacet
  facet normal 0 0 1
    outer loop
      vertex 0.825 -1.42894 4.8
      vertex 0.509878 -1.56924 4.8
      vertex 1.54508 -4.75528 4.8
    endloop
  endfacet
  facet normal 0 0 1
    outer loop
      vertex 1.61394 -0.343054 4.8
      vertex 1.50735 -0.671115 4.8
      vertex 2.5 -4.33013 4.8
    endloop
  endfacet
  facet normal 0 0 1
    outer loop
      vertex 4.04508 -2.93893 4.8
      vertex -5 30 4.8
      vertex 3.34565 -3.71572 4.8
    endloop
  endfacet
  facet normal 0 0 1
    outer loop
      vertex 4.56773 -2.03368 4.8
      vertex -5 30 4.8
      vertex 4.04508 -2.93893 4.8
    endloop
  endfacet
  facet normal 0 0 1
    outer loop
      vertex 4.89074 -1.03956 4.8
      vertex -5 30 4.8
      vertex 4.56773 -2.03368 4.8
    endloop
  endfacet
  facet normal 0 0 1
    outer loop
      vertex 5 0 4.8
      vertex -5 30 4.8
      vertex 4.89074 -1.03956 4.8
    endloop
  endfacet
  facet normal 0 0 1
    outer loop
      vertex -1.61394 29.6569 4.8
      vertex -5 30 4.8
      vertex 5 0 4.8
    endloop
  endfacet
  facet normal 0 0 1
    outer loop
      vertex 1.61394 30.3431 4.8
      vertex 1.65 30 4.8
      vertex 5 30 4.8
    endloop
  endfacet
  facet normal 0 0 1
    outer loop
      vertex 0.172472 31.641 4.8
      vertex 0.509878 31.5692 4.8
      vertex 4.04508 32.9389 4.8
    endloop
  endfacet
  facet normal 0 0 1
    outer loop
      vertex 2.5 34.3301 4.8
      vertex -5 30 4.8
      vertex 3.34565 33.7157 4.8
    endloop
  endfacet
  facet normal 0 0 1
    outer loop
      vertex 1.54508 34.7553 4.8
      vertex -5 30 4.8
      vertex 2.5 34.3301 4.8
    endloop
  endfacet
  facet normal 0 0 1
    outer loop
      vertex 0.522642 34.9726 4.8
      vertex -5 30 4.8
      vertex 1.54508 34.7553 4.8
    endloop
  endfacet
  facet normal 0 0 1
    outer loop
      vertex -0.522642 34.9726 4.8
      vertex -5 30 4.8
      vertex 0.522642 34.9726 4.8
    endloop
  endfacet
  facet normal 0 0 1
    outer loop
      vertex -1.54508 34.7553 4.8
      vertex -5 30 4.8
      vertex -0.522642 34.9726 4.8
    endloop
  endfacet
  facet normal 0 0 1
    outer loop
      vertex -2.5 34.3301 4.8
      vertex -5 30 4.8
      vertex -1.54508 34.7553 4.8
    endloop
  endfacet
  facet normal 0 0 1
    outer loop
      vertex -3.34565 33.7157 4.8
      vertex -5 30 4.8
      vertex -2.5 34.3301 4.8
    endloop
  endfacet
  facet normal 0 0 1
    outer loop
      vertex -4.04508 32.9389 4.8
      vertex -5 30 4.8
      vertex -3.34565 33.7157 4.8
    endloop
  endfacet
  facet normal 0 0 1
    outer loop
      vertex -4.56773 32.0337 4.8
      vertex -5 30 4.8
      vertex -4.04508 32.9389 4.8
    endloop
  endfacet
  facet normal 0 0 1
    outer loop
      vertex -4.89074 31.0396 4.8
      vertex -5 30 4.8
      vertex -4.56773 32.0337 4.8
    endloop
  endfacet
  facet normal 0 0 1
    outer loop
      vertex -0.522642 -4.97261 4.8
      vertex -1.61394 -0.343054 4.8
      vertex -1.54508 -4.75528 4.8
    endloop
  endfacet
  facet normal 0 0 1
    outer loop
      vertex -1.65 9.34814e-16 4.8
      vertex -5 30 4.8
      vertex -1.61394 -0.343054 4.8
    endloop
  endfacet
  facet normal 0 0 1
    outer loop
      vertex -1.61394 0.343054 4.8
      vertex -5 30 4.8
      vertex -1.65 9.34814e-16 4.8
    endloop
  endfacet
  facet normal 0 0 1
    outer loop
      vertex -1.50735 0.671115 4.8
      vertex -5 30 4.8
      vertex -1.61394 0.343054 4.8
    endloop
  endfacet
  facet normal 0 0 1
    outer loop
      vertex -1.33488 0.969846 4.8
      vertex -5 30 4.8
      vertex -1.50735 0.671115 4.8
    endloop
  endfacet
  facet normal 0 0 1
    outer loop
      vertex -1.33488 -0.969846 4.8
      vertex -1.50735 -0.671115 4.8
      vertex -0.522642 -4.97261 4.8
    endloop
  endfacet
  facet normal 0 0 1
    outer loop
      vertex -0.825 1.42894 4.8
      vertex -5 30 4.8
      vertex -1.10407 1.22619 4.8
    endloop
  endfacet
  facet normal 0 0 1
    outer loop
      vertex 1.65 0 4.8
      vertex 1.61394 -0.343054 4.8
      vertex 2.5 -4.33013 4.8
    endloop
  endfacet
  facet normal 0 0 1
    outer loop
      vertex -0.172472 1.64096 4.8
      vertex -5 30 4.8
      vertex -0.509878 1.56924 4.8
    endloop
  endfacet
  facet normal 0 0 1
    outer loop
      vertex 0.172472 1.64096 4.8
      vertex -5 30 4.8
      vertex -0.172472 1.64096 4.8
    endloop
  endfacet
  facet normal 0 0 1
    outer loop
      vertex 1.33488 0.969846 4.8
      vertex 1.50735 0.671115 4.8
      vertex -5 30 4.8
    endloop
  endfacet
  facet normal 0 0 1
    outer loop
      vertex -0.172472 -1.64096 4.8
      vertex -0.509878 -1.56924 4.8
      vertex 0.522642 -4.97261 4.8
    endloop
  endfacet
  facet normal 0 0 1
    outer loop
      vertex 0.825 1.42894 4.8
      vertex -5 30 4.8
      vertex 0.509878 1.56924 4.8
    endloop
  endfacet
  facet normal 0 0 1
    outer loop
      vertex 1.10407 1.22619 4.8
      vertex -5 30 4.8
      vertex 0.825 1.42894 4.8
    endloop
  endfacet
  facet normal 0 0 1
    outer loop
      vertex 1.33488 0.969846 4.8
      vertex -5 30 4.8
      vertex 1.10407 1.22619 4.8
    endloop
  endfacet
  facet normal 0 0 1
    outer loop
      vertex 1.50735 -0.671115 4.8
      vertex 1.33488 -0.969846 4.8
      vertex 2.5 -4.33013 4.8
    endloop
  endfacet
  facet normal 0 0 1
    outer loop
      vertex 3.34565 -3.71572 4.8
      vertex -5 30 4.8
      vertex 1.50735 0.671115 4.8
    endloop
  endfacet
  facet normal 0 0 1
    outer loop
      vertex 3.34565 -3.71572 4.8
      vertex 1.61394 0.343054 4.8
      vertex 2.5 -4.33013 4.8
    endloop
  endfacet
  facet normal 0 0 1
    outer loop
      vertex 3.34565 -3.71572 4.8
      vertex 1.50735 0.671115 4.8
      vertex 1.61394 0.343054 4.8
    endloop
  endfacet
  facet normal 0 0 1
    outer loop
      vertex 1.61394 0.343054 4.8
      vertex 1.65 0 4.8
      vertex 2.5 -4.33013 4.8
    endloop
  endfacet
  facet normal 0 0 1
    outer loop
      vertex 1.10407 -1.22619 4.8
      vertex 0.825 -1.42894 4.8
      vertex 1.54508 -4.75528 4.8
    endloop
  endfacet
  facet normal 0 0 1
    outer loop
      vertex 2.5 -4.33013 4.8
      vertex 1.33488 -0.969846 4.8
      vertex 1.54508 -4.75528 4.8
    endloop
  endfacet
  facet normal 0 0 1
    outer loop
      vertex 1.33488 -0.969846 4.8
      vertex 1.10407 -1.22619 4.8
      vertex 1.54508 -4.75528 4.8
    endloop
  endfacet
  facet normal 0 0 1
    outer loop
      vertex 0.509878 -1.56924 4.8
      vertex 0.172472 -1.64096 4.8
      vertex 1.54508 -4.75528 4.8
    endloop
  endfacet
  facet normal 0 0 1
    outer loop
      vertex 0.172472 -1.64096 4.8
      vertex -0.172472 -1.64096 4.8
      vertex 0.522642 -4.97261 4.8
    endloop
  endfacet
  facet normal 0 0 1
    outer loop
      vertex 1.54508 -4.75528 4.8
      vertex 0.172472 -1.64096 4.8
      vertex 0.522642 -4.97261 4.8
    endloop
  endfacet
  facet normal 0 0 1
    outer loop
      vertex -0.825 -1.42894 4.8
      vertex -1.10407 -1.22619 4.8
      vertex -0.522642 -4.97261 4.8
    endloop
  endfacet
  facet normal 0 0 1
    outer loop
      vertex 0.172472 1.64096 4.8
      vertex 0.509878 1.56924 4.8
      vertex -5 30 4.8
    endloop
  endfacet
  facet normal 0 0 1
    outer loop
      vertex 0.522642 -4.97261 4.8
      vertex -0.509878 -1.56924 4.8
      vertex -0.522642 -4.97261 4.8
    endloop
  endfacet
  facet normal 0 0 1
    outer loop
      vertex -0.509878 -1.56924 4.8
      vertex -0.825 -1.42894 4.8
      vertex -0.522642 -4.97261 4.8
    endloop
  endfacet
  facet normal 0 0 1
    outer loop
      vertex -1.65 30 4.8
      vertex -1.61394 30.3431 4.8
      vertex -5 30 4.8
    endloop
  endfacet
  facet normal 0 0 1
    outer loop
      vertex -0.522642 -4.97261 4.8
      vertex -1.50735 -0.671115 4.8
      vertex -1.61394 -0.343054 4.8
    endloop
  endfacet
  facet normal 0 0 1
    outer loop
      vertex -1.50735 29.3289 4.8
      vertex -1.61394 29.6569 4.8
      vertex 5 0 4.8
    endloop
  endfacet
  facet normal 0 0 1
    outer loop
      vertex -1.65 30 4.8
      vertex -5 30 4.8
      vertex -1.61394 29.6569 4.8
    endloop
  endfacet
  facet normal 0 0 1
    outer loop
      vertex -0.172472 31.641 4.8
      vertex 0.172472 31.641 4.8
      vertex 4.04508 32.9389 4.8
    endloop
  endfacet
  facet normal 0 0 1
    outer loop
      vertex 1.65 30 4.8
      vertex 1.61394 29.6569 4.8
      vertex 5 30 4.8
    endloop
  endfacet
  facet normal 0 0 1
    outer loop
      vertex -1.50735 30.6711 4.8
      vertex -1.33488 30.9698 4.8
      vertex -5 30 4.8
    endloop
  endfacet
  facet normal 0 0 1
    outer loop
      vertex -1.10407 31.2262 4.8
      vertex -0.825 31.4289 4.8
      vertex -5 30 4.8
    endloop
  endfacet
  facet normal 0 0 1
    outer loop
      vertex 1.33488 30.9698 4.8
      vertex 1.50735 30.6711 4.8
      vertex 4.89074 31.0396 4.8
    endloop
  endfacet
  facet normal 0 0 1
    outer loop
      vertex -1.10407 31.2262 4.8
      vertex -5 30 4.8
      vertex -1.33488 30.9698 4.8
    endloop
  endfacet
  facet normal 0 0 1
    outer loop
      vertex 0.825 31.4289 4.8
      vertex 1.10407 31.2262 4.8
      vertex 4.56773 32.0337 4.8
    endloop
  endfacet
  facet normal 0 0 1
    outer loop
      vertex 3.34565 33.7157 4.8
      vertex -5 30 4.8
      vertex -0.825 31.4289 4.8
    endloop
  endfacet
  facet normal 0 0 1
    outer loop
      vertex 3.34565 33.7157 4.8
      vertex -0.509878 31.5692 4.8
      vertex 4.04508 32.9389 4.8
    endloop
  endfacet
  facet normal 0 0 1
    outer loop
      vertex 3.34565 33.7157 4.8
      vertex -0.825 31.4289 4.8
      vertex -0.509878 31.5692 4.8
    endloop
  endfacet
  facet normal 0 0 1
    outer loop
      vertex -0.509878 31.5692 4.8
      vertex -0.172472 31.641 4.8
      vertex 4.04508 32.9389 4.8
    endloop
  endfacet
  facet normal 0 0 1
    outer loop
      vertex 4.04508 32.9389 4.8
      vertex 0.509878 31.5692 4.8
      vertex 4.56773 32.0337 4.8
    endloop
  endfacet
  facet normal 0 0 1
    outer loop
      vertex 0.509878 31.5692 4.8
      vertex 0.825 31.4289 4.8
      vertex 4.56773 32.0337 4.8
    endloop
  endfacet
  facet normal 0 0 1
    outer loop
      vertex 4.56773 32.0337 4.8
      vertex 1.10407 31.2262 4.8
      vertex 4.89074 31.0396 4.8
    endloop
  endfacet
  facet normal 0 0 1
    outer loop
      vertex 1.10407 31.2262 4.8
      vertex 1.33488 30.9698 4.8
      vertex 4.89074 31.0396 4.8
    endloop
  endfacet
  facet normal 0 0 1
    outer loop
      vertex 4.89074 31.0396 4.8
      vertex 1.50735 30.6711 4.8
      vertex 5 30 4.8
    endloop
  endfacet
  facet normal 0 0 1
    outer loop
      vertex 1.50735 30.6711 4.8
      vertex 1.61394 30.3431 4.8
      vertex 5 30 4.8
    endloop
  endfacet
  facet normal 0 0 1
    outer loop
      vertex -1.61394 30.3431 4.8
      vertex -1.50735 30.6711 4.8
      vertex -5 30 4.8
    endloop
  endfacet
  facet normal 0 0 1
    outer loop
      vertex 5 30 4.8
      vertex 1.61394 29.6569 4.8
      vertex 5 0 4.8
    endloop
  endfacet
  facet normal 0 0 1
    outer loop
      vertex 1.61394 29.6569 4.8
      vertex 1.50735 29.3289 4.8
      vertex 5 0 4.8
    endloop
  endfacet
  facet normal 0 0 1
    outer loop
      vertex 1.50735 29.3289 4.8
      vertex 1.33488 29.0302 4.8
      vertex 5 0 4.8
    endloop
  endfacet
  facet normal 0 0 1
    outer loop
      vertex 1.33488 29.0302 4.8
      vertex 1.10407 28.7738 4.8
      vertex 5 0 4.8
    endloop
  endfacet
  facet normal 0 0 1
    outer loop
      vertex 1.10407 28.7738 4.8
      vertex 0.825 28.5711 4.8
      vertex 5 0 4.8
    endloop
  endfacet
  facet normal 0 0 1
    outer loop
      vertex 0.825 28.5711 4.8
      vertex 0.509878 28.4308 4.8
      vertex 5 0 4.8
    endloop
  endfacet
  facet normal 0 0 1
    outer loop
      vertex 0.509878 28.4308 4.8
      vertex 0.172472 28.359 4.8
      vertex 5 0 4.8
    endloop
  endfacet
  facet normal 0 0 1
    outer loop
      vertex 0.172472 28.359 4.8
      vertex -0.172472 28.359 4.8
      vertex 5 0 4.8
    endloop
  endfacet
  facet normal 0 0 1
    outer loop
      vertex -0.172472 28.359 4.8
      vertex -0.509878 28.4308 4.8
      vertex 5 0 4.8
    endloop
  endfacet
  facet normal 0 0 1
    outer loop
      vertex -0.509878 28.4308 4.8
      vertex -0.825 28.5711 4.8
      vertex 5 0 4.8
    endloop
  endfacet
  facet normal 0 0 1
    outer loop
      vertex -0.825 28.5711 4.8
      vertex -1.10407 28.7738 4.8
      vertex 5 0 4.8
    endloop
  endfacet
  facet normal 0 0 1
    outer loop
      vertex -1.10407 28.7738 4.8
      vertex -1.33488 29.0302 4.8
      vertex 5 0 4.8
    endloop
  endfacet
  facet normal 0 0 1
    outer loop
      vertex -1.33488 29.0302 4.8
      vertex -1.50735 29.3289 4.8
      vertex 5 0 4.8
    endloop
  endfacet
  facet normal 0 0 1
    outer loop
      vertex -1.10407 -1.22619 4.8
      vertex -1.33488 -0.969846 4.8
      vertex -0.522642 -4.97261 4.8
    endloop
  endfacet
  facet normal 0 0 1
    outer loop
      vertex -1.33488 0.969846 4.8
      vertex -1.10407 1.22619 4.8
      vertex -5 30 4.8
    endloop
  endfacet
  facet normal 0 0 1
    outer loop
      vertex -0.825 1.42894 4.8
      vertex -0.509878 1.56924 4.8
      vertex -5 30 4.8
    endloop
  endfacet
  facet normal -0.951057 -0.309017 0
    outer loop
      vertex -4.89074 -1.03956 0
      vertex -4.56773 -2.03368 0
      vertex -4.89074 -1.03956 4.8
    endloop
  endfacet
  facet normal -0.951057 -0.309017 0
    outer loop
      vertex -4.89074 -1.03956 4.8
      vertex -4.56773 -2.03368 0
      vertex -4.56773 -2.03368 4.8
    endloop
  endfacet
  facet normal -0.866025 -0.5 0
    outer loop
      vertex -4.56773 -2.03368 0
      vertex -4.04508 -2.93893 0
      vertex -4.56773 -2.03368 4.8
    endloop
  endfacet
  facet normal -0.866025 -0.5 0
    outer loop
      vertex -4.56773 -2.03368 4.8
      vertex -4.04508 -2.93893 0
      vertex -4.04508 -2.93893 4.8
    endloop
  endfacet
  facet normal -0.743145 -0.669131 0
    outer loop
      vertex -4.04508 -2.93893 0
      vertex -3.34565 -3.71572 0
      vertex -4.04508 -2.93893 4.8
    endloop
  endfacet
  facet normal -0.743145 -0.669131 0
    outer loop
      vertex -4.04508 -2.93893 4.8
      vertex -3.34565 -3.71572 0
      vertex -3.34565 -3.71572 4.8
    endloop
  endfacet
  facet normal -0.587785 -0.809017 0
    outer loop
      vertex -3.34565 -3.71572 4.8
      vertex -3.34565 -3.71572 0
      vertex -2.5 -4.33013 0
    endloop
  endfacet
  facet normal -0.587785 -0.809017 0
    outer loop
      vertex -2.5 -4.33013 4.8
      vertex -3.34565 -3.71572 4.8
      vertex -2.5 -4.33013 0
    endloop
  endfacet
  facet normal -0.406737 -0.913545 0
    outer loop
      vertex -2.5 -4.33013 4.8
      vertex -2.5 -4.33013 0
      vertex -1.54508 -4.75528 0
    endloop
  endfacet
  facet normal -0.406737 -0.913545 0
    outer loop
      vertex -1.54508 -4.75528 4.8
      vertex -2.5 -4.33013 4.8
      vertex -1.54508 -4.75528 0
    endloop
  endfacet
  facet normal -0.207912 -0.978148 0
    outer loop
      vertex -1.54508 -4.75528 4.8
      vertex -1.54508 -4.75528 0
      vertex -0.522642 -4.97261 0
    endloop
  endfacet
  facet normal -0.207912 -0.978148 0
    outer loop
      vertex -0.522642 -4.97261 4.8
      vertex -1.54508 -4.75528 4.8
      vertex -0.522642 -4.97261 0
    endloop
  endfacet
  facet normal 0 -1 0
    outer loop
      vertex -0.522642 -4.97261 4.8
      vertex -0.522642 -4.97261 0
      vertex 0.522642 -4.97261 0
    endloop
  endfacet
  facet normal 0 -1 0
    outer loop
      vertex 0.522642 -4.97261 4.8
      vertex -0.522642 -4.97261 4.8
      vertex 0.522642 -4.97261 0
    endloop
  endfacet
  facet normal 0.207912 -0.978148 0
    outer loop
      vertex 0.522642 -4.97261 4.8
      vertex 0.522642 -4.97261 0
      vertex 1.54508 -4.75528 0
    endloop
  endfacet
  facet normal 0.207912 -0.978148 0
    outer loop
      vertex 1.54508 -4.75528 4.8
      vertex 0.522642 -4.97261 4.8
      vertex 1.54508 -4.75528 0
    endloop
  endfacet
  facet normal 0.406737 -0.913545 0
    outer loop
      vertex 1.54508 -4.75528 4.8
      vertex 1.54508 -4.75528 0
      vertex 2.5 -4.33013 0
    endloop
  endfacet
  facet normal 0.406737 -0.913545 0
    outer loop
      vertex 2.5 -4.33013 4.8
      vertex 1.54508 -4.75528 4.8
      vertex 2.5 -4.33013 0
    endloop
  endfacet
  facet normal 0.587785 -0.809017 0
    outer loop
      vertex 2.5 -4.33013 4.8
      vertex 2.5 -4.33013 0
      vertex 3.34565 -3.71572 0
    endloop
  endfacet
  facet normal 0.587785 -0.809017 0
    outer loop
      vertex 3.34565 -3.71572 4.8
      vertex 2.5 -4.33013 4.8
      vertex 3.34565 -3.71572 0
    endloop
  endfacet
  facet normal 0.743145 -0.669131 0
    outer loop
      vertex 3.34565 -3.71572 4.8
      vertex 3.34565 -3.71572 0
      vertex 4.04508 -2.93893 0
    endloop
  endfacet
  facet normal 0.743145 -0.669131 0
    outer loop
      vertex 4.04508 -2.93893 4.8
      vertex 3.34565 -3.71572 4.8
      vertex 4.04508 -2.93893 0
    endloop
  endfacet
  facet normal 0.866025 -0.5 0
    outer loop
      vertex 4.04508 -2.93893 4.8
      vertex 4.04508 -2.93893 0
      vertex 4.56773 -2.03368 0
    endloop
  endfacet
  facet normal 0.866025 -0.5 0
    outer loop
      vertex 4.56773 -2.03368 4.8
      vertex 4.04508 -2.93893 4.8
      vertex 4.56773 -2.03368 0
    endloop
  endfacet
  facet normal 0.951057 -0.309017 0
    outer loop
      vertex 4.56773 -2.03368 4.8
      vertex 4.56773 -2.03368 0
      vertex 4.89074 -1.03956 0
    endloop
  endfacet
  facet normal 0.951057 -0.309017 0
    outer loop
      vertex 4.89074 -1.03956 4.8
      vertex 4.56773 -2.03368 4.8
      vertex 4.89074 -1.03956 0
    endloop
  endfacet
  facet normal 0.994522 -0.104528 0
    outer loop
      vertex 4.89074 -1.03956 4.8
      vertex 4.89074 -1.03956 0
      vertex 5 0 0
    endloop
  endfacet
  facet normal 0.994522 -0.104528 0
    outer loop
      vertex 5 0 4.8
      vertex 4.89074 -1.03956 4.8
      vertex 5 0 0
    endloop
  endfacet
  facet normal 1 0 0
    outer loop
      vertex 5 0 4.8
      vertex 5 0 0
      vertex 5 30 0
    endloop
  endfacet
  facet normal 1 0 0
    outer loop
      vertex 5 30 4.8
      vertex 5 0 4.8
      vertex 5 30 0
    endloop
  endfacet
  facet normal 0.994522 0.104528 0
    outer loop
      vertex 5 30 0
      vertex 4.89074 31.0396 0
      vertex 4.89074 31.0396 4.8
    endloop
  endfacet
  facet normal 0.994522 0.104528 0
    outer loop
      vertex 5 30 4.8
      vertex 5 30 0
      vertex 4.89074 31.0396 4.8
    endloop
  endfacet
  facet normal 0.951057 0.309017 0
    outer loop
      vertex 4.89074 31.0396 0
      vertex 4.56773 32.0337 0
      vertex 4.56773 32.0337 4.8
    endloop
  endfacet
  facet normal 0.951057 0.309017 0
    outer loop
      vertex 4.89074 31.0396 4.8
      vertex 4.89074 31.0396 0
      vertex 4.56773 32.0337 4.8
    endloop
  endfacet
  facet normal 0.866025 0.5 0
    outer loop
      vertex 4.56773 32.0337 0
      vertex 4.04508 32.9389 0
      vertex 4.04508 32.9389 4.8
    endloop
  endfacet
  facet normal 0.866025 0.5 0
    outer loop
      vertex 4.56773 32.0337 4.8
      vertex 4.56773 32.0337 0
      vertex 4.04508 32.9389 4.8
    endloop
  endfacet
  facet normal 0.743145 0.669131 0
    outer loop
      vertex 4.04508 32.9389 0
      vertex 3.34565 33.7157 0
      vertex 3.34565 33.7157 4.8
    endloop
  endfacet
  facet normal 0.743145 0.669131 0
    outer loop
      vertex 4.04508 32.9389 4.8
      vertex 4.04508 32.9389 0
      vertex 3.34565 33.7157 4.8
    endloop
  endfacet
  facet normal 0.587785 0.809017 0
    outer loop
      vertex 2.5 34.3301 0
      vertex 2.5 34.3301 4.8
      vertex 3.34565 33.7157 0
    endloop
  endfacet
  facet normal 0.587785 0.809017 0
    outer loop
      vertex 3.34565 33.7157 0
      vertex 2.5 34.3301 4.8
      vertex 3.34565 33.7157 4.8
    endloop
  endfacet
  facet normal 0.406737 0.913545 0
    outer loop
      vertex 1.54508 34.7553 0
      vertex 1.54508 34.7553 4.8
      vertex 2.5 34.3301 0
    endloop
  endfacet
  facet normal 0.406737 0.913545 0
    outer loop
      vertex 2.5 34.3301 0
      vertex 1.54508 34.7553 4.8
      vertex 2.5 34.3301 4.8
    endloop
  endfacet
  facet normal 0.207912 0.978148 0
    outer loop
      vertex 0.522642 34.9726 0
      vertex 0.522642 34.9726 4.8
      vertex 1.54508 34.7553 0
    endloop
  endfacet
  facet normal 0.207912 0.978148 0
    outer loop
      vertex 1.54508 34.7553 0
      vertex 0.522642 34.9726 4.8
      vertex 1.54508 34.7553 4.8
    endloop
  endfacet
  facet normal 0 1 0
    outer loop
      vertex -0.522642 34.9726 0
      vertex -0.522642 34.9726 4.8
      vertex 0.522642 34.9726 0
    endloop
  endfacet
  facet normal 0 1 0
    outer loop
      vertex 0.522642 34.9726 0
      vertex -0.522642 34.9726 4.8
      vertex 0.522642 34.9726 4.8
    endloop
  endfacet
  facet normal -0.207912 0.978148 0
    outer loop
      vertex -1.54508 34.7553 0
      vertex -1.54508 34.7553 4.8
      vertex -0.522642 34.9726 0
    endloop
  endfacet
  facet normal -0.207912 0.978148 0
    outer loop
      vertex -0.522642 34.9726 0
      vertex -1.54508 34.7553 4.8
      vertex -0.522642 34.9726 4.8
    endloop
  endfacet
  facet normal -0.406737 0.913545 0
    outer loop
      vertex -2.5 34.3301 0
      vertex -2.5 34.3301 4.8
      vertex -1.54508 34.7553 0
    endloop
  endfacet
  facet normal -0.406737 0.913545 0
    outer loop
      vertex -1.54508 34.7553 0
      vertex -2.5 34.3301 4.8
      vertex -1.54508 34.7553 4.8
    endloop
  endfacet
  facet normal -0.587785 0.809017 0
    outer loop
      vertex -3.34565 33.7157 0
      vertex -3.34565 33.7157 4.8
      vertex -2.5 34.3301 0
    endloop
  endfacet
  facet normal -0.587785 0.809017 0
    outer loop
      vertex -2.5 34.3301 0
      vertex -3.34565 33.7157 4.8
      vertex -2.5 34.3301 4.8
    endloop
  endfacet
  facet normal -0.743145 0.669131 0
    outer loop
      vertex -4.04508 32.9389 0
      vertex -4.04508 32.9389 4.8
      vertex -3.34565 33.7157 0
    endloop
  endfacet
  facet normal -0.743145 0.669131 0
    outer loop
      vertex -3.34565 33.7157 0
      vertex -4.04508 32.9389 4.8
      vertex -3.34565 33.7157 4.8
    endloop
  endfacet
  facet normal -0.866025 0.5 0
    outer loop
      vertex -4.56773 32.0337 0
      vertex -4.56773 32.0337 4.8
      vertex -4.04508 32.9389 0
    endloop
  endfacet
  facet normal -0.866025 0.5 0
    outer loop
      vertex -4.04508 32.9389 0
      vertex -4.56773 32.0337 4.8
      vertex -4.04508 32.9389 4.8
    endloop
  endfacet
  facet normal -0.951057 0.309017 0
    outer loop
      vertex -4.89074 31.0396 0
      vertex -4.89074 31.0396 4.8
      vertex -4.56773 32.0337 0
    endloop
  endfacet
  facet normal -0.951057 0.309017 0
    outer loop
      vertex -4.56773 32.0337 0
      vertex -4.89074 31.0396 4.8
      vertex -4.56773 32.0337 4.8
    endloop
  endfacet
  facet normal -0.994522 0.104528 0
    outer loop
      vertex -5 30 0
      vertex -5 30 4.8
      vertex -4.89074 31.0396 0
    endloop
  endfacet
  facet normal -0.994522 0.104528 0
    outer loop
      vertex -4.89074 31.0396 0
      vertex -5 30 4.8
      vertex -4.89074 31.0396 4.8
    endloop
  endfacet
  facet normal 0.994522 -0.104528 0
    outer loop
      vertex -1.61394 0.343054 0
      vertex -1.61394 0.343054 4.8
      vertex -1.65 9.34814e-16 4.8
    endloop
  endfacet
  facet normal 0.994522 -0.104528 0
    outer loop
      vertex -1.65 9.34814e-16 0
      vertex -1.61394 0.343054 0
      vertex -1.65 9.34814e-16 4.8
    endloop
  endfacet
  facet normal 0.994522 0.104528 0
    outer loop
      vertex -1.65 9.34814e-16 4.8
      vertex -1.61394 -0.343054 4.8
      vertex -1.61394 -0.343054 0
    endloop
  endfacet
  facet normal 0.994522 0.104528 0
    outer loop
      vertex -1.65 9.34814e-16 0
      vertex -1.65 9.34814e-16 4.8
      vertex -1.61394 -0.343054 0
    endloop
  endfacet
  facet normal 0.951057 -0.309017 0
    outer loop
      vertex -1.50735 0.671115 0
      vertex -1.50735 0.671115 4.8
      vertex -1.61394 0.343054 4.8
    endloop
  endfacet
  facet normal 0.951057 -0.309017 0
    outer loop
      vertex -1.61394 0.343054 0
      vertex -1.50735 0.671115 0
      vertex -1.61394 0.343054 4.8
    endloop
  endfacet
  facet normal 0.866025 -0.5 0
    outer loop
      vertex -1.33488 0.969846 0
      vertex -1.33488 0.969846 4.8
      vertex -1.50735 0.671115 4.8
    endloop
  endfacet
  facet normal 0.866025 -0.5 0
    outer loop
      vertex -1.50735 0.671115 0
      vertex -1.33488 0.969846 0
      vertex -1.50735 0.671115 4.8
    endloop
  endfacet
  facet normal 0.743145 -0.669131 0
    outer loop
      vertex -1.10407 1.22619 0
      vertex -1.10407 1.22619 4.8
      vertex -1.33488 0.969846 4.8
    endloop
  endfacet
  facet normal 0.743145 -0.669131 0
    outer loop
      vertex -1.33488 0.969846 0
      vertex -1.10407 1.22619 0
      vertex -1.33488 0.969846 4.8
    endloop
  endfacet
  facet normal 0.587785 -0.809017 0
    outer loop
      vertex -0.825 1.42894 0
      vertex -0.825 1.42894 4.8
      vertex -1.10407 1.22619 4.8
    endloop
  endfacet
  facet normal 0.587785 -0.809017 0
    outer loop
      vertex -1.10407 1.22619 0
      vertex -0.825 1.42894 0
      vertex -1.10407 1.22619 4.8
    endloop
  endfacet
  facet normal 0.406737 -0.913545 0
    outer loop
      vertex -0.509878 1.56924 0
      vertex -0.509878 1.56924 4.8
      vertex -0.825 1.42894 4.8
    endloop
  endfacet
  facet normal 0.406737 -0.913545 0
    outer loop
      vertex -0.825 1.42894 0
      vertex -0.509878 1.56924 0
      vertex -0.825 1.42894 4.8
    endloop
  endfacet
  facet normal 0.207912 -0.978148 0
    outer loop
      vertex -0.172472 1.64096 0
      vertex -0.172472 1.64096 4.8
      vertex -0.509878 1.56924 4.8
    endloop
  endfacet
  facet normal 0.207912 -0.978148 0
    outer loop
      vertex -0.509878 1.56924 0
      vertex -0.172472 1.64096 0
      vertex -0.509878 1.56924 4.8
    endloop
  endfacet
  facet normal -6.43712e-16 -1 0
    outer loop
      vertex 0.172472 1.64096 0
      vertex 0.172472 1.64096 4.8
      vertex -0.172472 1.64096 4.8
    endloop
  endfacet
  facet normal -6.43712e-16 -1 0
    outer loop
      vertex -0.172472 1.64096 0
      vertex 0.172472 1.64096 0
      vertex -0.172472 1.64096 4.8
    endloop
  endfacet
  facet normal -0.207912 -0.978148 0
    outer loop
      vertex 0.509878 1.56924 0
      vertex 0.509878 1.56924 4.8
      vertex 0.172472 1.64096 4.8
    endloop
  endfacet
  facet normal -0.207912 -0.978148 0
    outer loop
      vertex 0.172472 1.64096 0
      vertex 0.509878 1.56924 0
      vertex 0.172472 1.64096 4.8
    endloop
  endfacet
  facet normal -0.406737 -0.913545 0
    outer loop
      vertex 0.825 1.42894 0
      vertex 0.825 1.42894 4.8
      vertex 0.509878 1.56924 4.8
    endloop
  endfacet
  facet normal -0.406737 -0.913545 0
    outer loop
      vertex 0.509878 1.56924 0
      vertex 0.825 1.42894 0
      vertex 0.509878 1.56924 4.8
    endloop
  endfacet
  facet normal -0.587785 -0.809017 0
    outer loop
      vertex 1.10407 1.22619 0
      vertex 1.10407 1.22619 4.8
      vertex 0.825 1.42894 4.8
    endloop
  endfacet
  facet normal -0.587785 -0.809017 0
    outer loop
      vertex 0.825 1.42894 0
      vertex 1.10407 1.22619 0
      vertex 0.825 1.42894 4.8
    endloop
  endfacet
  facet normal -0.743145 -0.669131 0
    outer loop
      vertex 1.33488 0.969846 4.8
      vertex 1.10407 1.22619 4.8
      vertex 1.33488 0.969846 0
    endloop
  endfacet
  facet normal -0.743145 -0.669131 0
    outer loop
      vertex 1.33488 0.969846 0
      vertex 1.10407 1.22619 4.8
      vertex 1.10407 1.22619 0
    endloop
  endfacet
  facet normal -0.866025 -0.5 0
    outer loop
      vertex 1.50735 0.671115 4.8
      vertex 1.33488 0.969846 4.8
      vertex 1.50735 0.671115 0
    endloop
  endfacet
  facet normal -0.866025 -0.5 0
    outer loop
      vertex 1.50735 0.671115 0
      vertex 1.33488 0.969846 4.8
      vertex 1.33488 0.969846 0
    endloop
  endfacet
  facet normal -0.951057 -0.309017 0
    outer loop
      vertex 1.61394 0.343054 4.8
      vertex 1.50735 0.671115 4.8
      vertex 1.61394 0.343054 0
    endloop
  endfacet
  facet normal -0.951057 -0.309017 0
    outer loop
      vertex 1.61394 0.343054 0
      vertex 1.50735 0.671115 4.8
      vertex 1.50735 0.671115 0
    endloop
  endfacet
  facet normal -0.994522 -0.104528 0
    outer loop
      vertex 1.65 0 4.8
      vertex 1.61394 0.343054 4.8
      vertex 1.65 0 0
    endloop
  endfacet
  facet normal -0.994522 -0.104528 0
    outer loop
      vertex 1.65 0 0
      vertex 1.61394 0.343054 4.8
      vertex 1.61394 0.343054 0
    endloop
  endfacet
  facet normal -0.994522 0.104528 0
    outer loop
      vertex 1.65 0 4.8
      vertex 1.65 0 0
      vertex 1.61394 -0.343054 4.8
    endloop
  endfacet
  facet normal -0.994522 0.104528 0
    outer loop
      vertex 1.61394 -0.343054 4.8
      vertex 1.65 0 0
      vertex 1.61394 -0.343054 0
    endloop
  endfacet
  facet normal -0.951057 0.309017 0
    outer loop
      vertex 1.61394 -0.343054 4.8
      vertex 1.61394 -0.343054 0
      vertex 1.50735 -0.671115 4.8
    endloop
  endfacet
  facet normal -0.951057 0.309017 0
    outer loop
      vertex 1.50735 -0.671115 4.8
      vertex 1.61394 -0.343054 0
      vertex 1.50735 -0.671115 0
    endloop
  endfacet
  facet normal -0.866025 0.5 0
    outer loop
      vertex 1.50735 -0.671115 4.8
      vertex 1.50735 -0.671115 0
      vertex 1.33488 -0.969846 4.8
    endloop
  endfacet
  facet normal -0.866025 0.5 0
    outer loop
      vertex 1.33488 -0.969846 4.8
      vertex 1.50735 -0.671115 0
      vertex 1.33488 -0.969846 0
    endloop
  endfacet
  facet normal -0.743145 0.669131 0
    outer loop
      vertex 1.33488 -0.969846 4.8
      vertex 1.33488 -0.969846 0
      vertex 1.10407 -1.22619 4.8
    endloop
  endfacet
  facet normal -0.743145 0.669131 0
    outer loop
      vertex 1.10407 -1.22619 4.8
      vertex 1.33488 -0.969846 0
      vertex 1.10407 -1.22619 0
    endloop
  endfacet
  facet normal -0.587785 0.809017 0
    outer loop
      vertex 1.10407 -1.22619 4.8
      vertex 1.10407 -1.22619 0
      vertex 0.825 -1.42894 4.8
    endloop
  endfacet
  facet normal -0.587785 0.809017 0
    outer loop
      vertex 0.825 -1.42894 4.8
      vertex 1.10407 -1.22619 0
      vertex 0.825 -1.42894 0
    endloop
  endfacet
  facet normal -0.406737 0.913545 0
    outer loop
      vertex 0.825 -1.42894 4.8
      vertex 0.825 -1.42894 0
      vertex 0.509878 -1.56924 4.8
    endloop
  endfacet
  facet normal -0.406737 0.913545 0
    outer loop
      vertex 0.509878 -1.56924 4.8
      vertex 0.825 -1.42894 0
      vertex 0.509878 -1.56924 0
    endloop
  endfacet
  facet normal -0.207912 0.978148 0
    outer loop
      vertex 0.509878 -1.56924 4.8
      vertex 0.509878 -1.56924 0
      vertex 0.172472 -1.64096 4.8
    endloop
  endfacet
  facet normal -0.207912 0.978148 0
    outer loop
      vertex 0.172472 -1.64096 4.8
      vertex 0.509878 -1.56924 0
      vertex 0.172472 -1.64096 0
    endloop
  endfacet
  facet normal 6.43712e-16 1 0
    outer loop
      vertex 0.172472 -1.64096 4.8
      vertex 0.172472 -1.64096 0
      vertex -0.172472 -1.64096 4.8
    endloop
  endfacet
  facet normal 6.43712e-16 1 0
    outer loop
      vertex -0.172472 -1.64096 4.8
      vertex 0.172472 -1.64096 0
      vertex -0.172472 -1.64096 0
    endloop
  endfacet
  facet normal 0.207912 0.978148 0
    outer loop
      vertex -0.172472 -1.64096 4.8
      vertex -0.172472 -1.64096 0
      vertex -0.509878 -1.56924 4.8
    endloop
  endfacet
  facet normal 0.207912 0.978148 0
    outer loop
      vertex -0.509878 -1.56924 4.8
      vertex -0.172472 -1.64096 0
      vertex -0.509878 -1.56924 0
    endloop
  endfacet
  facet normal 0.406737 0.913545 0
    outer loop
      vertex -0.509878 -1.56924 4.8
      vertex -0.509878 -1.56924 0
      vertex -0.825 -1.42894 4.8
    endloop
  endfacet
  facet normal 0.406737 0.913545 0
    outer loop
      vertex -0.825 -1.42894 4.8
      vertex -0.509878 -1.56924 0
      vertex -0.825 -1.42894 0
    endloop
  endfacet
  facet normal 0.587785 0.809017 0
    outer loop
      vertex -0.825 -1.42894 4.8
      vertex -0.825 -1.42894 0
      vertex -1.10407 -1.22619 4.8
    endloop
  endfacet
  facet normal 0.587785 0.809017 0
    outer loop
      vertex -1.10407 -1.22619 4.8
      vertex -0.825 -1.42894 0
      vertex -1.10407 -1.22619 0
    endloop
  endfacet
  facet normal 0.743145 0.669131 0
    outer loop
      vertex -1.33488 -0.969846 4.8
      vertex -1.10407 -1.22619 4.8
      vertex -1.10407 -1.22619 0
    endloop
  endfacet
  facet normal 0.743145 0.669131 0
    outer loop
      vertex -1.33488 -0.969846 0
      vertex -1.33488 -0.969846 4.8
      vertex -1.10407 -1.22619 0
    endloop
  endfacet
  facet normal 0.866025 0.5 0
    outer loop
      vertex -1.50735 -0.671115 4.8
      vertex -1.33488 -0.969846 4.8
      vertex -1.33488 -0.969846 0
    endloop
  endfacet
  facet normal 0.866025 0.5 0
    outer loop
      vertex -1.50735 -0.671115 0
      vertex -1.50735 -0.671115 4.8
      vertex -1.33488 -0.969846 0
    endloop
  endfacet
  facet normal 0.951057 0.309017 0
    outer loop
      vertex -1.61394 -0.343054 4.8
      vertex -1.50735 -0.671115 4.8
      vertex -1.50735 -0.671115 0
    endloop
  endfacet
  facet normal 0.951057 0.309017 0
    outer loop
      vertex -1.61394 -0.343054 0
      vertex -1.61394 -0.343054 4.8
      vertex -1.50735 -0.671115 0
    endloop
  endfacet
  facet normal 0.994522 0.104528 0
    outer loop
      vertex -1.65 30 4.8
      vertex -1.61394 29.6569 4.8
      vertex -1.61394 29.6569 0
    endloop
  endfacet
  facet normal 0.994522 0.104528 0
    outer loop
      vertex -1.65 30 0
      vertex -1.65 30 4.8
      vertex -1.61394 29.6569 0
    endloop
  endfacet
  facet normal 0.994522 -0.104528 0
    outer loop
      vertex -1.61394 30.3431 0
      vertex -1.61394 30.3431 4.8
      vertex -1.65 30 4.8
    endloop
  endfacet
  facet normal 0.994522 -0.104528 0
    outer loop
      vertex -1.65 30 0
      vertex -1.61394 30.3431 0
      vertex -1.65 30 4.8
    endloop
  endfacet
  facet normal 0.951057 -0.309017 0
    outer loop
      vertex -1.50735 30.6711 0
      vertex -1.50735 30.6711 4.8
      vertex -1.61394 30.3431 4.8
    endloop
  endfacet
  facet normal 0.951057 -0.309017 0
    outer loop
      vertex -1.61394 30.3431 0
      vertex -1.50735 30.6711 0
      vertex -1.61394 30.3431 4.8
    endloop
  endfacet
  facet normal 0.866025 -0.5 0
    outer loop
      vertex -1.33488 30.9698 0
      vertex -1.33488 30.9698 4.8
      vertex -1.50735 30.6711 4.8
    endloop
  endfacet
  facet normal 0.866025 -0.5 0
    outer loop
      vertex -1.50735 30.6711 0
      vertex -1.33488 30.9698 0
      vertex -1.50735 30.6711 4.8
    endloop
  endfacet
  facet normal 0.743145 -0.669131 0
    outer loop
      vertex -1.10407 31.2262 0
      vertex -1.10407 31.2262 4.8
      vertex -1.33488 30.9698 4.8
    endloop
  endfacet
  facet normal 0.743145 -0.669131 0
    outer loop
      vertex -1.33488 30.9698 0
      vertex -1.10407 31.2262 0
      vertex -1.33488 30.9698 4.8
    endloop
  endfacet
  facet normal 0.587785 -0.809017 0
    outer loop
      vertex -0.825 31.4289 0
      vertex -0.825 31.4289 4.8
      vertex -1.10407 31.2262 4.8
    endloop
  endfacet
  facet normal 0.587785 -0.809017 0
    outer loop
      vertex -1.10407 31.2262 0
      vertex -0.825 31.4289 0
      vertex -1.10407 31.2262 4.8
    endloop
  endfacet
  facet normal 0.406737 -0.913545 0
    outer loop
      vertex -0.509878 31.5692 0
      vertex -0.509878 31.5692 4.8
      vertex -0.825 31.4289 4.8
    endloop
  endfacet
  facet normal 0.406737 -0.913545 0
    outer loop
      vertex -0.825 31.4289 0
      vertex -0.509878 31.5692 0
      vertex -0.825 31.4289 4.8
    endloop
  endfacet
  facet normal 0.207912 -0.978148 0
    outer loop
      vertex -0.172472 31.641 0
      vertex -0.172472 31.641 4.8
      vertex -0.509878 31.5692 4.8
    endloop
  endfacet
  facet normal 0.207912 -0.978148 0
    outer loop
      vertex -0.509878 31.5692 0
      vertex -0.172472 31.641 0
      vertex -0.509878 31.5692 4.8
    endloop
  endfacet
  facet normal 0 -1 0
    outer loop
      vertex 0.172472 31.641 0
      vertex 0.172472 31.641 4.8
      vertex -0.172472 31.641 4.8
    endloop
  endfacet
  facet normal 0 -1 0
    outer loop
      vertex -0.172472 31.641 0
      vertex 0.172472 31.641 0
      vertex -0.172472 31.641 4.8
    endloop
  endfacet
  facet normal -0.207912 -0.978148 0
    outer loop
      vertex 0.509878 31.5692 0
      vertex 0.509878 31.5692 4.8
      vertex 0.172472 31.641 4.8
    endloop
  endfacet
  facet normal -0.207912 -0.978148 0
    outer loop
      vertex 0.172472 31.641 0
      vertex 0.509878 31.5692 0
      vertex 0.172472 31.641 4.8
    endloop
  endfacet
  facet normal -0.406737 -0.913545 0
    outer loop
      vertex 0.825 31.4289 0
      vertex 0.825 31.4289 4.8
      vertex 0.509878 31.5692 4.8
    endloop
  endfacet
  facet normal -0.406737 -0.913545 0
    outer loop
      vertex 0.509878 31.5692 0
      vertex 0.825 31.4289 0
      vertex 0.509878 31.5692 4.8
    endloop
  endfacet
  facet normal -0.587785 -0.809017 0
    outer loop
      vertex 1.10407 31.2262 0
      vertex 1.10407 31.2262 4.8
      vertex 0.825 31.4289 4.8
    endloop
  endfacet
  facet normal -0.587785 -0.809017 0
    outer loop
      vertex 0.825 31.4289 0
      vertex 1.10407 31.2262 0
      vertex 0.825 31.4289 4.8
    endloop
  endfacet
  facet normal -0.743145 -0.669131 0
    outer loop
      vertex 1.33488 30.9698 4.8
      vertex 1.10407 31.2262 4.8
      vertex 1.33488 30.9698 0
    endloop
  endfacet
  facet normal -0.743145 -0.669131 0
    outer loop
      vertex 1.33488 30.9698 0
      vertex 1.10407 31.2262 4.8
      vertex 1.10407 31.2262 0
    endloop
  endfacet
  facet normal -0.866025 -0.5 0
    outer loop
      vertex 1.50735 30.6711 4.8
      vertex 1.33488 30.9698 4.8
      vertex 1.50735 30.6711 0
    endloop
  endfacet
  facet normal -0.866025 -0.5 0
    outer loop
      vertex 1.50735 30.6711 0
      vertex 1.33488 30.9698 4.8
      vertex 1.33488 30.9698 0
    endloop
  endfacet
  facet normal -0.951057 -0.309017 0
    outer loop
      vertex 1.61394 30.3431 4.8
      vertex 1.50735 30.6711 4.8
      vertex 1.61394 30.3431 0
    endloop
  endfacet
  facet normal -0.951057 -0.309017 0
    outer loop
      vertex 1.61394 30.3431 0
      vertex 1.50735 30.6711 4.8
      vertex 1.50735 30.6711 0
    endloop
  endfacet
  facet normal -0.994522 -0.104528 0
    outer loop
      vertex 1.65 30 4.8
      vertex 1.61394 30.3431 4.8
      vertex 1.65 30 0
    endloop
  endfacet
  facet normal -0.994522 -0.104528 0
    outer loop
      vertex 1.65 30 0
      vertex 1.61394 30.3431 4.8
      vertex 1.61394 30.3431 0
    endloop
  endfacet
  facet normal -0.994522 0.104528 0
    outer loop
      vertex 1.65 30 4.8
      vertex 1.65 30 0
      vertex 1.61394 29.6569 4.8
    endloop
  endfacet
  facet normal -0.994522 0.104528 0
    outer loop
      vertex 1.61394 29.6569 4.8
      vertex 1.65 30 0
      vertex 1.61394 29.6569 0
    endloop
  endfacet
  facet normal -0.951057 0.309017 0
    outer loop
      vertex 1.61394 29.6569 4.8
      vertex 1.61394 29.6569 0
      vertex 1.50735 29.3289 4.8
    endloop
  endfacet
  facet normal -0.951057 0.309017 0
    outer loop
      vertex 1.50735 29.3289 4.8
      vertex 1.61394 29.6569 0
      vertex 1.50735 29.3289 0
    endloop
  endfacet
  facet normal -0.866025 0.5 0
    outer loop
      vertex 1.50735 29.3289 4.8
      vertex 1.50735 29.3289 0
      vertex 1.33488 29.0302 4.8
    endloop
  endfacet
  facet normal -0.866025 0.5 0
    outer loop
      vertex 1.33488 29.0302 4.8
      vertex 1.50735 29.3289 0
      vertex 1.33488 29.0302 0
    endloop
  endfacet
  facet normal -0.743145 0.669131 0
    outer loop
      vertex 1.33488 29.0302 4.8
      vertex 1.33488 29.0302 0
      vertex 1.10407 28.7738 4.8
    endloop
  endfacet
  facet normal -0.743145 0.669131 0
    outer loop
      vertex 1.10407 28.7738 4.8
      vertex 1.33488 29.0302 0
      vertex 1.10407 28.7738 0
    endloop
  endfacet
  facet normal -0.587785 0.809017 0
    outer loop
      vertex 1.10407 28.7738 4.8
      vertex 1.10407 28.7738 0
      vertex 0.825 28.5711 4.8
    endloop
  endfacet
  facet normal -0.587785 0.809017 0
    outer loop
      vertex 0.825 28.5711 4.8
      vertex 1.10407 28.7738 0
      vertex 0.825 28.5711 0
    endloop
  endfacet
  facet normal -0.406737 0.913545 0
    outer loop
      vertex 0.825 28.5711 4.8
      vertex 0.825 28.5711 0
      vertex 0.509878 28.4308 4.8
    endloop
  endfacet
  facet normal -0.406737 0.913545 0
    outer loop
      vertex 0.509878 28.4308 4.8
      vertex 0.825 28.5711 0
      vertex 0.509878 28.4308 0
    endloop
  endfacet
  facet normal -0.207912 0.978148 0
    outer loop
      vertex 0.509878 28.4308 4.8
      vertex 0.509878 28.4308 0
      vertex 0.172472 28.359 4.8
    endloop
  endfacet
  facet normal -0.207912 0.978148 0
    outer loop
      vertex 0.172472 28.359 4.8
      vertex 0.509878 28.4308 0
      vertex 0.172472 28.359 0
    endloop
  endfacet
  facet normal 0 1 0
    outer loop
      vertex 0.172472 28.359 4.8
      vertex 0.172472 28.359 0
      vertex -0.172472 28.359 4.8
    endloop
  endfacet
  facet normal 0 1 0
    outer loop
      vertex -0.172472 28.359 4.8
      vertex 0.172472 28.359 0
      vertex -0.172472 28.359 0
    endloop
  endfacet
  facet normal 0.207912 0.978148 0
    outer loop
      vertex -0.172472 28.359 4.8
      vertex -0.172472 28.359 0
      vertex -0.509878 28.4308 4.8
    endloop
  endfacet
  facet normal 0.207912 0.978148 0
    outer loop
      vertex -0.509878 28.4308 4.8
      vertex -0.172472 28.359 0
      vertex -0.509878 28.4308 0
    endloop
  endfacet
  facet normal 0.406737 0.913545 0
    outer loop
      vertex -0.509878 28.4308 4.8
      vertex -0.509878 28.4308 0
      vertex -0.825 28.5711 4.8
    endloop
  endfacet
  facet normal 0.406737 0.913545 0
    outer loop
      vertex -0.825 28.5711 4.8
      vertex -0.509878 28.4308 0
      vertex -0.825 28.5711 0
    endloop
  endfacet
  facet normal 0.587785 0.809017 0
    outer loop
      vertex -0.825 28.5711 4.8
      vertex -0.825 28.5711 0
      vertex -1.10407 28.7738 4.8
    endloop
  endfacet
  facet normal 0.587785 0.809017 0
    outer loop
      vertex -1.10407 28.7738 4.8
      vertex -0.825 28.5711 0
      vertex -1.10407 28.7738 0
    endloop
  endfacet
  facet normal 0.743145 0.669131 0
    outer loop
      vertex -1.33488 29.0302 4.8
      vertex -1.10407 28.7738 4.8
      vertex -1.10407 28.7738 0
    endloop
  endfacet
  facet normal 0.743145 0.669131 0
    outer loop
      vertex -1.33488 29.0302 0
      vertex -1.33488 29.0302 4.8
      vertex -1.10407 28.7738 0
    endloop
  endfacet
  facet normal 0.866025 0.5 0
    outer loop
      vertex -1.50735 29.3289 4.8
      vertex -1.33488 29.0302 4.8
      vertex -1.33488 29.0302 0
    endloop
  endfacet
  facet normal 0.866025 0.5 0
    outer loop
      vertex -1.50735 29.3289 0
      vertex -1.50735 29.3289 4.8
      vertex -1.33488 29.0302 0
    endloop
  endfacet
  facet normal 0.951057 0.309017 0
    outer loop
      vertex -1.61394 29.6569 4.8
      vertex -1.50735 29.3289 4.8
      vertex -1.50735 29.3289 0
    endloop
  endfacet
  facet normal 0.951057 0.309017 0
    outer loop
      vertex -1.61394 29.6569 0
      vertex -1.61394 29.6569 4.8
      vertex -1.50735 29.3289 0
    endloop
  endfacet
endsolid OpenSCAD_Model
