solid OpenSCAD_Model
  facet normal -1 0 0
    outer loop
      vertex 2.5 10 1.5
      vertex 2.5 10 0
      vertex 2.5 2 1.5
    endloop
  endfacet
  facet normal -1 0 0
    outer loop
      vertex 2.5 0 0
      vertex 2.5 0 8
      vertex 2.5 2 1.5
    endloop
  endfacet
  facet normal -1 0 0
    outer loop
      vertex 2.5 0 0
      vertex 2.5 2 1.5
      vertex 2.5 10 0
    endloop
  endfacet
  facet normal -1 0 0
    outer loop
      vertex 2.5 2 1.5
      vertex 2.5 0 8
      vertex 2.5 2 8
    endloop
  endfacet
  facet normal 0 -1 0
    outer loop
      vertex 7.5 0 1.5
      vertex 2.5 0 0
      vertex 19.5 0 0
    endloop
  endfacet
  facet normal 0 -1 0
    outer loop
      vertex 7.5 0 1.5
      vertex 7.5 0 8
      vertex 2.5 0 8
    endloop
  endfacet
  facet normal 0 -1 0
    outer loop
      vertex 2.5 0 8
      vertex 2.5 0 0
      vertex 7.5 0 1.5
    endloop
  endfacet
  facet normal 0 -1 0
    outer loop
      vertex 19.5 0 1.5
      vertex 7.5 0 1.5
      vertex 19.5 0 0
    endloop
  endfacet
  facet normal 0 0 -1
    outer loop
      vertex 2.5 0 0
      vertex 2.5 10 0
      vertex 19.5 0 0
    endloop
  endfacet
  facet normal 0 0 -1
    outer loop
      vertex 19.5 0 0
      vertex 2.5 10 0
      vertex 19.5 10 0
    endloop
  endfacet
  facet normal 0 1 0
    outer loop
      vertex 2.5 10 0
      vertex 2.5 10 1.5
      vertex 19.5 10 0
    endloop
  endfacet
  facet normal 0 1 0
    outer loop
      vertex 19.5 10 0
      vertex 2.5 10 1.5
      vertex 19.5 10 1.5
    endloop
  endfacet
  facet normal 0 0 1
    outer loop
      vertex 2.5 10 1.5
      vertex 2.5 2 1.5
      vertex 7.5 2 1.5
    endloop
  endfacet
  facet normal 0 0 1
    outer loop
      vertex 19.5 0 1.5
      vertex 2.5 10 1.5
      vertex 7.5 2 1.5
    endloop
  endfacet
  facet normal 0 0 1
    outer loop
      vertex 7.5 0 1.5
      vertex 19.5 0 1.5
      vertex 7.5 2 1.5
    endloop
  endfacet
  facet normal 0 0 1
    outer loop
      vertex 19.5 0 1.5
      vertex 19.5 10 1.5
      vertex 2.5 10 1.5
    endloop
  endfacet
  facet normal 0 1 0
    outer loop
      vertex 2.5 2 1.5
      vertex 2.5 2 8
      vertex 7.5 2 1.5
    endloop
  endfacet
  facet normal 0 1 0
    outer loop
      vertex 7.5 2 1.5
      vertex 2.5 2 8
      vertex 7.5 2 8
    endloop
  endfacet
  facet normal 0 0 1
    outer loop
      vertex 2.5 2 8
      vertex 2.5 0 8
      vertex 7.5 0 8
    endloop
  endfacet
  facet normal 0 0 1
    outer loop
      vertex 7.5 2 8
      vertex 2.5 2 8
      vertex 7.5 0 8
    endloop
  endfacet
  facet normal 1 0 0
    outer loop
      vertex 7.5 0 8
      vertex 7.5 0 1.5
      vertex 7.5 2 1.5
    endloop
  endfacet
  facet normal 1 0 0
    outer loop
      vertex 7.5 2 8
      vertex 7.5 0 8
      vertex 7.5 2 1.5
    endloop
  endfacet
  facet normal 1 0 0
    outer loop
      vertex 19.5 0 1.5
      vertex 19.5 0 0
      vertex 19.5 10 0
    endloop
  endfacet
  facet normal 1 0 0
    outer loop
      vertex 19.5 10 1.5
      vertex 19.5 0 1.5
      vertex 19.5 10 0
    endloop
  endfacet
  facet normal 0 0 -1
    outer loop
      vertex -19.5 4.5 0
      vertex -19.5 10 0
      vertex -7.5 4.5 0
    endloop
  endfacet
  facet normal 0 0 -1
    outer loop
      vertex -7.5 2 0
      vertex -2.5 0 0
      vertex -7.5 0 0
    endloop
  endfacet
  facet normal 0 0 -1
    outer loop
      vertex -2.5 10 0
      vertex -2.5 0 0
      vertex -7.5 4.5 0
    endloop
  endfacet
  facet normal 0 0 -1
    outer loop
      vertex -2.5 10 0
      vertex -7.5 4.5 0
      vertex -19.5 10 0
    endloop
  endfacet
  facet normal 0 0 -1
    outer loop
      vertex -7.5 4.5 0
      vertex -2.5 0 0
      vertex -7.5 2 0
    endloop
  endfacet
  facet normal -1 0 0
    outer loop
      vertex -19.5 10 1.5
      vertex -19.5 10 0
      vertex -19.5 4.5 1.5
    endloop
  endfacet
  facet normal -1 0 0
    outer loop
      vertex -19.5 4.5 1.5
      vertex -19.5 10 0
      vertex -19.5 4.5 0
    endloop
  endfacet
  facet normal 0 -1 0
    outer loop
      vertex -19.5 4.5 1.5
      vertex -19.5 4.5 0
      vertex -7.5 4.5 0
    endloop
  endfacet
  facet normal 0 -1 0
    outer loop
      vertex -7.5 4.5 1.5
      vertex -19.5 4.5 1.5
      vertex -7.5 4.5 0
    endloop
  endfacet
  facet normal 0 1 0
    outer loop
      vertex -2.5 10 1.5
      vertex -2.5 10 0
      vertex -19.5 10 1.5
    endloop
  endfacet
  facet normal 0 1 0
    outer loop
      vertex -19.5 10 1.5
      vertex -2.5 10 0
      vertex -19.5 10 0
    endloop
  endfacet
  facet normal -1 0 0
    outer loop
      vertex -7.5 4.5 1.5
      vertex -7.5 4.5 0
      vertex -7.5 2 1.5
    endloop
  endfacet
  facet normal -1 0 0
    outer loop
      vertex -7.5 2 1.5
      vertex -7.5 4.5 0
      vertex -7.5 2 0
    endloop
  endfacet
  facet normal -1 0 0
    outer loop
      vertex -7.5 2 8
      vertex -7.5 2 1.5
      vertex -7.5 0 8
    endloop
  endfacet
  facet normal -1 0 0
    outer loop
      vertex -7.5 0 8
      vertex -7.5 2 1.5
      vertex -7.5 2 0
    endloop
  endfacet
  facet normal -1 0 0
    outer loop
      vertex -7.5 0 8
      vertex -7.5 2 0
      vertex -7.5 0 0
    endloop
  endfacet
  facet normal 0 -1 0
    outer loop
      vertex -2.5 0 0
      vertex -2.5 0 8
      vertex -7.5 0 8
    endloop
  endfacet
  facet normal 0 -1 0
    outer loop
      vertex -7.5 0 0
      vertex -2.5 0 0
      vertex -7.5 0 8
    endloop
  endfacet
  facet normal 1 0 0
    outer loop
      vertex -2.5 10 0
      vertex -2.5 10 1.5
      vertex -2.5 2 1.5
    endloop
  endfacet
  facet normal 1 0 0
    outer loop
      vertex -2.5 0 0
      vertex -2.5 10 0
      vertex -2.5 2 1.5
    endloop
  endfacet
  facet normal 1 0 0
    outer loop
      vertex -2.5 2 8
      vertex -2.5 0 8
      vertex -2.5 2 1.5
    endloop
  endfacet
  facet normal 1 0 0
    outer loop
      vertex -2.5 0 8
      vertex -2.5 0 0
      vertex -2.5 2 1.5
    endloop
  endfacet
  facet normal 0 0 1
    outer loop
      vertex -7.5 4.5 1.5
      vertex -7.5 2 1.5
      vertex -2.5 2 1.5
    endloop
  endfacet
  facet normal 0 0 1
    outer loop
      vertex -19.5 10 1.5
      vertex -7.5 4.5 1.5
      vertex -2.5 10 1.5
    endloop
  endfacet
  facet normal 0 0 1
    outer loop
      vertex -2.5 10 1.5
      vertex -7.5 4.5 1.5
      vertex -2.5 2 1.5
    endloop
  endfacet
  facet normal 0 0 1
    outer loop
      vertex -19.5 4.5 1.5
      vertex -7.5 4.5 1.5
      vertex -19.5 10 1.5
    endloop
  endfacet
  facet normal 0 1 0
    outer loop
      vertex -2.5 2 8
      vertex -2.5 2 1.5
      vertex -7.5 2 8
    endloop
  endfacet
  facet normal 0 1 0
    outer loop
      vertex -7.5 2 8
      vertex -2.5 2 1.5
      vertex -7.5 2 1.5
    endloop
  endfacet
  facet normal 0 0 1
    outer loop
      vertex -2.5 0 8
      vertex -2.5 2 8
      vertex -7.5 2 8
    endloop
  endfacet
  facet normal 0 0 1
    outer loop
      vertex -7.5 0 8
      vertex -2.5 0 8
      vertex -7.5 2 8
    endloop
  endfacet
endsolid OpenSCAD_Model
