solid OpenSCAD_Model
  facet normal -1 0 0
    outer loop
      vertex -11.15 -7 0
      vertex -11.15 -7 22.3
      vertex -11.15 0 0
    endloop
  endfacet
  facet normal -1 0 0
    outer loop
      vertex -11.15 0 0
      vertex -11.15 -7 22.3
      vertex -11.15 0 22.3
    endloop
  endfacet
  facet normal 0 -1 0
    outer loop
      vertex -2.87505 -7 6.17027
      vertex -11.15 -7 0
      vertex 11.15 -7 0
    endloop
  endfacet
  facet normal 0 -1 0
    outer loop
      vertex 2.87505 -7 6.17027
      vertex -2.87505 -7 6.17027
      vertex 11.15 -7 0
    endloop
  endfacet
  facet normal 0 -1 0
    outer loop
      vertex -5.7501 -7 11.15
      vertex -11.15 -7 0
      vertex -2.87505 -7 6.17027
    endloop
  endfacet
  facet normal 0 -1 0
    outer loop
      vertex -11.15 -7 22.3
      vertex -11.15 -7 0
      vertex -5.7501 -7 11.15
    endloop
  endfacet
  facet normal 0 -1 0
    outer loop
      vertex 11.15 -7 22.3
      vertex -11.15 -7 22.3
      vertex -2.87505 -7 16.1297
    endloop
  endfacet
  facet normal 0 -1 0
    outer loop
      vertex 11.15 -7 22.3
      vertex -2.87505 -7 16.1297
      vertex 2.87505 -7 16.1297
    endloop
  endfacet
  facet normal 0 -1 0
    outer loop
      vertex 11.15 -7 22.3
      vertex 5.7501 -7 11.15
      vertex 11.15 -7 0
    endloop
  endfacet
  facet normal 0 -1 0
    outer loop
      vertex 11.15 -7 22.3
      vertex 2.87505 -7 16.1297
      vertex 5.7501 -7 11.15
    endloop
  endfacet
  facet normal 0 -1 0
    outer loop
      vertex 5.7501 -7 11.15
      vertex 2.87505 -7 6.17027
      vertex 11.15 -7 0
    endloop
  endfacet
  facet normal 0 -1 0
    outer loop
      vertex -5.7501 -7 11.15
      vertex -2.87505 -7 16.1297
      vertex -11.15 -7 22.3
    endloop
  endfacet
  facet normal 0 0 -1
    outer loop
      vertex -11.15 -7 0
      vertex -11.15 0 0
      vertex 11.15 -7 0
    endloop
  endfacet
  facet normal 0 0 -1
    outer loop
      vertex 11.15 -7 0
      vertex -11.15 0 0
      vertex -8.65 0 0
    endloop
  endfacet
  facet normal 0 0 -1
    outer loop
      vertex 11.15 -7 0
      vertex -8.65 0 0
      vertex -8.65 10.5 0
    endloop
  endfacet
  facet normal 0 0 -1
    outer loop
      vertex 8.65 0 0
      vertex -8.65 10.5 0
      vertex 8.65 10.5 0
    endloop
  endfacet
  facet normal 0 0 -1
    outer loop
      vertex 11.15 -7 0
      vertex -8.65 10.5 0
      vertex 8.65 0 0
    endloop
  endfacet
  facet normal 0 0 -1
    outer loop
      vertex 11.15 0 0
      vertex 11.15 -7 0
      vertex 8.65 0 0
    endloop
  endfacet
  facet normal 0 1 0
    outer loop
      vertex -8.65 0 22.3
      vertex -8.65 0 0
      vertex -11.15 0 22.3
    endloop
  endfacet
  facet normal 0 1 0
    outer loop
      vertex -11.15 0 22.3
      vertex -8.65 0 0
      vertex -11.15 0 0
    endloop
  endfacet
  facet normal 0 0 1
    outer loop
      vertex -11.15 0 22.3
      vertex -11.15 -7 22.3
      vertex 11.15 -7 22.3
    endloop
  endfacet
  facet normal 0 0 1
    outer loop
      vertex -8.65 0 22.3
      vertex -11.15 0 22.3
      vertex 11.15 -7 22.3
    endloop
  endfacet
  facet normal 0 0 1
    outer loop
      vertex 8.65 0 22.3
      vertex -8.65 0 22.3
      vertex 11.15 -7 22.3
    endloop
  endfacet
  facet normal 0 0 1
    outer loop
      vertex 11.15 0 22.3
      vertex 8.65 0 22.3
      vertex 11.15 -7 22.3
    endloop
  endfacet
  facet normal 0 0 1
    outer loop
      vertex 8.65 10.5 22.3
      vertex -8.65 0 22.3
      vertex 8.65 0 22.3
    endloop
  endfacet
  facet normal 0 0 1
    outer loop
      vertex -8.65 10.5 22.3
      vertex -8.65 0 22.3
      vertex 8.65 10.5 22.3
    endloop
  endfacet
  facet normal 1 0 0
    outer loop
      vertex 11.15 -7 22.3
      vertex 11.15 -7 0
      vertex 11.15 0 0
    endloop
  endfacet
  facet normal 1 0 0
    outer loop
      vertex 11.15 0 22.3
      vertex 11.15 -7 22.3
      vertex 11.15 0 0
    endloop
  endfacet
  facet normal 0 2.22045e-16 1
    outer loop
      vertex 2.87505 -7 6.17027
      vertex 2.87505 -2.01 6.17027
      vertex -2.87505 -2.01 6.17027
    endloop
  endfacet
  facet normal 0 2.22045e-16 1
    outer loop
      vertex -2.87505 -7 6.17027
      vertex 2.87505 -7 6.17027
      vertex -2.87505 -2.01 6.17027
    endloop
  endfacet
  facet normal 0.866025 1.11022e-16 0.5
    outer loop
      vertex -2.87505 -7 6.17027
      vertex -2.87505 -2.01 6.17027
      vertex -5.7501 -2.01 11.15
    endloop
  endfacet
  facet normal 0.866025 1.11022e-16 0.5
    outer loop
      vertex -5.7501 -7 11.15
      vertex -2.87505 -7 6.17027
      vertex -5.7501 -2.01 11.15
    endloop
  endfacet
  facet normal -0.866025 1.11022e-16 0.5
    outer loop
      vertex 5.7501 -2.01 11.15
      vertex 2.87505 -2.01 6.17027
      vertex 5.7501 -7 11.15
    endloop
  endfacet
  facet normal -0.866025 1.11022e-16 0.5
    outer loop
      vertex 5.7501 -7 11.15
      vertex 2.87505 -2.01 6.17027
      vertex 2.87505 -7 6.17027
    endloop
  endfacet
  facet normal -0.866025 -1.11022e-16 -0.5
    outer loop
      vertex 5.7501 -2.01 11.15
      vertex 5.7501 -7 11.15
      vertex 2.87505 -2.01 16.1297
    endloop
  endfacet
  facet normal -0.866025 -1.11022e-16 -0.5
    outer loop
      vertex 2.87505 -2.01 16.1297
      vertex 5.7501 -7 11.15
      vertex 2.87505 -7 16.1297
    endloop
  endfacet
  facet normal 0 -2.22045e-16 -1
    outer loop
      vertex 2.87505 -2.01 16.1297
      vertex 2.87505 -7 16.1297
      vertex -2.87505 -2.01 16.1297
    endloop
  endfacet
  facet normal 0 -2.22045e-16 -1
    outer loop
      vertex -2.87505 -2.01 16.1297
      vertex 2.87505 -7 16.1297
      vertex -2.87505 -7 16.1297
    endloop
  endfacet
  facet normal 0.866025 -1.11022e-16 -0.5
    outer loop
      vertex -5.7501 -2.01 11.15
      vertex -2.87505 -2.01 16.1297
      vertex -2.87505 -7 16.1297
    endloop
  endfacet
  facet normal 0.866025 -1.11022e-16 -0.5
    outer loop
      vertex -5.7501 -7 11.15
      vertex -5.7501 -2.01 11.15
      vertex -2.87505 -7 16.1297
    endloop
  endfacet
  facet normal 0 1 0
    outer loop
      vertex 11.15 0 22.3
      vertex 11.15 0 0
      vertex 8.65 0 22.3
    endloop
  endfacet
  facet normal 0 1 0
    outer loop
      vertex 8.65 0 22.3
      vertex 11.15 0 0
      vertex 8.65 0 0
    endloop
  endfacet
  facet normal 1 0 0
    outer loop
      vertex 8.65 0 22.3
      vertex 8.65 0 0
      vertex 8.65 10.5 0
    endloop
  endfacet
  facet normal 1 0 0
    outer loop
      vertex 8.65 10.5 22.3
      vertex 8.65 0 22.3
      vertex 8.65 10.5 0
    endloop
  endfacet
  facet normal 0 1 0
    outer loop
      vertex 1.82213 10.5 13.658
      vertex -8.65 10.5 22.3
      vertex 8.65 10.5 22.3
    endloop
  endfacet
  facet normal 0 1 0
    outer loop
      vertex -8.65 10.5 0
      vertex -8.65 10.5 22.3
      vertex -3.1 10.5 11.15
    endloop
  endfacet
  facet normal 0 1 0
    outer loop
      vertex -8.65 10.5 0
      vertex -3.1 10.5 11.15
      vertex -2.94827 10.5 10.192
    endloop
  endfacet
  facet normal 0 1 0
    outer loop
      vertex -8.65 10.5 0
      vertex -2.94827 10.5 10.192
      vertex -2.50795 10.5 9.32787
    endloop
  endfacet
  facet normal 0 1 0
    outer loop
      vertex -8.65 10.5 0
      vertex -2.50795 10.5 9.32787
      vertex -1.82213 10.5 8.64205
    endloop
  endfacet
  facet normal 0 1 0
    outer loop
      vertex -8.65 10.5 0
      vertex -1.82213 10.5 8.64205
      vertex 8.65 10.5 0
    endloop
  endfacet
  facet normal 0 1 0
    outer loop
      vertex 0 10.5 8.05
      vertex 8.65 10.5 0
      vertex -0.957953 10.5 8.20172
    endloop
  endfacet
  facet normal 0 1 0
    outer loop
      vertex 0.957953 10.5 8.20172
      vertex 8.65 10.5 0
      vertex 0 10.5 8.05
    endloop
  endfacet
  facet normal 0 1 0
    outer loop
      vertex 2.50795 10.5 9.32787
      vertex 8.65 10.5 0
      vertex 1.82213 10.5 8.64205
    endloop
  endfacet
  facet normal 0 1 0
    outer loop
      vertex 0.957953 10.5 8.20172
      vertex 1.82213 10.5 8.64205
      vertex 8.65 10.5 0
    endloop
  endfacet
  facet normal 0 1 0
    outer loop
      vertex -2.50795 10.5 12.9721
      vertex -8.65 10.5 22.3
      vertex -1.82213 10.5 13.658
    endloop
  endfacet
  facet normal 0 1 0
    outer loop
      vertex 8.65 10.5 0
      vertex 2.50795 10.5 9.32787
      vertex 2.94827 10.5 10.192
    endloop
  endfacet
  facet normal 0 1 0
    outer loop
      vertex 8.65 10.5 0
      vertex 2.94827 10.5 10.192
      vertex 8.65 10.5 22.3
    endloop
  endfacet
  facet normal 0 1 0
    outer loop
      vertex -1.82213 10.5 13.658
      vertex -8.65 10.5 22.3
      vertex -0.957953 10.5 14.0983
    endloop
  endfacet
  facet normal 0 1 0
    outer loop
      vertex 0.957953 10.5 14.0983
      vertex -8.65 10.5 22.3
      vertex 1.82213 10.5 13.658
    endloop
  endfacet
  facet normal 0 1 0
    outer loop
      vertex -0.957953 10.5 14.0983
      vertex -8.65 10.5 22.3
      vertex 0 10.5 14.25
    endloop
  endfacet
  facet normal 0 1 0
    outer loop
      vertex 3.1 10.5 11.15
      vertex 2.94827 10.5 12.108
      vertex 8.65 10.5 22.3
    endloop
  endfacet
  facet normal 0 1 0
    outer loop
      vertex 0 10.5 14.25
      vertex -8.65 10.5 22.3
      vertex 0.957953 10.5 14.0983
    endloop
  endfacet
  facet normal 0 1 0
    outer loop
      vertex 2.94827 10.5 12.108
      vertex 2.50795 10.5 12.9721
      vertex 8.65 10.5 22.3
    endloop
  endfacet
  facet normal 0 1 0
    outer loop
      vertex 2.50795 10.5 12.9721
      vertex 1.82213 10.5 13.658
      vertex 8.65 10.5 22.3
    endloop
  endfacet
  facet normal 0 1 0
    outer loop
      vertex 3.1 10.5 11.15
      vertex 8.65 10.5 22.3
      vertex 2.94827 10.5 10.192
    endloop
  endfacet
  facet normal 0 1 0
    outer loop
      vertex -2.94827 10.5 12.108
      vertex -8.65 10.5 22.3
      vertex -2.50795 10.5 12.9721
    endloop
  endfacet
  facet normal 0 1 0
    outer loop
      vertex -3.1 10.5 11.15
      vertex -8.65 10.5 22.3
      vertex -2.94827 10.5 12.108
    endloop
  endfacet
  facet normal 0 1 0
    outer loop
      vertex -0.957953 10.5 8.20172
      vertex 8.65 10.5 0
      vertex -1.82213 10.5 8.64205
    endloop
  endfacet
  facet normal -1 0 0
    outer loop
      vertex -8.65 0 0
      vertex -8.65 0 22.3
      vertex -8.65 10.5 0
    endloop
  endfacet
  facet normal -1 0 0
    outer loop
      vertex -8.65 10.5 0
      vertex -8.65 0 22.3
      vertex -8.65 10.5 22.3
    endloop
  endfacet
  facet normal 0 -1 2.22045e-16
    outer loop
      vertex 1.82213 -2.01 8.64205
      vertex 2.87505 -2.01 6.17027
      vertex 5.7501 -2.01 11.15
    endloop
  endfacet
  facet normal 0 -1 2.22045e-16
    outer loop
      vertex -0.957953 -2.01 14.0983
      vertex 0 -2.01 14.25
      vertex 2.87505 -2.01 16.1297
    endloop
  endfacet
  facet normal 0 -1 2.22045e-16
    outer loop
      vertex -5.7501 -2.01 11.15
      vertex -3.1 -2.01 11.15
      vertex -2.87505 -2.01 16.1297
    endloop
  endfacet
  facet normal 0 -1 2.22045e-16
    outer loop
      vertex -5.7501 -2.01 11.15
      vertex -2.87505 -2.01 6.17027
      vertex -3.1 -2.01 11.15
    endloop
  endfacet
  facet normal 0 -1 2.22045e-16
    outer loop
      vertex -3.1 -2.01 11.15
      vertex -2.94827 -2.01 12.108
      vertex -2.87505 -2.01 16.1297
    endloop
  endfacet
  facet normal 0 -1 2.22045e-16
    outer loop
      vertex 0.957953 -2.01 14.0983
      vertex 1.82213 -2.01 13.658
      vertex 2.87505 -2.01 16.1297
    endloop
  endfacet
  facet normal 0 -1 2.22045e-16
    outer loop
      vertex -2.87505 -2.01 16.1297
      vertex -1.82213 -2.01 13.658
      vertex 2.87505 -2.01 16.1297
    endloop
  endfacet
  facet normal 0 -1 2.22045e-16
    outer loop
      vertex -2.87505 -2.01 16.1297
      vertex -2.50795 -2.01 12.9721
      vertex -1.82213 -2.01 13.658
    endloop
  endfacet
  facet normal 0 -1 2.22045e-16
    outer loop
      vertex -1.82213 -2.01 13.658
      vertex -0.957953 -2.01 14.0983
      vertex 2.87505 -2.01 16.1297
    endloop
  endfacet
  facet normal 0 -1 2.22045e-16
    outer loop
      vertex -1.82213 -2.01 8.64205
      vertex -2.50795 -2.01 9.32787
      vertex -2.87505 -2.01 6.17027
    endloop
  endfacet
  facet normal 0 -1 2.22045e-16
    outer loop
      vertex 0 -2.01 14.25
      vertex 0.957953 -2.01 14.0983
      vertex 2.87505 -2.01 16.1297
    endloop
  endfacet
  facet normal 0 -1 2.22045e-16
    outer loop
      vertex 2.87505 -2.01 16.1297
      vertex 1.82213 -2.01 13.658
      vertex 5.7501 -2.01 11.15
    endloop
  endfacet
  facet normal 0 -1 2.22045e-16
    outer loop
      vertex 1.82213 -2.01 13.658
      vertex 2.50795 -2.01 12.9721
      vertex 5.7501 -2.01 11.15
    endloop
  endfacet
  facet normal 0 -1 2.22045e-16
    outer loop
      vertex -2.50795 -2.01 9.32787
      vertex -2.94827 -2.01 10.192
      vertex -2.87505 -2.01 6.17027
    endloop
  endfacet
  facet normal 0 -1 2.22045e-16
    outer loop
      vertex 2.50795 -2.01 12.9721
      vertex 2.94827 -2.01 12.108
      vertex 5.7501 -2.01 11.15
    endloop
  endfacet
  facet normal 0 -1 2.22045e-16
    outer loop
      vertex 2.94827 -2.01 12.108
      vertex 3.1 -2.01 11.15
      vertex 5.7501 -2.01 11.15
    endloop
  endfacet
  facet normal 0 -1 2.22045e-16
    outer loop
      vertex 3.1 -2.01 11.15
      vertex 2.94827 -2.01 10.192
      vertex 5.7501 -2.01 11.15
    endloop
  endfacet
  facet normal 0 -1 2.22045e-16
    outer loop
      vertex 2.94827 -2.01 10.192
      vertex 2.50795 -2.01 9.32787
      vertex 5.7501 -2.01 11.15
    endloop
  endfacet
  facet normal 0 -1 2.22045e-16
    outer loop
      vertex -2.87505 -2.01 6.17027
      vertex 2.87505 -2.01 6.17027
      vertex 1.82213 -2.01 8.64205
    endloop
  endfacet
  facet normal 0 -1 2.22045e-16
    outer loop
      vertex 0.957953 -2.01 8.20173
      vertex 0 -2.01 8.05
      vertex -2.87505 -2.01 6.17027
    endloop
  endfacet
  facet normal 0 -1 2.22045e-16
    outer loop
      vertex -2.87505 -2.01 6.17027
      vertex 1.82213 -2.01 8.64205
      vertex 0.957953 -2.01 8.20173
    endloop
  endfacet
  facet normal 0 -1 2.22045e-16
    outer loop
      vertex -0.957953 -2.01 8.20173
      vertex -1.82213 -2.01 8.64205
      vertex -2.87505 -2.01 6.17027
    endloop
  endfacet
  facet normal 0 -1 2.22045e-16
    outer loop
      vertex -3.1 -2.01 11.15
      vertex -2.87505 -2.01 6.17027
      vertex -2.94827 -2.01 10.192
    endloop
  endfacet
  facet normal 0 -1 2.22045e-16
    outer loop
      vertex -2.94827 -2.01 12.108
      vertex -2.50795 -2.01 12.9721
      vertex -2.87505 -2.01 16.1297
    endloop
  endfacet
  facet normal 0 -1 2.22045e-16
    outer loop
      vertex 2.50795 -2.01 9.32787
      vertex 1.82213 -2.01 8.64205
      vertex 5.7501 -2.01 11.15
    endloop
  endfacet
  facet normal 0 -1 2.22045e-16
    outer loop
      vertex 0 -2.01 8.05
      vertex -0.957953 -2.01 8.20173
      vertex -2.87505 -2.01 6.17027
    endloop
  endfacet
  facet normal 0.987688 -3.47355e-17 -0.156435
    outer loop
      vertex -3.1 10.5 11.15
      vertex -2.94827 10.5 12.108
      vertex -2.94827 -2.01 12.108
    endloop
  endfacet
  facet normal 0.987688 -3.47355e-17 -0.156435
    outer loop
      vertex -3.1 -2.01 11.15
      vertex -3.1 10.5 11.15
      vertex -2.94827 -2.01 12.108
    endloop
  endfacet
  facet normal 0.987688 3.47355e-17 0.156435
    outer loop
      vertex -2.94827 -2.01 10.192
      vertex -2.94827 10.5 10.192
      vertex -3.1 10.5 11.15
    endloop
  endfacet
  facet normal 0.987688 3.47355e-17 0.156435
    outer loop
      vertex -3.1 -2.01 11.15
      vertex -2.94827 -2.01 10.192
      vertex -3.1 10.5 11.15
    endloop
  endfacet
  facet normal 0.891007 -1.00806e-16 -0.45399
    outer loop
      vertex -2.94827 10.5 12.108
      vertex -2.50795 10.5 12.9721
      vertex -2.50795 -2.01 12.9721
    endloop
  endfacet
  facet normal 0.891007 -1.00806e-16 -0.45399
    outer loop
      vertex -2.94827 -2.01 12.108
      vertex -2.94827 10.5 12.108
      vertex -2.50795 -2.01 12.9721
    endloop
  endfacet
  facet normal 0.707107 -1.57009e-16 -0.707107
    outer loop
      vertex -2.50795 10.5 12.9721
      vertex -1.82213 10.5 13.658
      vertex -1.82213 -2.01 13.658
    endloop
  endfacet
  facet normal 0.707107 -1.57009e-16 -0.707107
    outer loop
      vertex -2.50795 -2.01 12.9721
      vertex -2.50795 10.5 12.9721
      vertex -1.82213 -2.01 13.658
    endloop
  endfacet
  facet normal 0.45399 -1.97843e-16 -0.891007
    outer loop
      vertex -0.957953 10.5 14.0983
      vertex -0.957953 -2.01 14.0983
      vertex -1.82213 10.5 13.658
    endloop
  endfacet
  facet normal 0.45399 -1.97843e-16 -0.891007
    outer loop
      vertex -1.82213 10.5 13.658
      vertex -0.957953 -2.01 14.0983
      vertex -1.82213 -2.01 13.658
    endloop
  endfacet
  facet normal 0.156435 -2.19311e-16 -0.987688
    outer loop
      vertex 0 10.5 14.25
      vertex 0 -2.01 14.25
      vertex -0.957953 10.5 14.0983
    endloop
  endfacet
  facet normal 0.156435 -2.19311e-16 -0.987688
    outer loop
      vertex -0.957953 10.5 14.0983
      vertex 0 -2.01 14.25
      vertex -0.957953 -2.01 14.0983
    endloop
  endfacet
  facet normal -0.156435 -2.19311e-16 -0.987688
    outer loop
      vertex 0.957953 10.5 14.0983
      vertex 0.957953 -2.01 14.0983
      vertex 0 10.5 14.25
    endloop
  endfacet
  facet normal -0.156435 -2.19311e-16 -0.987688
    outer loop
      vertex 0 10.5 14.25
      vertex 0.957953 -2.01 14.0983
      vertex 0 -2.01 14.25
    endloop
  endfacet
  facet normal -0.45399 -1.97843e-16 -0.891007
    outer loop
      vertex 1.82213 10.5 13.658
      vertex 1.82213 -2.01 13.658
      vertex 0.957953 10.5 14.0983
    endloop
  endfacet
  facet normal -0.45399 -1.97843e-16 -0.891007
    outer loop
      vertex 0.957953 10.5 14.0983
      vertex 1.82213 -2.01 13.658
      vertex 0.957953 -2.01 14.0983
    endloop
  endfacet
  facet normal -0.707107 -1.57009e-16 -0.707107
    outer loop
      vertex 2.50795 10.5 12.9721
      vertex 2.50795 -2.01 12.9721
      vertex 1.82213 10.5 13.658
    endloop
  endfacet
  facet normal -0.707107 -1.57009e-16 -0.707107
    outer loop
      vertex 1.82213 10.5 13.658
      vertex 2.50795 -2.01 12.9721
      vertex 1.82213 -2.01 13.658
    endloop
  endfacet
  facet normal -0.891007 -1.00806e-16 -0.45399
    outer loop
      vertex 2.94827 10.5 12.108
      vertex 2.94827 -2.01 12.108
      vertex 2.50795 10.5 12.9721
    endloop
  endfacet
  facet normal -0.891007 -1.00806e-16 -0.45399
    outer loop
      vertex 2.50795 10.5 12.9721
      vertex 2.94827 -2.01 12.108
      vertex 2.50795 -2.01 12.9721
    endloop
  endfacet
  facet normal -0.987688 -3.47355e-17 -0.156435
    outer loop
      vertex 3.1 10.5 11.15
      vertex 3.1 -2.01 11.15
      vertex 2.94827 10.5 12.108
    endloop
  endfacet
  facet normal -0.987688 -3.47355e-17 -0.156435
    outer loop
      vertex 2.94827 10.5 12.108
      vertex 3.1 -2.01 11.15
      vertex 2.94827 -2.01 12.108
    endloop
  endfacet
  facet normal -0.987688 3.47355e-17 0.156435
    outer loop
      vertex 3.1 10.5 11.15
      vertex 2.94827 10.5 10.192
      vertex 3.1 -2.01 11.15
    endloop
  endfacet
  facet normal -0.987688 3.47355e-17 0.156435
    outer loop
      vertex 3.1 -2.01 11.15
      vertex 2.94827 10.5 10.192
      vertex 2.94827 -2.01 10.192
    endloop
  endfacet
  facet normal -0.891007 1.00806e-16 0.45399
    outer loop
      vertex 2.94827 10.5 10.192
      vertex 2.50795 10.5 9.32787
      vertex 2.94827 -2.01 10.192
    endloop
  endfacet
  facet normal -0.891007 1.00806e-16 0.45399
    outer loop
      vertex 2.94827 -2.01 10.192
      vertex 2.50795 10.5 9.32787
      vertex 2.50795 -2.01 9.32787
    endloop
  endfacet
  facet normal -0.707107 1.57009e-16 0.707107
    outer loop
      vertex 2.50795 10.5 9.32787
      vertex 1.82213 10.5 8.64205
      vertex 2.50795 -2.01 9.32787
    endloop
  endfacet
  facet normal -0.707107 1.57009e-16 0.707107
    outer loop
      vertex 2.50795 -2.01 9.32787
      vertex 1.82213 10.5 8.64205
      vertex 1.82213 -2.01 8.64205
    endloop
  endfacet
  facet normal -0.45399 1.97843e-16 0.891007
    outer loop
      vertex 1.82213 -2.01 8.64205
      vertex 1.82213 10.5 8.64205
      vertex 0.957953 10.5 8.20172
    endloop
  endfacet
  facet normal -0.45399 1.97843e-16 0.891007
    outer loop
      vertex 0.957953 -2.01 8.20173
      vertex 1.82213 -2.01 8.64205
      vertex 0.957953 10.5 8.20172
    endloop
  endfacet
  facet normal -0.156435 2.19311e-16 0.987688
    outer loop
      vertex 0.957953 -2.01 8.20173
      vertex 0.957953 10.5 8.20172
      vertex 0 10.5 8.05
    endloop
  endfacet
  facet normal -0.156435 2.19311e-16 0.987688
    outer loop
      vertex 0 -2.01 8.05
      vertex 0.957953 -2.01 8.20173
      vertex 0 10.5 8.05
    endloop
  endfacet
  facet normal 0.156435 2.19311e-16 0.987688
    outer loop
      vertex 0 -2.01 8.05
      vertex 0 10.5 8.05
      vertex -0.957953 10.5 8.20172
    endloop
  endfacet
  facet normal 0.156435 2.19311e-16 0.987688
    outer loop
      vertex -0.957953 -2.01 8.20173
      vertex 0 -2.01 8.05
      vertex -0.957953 10.5 8.20172
    endloop
  endfacet
  facet normal 0.45399 1.97843e-16 0.891007
    outer loop
      vertex -0.957953 -2.01 8.20173
      vertex -0.957953 10.5 8.20172
      vertex -1.82213 10.5 8.64205
    endloop
  endfacet
  facet normal 0.45399 1.97843e-16 0.891007
    outer loop
      vertex -1.82213 -2.01 8.64205
      vertex -0.957953 -2.01 8.20173
      vertex -1.82213 10.5 8.64205
    endloop
  endfacet
  facet normal 0.707107 1.57009e-16 0.707107
    outer loop
      vertex -1.82213 -2.01 8.64205
      vertex -1.82213 10.5 8.64205
      vertex -2.50795 10.5 9.32787
    endloop
  endfacet
  facet normal 0.707107 1.57009e-16 0.707107
    outer loop
      vertex -2.50795 -2.01 9.32787
      vertex -1.82213 -2.01 8.64205
      vertex -2.50795 10.5 9.32787
    endloop
  endfacet
  facet normal 0.891007 1.00806e-16 0.45399
    outer loop
      vertex -2.50795 -2.01 9.32787
      vertex -2.50795 10.5 9.32787
      vertex -2.94827 10.5 10.192
    endloop
  endfacet
  facet normal 0.891007 1.00806e-16 0.45399
    outer loop
      vertex -2.94827 -2.01 10.192
      vertex -2.50795 -2.01 9.32787
      vertex -2.94827 10.5 10.192
    endloop
  endfacet
endsolid OpenSCAD_Model
