solid OpenSCAD_Model
  facet normal -1 0 0
    outer loop
      vertex -11.15 -7 0
      vertex -11.15 -7 22.3
      vertex -11.15 0 0
    endloop
  endfacet
  facet normal -1 0 0
    outer loop
      vertex -11.15 0 0
      vertex -11.15 -7 22.3
      vertex -11.15 0 22.3
    endloop
  endfacet
  facet normal 0 -1 0
    outer loop
      vertex -2.30005 -7 7.1662
      vertex -11.15 -7 0
      vertex 11.15 -7 0
    endloop
  endfacet
  facet normal 0 -1 0
    outer loop
      vertex -11.15 -7 22.3
      vertex -11.15 -7 0
      vertex -2.30005 -7 7.1662
    endloop
  endfacet
  facet normal 0 -1 0
    outer loop
      vertex -11.15 -7 22.3
      vertex -2.30005 -7 7.1662
      vertex -4.6001 -7 11.15
    endloop
  endfacet
  facet normal 0 -1 0
    outer loop
      vertex 11.15 -7 22.3
      vertex -11.15 -7 22.3
      vertex -2.30005 -7 15.1338
    endloop
  endfacet
  facet normal 0 -1 0
    outer loop
      vertex 11.15 -7 22.3
      vertex 2.30005 -7 15.1338
      vertex 11.15 -7 0
    endloop
  endfacet
  facet normal 0 -1 0
    outer loop
      vertex 11.15 -7 22.3
      vertex -2.30005 -7 15.1338
      vertex 2.30005 -7 15.1338
    endloop
  endfacet
  facet normal 0 -1 0
    outer loop
      vertex 2.30005 -7 15.1338
      vertex 4.6001 -7 11.15
      vertex 11.15 -7 0
    endloop
  endfacet
  facet normal 0 -1 0
    outer loop
      vertex 4.6001 -7 11.15
      vertex 2.30005 -7 7.1662
      vertex 11.15 -7 0
    endloop
  endfacet
  facet normal 0 -1 0
    outer loop
      vertex 2.30005 -7 7.1662
      vertex -2.30005 -7 7.1662
      vertex 11.15 -7 0
    endloop
  endfacet
  facet normal 0 -1 0
    outer loop
      vertex -4.6001 -7 11.15
      vertex -2.30005 -7 15.1338
      vertex -11.15 -7 22.3
    endloop
  endfacet
  facet normal 0 0 -1
    outer loop
      vertex -11.15 -7 0
      vertex -11.15 0 0
      vertex 11.15 -7 0
    endloop
  endfacet
  facet normal 0 0 -1
    outer loop
      vertex 11.15 -7 0
      vertex -11.15 0 0
      vertex -8.65 0 0
    endloop
  endfacet
  facet normal 0 0 -1
    outer loop
      vertex 11.15 -7 0
      vertex -8.65 0 0
      vertex -8.65 10.5 0
    endloop
  endfacet
  facet normal 0 0 -1
    outer loop
      vertex 8.65 0 0
      vertex -8.65 10.5 0
      vertex 8.65 10.5 0
    endloop
  endfacet
  facet normal 0 0 -1
    outer loop
      vertex 11.15 -7 0
      vertex -8.65 10.5 0
      vertex 8.65 0 0
    endloop
  endfacet
  facet normal 0 0 -1
    outer loop
      vertex 11.15 0 0
      vertex 11.15 -7 0
      vertex 8.65 0 0
    endloop
  endfacet
  facet normal 0 1 0
    outer loop
      vertex -8.65 0 22.3
      vertex -8.65 0 0
      vertex -11.15 0 22.3
    endloop
  endfacet
  facet normal 0 1 0
    outer loop
      vertex -11.15 0 22.3
      vertex -8.65 0 0
      vertex -11.15 0 0
    endloop
  endfacet
  facet normal 0 0 1
    outer loop
      vertex -11.15 0 22.3
      vertex -11.15 -7 22.3
      vertex 11.15 -7 22.3
    endloop
  endfacet
  facet normal 0 0 1
    outer loop
      vertex -8.65 0 22.3
      vertex -11.15 0 22.3
      vertex 11.15 -7 22.3
    endloop
  endfacet
  facet normal 0 0 1
    outer loop
      vertex 8.65 0 22.3
      vertex -8.65 0 22.3
      vertex 11.15 -7 22.3
    endloop
  endfacet
  facet normal 0 0 1
    outer loop
      vertex 11.15 0 22.3
      vertex 8.65 0 22.3
      vertex 11.15 -7 22.3
    endloop
  endfacet
  facet normal 0 0 1
    outer loop
      vertex 8.65 10.5 22.3
      vertex -8.65 0 22.3
      vertex 8.65 0 22.3
    endloop
  endfacet
  facet normal 0 0 1
    outer loop
      vertex -8.65 10.5 22.3
      vertex -8.65 0 22.3
      vertex 8.65 10.5 22.3
    endloop
  endfacet
  facet normal 1 0 0
    outer loop
      vertex 11.15 -7 22.3
      vertex 11.15 -7 0
      vertex 11.15 0 0
    endloop
  endfacet
  facet normal 1 0 0
    outer loop
      vertex 11.15 0 22.3
      vertex 11.15 -7 22.3
      vertex 11.15 0 0
    endloop
  endfacet
  facet normal 0 0 1
    outer loop
      vertex 2.30005 -7 7.1662
      vertex 2.30005 -3 7.1662
      vertex -2.30005 -3 7.1662
    endloop
  endfacet
  facet normal 0 0 1
    outer loop
      vertex -2.30005 -7 7.1662
      vertex 2.30005 -7 7.1662
      vertex -2.30005 -3 7.1662
    endloop
  endfacet
  facet normal 0.866025 0 0.5
    outer loop
      vertex -2.30005 -7 7.1662
      vertex -2.30005 -3 7.1662
      vertex -4.6001 -3 11.15
    endloop
  endfacet
  facet normal 0.866025 0 0.5
    outer loop
      vertex -4.6001 -7 11.15
      vertex -2.30005 -7 7.1662
      vertex -4.6001 -3 11.15
    endloop
  endfacet
  facet normal -0.866025 0 0.5
    outer loop
      vertex 4.6001 -3 11.15
      vertex 2.30005 -3 7.1662
      vertex 4.6001 -7 11.15
    endloop
  endfacet
  facet normal -0.866025 0 0.5
    outer loop
      vertex 4.6001 -7 11.15
      vertex 2.30005 -3 7.1662
      vertex 2.30005 -7 7.1662
    endloop
  endfacet
  facet normal -0.866025 0 -0.5
    outer loop
      vertex 4.6001 -3 11.15
      vertex 4.6001 -7 11.15
      vertex 2.30005 -3 15.1338
    endloop
  endfacet
  facet normal -0.866025 0 -0.5
    outer loop
      vertex 2.30005 -3 15.1338
      vertex 4.6001 -7 11.15
      vertex 2.30005 -7 15.1338
    endloop
  endfacet
  facet normal 0 0 -1
    outer loop
      vertex 2.30005 -3 15.1338
      vertex 2.30005 -7 15.1338
      vertex -2.30005 -3 15.1338
    endloop
  endfacet
  facet normal 0 0 -1
    outer loop
      vertex -2.30005 -3 15.1338
      vertex 2.30005 -7 15.1338
      vertex -2.30005 -7 15.1338
    endloop
  endfacet
  facet normal 0.866025 0 -0.5
    outer loop
      vertex -4.6001 -3 11.15
      vertex -2.30005 -3 15.1338
      vertex -2.30005 -7 15.1338
    endloop
  endfacet
  facet normal 0.866025 0 -0.5
    outer loop
      vertex -4.6001 -7 11.15
      vertex -4.6001 -3 11.15
      vertex -2.30005 -7 15.1338
    endloop
  endfacet
  facet normal 0 1 0
    outer loop
      vertex 11.15 0 22.3
      vertex 11.15 0 0
      vertex 8.65 0 22.3
    endloop
  endfacet
  facet normal 0 1 0
    outer loop
      vertex 8.65 0 22.3
      vertex 11.15 0 0
      vertex 8.65 0 0
    endloop
  endfacet
  facet normal 1 0 0
    outer loop
      vertex 8.65 0 22.3
      vertex 8.65 0 0
      vertex 8.65 10.5 0
    endloop
  endfacet
  facet normal 1 0 0
    outer loop
      vertex 8.65 10.5 22.3
      vertex 8.65 0 22.3
      vertex 8.65 10.5 0
    endloop
  endfacet
  facet normal 0 1 0
    outer loop
      vertex 1.52824 10.5 13.2534
      vertex -8.65 10.5 22.3
      vertex 8.65 10.5 22.3
    endloop
  endfacet
  facet normal 0 1 0
    outer loop
      vertex -8.65 10.5 0
      vertex -8.65 10.5 22.3
      vertex -2.6 10.5 11.15
    endloop
  endfacet
  facet normal 0 1 0
    outer loop
      vertex -8.65 10.5 0
      vertex -2.6 10.5 11.15
      vertex -2.47275 10.5 10.3466
    endloop
  endfacet
  facet normal 0 1 0
    outer loop
      vertex -8.65 10.5 0
      vertex -2.47275 10.5 10.3466
      vertex -2.10344 10.5 9.62176
    endloop
  endfacet
  facet normal 0 1 0
    outer loop
      vertex -8.65 10.5 0
      vertex -2.10344 10.5 9.62176
      vertex -1.52824 10.5 9.04656
    endloop
  endfacet
  facet normal 0 1 0
    outer loop
      vertex -8.65 10.5 0
      vertex -1.52824 10.5 9.04656
      vertex 8.65 10.5 0
    endloop
  endfacet
  facet normal 0 1 0
    outer loop
      vertex 0 10.5 8.55
      vertex 8.65 10.5 0
      vertex -0.803444 10.5 8.67725
    endloop
  endfacet
  facet normal 0 1 0
    outer loop
      vertex 0.803444 10.5 8.67725
      vertex 8.65 10.5 0
      vertex 0 10.5 8.55
    endloop
  endfacet
  facet normal 0 1 0
    outer loop
      vertex 2.10344 10.5 9.62176
      vertex 8.65 10.5 0
      vertex 1.52824 10.5 9.04656
    endloop
  endfacet
  facet normal 0 1 0
    outer loop
      vertex 0.803444 10.5 8.67725
      vertex 1.52824 10.5 9.04656
      vertex 8.65 10.5 0
    endloop
  endfacet
  facet normal 0 1 0
    outer loop
      vertex -2.10344 10.5 12.6782
      vertex -8.65 10.5 22.3
      vertex -1.52824 10.5 13.2534
    endloop
  endfacet
  facet normal 0 1 0
    outer loop
      vertex 8.65 10.5 0
      vertex 2.10344 10.5 9.62176
      vertex 8.65 10.5 22.3
    endloop
  endfacet
  facet normal 0 1 0
    outer loop
      vertex -1.52824 10.5 13.2534
      vertex -8.65 10.5 22.3
      vertex -0.803444 10.5 13.6227
    endloop
  endfacet
  facet normal 0 1 0
    outer loop
      vertex 2.10344 10.5 9.62176
      vertex 2.47275 10.5 10.3466
      vertex 8.65 10.5 22.3
    endloop
  endfacet
  facet normal 0 1 0
    outer loop
      vertex 2.47275 10.5 10.3466
      vertex 2.6 10.5 11.15
      vertex 8.65 10.5 22.3
    endloop
  endfacet
  facet normal 0 1 0
    outer loop
      vertex -0.803444 10.5 13.6227
      vertex -8.65 10.5 22.3
      vertex 0 10.5 13.75
    endloop
  endfacet
  facet normal 0 1 0
    outer loop
      vertex 2.6 10.5 11.15
      vertex 2.47275 10.5 11.9534
      vertex 8.65 10.5 22.3
    endloop
  endfacet
  facet normal 0 1 0
    outer loop
      vertex 0 10.5 13.75
      vertex -8.65 10.5 22.3
      vertex 0.803444 10.5 13.6227
    endloop
  endfacet
  facet normal 0 1 0
    outer loop
      vertex 2.47275 10.5 11.9534
      vertex 2.10344 10.5 12.6782
      vertex 8.65 10.5 22.3
    endloop
  endfacet
  facet normal 0 1 0
    outer loop
      vertex 2.10344 10.5 12.6782
      vertex 1.52824 10.5 13.2534
      vertex 8.65 10.5 22.3
    endloop
  endfacet
  facet normal 0 1 0
    outer loop
      vertex 0.803444 10.5 13.6227
      vertex -8.65 10.5 22.3
      vertex 1.52824 10.5 13.2534
    endloop
  endfacet
  facet normal 0 1 0
    outer loop
      vertex -2.47275 10.5 11.9534
      vertex -8.65 10.5 22.3
      vertex -2.10344 10.5 12.6782
    endloop
  endfacet
  facet normal 0 1 0
    outer loop
      vertex -2.6 10.5 11.15
      vertex -8.65 10.5 22.3
      vertex -2.47275 10.5 11.9534
    endloop
  endfacet
  facet normal 0 1 0
    outer loop
      vertex -0.803444 10.5 8.67725
      vertex 8.65 10.5 0
      vertex -1.52824 10.5 9.04656
    endloop
  endfacet
  facet normal -1 0 0
    outer loop
      vertex -8.65 0 0
      vertex -8.65 0 22.3
      vertex -8.65 10.5 0
    endloop
  endfacet
  facet normal -1 0 0
    outer loop
      vertex -8.65 10.5 0
      vertex -8.65 0 22.3
      vertex -8.65 10.5 22.3
    endloop
  endfacet
  facet normal 0 -1 0
    outer loop
      vertex 2.10344 -3 9.62176
      vertex 2.30005 -3 7.1662
      vertex 4.6001 -3 11.15
    endloop
  endfacet
  facet normal 0 -1 0
    outer loop
      vertex -4.6001 -3 11.15
      vertex -2.6 -3 11.15
      vertex -2.30005 -3 15.1338
    endloop
  endfacet
  facet normal 0 -1 0
    outer loop
      vertex -4.6001 -3 11.15
      vertex -2.30005 -3 7.1662
      vertex -2.6 -3 11.15
    endloop
  endfacet
  facet normal 0 -1 0
    outer loop
      vertex -2.6 -3 11.15
      vertex -2.47275 -3 11.9534
      vertex -2.30005 -3 15.1338
    endloop
  endfacet
  facet normal 0 -1 0
    outer loop
      vertex 0.803444 -3 13.6227
      vertex 1.52824 -3 13.2534
      vertex 2.30005 -3 15.1338
    endloop
  endfacet
  facet normal 0 -1 0
    outer loop
      vertex 2.47275 -3 10.3466
      vertex 2.10344 -3 9.62176
      vertex 4.6001 -3 11.15
    endloop
  endfacet
  facet normal 0 -1 0
    outer loop
      vertex -2.30005 -3 15.1338
      vertex -2.10344 -3 12.6782
      vertex -1.52824 -3 13.2534
    endloop
  endfacet
  facet normal 0 -1 0
    outer loop
      vertex -2.30005 -3 15.1338
      vertex -0.803444 -3 13.6227
      vertex 2.30005 -3 15.1338
    endloop
  endfacet
  facet normal 0 -1 0
    outer loop
      vertex -2.30005 -3 15.1338
      vertex -1.52824 -3 13.2534
      vertex -0.803444 -3 13.6227
    endloop
  endfacet
  facet normal 0 -1 0
    outer loop
      vertex -1.52824 -3 9.04656
      vertex -2.10344 -3 9.62176
      vertex -2.30005 -3 7.1662
    endloop
  endfacet
  facet normal 0 -1 0
    outer loop
      vertex 0 -3 13.75
      vertex 0.803444 -3 13.6227
      vertex 2.30005 -3 15.1338
    endloop
  endfacet
  facet normal 0 -1 0
    outer loop
      vertex 2.30005 -3 15.1338
      vertex 1.52824 -3 13.2534
      vertex 4.6001 -3 11.15
    endloop
  endfacet
  facet normal 0 -1 0
    outer loop
      vertex 1.52824 -3 13.2534
      vertex 2.10344 -3 12.6782
      vertex 4.6001 -3 11.15
    endloop
  endfacet
  facet normal 0 -1 0
    outer loop
      vertex -2.10344 -3 9.62176
      vertex -2.47275 -3 10.3466
      vertex -2.30005 -3 7.1662
    endloop
  endfacet
  facet normal 0 -1 0
    outer loop
      vertex 2.10344 -3 12.6782
      vertex 2.47275 -3 11.9534
      vertex 4.6001 -3 11.15
    endloop
  endfacet
  facet normal 0 -1 0
    outer loop
      vertex 2.47275 -3 11.9534
      vertex 2.6 -3 11.15
      vertex 4.6001 -3 11.15
    endloop
  endfacet
  facet normal 0 -1 0
    outer loop
      vertex 2.6 -3 11.15
      vertex 2.47275 -3 10.3466
      vertex 4.6001 -3 11.15
    endloop
  endfacet
  facet normal 0 -1 0
    outer loop
      vertex 1.52824 -3 9.04656
      vertex 2.30005 -3 7.1662
      vertex 2.10344 -3 9.62176
    endloop
  endfacet
  facet normal 0 -1 0
    outer loop
      vertex 0.803444 -3 8.67725
      vertex 2.30005 -3 7.1662
      vertex 1.52824 -3 9.04656
    endloop
  endfacet
  facet normal 0 -1 0
    outer loop
      vertex -2.30005 -3 7.1662
      vertex 2.30005 -3 7.1662
      vertex 0.803444 -3 8.67725
    endloop
  endfacet
  facet normal 0 -1 0
    outer loop
      vertex 0.803444 -3 8.67725
      vertex 0 -3 8.55
      vertex -2.30005 -3 7.1662
    endloop
  endfacet
  facet normal 0 -1 0
    outer loop
      vertex -0.803444 -3 8.67725
      vertex -1.52824 -3 9.04656
      vertex -2.30005 -3 7.1662
    endloop
  endfacet
  facet normal 0 -1 0
    outer loop
      vertex -2.6 -3 11.15
      vertex -2.30005 -3 7.1662
      vertex -2.47275 -3 10.3466
    endloop
  endfacet
  facet normal 0 -1 0
    outer loop
      vertex -2.47275 -3 11.9534
      vertex -2.10344 -3 12.6782
      vertex -2.30005 -3 15.1338
    endloop
  endfacet
  facet normal 0 -1 0
    outer loop
      vertex -0.803444 -3 13.6227
      vertex 0 -3 13.75
      vertex 2.30005 -3 15.1338
    endloop
  endfacet
  facet normal 0 -1 0
    outer loop
      vertex 0 -3 8.55
      vertex -0.803444 -3 8.67725
      vertex -2.30005 -3 7.1662
    endloop
  endfacet
  facet normal 0.987688 0 0.156435
    outer loop
      vertex -2.47275 -3 10.3466
      vertex -2.47275 10.5 10.3466
      vertex -2.6 10.5 11.15
    endloop
  endfacet
  facet normal 0.987688 0 0.156435
    outer loop
      vertex -2.6 -3 11.15
      vertex -2.47275 -3 10.3466
      vertex -2.6 10.5 11.15
    endloop
  endfacet
  facet normal 0.987688 0 -0.156435
    outer loop
      vertex -2.6 10.5 11.15
      vertex -2.47275 10.5 11.9534
      vertex -2.47275 -3 11.9534
    endloop
  endfacet
  facet normal 0.987688 0 -0.156435
    outer loop
      vertex -2.6 -3 11.15
      vertex -2.6 10.5 11.15
      vertex -2.47275 -3 11.9534
    endloop
  endfacet
  facet normal 0.891006 0 -0.453991
    outer loop
      vertex -2.47275 10.5 11.9534
      vertex -2.10344 10.5 12.6782
      vertex -2.10344 -3 12.6782
    endloop
  endfacet
  facet normal 0.891006 0 -0.453991
    outer loop
      vertex -2.47275 -3 11.9534
      vertex -2.47275 10.5 11.9534
      vertex -2.10344 -3 12.6782
    endloop
  endfacet
  facet normal 0.707107 0 -0.707107
    outer loop
      vertex -2.10344 10.5 12.6782
      vertex -1.52824 10.5 13.2534
      vertex -1.52824 -3 13.2534
    endloop
  endfacet
  facet normal 0.707107 0 -0.707107
    outer loop
      vertex -2.10344 -3 12.6782
      vertex -2.10344 10.5 12.6782
      vertex -1.52824 -3 13.2534
    endloop
  endfacet
  facet normal 0.45399 0 -0.891007
    outer loop
      vertex -0.803444 10.5 13.6227
      vertex -0.803444 -3 13.6227
      vertex -1.52824 10.5 13.2534
    endloop
  endfacet
  facet normal 0.45399 0 -0.891007
    outer loop
      vertex -1.52824 10.5 13.2534
      vertex -0.803444 -3 13.6227
      vertex -1.52824 -3 13.2534
    endloop
  endfacet
  facet normal 0.156435 0 -0.987688
    outer loop
      vertex 0 10.5 13.75
      vertex 0 -3 13.75
      vertex -0.803444 10.5 13.6227
    endloop
  endfacet
  facet normal 0.156435 0 -0.987688
    outer loop
      vertex -0.803444 10.5 13.6227
      vertex 0 -3 13.75
      vertex -0.803444 -3 13.6227
    endloop
  endfacet
  facet normal -0.156435 0 -0.987688
    outer loop
      vertex 0.803444 10.5 13.6227
      vertex 0.803444 -3 13.6227
      vertex 0 10.5 13.75
    endloop
  endfacet
  facet normal -0.156435 0 -0.987688
    outer loop
      vertex 0 10.5 13.75
      vertex 0.803444 -3 13.6227
      vertex 0 -3 13.75
    endloop
  endfacet
  facet normal -0.45399 0 -0.891007
    outer loop
      vertex 1.52824 10.5 13.2534
      vertex 1.52824 -3 13.2534
      vertex 0.803444 10.5 13.6227
    endloop
  endfacet
  facet normal -0.45399 0 -0.891007
    outer loop
      vertex 0.803444 10.5 13.6227
      vertex 1.52824 -3 13.2534
      vertex 0.803444 -3 13.6227
    endloop
  endfacet
  facet normal -0.707107 0 -0.707107
    outer loop
      vertex 2.10344 10.5 12.6782
      vertex 2.10344 -3 12.6782
      vertex 1.52824 10.5 13.2534
    endloop
  endfacet
  facet normal -0.707107 0 -0.707107
    outer loop
      vertex 1.52824 10.5 13.2534
      vertex 2.10344 -3 12.6782
      vertex 1.52824 -3 13.2534
    endloop
  endfacet
  facet normal -0.891006 0 -0.453991
    outer loop
      vertex 2.47275 10.5 11.9534
      vertex 2.47275 -3 11.9534
      vertex 2.10344 10.5 12.6782
    endloop
  endfacet
  facet normal -0.891006 0 -0.453991
    outer loop
      vertex 2.10344 10.5 12.6782
      vertex 2.47275 -3 11.9534
      vertex 2.10344 -3 12.6782
    endloop
  endfacet
  facet normal -0.987688 0 -0.156435
    outer loop
      vertex 2.6 10.5 11.15
      vertex 2.6 -3 11.15
      vertex 2.47275 10.5 11.9534
    endloop
  endfacet
  facet normal -0.987688 0 -0.156435
    outer loop
      vertex 2.47275 10.5 11.9534
      vertex 2.6 -3 11.15
      vertex 2.47275 -3 11.9534
    endloop
  endfacet
  facet normal -0.987688 0 0.156435
    outer loop
      vertex 2.6 10.5 11.15
      vertex 2.47275 10.5 10.3466
      vertex 2.6 -3 11.15
    endloop
  endfacet
  facet normal -0.987688 0 0.156435
    outer loop
      vertex 2.6 -3 11.15
      vertex 2.47275 10.5 10.3466
      vertex 2.47275 -3 10.3466
    endloop
  endfacet
  facet normal -0.891006 0 0.453991
    outer loop
      vertex 2.47275 10.5 10.3466
      vertex 2.10344 10.5 9.62176
      vertex 2.47275 -3 10.3466
    endloop
  endfacet
  facet normal -0.891006 0 0.453991
    outer loop
      vertex 2.47275 -3 10.3466
      vertex 2.10344 10.5 9.62176
      vertex 2.10344 -3 9.62176
    endloop
  endfacet
  facet normal -0.707107 0 0.707106
    outer loop
      vertex 2.10344 10.5 9.62176
      vertex 1.52824 10.5 9.04656
      vertex 2.10344 -3 9.62176
    endloop
  endfacet
  facet normal -0.707107 0 0.707106
    outer loop
      vertex 2.10344 -3 9.62176
      vertex 1.52824 10.5 9.04656
      vertex 1.52824 -3 9.04656
    endloop
  endfacet
  facet normal -0.45399 0 0.891007
    outer loop
      vertex 1.52824 -3 9.04656
      vertex 1.52824 10.5 9.04656
      vertex 0.803444 10.5 8.67725
    endloop
  endfacet
  facet normal -0.45399 0 0.891007
    outer loop
      vertex 0.803444 -3 8.67725
      vertex 1.52824 -3 9.04656
      vertex 0.803444 10.5 8.67725
    endloop
  endfacet
  facet normal -0.156434 0 0.987688
    outer loop
      vertex 0.803444 -3 8.67725
      vertex 0.803444 10.5 8.67725
      vertex 0 10.5 8.55
    endloop
  endfacet
  facet normal -0.156434 0 0.987688
    outer loop
      vertex 0 -3 8.55
      vertex 0.803444 -3 8.67725
      vertex 0 10.5 8.55
    endloop
  endfacet
  facet normal 0.156434 0 0.987688
    outer loop
      vertex 0 -3 8.55
      vertex 0 10.5 8.55
      vertex -0.803444 10.5 8.67725
    endloop
  endfacet
  facet normal 0.156434 0 0.987688
    outer loop
      vertex -0.803444 -3 8.67725
      vertex 0 -3 8.55
      vertex -0.803444 10.5 8.67725
    endloop
  endfacet
  facet normal 0.45399 0 0.891007
    outer loop
      vertex -0.803444 -3 8.67725
      vertex -0.803444 10.5 8.67725
      vertex -1.52824 10.5 9.04656
    endloop
  endfacet
  facet normal 0.45399 0 0.891007
    outer loop
      vertex -1.52824 -3 9.04656
      vertex -0.803444 -3 8.67725
      vertex -1.52824 10.5 9.04656
    endloop
  endfacet
  facet normal 0.707107 0 0.707106
    outer loop
      vertex -1.52824 -3 9.04656
      vertex -1.52824 10.5 9.04656
      vertex -2.10344 10.5 9.62176
    endloop
  endfacet
  facet normal 0.707107 0 0.707106
    outer loop
      vertex -2.10344 -3 9.62176
      vertex -1.52824 -3 9.04656
      vertex -2.10344 10.5 9.62176
    endloop
  endfacet
  facet normal 0.891006 0 0.453991
    outer loop
      vertex -2.10344 -3 9.62176
      vertex -2.10344 10.5 9.62176
      vertex -2.47275 10.5 10.3466
    endloop
  endfacet
  facet normal 0.891006 0 0.453991
    outer loop
      vertex -2.47275 -3 10.3466
      vertex -2.10344 -3 9.62176
      vertex -2.47275 10.5 10.3466
    endloop
  endfacet
endsolid OpenSCAD_Model
