solid OpenSCAD_Model
  facet normal -1 0 0
    outer loop
      vertex -25.5 -32 3.91887e-15
      vertex -25.5 24.5 41.5
      vertex -25.5 24.5 -3.00038e-15
    endloop
  endfacet
  facet normal -1 0 0
    outer loop
      vertex -25.5 -32 3.91887e-15
      vertex -25.5 -32 41.5
      vertex -25.5 24.5 41.5
    endloop
  endfacet
  facet normal 0 1 -1.71215e-16
    outer loop
      vertex 25.5 24.5 -3.00038e-15
      vertex -25.5 24.5 41.5
      vertex 25.5 24.5 41.5
    endloop
  endfacet
  facet normal 0 1 -1.71215e-16
    outer loop
      vertex 25.5 24.5 -3.00038e-15
      vertex -25.5 24.5 -3.00038e-15
      vertex -25.5 24.5 41.5
    endloop
  endfacet
  facet normal 0 1.2919e-16 1
    outer loop
      vertex -24 -32 41.5
      vertex -24 23 41.5
      vertex -25.5 -32 41.5
    endloop
  endfacet
  facet normal -0 1.2919e-16 1
    outer loop
      vertex 24 -32 41.5
      vertex 25.5 -32 41.5
      vertex 24 23 41.5
    endloop
  endfacet
  facet normal 0 -0 1
    outer loop
      vertex -24 23 41.5
      vertex 24 23 41.5
      vertex -25.5 24.5 41.5
    endloop
  endfacet
  facet normal 1.2576e-16 1.2576e-16 1
    outer loop
      vertex -25.5 -32 41.5
      vertex -24 23 41.5
      vertex -25.5 24.5 41.5
    endloop
  endfacet
  facet normal 0 -0 1
    outer loop
      vertex 24 23 41.5
      vertex 25.5 24.5 41.5
      vertex -25.5 24.5 41.5
    endloop
  endfacet
  facet normal -1.2576e-16 1.2576e-16 1
    outer loop
      vertex 25.5 -32 41.5
      vertex 25.5 24.5 41.5
      vertex 24 23 41.5
    endloop
  endfacet
  facet normal 0 -1.22465e-16 -1
    outer loop
      vertex 25.5 -32 3.91887e-15
      vertex -25.5 24.5 -3.00038e-15
      vertex 25.5 24.5 -3.00038e-15
    endloop
  endfacet
  facet normal -0 -1.22465e-16 -1
    outer loop
      vertex 25.5 -32 3.91887e-15
      vertex -25.5 -32 3.91887e-15
      vertex -25.5 24.5 -3.00038e-15
    endloop
  endfacet
  facet normal 1 0 0
    outer loop
      vertex 25.5 -32 3.91887e-15
      vertex 25.5 24.5 41.5
      vertex 25.5 -32 41.5
    endloop
  endfacet
  facet normal 1 -0 0
    outer loop
      vertex 25.5 -32 3.91887e-15
      vertex 25.5 24.5 -3.00038e-15
      vertex 25.5 24.5 41.5
    endloop
  endfacet
  facet normal 1 0 0
    outer loop
      vertex -24 23 41.5
      vertex -24 -32 1.5
      vertex -24 23 1.5
    endloop
  endfacet
  facet normal 1 0 0
    outer loop
      vertex -24 23 41.5
      vertex -24 -32 41.5
      vertex -24 -32 1.5
    endloop
  endfacet
  facet normal 0 -1 1.77636e-16
    outer loop
      vertex -24 23 41.5
      vertex 24 23 1.5
      vertex 24 23 41.5
    endloop
  endfacet
  facet normal 0 -1 1.77636e-16
    outer loop
      vertex -24 23 41.5
      vertex -24 23 1.5
      vertex 24 23 1.5
    endloop
  endfacet
  facet normal -0 1.21115e-16 1
    outer loop
      vertex -24 23 1.5
      vertex 24 -32 1.5
      vertex 24 23 1.5
    endloop
  endfacet
  facet normal 0 1.21115e-16 1
    outer loop
      vertex -24 23 1.5
      vertex -24 -32 1.5
      vertex 24 -32 1.5
    endloop
  endfacet
  facet normal -1 -0 0
    outer loop
      vertex 24 23 41.5
      vertex 24 -32 1.5
      vertex 24 -32 41.5
    endloop
  endfacet
  facet normal -1 0 0
    outer loop
      vertex 24 23 41.5
      vertex 24 23 1.5
      vertex 24 -32 1.5
    endloop
  endfacet
  facet normal 0 -1 0
    outer loop
      vertex 24 -32 41.5
      vertex 24 -32 1.5
      vertex 25.5 -32 41.5
    endloop
  endfacet
  facet normal 0 -1 -0
    outer loop
      vertex -24 -32 1.5
      vertex -25.5 -32 3.91887e-15
      vertex 24 -32 1.5
    endloop
  endfacet
  facet normal 0 -1 -0
    outer loop
      vertex 24 -32 1.5
      vertex -25.5 -32 3.91887e-15
      vertex 25.5 -32 3.91887e-15
    endloop
  endfacet
  facet normal 0 -1 -0
    outer loop
      vertex 25.5 -32 41.5
      vertex 24 -32 1.5
      vertex 25.5 -32 3.91887e-15
    endloop
  endfacet
  facet normal -0 -1 -0
    outer loop
      vertex -24 -32 41.5
      vertex -25.5 -32 41.5
      vertex -24 -32 1.5
    endloop
  endfacet
  facet normal 0 -1 0
    outer loop
      vertex -25.5 -32 41.5
      vertex -25.5 -32 3.91887e-15
      vertex -24 -32 1.5
    endloop
  endfacet
endsolid OpenSCAD_Model
