solid OpenSCAD_Model
  facet normal -1 0 0
    outer loop
      vertex -8.65 0 0
      vertex -8.65 0 46
      vertex -8.65 11 0
    endloop
  endfacet
  facet normal -1 0 0
    outer loop
      vertex -8.65 11 0
      vertex -8.65 0 46
      vertex -8.65 11 46
    endloop
  endfacet
  facet normal 0 -1 0
    outer loop
      vertex -0.803444 0 7.52725
      vertex -8.65 0 0
      vertex 8.65 0 0
    endloop
  endfacet
  facet normal 0 -1 0
    outer loop
      vertex -5.7501 0 23
      vertex -8.65 0 0
      vertex -2.87505 0 18.0203
    endloop
  endfacet
  facet normal 0 -1 0
    outer loop
      vertex -2.87505 0 27.9797
      vertex -2.47275 0 35.1966
      vertex -8.65 0 46
    endloop
  endfacet
  facet normal 0 -1 0
    outer loop
      vertex -8.65 0 46
      vertex -8.65 0 0
      vertex -5.7501 0 23
    endloop
  endfacet
  facet normal 0 -1 0
    outer loop
      vertex -2.87505 0 27.9797
      vertex 2.87505 0 27.9797
      vertex -1.52824 0 33.8966
    endloop
  endfacet
  facet normal 0 -1 0
    outer loop
      vertex -2.6 0 10
      vertex -2.47275 0 10.8034
      vertex -2.87505 0 18.0203
    endloop
  endfacet
  facet normal 0 -1 0
    outer loop
      vertex 8.65 0 46
      vertex 5.7501 0 23
      vertex 8.65 0 0
    endloop
  endfacet
  facet normal 0 -1 0
    outer loop
      vertex 8.65 0 46
      vertex 2.87505 0 27.9797
      vertex 5.7501 0 23
    endloop
  endfacet
  facet normal 0 -1 0
    outer loop
      vertex -2.6 0 10
      vertex -8.65 0 0
      vertex -2.47275 0 9.19656
    endloop
  endfacet
  facet normal 0 -1 0
    outer loop
      vertex -2.87505 0 18.0203
      vertex -8.65 0 0
      vertex -2.6 0 10
    endloop
  endfacet
  facet normal 0 -1 0
    outer loop
      vertex 0 0 7.4
      vertex -0.803444 0 7.52725
      vertex 8.65 0 0
    endloop
  endfacet
  facet normal 0 -1 0
    outer loop
      vertex -2.6 0 36
      vertex -2.47275 0 36.8034
      vertex -8.65 0 46
    endloop
  endfacet
  facet normal 0 -1 0
    outer loop
      vertex -2.87505 0 18.0203
      vertex -2.47275 0 10.8034
      vertex -2.10344 0 11.5282
    endloop
  endfacet
  facet normal 0 -1 0
    outer loop
      vertex -2.87505 0 18.0203
      vertex -2.10344 0 11.5282
      vertex -1.52824 0 12.1034
    endloop
  endfacet
  facet normal 0 -1 0
    outer loop
      vertex 2.10344 0 8.47176
      vertex 1.52824 0 7.89656
      vertex 8.65 0 0
    endloop
  endfacet
  facet normal 0 -1 0
    outer loop
      vertex -2.87505 0 18.0203
      vertex -1.52824 0 12.1034
      vertex -0.803444 0 12.4727
    endloop
  endfacet
  facet normal 0 -1 0
    outer loop
      vertex 1.52824 0 7.89656
      vertex 0.803444 0 7.52725
      vertex 8.65 0 0
    endloop
  endfacet
  facet normal 0 -1 0
    outer loop
      vertex -2.87505 0 18.0203
      vertex -0.803444 0 12.4727
      vertex 0 0 12.6
    endloop
  endfacet
  facet normal 0 -1 0
    outer loop
      vertex 2.6 0 10
      vertex 2.47275 0 9.19656
      vertex 8.65 0 0
    endloop
  endfacet
  facet normal 0 -1 0
    outer loop
      vertex -5.7501 0 23
      vertex -2.87505 0 27.9797
      vertex -8.65 0 46
    endloop
  endfacet
  facet normal 0 -1 0
    outer loop
      vertex -2.87505 0 27.9797
      vertex -1.52824 0 33.8966
      vertex -2.10344 0 34.4718
    endloop
  endfacet
  facet normal 0 -1 0
    outer loop
      vertex -2.87505 0 27.9797
      vertex -2.10344 0 34.4718
      vertex -2.47275 0 35.1966
    endloop
  endfacet
  facet normal 0 -1 0
    outer loop
      vertex 2.10344 0 11.5282
      vertex 2.47275 0 10.8034
      vertex 8.65 0 0
    endloop
  endfacet
  facet normal 0 -1 0
    outer loop
      vertex 2.47275 0 10.8034
      vertex 2.6 0 10
      vertex 8.65 0 0
    endloop
  endfacet
  facet normal 0 -1 0
    outer loop
      vertex 2.47275 0 9.19656
      vertex 2.10344 0 8.47176
      vertex 8.65 0 0
    endloop
  endfacet
  facet normal 0 -1 0
    outer loop
      vertex 0.803444 0 7.52725
      vertex 0 0 7.4
      vertex 8.65 0 0
    endloop
  endfacet
  facet normal 0 -1 0
    outer loop
      vertex -1.52824 0 7.89656
      vertex -8.65 0 0
      vertex -0.803444 0 7.52725
    endloop
  endfacet
  facet normal 0 -1 0
    outer loop
      vertex -2.10344 0 8.47176
      vertex -8.65 0 0
      vertex -1.52824 0 7.89656
    endloop
  endfacet
  facet normal 0 -1 0
    outer loop
      vertex -2.47275 0 9.19656
      vertex -8.65 0 0
      vertex -2.10344 0 8.47176
    endloop
  endfacet
  facet normal 0 -1 0
    outer loop
      vertex 0 0 12.6
      vertex 0.803444 0 12.4727
      vertex -2.87505 0 18.0203
    endloop
  endfacet
  facet normal 0 -1 0
    outer loop
      vertex -2.6 0 36
      vertex -8.65 0 46
      vertex -2.47275 0 35.1966
    endloop
  endfacet
  facet normal 0 -1 0
    outer loop
      vertex 2.10344 0 34.4718
      vertex 1.52824 0 33.8966
      vertex 2.87505 0 27.9797
    endloop
  endfacet
  facet normal 0 -1 0
    outer loop
      vertex -2.10344 0 37.5282
      vertex -8.65 0 46
      vertex -2.47275 0 36.8034
    endloop
  endfacet
  facet normal 0 -1 0
    outer loop
      vertex -1.52824 0 38.1034
      vertex -8.65 0 46
      vertex -2.10344 0 37.5282
    endloop
  endfacet
  facet normal 0 -1 0
    outer loop
      vertex -0.803444 0 38.4727
      vertex 0 0 38.6
      vertex 8.65 0 46
    endloop
  endfacet
  facet normal 0 -1 0
    outer loop
      vertex 8.65 0 46
      vertex -8.65 0 46
      vertex -1.52824 0 38.1034
    endloop
  endfacet
  facet normal 0 -1 0
    outer loop
      vertex 2.6 0 36
      vertex 2.47275 0 35.1966
      vertex 2.87505 0 27.9797
    endloop
  endfacet
  facet normal 0 -1 0
    outer loop
      vertex 0 0 33.4
      vertex -0.803444 0 33.5273
      vertex 2.87505 0 27.9797
    endloop
  endfacet
  facet normal 0 -1 0
    outer loop
      vertex 1.52824 0 33.8966
      vertex 0.803444 0 33.5273
      vertex 2.87505 0 27.9797
    endloop
  endfacet
  facet normal 0 -1 0
    outer loop
      vertex 8.65 0 46
      vertex 0 0 38.6
      vertex 0.803444 0 38.4727
    endloop
  endfacet
  facet normal 0 -1 0
    outer loop
      vertex -0.803444 0 33.5273
      vertex -1.52824 0 33.8966
      vertex 2.87505 0 27.9797
    endloop
  endfacet
  facet normal 0 -1 0
    outer loop
      vertex 8.65 0 46
      vertex 0.803444 0 38.4727
      vertex 1.52824 0 38.1034
    endloop
  endfacet
  facet normal 0 -1 0
    outer loop
      vertex 8.65 0 46
      vertex 1.52824 0 38.1034
      vertex 2.10344 0 37.5282
    endloop
  endfacet
  facet normal 0 -1 0
    outer loop
      vertex 2.47275 0 35.1966
      vertex 2.10344 0 34.4718
      vertex 2.87505 0 27.9797
    endloop
  endfacet
  facet normal 0 -1 0
    outer loop
      vertex 8.65 0 46
      vertex 2.10344 0 37.5282
      vertex 2.47275 0 36.8034
    endloop
  endfacet
  facet normal 0 -1 0
    outer loop
      vertex 8.65 0 46
      vertex 2.6 0 36
      vertex 2.87505 0 27.9797
    endloop
  endfacet
  facet normal 0 -1 0
    outer loop
      vertex 8.65 0 46
      vertex 2.47275 0 36.8034
      vertex 2.6 0 36
    endloop
  endfacet
  facet normal 0 -1 0
    outer loop
      vertex 0.803444 0 33.5273
      vertex 0 0 33.4
      vertex 2.87505 0 27.9797
    endloop
  endfacet
  facet normal 0 -1 0
    outer loop
      vertex -1.52824 0 38.1034
      vertex -0.803444 0 38.4727
      vertex 8.65 0 46
    endloop
  endfacet
  facet normal 0 -1 0
    outer loop
      vertex 5.7501 0 23
      vertex 2.87505 0 18.0203
      vertex 8.65 0 0
    endloop
  endfacet
  facet normal 0 -1 0
    outer loop
      vertex 2.87505 0 18.0203
      vertex 2.10344 0 11.5282
      vertex 8.65 0 0
    endloop
  endfacet
  facet normal 0 -1 0
    outer loop
      vertex 2.87505 0 18.0203
      vertex 1.52824 0 12.1034
      vertex 2.10344 0 11.5282
    endloop
  endfacet
  facet normal 0 -1 0
    outer loop
      vertex 2.87505 0 18.0203
      vertex 0.803444 0 12.4727
      vertex 1.52824 0 12.1034
    endloop
  endfacet
  facet normal 0 -1 0
    outer loop
      vertex 2.87505 0 18.0203
      vertex -2.87505 0 18.0203
      vertex 0.803444 0 12.4727
    endloop
  endfacet
  facet normal 0 0 -1
    outer loop
      vertex -8.65 0 0
      vertex -8.65 11 0
      vertex 8.65 0 0
    endloop
  endfacet
  facet normal 0 0 -1
    outer loop
      vertex 8.65 0 0
      vertex -8.65 11 0
      vertex 8.65 11 0
    endloop
  endfacet
  facet normal 0 1 0
    outer loop
      vertex -2.30005 11 39.9838
      vertex -8.65 11 46
      vertex 8.65 11 46
    endloop
  endfacet
  facet normal 0 1 0
    outer loop
      vertex -8.65 11 0
      vertex -8.65 11 46
      vertex -4.6001 11 10
    endloop
  endfacet
  facet normal 0 1 0
    outer loop
      vertex -2.30005 11 13.9838
      vertex -2.94827 11 22.042
      vertex -2.50795 11 21.1779
    endloop
  endfacet
  facet normal 0 1 0
    outer loop
      vertex -8.65 11 0
      vertex -4.6001 11 10
      vertex -2.30005 11 6.0162
    endloop
  endfacet
  facet normal 0 1 0
    outer loop
      vertex -8.65 11 0
      vertex -2.30005 11 6.0162
      vertex 8.65 11 0
    endloop
  endfacet
  facet normal 0 1 0
    outer loop
      vertex 2.30005 11 6.0162
      vertex 4.6001 11 10
      vertex 8.65 11 0
    endloop
  endfacet
  facet normal 0 1 0
    outer loop
      vertex -0.957953 11 25.9483
      vertex -4.6001 11 36
      vertex -2.30005 11 32.0162
    endloop
  endfacet
  facet normal 0 1 0
    outer loop
      vertex -4.6001 11 10
      vertex -8.65 11 46
      vertex -2.30005 11 13.9838
    endloop
  endfacet
  facet normal 0 1 0
    outer loop
      vertex -0.957953 11 25.9483
      vertex -8.65 11 46
      vertex -4.6001 11 36
    endloop
  endfacet
  facet normal 0 1 0
    outer loop
      vertex 1.82213 11 25.508
      vertex -2.30005 11 32.0162
      vertex 2.30005 11 32.0162
    endloop
  endfacet
  facet normal 0 1 0
    outer loop
      vertex -2.50795 11 24.8221
      vertex -8.65 11 46
      vertex -1.82213 11 25.508
    endloop
  endfacet
  facet normal 0 1 0
    outer loop
      vertex 8.65 11 0
      vertex 2.30005 11 32.0162
      vertex 4.6001 11 36
    endloop
  endfacet
  facet normal 0 1 0
    outer loop
      vertex 8.65 11 0
      vertex 4.6001 11 36
      vertex 8.65 11 46
    endloop
  endfacet
  facet normal 0 1 0
    outer loop
      vertex -2.30005 11 39.9838
      vertex 8.65 11 46
      vertex 2.30005 11 39.9838
    endloop
  endfacet
  facet normal 0 1 0
    outer loop
      vertex -4.6001 11 36
      vertex -8.65 11 46
      vertex -2.30005 11 39.9838
    endloop
  endfacet
  facet normal 0 1 0
    outer loop
      vertex -3.1 11 23
      vertex -8.65 11 46
      vertex -2.94827 11 23.958
    endloop
  endfacet
  facet normal 0 1 0
    outer loop
      vertex -2.30005 11 13.9838
      vertex -8.65 11 46
      vertex -3.1 11 23
    endloop
  endfacet
  facet normal 0 1 0
    outer loop
      vertex -2.30005 11 13.9838
      vertex -3.1 11 23
      vertex -2.94827 11 22.042
    endloop
  endfacet
  facet normal 0 1 0
    outer loop
      vertex 2.30005 11 39.9838
      vertex 8.65 11 46
      vertex 4.6001 11 36
    endloop
  endfacet
  facet normal 0 1 0
    outer loop
      vertex 0.957953 11 20.0517
      vertex 4.6001 11 10
      vertex 2.30005 11 13.9838
    endloop
  endfacet
  facet normal 0 1 0
    outer loop
      vertex -2.94827 11 23.958
      vertex -8.65 11 46
      vertex -2.50795 11 24.8221
    endloop
  endfacet
  facet normal 0 1 0
    outer loop
      vertex -0.957953 11 20.0517
      vertex 0 11 19.9
      vertex 2.30005 11 13.9838
    endloop
  endfacet
  facet normal 0 1 0
    outer loop
      vertex 1.82213 11 20.492
      vertex 8.65 11 0
      vertex 0.957953 11 20.0517
    endloop
  endfacet
  facet normal 0 1 0
    outer loop
      vertex 4.6001 11 10
      vertex 0.957953 11 20.0517
      vertex 8.65 11 0
    endloop
  endfacet
  facet normal 0 1 0
    outer loop
      vertex 2.50795 11 24.8221
      vertex 2.30005 11 32.0162
      vertex 2.94827 11 23.958
    endloop
  endfacet
  facet normal 0 1 0
    outer loop
      vertex 8.65 11 0
      vertex 1.82213 11 20.492
      vertex 2.50795 11 21.1779
    endloop
  endfacet
  facet normal 0 1 0
    outer loop
      vertex 8.65 11 0
      vertex 2.50795 11 21.1779
      vertex 2.94827 11 22.042
    endloop
  endfacet
  facet normal 0 1 0
    outer loop
      vertex 8.65 11 0
      vertex 2.94827 11 22.042
      vertex 3.1 11 23
    endloop
  endfacet
  facet normal 0 1 0
    outer loop
      vertex 8.65 11 0
      vertex 3.1 11 23
      vertex 2.30005 11 32.0162
    endloop
  endfacet
  facet normal 0 1 0
    outer loop
      vertex 3.1 11 23
      vertex 2.94827 11 23.958
      vertex 2.30005 11 32.0162
    endloop
  endfacet
  facet normal 0 1 0
    outer loop
      vertex 1.82213 11 25.508
      vertex 2.30005 11 32.0162
      vertex 2.50795 11 24.8221
    endloop
  endfacet
  facet normal 0 1 0
    outer loop
      vertex 0.957953 11 25.9483
      vertex -2.30005 11 32.0162
      vertex 1.82213 11 25.508
    endloop
  endfacet
  facet normal 0 1 0
    outer loop
      vertex -0.957953 11 25.9483
      vertex -2.30005 11 32.0162
      vertex 0 11 26.1
    endloop
  endfacet
  facet normal 0 1 0
    outer loop
      vertex 0 11 26.1
      vertex -2.30005 11 32.0162
      vertex 0.957953 11 25.9483
    endloop
  endfacet
  facet normal 0 1 0
    outer loop
      vertex -1.82213 11 25.508
      vertex -8.65 11 46
      vertex -0.957953 11 25.9483
    endloop
  endfacet
  facet normal 0 1 0
    outer loop
      vertex 0.957953 11 20.0517
      vertex 2.30005 11 13.9838
      vertex 0 11 19.9
    endloop
  endfacet
  facet normal 0 1 0
    outer loop
      vertex 2.30005 11 6.0162
      vertex 8.65 11 0
      vertex -2.30005 11 6.0162
    endloop
  endfacet
  facet normal 0 1 0
    outer loop
      vertex -2.30005 11 13.9838
      vertex -2.50795 11 21.1779
      vertex -1.82213 11 20.492
    endloop
  endfacet
  facet normal 0 1 0
    outer loop
      vertex -2.30005 11 13.9838
      vertex -1.82213 11 20.492
      vertex -0.957953 11 20.0517
    endloop
  endfacet
  facet normal 0 1 0
    outer loop
      vertex -2.30005 11 13.9838
      vertex -0.957953 11 20.0517
      vertex 2.30005 11 13.9838
    endloop
  endfacet
  facet normal 0 0 1
    outer loop
      vertex -8.65 11 46
      vertex -8.65 0 46
      vertex 8.65 0 46
    endloop
  endfacet
  facet normal 0 0 1
    outer loop
      vertex 8.65 11 46
      vertex -8.65 11 46
      vertex 8.65 0 46
    endloop
  endfacet
  facet normal 1 0 0
    outer loop
      vertex 8.65 0 46
      vertex 8.65 0 0
      vertex 8.65 11 0
    endloop
  endfacet
  facet normal 1 0 0
    outer loop
      vertex 8.65 11 46
      vertex 8.65 0 46
      vertex 8.65 11 0
    endloop
  endfacet
  facet normal 0.866025 1.11022e-16 0.5
    outer loop
      vertex -2.87505 0 18.0203
      vertex -2.87505 6 18.0203
      vertex -5.7501 6 23
    endloop
  endfacet
  facet normal 0.866025 1.11022e-16 0.5
    outer loop
      vertex -5.7501 0 23
      vertex -2.87505 0 18.0203
      vertex -5.7501 6 23
    endloop
  endfacet
  facet normal 0 2.22045e-16 1
    outer loop
      vertex 2.87505 0 18.0203
      vertex 2.87505 6 18.0203
      vertex -2.87505 6 18.0203
    endloop
  endfacet
  facet normal 0 2.22045e-16 1
    outer loop
      vertex -2.87505 0 18.0203
      vertex 2.87505 0 18.0203
      vertex -2.87505 6 18.0203
    endloop
  endfacet
  facet normal -0.866025 1.11022e-16 0.5
    outer loop
      vertex 5.7501 6 23
      vertex 2.87505 6 18.0203
      vertex 5.7501 0 23
    endloop
  endfacet
  facet normal -0.866025 1.11022e-16 0.5
    outer loop
      vertex 5.7501 0 23
      vertex 2.87505 6 18.0203
      vertex 2.87505 0 18.0203
    endloop
  endfacet
  facet normal -0.866025 -1.11022e-16 -0.5
    outer loop
      vertex 5.7501 6 23
      vertex 5.7501 0 23
      vertex 2.87505 6 27.9797
    endloop
  endfacet
  facet normal -0.866025 -1.11022e-16 -0.5
    outer loop
      vertex 2.87505 6 27.9797
      vertex 5.7501 0 23
      vertex 2.87505 0 27.9797
    endloop
  endfacet
  facet normal 0 -2.22045e-16 -1
    outer loop
      vertex 2.87505 6 27.9797
      vertex 2.87505 0 27.9797
      vertex -2.87505 6 27.9797
    endloop
  endfacet
  facet normal 0 -2.22045e-16 -1
    outer loop
      vertex -2.87505 6 27.9797
      vertex 2.87505 0 27.9797
      vertex -2.87505 0 27.9797
    endloop
  endfacet
  facet normal 0.866025 -1.11022e-16 -0.5
    outer loop
      vertex -5.7501 6 23
      vertex -2.87505 6 27.9797
      vertex -2.87505 0 27.9797
    endloop
  endfacet
  facet normal 0.866025 -1.11022e-16 -0.5
    outer loop
      vertex -5.7501 0 23
      vertex -5.7501 6 23
      vertex -2.87505 0 27.9797
    endloop
  endfacet
  facet normal 0.987688 3.47354e-17 0.156434
    outer loop
      vertex -2.47275 0 9.19656
      vertex -2.47275 5.99985 9.19656
      vertex -2.6 5.99985 10
    endloop
  endfacet
  facet normal 0.987688 3.47354e-17 0.156434
    outer loop
      vertex -2.6 0 10
      vertex -2.47275 0 9.19656
      vertex -2.6 5.99985 10
    endloop
  endfacet
  facet normal 0.891007 1.00806e-16 0.45399
    outer loop
      vertex -2.10344 0 8.47176
      vertex -2.10344 5.99985 8.47176
      vertex -2.47275 5.99985 9.19656
    endloop
  endfacet
  facet normal 0.891007 1.00806e-16 0.45399
    outer loop
      vertex -2.47275 0 9.19656
      vertex -2.10344 0 8.47176
      vertex -2.47275 5.99985 9.19656
    endloop
  endfacet
  facet normal 0.707107 1.57009e-16 0.707107
    outer loop
      vertex -1.52824 0 7.89656
      vertex -1.52824 5.99985 7.89656
      vertex -2.10344 5.99985 8.47176
    endloop
  endfacet
  facet normal 0.707107 1.57009e-16 0.707107
    outer loop
      vertex -2.10344 0 8.47176
      vertex -1.52824 0 7.89656
      vertex -2.10344 5.99985 8.47176
    endloop
  endfacet
  facet normal 0.45399 1.97843e-16 0.891007
    outer loop
      vertex -0.803444 0 7.52725
      vertex -0.803444 5.99985 7.52725
      vertex -1.52824 5.99985 7.89656
    endloop
  endfacet
  facet normal 0.45399 1.97843e-16 0.891007
    outer loop
      vertex -1.52824 0 7.89656
      vertex -0.803444 0 7.52725
      vertex -1.52824 5.99985 7.89656
    endloop
  endfacet
  facet normal 0.156434 2.19311e-16 0.987688
    outer loop
      vertex 0 0 7.4
      vertex 0 5.99985 7.4
      vertex -0.803444 5.99985 7.52725
    endloop
  endfacet
  facet normal 0.156434 2.19311e-16 0.987688
    outer loop
      vertex -0.803444 0 7.52725
      vertex 0 0 7.4
      vertex -0.803444 5.99985 7.52725
    endloop
  endfacet
  facet normal -0.156434 2.19311e-16 0.987688
    outer loop
      vertex 0.803444 0 7.52725
      vertex 0.803444 5.99985 7.52725
      vertex 0 5.99985 7.4
    endloop
  endfacet
  facet normal -0.156434 2.19311e-16 0.987688
    outer loop
      vertex 0 0 7.4
      vertex 0.803444 0 7.52725
      vertex 0 5.99985 7.4
    endloop
  endfacet
  facet normal -0.45399 1.97843e-16 0.891007
    outer loop
      vertex 1.52824 0 7.89656
      vertex 1.52824 5.99985 7.89656
      vertex 0.803444 5.99985 7.52725
    endloop
  endfacet
  facet normal -0.45399 1.97843e-16 0.891007
    outer loop
      vertex 0.803444 0 7.52725
      vertex 1.52824 0 7.89656
      vertex 0.803444 5.99985 7.52725
    endloop
  endfacet
  facet normal -0.707107 1.57009e-16 0.707107
    outer loop
      vertex 2.10344 5.99985 8.47176
      vertex 1.52824 5.99985 7.89656
      vertex 2.10344 0 8.47176
    endloop
  endfacet
  facet normal -0.707107 1.57009e-16 0.707107
    outer loop
      vertex 2.10344 0 8.47176
      vertex 1.52824 5.99985 7.89656
      vertex 1.52824 0 7.89656
    endloop
  endfacet
  facet normal -0.891007 1.00806e-16 0.45399
    outer loop
      vertex 2.47275 5.99985 9.19656
      vertex 2.10344 5.99985 8.47176
      vertex 2.47275 0 9.19656
    endloop
  endfacet
  facet normal -0.891007 1.00806e-16 0.45399
    outer loop
      vertex 2.47275 0 9.19656
      vertex 2.10344 5.99985 8.47176
      vertex 2.10344 0 8.47176
    endloop
  endfacet
  facet normal -0.987688 3.47354e-17 0.156434
    outer loop
      vertex 2.6 5.99985 10
      vertex 2.47275 5.99985 9.19656
      vertex 2.6 0 10
    endloop
  endfacet
  facet normal -0.987688 3.47354e-17 0.156434
    outer loop
      vertex 2.6 0 10
      vertex 2.47275 5.99985 9.19656
      vertex 2.47275 0 9.19656
    endloop
  endfacet
  facet normal -0.987688 -3.47354e-17 -0.156434
    outer loop
      vertex 2.6 5.99985 10
      vertex 2.6 0 10
      vertex 2.47275 5.99985 10.8034
    endloop
  endfacet
  facet normal -0.987688 -3.47354e-17 -0.156434
    outer loop
      vertex 2.47275 5.99985 10.8034
      vertex 2.6 0 10
      vertex 2.47275 0 10.8034
    endloop
  endfacet
  facet normal -0.891007 -1.00806e-16 -0.45399
    outer loop
      vertex 2.47275 5.99985 10.8034
      vertex 2.47275 0 10.8034
      vertex 2.10344 5.99985 11.5282
    endloop
  endfacet
  facet normal -0.891007 -1.00806e-16 -0.45399
    outer loop
      vertex 2.10344 5.99985 11.5282
      vertex 2.47275 0 10.8034
      vertex 2.10344 0 11.5282
    endloop
  endfacet
  facet normal -0.707107 -1.57009e-16 -0.707107
    outer loop
      vertex 2.10344 5.99985 11.5282
      vertex 2.10344 0 11.5282
      vertex 1.52824 5.99985 12.1034
    endloop
  endfacet
  facet normal -0.707107 -1.57009e-16 -0.707107
    outer loop
      vertex 1.52824 5.99985 12.1034
      vertex 2.10344 0 11.5282
      vertex 1.52824 0 12.1034
    endloop
  endfacet
  facet normal -0.45399 -1.97843e-16 -0.891007
    outer loop
      vertex 1.52824 5.99985 12.1034
      vertex 1.52824 0 12.1034
      vertex 0.803444 5.99985 12.4727
    endloop
  endfacet
  facet normal -0.45399 -1.97843e-16 -0.891007
    outer loop
      vertex 0.803444 5.99985 12.4727
      vertex 1.52824 0 12.1034
      vertex 0.803444 0 12.4727
    endloop
  endfacet
  facet normal -0.156434 -2.19311e-16 -0.987688
    outer loop
      vertex 0.803444 5.99985 12.4727
      vertex 0.803444 0 12.4727
      vertex 0 5.99985 12.6
    endloop
  endfacet
  facet normal -0.156434 -2.19311e-16 -0.987688
    outer loop
      vertex 0 5.99985 12.6
      vertex 0.803444 0 12.4727
      vertex 0 0 12.6
    endloop
  endfacet
  facet normal 0.156434 -2.19311e-16 -0.987688
    outer loop
      vertex 0 5.99985 12.6
      vertex 0 0 12.6
      vertex -0.803444 5.99985 12.4727
    endloop
  endfacet
  facet normal 0.156434 -2.19311e-16 -0.987688
    outer loop
      vertex -0.803444 5.99985 12.4727
      vertex 0 0 12.6
      vertex -0.803444 0 12.4727
    endloop
  endfacet
  facet normal 0.45399 -1.97843e-16 -0.891007
    outer loop
      vertex -0.803444 5.99985 12.4727
      vertex -0.803444 0 12.4727
      vertex -1.52824 5.99985 12.1034
    endloop
  endfacet
  facet normal 0.45399 -1.97843e-16 -0.891007
    outer loop
      vertex -1.52824 5.99985 12.1034
      vertex -0.803444 0 12.4727
      vertex -1.52824 0 12.1034
    endloop
  endfacet
  facet normal 0.707107 -1.57009e-16 -0.707107
    outer loop
      vertex -2.10344 5.99985 11.5282
      vertex -1.52824 5.99985 12.1034
      vertex -1.52824 0 12.1034
    endloop
  endfacet
  facet normal 0.707107 -1.57009e-16 -0.707107
    outer loop
      vertex -2.10344 0 11.5282
      vertex -2.10344 5.99985 11.5282
      vertex -1.52824 0 12.1034
    endloop
  endfacet
  facet normal 0.891007 -1.00806e-16 -0.45399
    outer loop
      vertex -2.47275 5.99985 10.8034
      vertex -2.10344 5.99985 11.5282
      vertex -2.10344 0 11.5282
    endloop
  endfacet
  facet normal 0.891007 -1.00806e-16 -0.45399
    outer loop
      vertex -2.47275 0 10.8034
      vertex -2.47275 5.99985 10.8034
      vertex -2.10344 0 11.5282
    endloop
  endfacet
  facet normal 0.987688 -3.47354e-17 -0.156434
    outer loop
      vertex -2.6 5.99985 10
      vertex -2.47275 5.99985 10.8034
      vertex -2.47275 0 10.8034
    endloop
  endfacet
  facet normal 0.987688 -3.47354e-17 -0.156434
    outer loop
      vertex -2.6 0 10
      vertex -2.6 5.99985 10
      vertex -2.47275 0 10.8034
    endloop
  endfacet
  facet normal 0.987688 3.47354e-17 0.156434
    outer loop
      vertex -2.47275 0 35.1966
      vertex -2.47275 5.99985 35.1966
      vertex -2.6 5.99985 36
    endloop
  endfacet
  facet normal 0.987688 3.47354e-17 0.156434
    outer loop
      vertex -2.6 0 36
      vertex -2.47275 0 35.1966
      vertex -2.6 5.99985 36
    endloop
  endfacet
  facet normal 0.891007 1.00806e-16 0.45399
    outer loop
      vertex -2.10344 0 34.4718
      vertex -2.10344 5.99985 34.4718
      vertex -2.47275 5.99985 35.1966
    endloop
  endfacet
  facet normal 0.891007 1.00806e-16 0.45399
    outer loop
      vertex -2.47275 0 35.1966
      vertex -2.10344 0 34.4718
      vertex -2.47275 5.99985 35.1966
    endloop
  endfacet
  facet normal 0.707107 1.57009e-16 0.707107
    outer loop
      vertex -1.52824 0 33.8966
      vertex -1.52824 5.99985 33.8966
      vertex -2.10344 5.99985 34.4718
    endloop
  endfacet
  facet normal 0.707107 1.57009e-16 0.707107
    outer loop
      vertex -2.10344 0 34.4718
      vertex -1.52824 0 33.8966
      vertex -2.10344 5.99985 34.4718
    endloop
  endfacet
  facet normal 0.45399 1.97843e-16 0.891007
    outer loop
      vertex -0.803444 0 33.5273
      vertex -0.803444 5.99985 33.5273
      vertex -1.52824 5.99985 33.8966
    endloop
  endfacet
  facet normal 0.45399 1.97843e-16 0.891007
    outer loop
      vertex -1.52824 0 33.8966
      vertex -0.803444 0 33.5273
      vertex -1.52824 5.99985 33.8966
    endloop
  endfacet
  facet normal 0.156434 2.19311e-16 0.987688
    outer loop
      vertex 0 0 33.4
      vertex 0 5.99985 33.4
      vertex -0.803444 5.99985 33.5273
    endloop
  endfacet
  facet normal 0.156434 2.19311e-16 0.987688
    outer loop
      vertex -0.803444 0 33.5273
      vertex 0 0 33.4
      vertex -0.803444 5.99985 33.5273
    endloop
  endfacet
  facet normal -0.156434 2.19311e-16 0.987688
    outer loop
      vertex 0.803444 0 33.5273
      vertex 0.803444 5.99985 33.5273
      vertex 0 5.99985 33.4
    endloop
  endfacet
  facet normal -0.156434 2.19311e-16 0.987688
    outer loop
      vertex 0 0 33.4
      vertex 0.803444 0 33.5273
      vertex 0 5.99985 33.4
    endloop
  endfacet
  facet normal -0.45399 1.97843e-16 0.891007
    outer loop
      vertex 1.52824 0 33.8966
      vertex 1.52824 5.99985 33.8966
      vertex 0.803444 5.99985 33.5273
    endloop
  endfacet
  facet normal -0.45399 1.97843e-16 0.891007
    outer loop
      vertex 0.803444 0 33.5273
      vertex 1.52824 0 33.8966
      vertex 0.803444 5.99985 33.5273
    endloop
  endfacet
  facet normal -0.707107 1.57009e-16 0.707107
    outer loop
      vertex 2.10344 5.99985 34.4718
      vertex 1.52824 5.99985 33.8966
      vertex 2.10344 0 34.4718
    endloop
  endfacet
  facet normal -0.707107 1.57009e-16 0.707107
    outer loop
      vertex 2.10344 0 34.4718
      vertex 1.52824 5.99985 33.8966
      vertex 1.52824 0 33.8966
    endloop
  endfacet
  facet normal -0.891007 1.00806e-16 0.45399
    outer loop
      vertex 2.47275 5.99985 35.1966
      vertex 2.10344 5.99985 34.4718
      vertex 2.47275 0 35.1966
    endloop
  endfacet
  facet normal -0.891007 1.00806e-16 0.45399
    outer loop
      vertex 2.47275 0 35.1966
      vertex 2.10344 5.99985 34.4718
      vertex 2.10344 0 34.4718
    endloop
  endfacet
  facet normal -0.987688 3.47354e-17 0.156434
    outer loop
      vertex 2.6 5.99985 36
      vertex 2.47275 5.99985 35.1966
      vertex 2.6 0 36
    endloop
  endfacet
  facet normal -0.987688 3.47354e-17 0.156434
    outer loop
      vertex 2.6 0 36
      vertex 2.47275 5.99985 35.1966
      vertex 2.47275 0 35.1966
    endloop
  endfacet
  facet normal -0.987688 -3.47354e-17 -0.156434
    outer loop
      vertex 2.6 5.99985 36
      vertex 2.6 0 36
      vertex 2.47275 5.99985 36.8034
    endloop
  endfacet
  facet normal -0.987688 -3.47354e-17 -0.156434
    outer loop
      vertex 2.47275 5.99985 36.8034
      vertex 2.6 0 36
      vertex 2.47275 0 36.8034
    endloop
  endfacet
  facet normal -0.891007 -1.00806e-16 -0.45399
    outer loop
      vertex 2.47275 5.99985 36.8034
      vertex 2.47275 0 36.8034
      vertex 2.10344 5.99985 37.5282
    endloop
  endfacet
  facet normal -0.891007 -1.00806e-16 -0.45399
    outer loop
      vertex 2.10344 5.99985 37.5282
      vertex 2.47275 0 36.8034
      vertex 2.10344 0 37.5282
    endloop
  endfacet
  facet normal -0.707107 -1.57009e-16 -0.707107
    outer loop
      vertex 2.10344 5.99985 37.5282
      vertex 2.10344 0 37.5282
      vertex 1.52824 5.99985 38.1034
    endloop
  endfacet
  facet normal -0.707107 -1.57009e-16 -0.707107
    outer loop
      vertex 1.52824 5.99985 38.1034
      vertex 2.10344 0 37.5282
      vertex 1.52824 0 38.1034
    endloop
  endfacet
  facet normal -0.45399 -1.97843e-16 -0.891007
    outer loop
      vertex 1.52824 5.99985 38.1034
      vertex 1.52824 0 38.1034
      vertex 0.803444 5.99985 38.4727
    endloop
  endfacet
  facet normal -0.45399 -1.97843e-16 -0.891007
    outer loop
      vertex 0.803444 5.99985 38.4727
      vertex 1.52824 0 38.1034
      vertex 0.803444 0 38.4727
    endloop
  endfacet
  facet normal -0.156434 -2.19311e-16 -0.987688
    outer loop
      vertex 0.803444 5.99985 38.4727
      vertex 0.803444 0 38.4727
      vertex 0 5.99985 38.6
    endloop
  endfacet
  facet normal -0.156434 -2.19311e-16 -0.987688
    outer loop
      vertex 0 5.99985 38.6
      vertex 0.803444 0 38.4727
      vertex 0 0 38.6
    endloop
  endfacet
  facet normal 0.156434 -2.19311e-16 -0.987688
    outer loop
      vertex 0 5.99985 38.6
      vertex 0 0 38.6
      vertex -0.803444 5.99985 38.4727
    endloop
  endfacet
  facet normal 0.156434 -2.19311e-16 -0.987688
    outer loop
      vertex -0.803444 5.99985 38.4727
      vertex 0 0 38.6
      vertex -0.803444 0 38.4727
    endloop
  endfacet
  facet normal 0.45399 -1.97843e-16 -0.891007
    outer loop
      vertex -0.803444 5.99985 38.4727
      vertex -0.803444 0 38.4727
      vertex -1.52824 5.99985 38.1034
    endloop
  endfacet
  facet normal 0.45399 -1.97843e-16 -0.891007
    outer loop
      vertex -1.52824 5.99985 38.1034
      vertex -0.803444 0 38.4727
      vertex -1.52824 0 38.1034
    endloop
  endfacet
  facet normal 0.707107 -1.57009e-16 -0.707107
    outer loop
      vertex -2.10344 5.99985 37.5282
      vertex -1.52824 5.99985 38.1034
      vertex -1.52824 0 38.1034
    endloop
  endfacet
  facet normal 0.707107 -1.57009e-16 -0.707107
    outer loop
      vertex -2.10344 0 37.5282
      vertex -2.10344 5.99985 37.5282
      vertex -1.52824 0 38.1034
    endloop
  endfacet
  facet normal 0.891007 -1.00806e-16 -0.45399
    outer loop
      vertex -2.47275 5.99985 36.8034
      vertex -2.10344 5.99985 37.5282
      vertex -2.10344 0 37.5282
    endloop
  endfacet
  facet normal 0.891007 -1.00806e-16 -0.45399
    outer loop
      vertex -2.47275 0 36.8034
      vertex -2.47275 5.99985 36.8034
      vertex -2.10344 0 37.5282
    endloop
  endfacet
  facet normal 0.987688 -3.47354e-17 -0.156434
    outer loop
      vertex -2.6 5.99985 36
      vertex -2.47275 5.99985 36.8034
      vertex -2.47275 0 36.8034
    endloop
  endfacet
  facet normal 0.987688 -3.47354e-17 -0.156434
    outer loop
      vertex -2.6 0 36
      vertex -2.6 5.99985 36
      vertex -2.47275 0 36.8034
    endloop
  endfacet
  facet normal 0.866025 -1.11022e-16 -0.5
    outer loop
      vertex -4.6001 11 10
      vertex -2.30005 11 13.9838
      vertex -2.30005 5.99985 13.9838
    endloop
  endfacet
  facet normal 0.866025 -1.11022e-16 -0.5
    outer loop
      vertex -4.6001 5.99985 10
      vertex -4.6001 11 10
      vertex -2.30005 5.99985 13.9838
    endloop
  endfacet
  facet normal 0.866025 1.11022e-16 0.5
    outer loop
      vertex -2.30005 5.99985 6.0162
      vertex -2.30005 11 6.0162
      vertex -4.6001 11 10
    endloop
  endfacet
  facet normal 0.866025 1.11022e-16 0.5
    outer loop
      vertex -4.6001 5.99985 10
      vertex -2.30005 5.99985 6.0162
      vertex -4.6001 11 10
    endloop
  endfacet
  facet normal 0 -2.22045e-16 -1
    outer loop
      vertex 2.30005 11 13.9838
      vertex 2.30005 5.99985 13.9838
      vertex -2.30005 11 13.9838
    endloop
  endfacet
  facet normal 0 -2.22045e-16 -1
    outer loop
      vertex -2.30005 11 13.9838
      vertex 2.30005 5.99985 13.9838
      vertex -2.30005 5.99985 13.9838
    endloop
  endfacet
  facet normal -0.866025 -1.11022e-16 -0.5
    outer loop
      vertex 4.6001 11 10
      vertex 4.6001 5.99985 10
      vertex 2.30005 11 13.9838
    endloop
  endfacet
  facet normal -0.866025 -1.11022e-16 -0.5
    outer loop
      vertex 2.30005 11 13.9838
      vertex 4.6001 5.99985 10
      vertex 2.30005 5.99985 13.9838
    endloop
  endfacet
  facet normal -0.866025 1.11022e-16 0.5
    outer loop
      vertex 4.6001 11 10
      vertex 2.30005 11 6.0162
      vertex 4.6001 5.99985 10
    endloop
  endfacet
  facet normal -0.866025 1.11022e-16 0.5
    outer loop
      vertex 4.6001 5.99985 10
      vertex 2.30005 11 6.0162
      vertex 2.30005 5.99985 6.0162
    endloop
  endfacet
  facet normal 0 2.22045e-16 1
    outer loop
      vertex 2.30005 5.99985 6.0162
      vertex 2.30005 11 6.0162
      vertex -2.30005 11 6.0162
    endloop
  endfacet
  facet normal 0 2.22045e-16 1
    outer loop
      vertex -2.30005 5.99985 6.0162
      vertex 2.30005 5.99985 6.0162
      vertex -2.30005 11 6.0162
    endloop
  endfacet
  facet normal 0.866025 -1.11022e-16 -0.5
    outer loop
      vertex -4.6001 11 36
      vertex -2.30005 11 39.9838
      vertex -2.30005 5.99985 39.9838
    endloop
  endfacet
  facet normal 0.866025 -1.11022e-16 -0.5
    outer loop
      vertex -4.6001 5.99985 36
      vertex -4.6001 11 36
      vertex -2.30005 5.99985 39.9838
    endloop
  endfacet
  facet normal 0.866025 1.11022e-16 0.5
    outer loop
      vertex -2.30005 5.99985 32.0162
      vertex -2.30005 11 32.0162
      vertex -4.6001 11 36
    endloop
  endfacet
  facet normal 0.866025 1.11022e-16 0.5
    outer loop
      vertex -4.6001 5.99985 36
      vertex -2.30005 5.99985 32.0162
      vertex -4.6001 11 36
    endloop
  endfacet
  facet normal 0 -2.22045e-16 -1
    outer loop
      vertex 2.30005 11 39.9838
      vertex 2.30005 5.99985 39.9838
      vertex -2.30005 11 39.9838
    endloop
  endfacet
  facet normal 0 -2.22045e-16 -1
    outer loop
      vertex -2.30005 11 39.9838
      vertex 2.30005 5.99985 39.9838
      vertex -2.30005 5.99985 39.9838
    endloop
  endfacet
  facet normal -0.866025 -1.11022e-16 -0.5
    outer loop
      vertex 4.6001 11 36
      vertex 4.6001 5.99985 36
      vertex 2.30005 11 39.9838
    endloop
  endfacet
  facet normal -0.866025 -1.11022e-16 -0.5
    outer loop
      vertex 2.30005 11 39.9838
      vertex 4.6001 5.99985 36
      vertex 2.30005 5.99985 39.9838
    endloop
  endfacet
  facet normal -0.866025 1.11022e-16 0.5
    outer loop
      vertex 4.6001 11 36
      vertex 2.30005 11 32.0162
      vertex 4.6001 5.99985 36
    endloop
  endfacet
  facet normal -0.866025 1.11022e-16 0.5
    outer loop
      vertex 4.6001 5.99985 36
      vertex 2.30005 11 32.0162
      vertex 2.30005 5.99985 32.0162
    endloop
  endfacet
  facet normal 0 2.22045e-16 1
    outer loop
      vertex 2.30005 5.99985 32.0162
      vertex 2.30005 11 32.0162
      vertex -2.30005 11 32.0162
    endloop
  endfacet
  facet normal 0 2.22045e-16 1
    outer loop
      vertex -2.30005 5.99985 32.0162
      vertex 2.30005 5.99985 32.0162
      vertex -2.30005 11 32.0162
    endloop
  endfacet
  facet normal 0.987688 -3.47355e-17 -0.156435
    outer loop
      vertex -3.1 11 23
      vertex -2.94827 11 23.958
      vertex -2.94827 6 23.958
    endloop
  endfacet
  facet normal 0.987688 -3.47355e-17 -0.156435
    outer loop
      vertex -3.1 6 23
      vertex -3.1 11 23
      vertex -2.94827 6 23.958
    endloop
  endfacet
  facet normal 0.987688 3.47355e-17 0.156435
    outer loop
      vertex -2.94827 6 22.042
      vertex -2.94827 11 22.042
      vertex -3.1 11 23
    endloop
  endfacet
  facet normal 0.987688 3.47355e-17 0.156435
    outer loop
      vertex -3.1 6 23
      vertex -2.94827 6 22.042
      vertex -3.1 11 23
    endloop
  endfacet
  facet normal 0.891007 -1.00806e-16 -0.45399
    outer loop
      vertex -2.94827 11 23.958
      vertex -2.50795 11 24.8221
      vertex -2.50795 6 24.8221
    endloop
  endfacet
  facet normal 0.891007 -1.00806e-16 -0.45399
    outer loop
      vertex -2.94827 6 23.958
      vertex -2.94827 11 23.958
      vertex -2.50795 6 24.8221
    endloop
  endfacet
  facet normal 0.707107 -1.57009e-16 -0.707107
    outer loop
      vertex -2.50795 11 24.8221
      vertex -1.82213 11 25.508
      vertex -1.82213 6 25.508
    endloop
  endfacet
  facet normal 0.707107 -1.57009e-16 -0.707107
    outer loop
      vertex -2.50795 6 24.8221
      vertex -2.50795 11 24.8221
      vertex -1.82213 6 25.508
    endloop
  endfacet
  facet normal 0.45399 -1.97843e-16 -0.891007
    outer loop
      vertex -0.957953 11 25.9483
      vertex -0.957953 6 25.9483
      vertex -1.82213 11 25.508
    endloop
  endfacet
  facet normal 0.45399 -1.97843e-16 -0.891007
    outer loop
      vertex -1.82213 11 25.508
      vertex -0.957953 6 25.9483
      vertex -1.82213 6 25.508
    endloop
  endfacet
  facet normal 0.156435 -2.19311e-16 -0.987688
    outer loop
      vertex 0 11 26.1
      vertex 0 6 26.1
      vertex -0.957953 11 25.9483
    endloop
  endfacet
  facet normal 0.156435 -2.19311e-16 -0.987688
    outer loop
      vertex -0.957953 11 25.9483
      vertex 0 6 26.1
      vertex -0.957953 6 25.9483
    endloop
  endfacet
  facet normal -0.156435 -2.19311e-16 -0.987688
    outer loop
      vertex 0.957953 11 25.9483
      vertex 0.957953 6 25.9483
      vertex 0 11 26.1
    endloop
  endfacet
  facet normal -0.156435 -2.19311e-16 -0.987688
    outer loop
      vertex 0 11 26.1
      vertex 0.957953 6 25.9483
      vertex 0 6 26.1
    endloop
  endfacet
  facet normal -0.45399 -1.97843e-16 -0.891007
    outer loop
      vertex 1.82213 11 25.508
      vertex 1.82213 6 25.508
      vertex 0.957953 11 25.9483
    endloop
  endfacet
  facet normal -0.45399 -1.97843e-16 -0.891007
    outer loop
      vertex 0.957953 11 25.9483
      vertex 1.82213 6 25.508
      vertex 0.957953 6 25.9483
    endloop
  endfacet
  facet normal -0.707107 -1.57009e-16 -0.707107
    outer loop
      vertex 2.50795 11 24.8221
      vertex 2.50795 6 24.8221
      vertex 1.82213 11 25.508
    endloop
  endfacet
  facet normal -0.707107 -1.57009e-16 -0.707107
    outer loop
      vertex 1.82213 11 25.508
      vertex 2.50795 6 24.8221
      vertex 1.82213 6 25.508
    endloop
  endfacet
  facet normal -0.891007 -1.00806e-16 -0.45399
    outer loop
      vertex 2.94827 11 23.958
      vertex 2.94827 6 23.958
      vertex 2.50795 11 24.8221
    endloop
  endfacet
  facet normal -0.891007 -1.00806e-16 -0.45399
    outer loop
      vertex 2.50795 11 24.8221
      vertex 2.94827 6 23.958
      vertex 2.50795 6 24.8221
    endloop
  endfacet
  facet normal -0.987688 -3.47355e-17 -0.156435
    outer loop
      vertex 3.1 11 23
      vertex 3.1 6 23
      vertex 2.94827 11 23.958
    endloop
  endfacet
  facet normal -0.987688 -3.47355e-17 -0.156435
    outer loop
      vertex 2.94827 11 23.958
      vertex 3.1 6 23
      vertex 2.94827 6 23.958
    endloop
  endfacet
  facet normal -0.987688 3.47355e-17 0.156435
    outer loop
      vertex 3.1 11 23
      vertex 2.94827 11 22.042
      vertex 3.1 6 23
    endloop
  endfacet
  facet normal -0.987688 3.47355e-17 0.156435
    outer loop
      vertex 3.1 6 23
      vertex 2.94827 11 22.042
      vertex 2.94827 6 22.042
    endloop
  endfacet
  facet normal -0.891007 1.00806e-16 0.45399
    outer loop
      vertex 2.94827 11 22.042
      vertex 2.50795 11 21.1779
      vertex 2.94827 6 22.042
    endloop
  endfacet
  facet normal -0.891007 1.00806e-16 0.45399
    outer loop
      vertex 2.94827 6 22.042
      vertex 2.50795 11 21.1779
      vertex 2.50795 6 21.1779
    endloop
  endfacet
  facet normal -0.707107 1.57009e-16 0.707107
    outer loop
      vertex 2.50795 11 21.1779
      vertex 1.82213 11 20.492
      vertex 2.50795 6 21.1779
    endloop
  endfacet
  facet normal -0.707107 1.57009e-16 0.707107
    outer loop
      vertex 2.50795 6 21.1779
      vertex 1.82213 11 20.492
      vertex 1.82213 6 20.492
    endloop
  endfacet
  facet normal -0.45399 1.97843e-16 0.891007
    outer loop
      vertex 1.82213 6 20.492
      vertex 1.82213 11 20.492
      vertex 0.957953 11 20.0517
    endloop
  endfacet
  facet normal -0.45399 1.97843e-16 0.891007
    outer loop
      vertex 0.957953 6 20.0517
      vertex 1.82213 6 20.492
      vertex 0.957953 11 20.0517
    endloop
  endfacet
  facet normal -0.156435 2.19311e-16 0.987688
    outer loop
      vertex 0.957953 6 20.0517
      vertex 0.957953 11 20.0517
      vertex 0 11 19.9
    endloop
  endfacet
  facet normal -0.156435 2.19311e-16 0.987688
    outer loop
      vertex 0 6 19.9
      vertex 0.957953 6 20.0517
      vertex 0 11 19.9
    endloop
  endfacet
  facet normal 0.156435 2.19311e-16 0.987688
    outer loop
      vertex 0 6 19.9
      vertex 0 11 19.9
      vertex -0.957953 11 20.0517
    endloop
  endfacet
  facet normal 0.156435 2.19311e-16 0.987688
    outer loop
      vertex -0.957953 6 20.0517
      vertex 0 6 19.9
      vertex -0.957953 11 20.0517
    endloop
  endfacet
  facet normal 0.45399 1.97843e-16 0.891007
    outer loop
      vertex -0.957953 6 20.0517
      vertex -0.957953 11 20.0517
      vertex -1.82213 11 20.492
    endloop
  endfacet
  facet normal 0.45399 1.97843e-16 0.891007
    outer loop
      vertex -1.82213 6 20.492
      vertex -0.957953 6 20.0517
      vertex -1.82213 11 20.492
    endloop
  endfacet
  facet normal 0.707107 1.57009e-16 0.707107
    outer loop
      vertex -1.82213 6 20.492
      vertex -1.82213 11 20.492
      vertex -2.50795 11 21.1779
    endloop
  endfacet
  facet normal 0.707107 1.57009e-16 0.707107
    outer loop
      vertex -2.50795 6 21.1779
      vertex -1.82213 6 20.492
      vertex -2.50795 11 21.1779
    endloop
  endfacet
  facet normal 0.891007 1.00806e-16 0.45399
    outer loop
      vertex -2.50795 6 21.1779
      vertex -2.50795 11 21.1779
      vertex -2.94827 11 22.042
    endloop
  endfacet
  facet normal 0.891007 1.00806e-16 0.45399
    outer loop
      vertex -2.94827 6 22.042
      vertex -2.50795 6 21.1779
      vertex -2.94827 11 22.042
    endloop
  endfacet
  facet normal 0 -1 2.22045e-16
    outer loop
      vertex 1.82213 6 20.492
      vertex 2.87505 6 18.0203
      vertex 5.7501 6 23
    endloop
  endfacet
  facet normal 0 -1 2.22045e-16
    outer loop
      vertex -0.957953 6 25.9483
      vertex 0 6 26.1
      vertex 2.87505 6 27.9797
    endloop
  endfacet
  facet normal 0 -1 2.22045e-16
    outer loop
      vertex -5.7501 6 23
      vertex -3.1 6 23
      vertex -2.87505 6 27.9797
    endloop
  endfacet
  facet normal 0 -1 2.22045e-16
    outer loop
      vertex -5.7501 6 23
      vertex -2.87505 6 18.0203
      vertex -3.1 6 23
    endloop
  endfacet
  facet normal 0 -1 2.22045e-16
    outer loop
      vertex -3.1 6 23
      vertex -2.94827 6 23.958
      vertex -2.87505 6 27.9797
    endloop
  endfacet
  facet normal 0 -1 2.22045e-16
    outer loop
      vertex 0.957953 6 25.9483
      vertex 1.82213 6 25.508
      vertex 2.87505 6 27.9797
    endloop
  endfacet
  facet normal 0 -1 2.22045e-16
    outer loop
      vertex -2.87505 6 27.9797
      vertex -1.82213 6 25.508
      vertex 2.87505 6 27.9797
    endloop
  endfacet
  facet normal 0 -1 2.22045e-16
    outer loop
      vertex -2.87505 6 27.9797
      vertex -2.50795 6 24.8221
      vertex -1.82213 6 25.508
    endloop
  endfacet
  facet normal 0 -1 2.22045e-16
    outer loop
      vertex -1.82213 6 25.508
      vertex -0.957953 6 25.9483
      vertex 2.87505 6 27.9797
    endloop
  endfacet
  facet normal 0 -1 2.22045e-16
    outer loop
      vertex -1.82213 6 20.492
      vertex -2.50795 6 21.1779
      vertex -2.87505 6 18.0203
    endloop
  endfacet
  facet normal 0 -1 2.22045e-16
    outer loop
      vertex 0 6 26.1
      vertex 0.957953 6 25.9483
      vertex 2.87505 6 27.9797
    endloop
  endfacet
  facet normal 0 -1 2.22045e-16
    outer loop
      vertex 2.87505 6 27.9797
      vertex 1.82213 6 25.508
      vertex 5.7501 6 23
    endloop
  endfacet
  facet normal 0 -1 2.22045e-16
    outer loop
      vertex 1.82213 6 25.508
      vertex 2.50795 6 24.8221
      vertex 5.7501 6 23
    endloop
  endfacet
  facet normal 0 -1 2.22045e-16
    outer loop
      vertex -2.50795 6 21.1779
      vertex -2.94827 6 22.042
      vertex -2.87505 6 18.0203
    endloop
  endfacet
  facet normal 0 -1 2.22045e-16
    outer loop
      vertex 2.50795 6 24.8221
      vertex 2.94827 6 23.958
      vertex 5.7501 6 23
    endloop
  endfacet
  facet normal 0 -1 2.22045e-16
    outer loop
      vertex 2.94827 6 23.958
      vertex 3.1 6 23
      vertex 5.7501 6 23
    endloop
  endfacet
  facet normal 0 -1 2.22045e-16
    outer loop
      vertex 3.1 6 23
      vertex 2.94827 6 22.042
      vertex 5.7501 6 23
    endloop
  endfacet
  facet normal 0 -1 2.22045e-16
    outer loop
      vertex 2.94827 6 22.042
      vertex 2.50795 6 21.1779
      vertex 5.7501 6 23
    endloop
  endfacet
  facet normal 0 -1 2.22045e-16
    outer loop
      vertex -2.87505 6 18.0203
      vertex 2.87505 6 18.0203
      vertex 1.82213 6 20.492
    endloop
  endfacet
  facet normal 0 -1 2.22045e-16
    outer loop
      vertex 0.957953 6 20.0517
      vertex 0 6 19.9
      vertex -2.87505 6 18.0203
    endloop
  endfacet
  facet normal 0 -1 2.22045e-16
    outer loop
      vertex -2.87505 6 18.0203
      vertex 1.82213 6 20.492
      vertex 0.957953 6 20.0517
    endloop
  endfacet
  facet normal 0 -1 2.22045e-16
    outer loop
      vertex -0.957953 6 20.0517
      vertex -1.82213 6 20.492
      vertex -2.87505 6 18.0203
    endloop
  endfacet
  facet normal 0 -1 2.22045e-16
    outer loop
      vertex -3.1 6 23
      vertex -2.87505 6 18.0203
      vertex -2.94827 6 22.042
    endloop
  endfacet
  facet normal 0 -1 2.22045e-16
    outer loop
      vertex -2.94827 6 23.958
      vertex -2.50795 6 24.8221
      vertex -2.87505 6 27.9797
    endloop
  endfacet
  facet normal 0 -1 2.22045e-16
    outer loop
      vertex 2.50795 6 21.1779
      vertex 1.82213 6 20.492
      vertex 5.7501 6 23
    endloop
  endfacet
  facet normal 0 -1 2.22045e-16
    outer loop
      vertex 0 6 19.9
      vertex -0.957953 6 20.0517
      vertex -2.87505 6 18.0203
    endloop
  endfacet
  facet normal 0 1 -2.22045e-16
    outer loop
      vertex 0 5.99985 12.6
      vertex -2.30005 5.99985 13.9838
      vertex 0.803444 5.99985 12.4727
    endloop
  endfacet
  facet normal 0 1 -2.22045e-16
    outer loop
      vertex 1.52824 5.99985 7.89656
      vertex 4.6001 5.99985 10
      vertex 2.30005 5.99985 6.0162
    endloop
  endfacet
  facet normal 0 1 -2.22045e-16
    outer loop
      vertex -0.803444 5.99985 7.52725
      vertex 2.30005 5.99985 6.0162
      vertex -2.30005 5.99985 6.0162
    endloop
  endfacet
  facet normal 0 1 -2.22045e-16
    outer loop
      vertex -2.47275 5.99985 9.19656
      vertex -2.30005 5.99985 6.0162
      vertex -4.6001 5.99985 10
    endloop
  endfacet
  facet normal 0 1 -2.22045e-16
    outer loop
      vertex -2.6 5.99985 10
      vertex -2.47275 5.99985 9.19656
      vertex -4.6001 5.99985 10
    endloop
  endfacet
  facet normal 0 1 -2.22045e-16
    outer loop
      vertex 1.52824 5.99985 7.89656
      vertex 2.30005 5.99985 6.0162
      vertex 0.803444 5.99985 7.52725
    endloop
  endfacet
  facet normal 0 1 -2.22045e-16
    outer loop
      vertex 0 5.99985 7.4
      vertex 2.30005 5.99985 6.0162
      vertex -0.803444 5.99985 7.52725
    endloop
  endfacet
  facet normal 0 1 -2.22045e-16
    outer loop
      vertex -2.10344 5.99985 8.47176
      vertex -1.52824 5.99985 7.89656
      vertex -2.30005 5.99985 6.0162
    endloop
  endfacet
  facet normal 0 1 -2.22045e-16
    outer loop
      vertex -1.52824 5.99985 7.89656
      vertex -0.803444 5.99985 7.52725
      vertex -2.30005 5.99985 6.0162
    endloop
  endfacet
  facet normal 0 1 -2.22045e-16
    outer loop
      vertex 0.803444 5.99985 7.52725
      vertex 2.30005 5.99985 6.0162
      vertex 0 5.99985 7.4
    endloop
  endfacet
  facet normal 0 1 -2.22045e-16
    outer loop
      vertex -0.803444 5.99985 12.4727
      vertex -2.30005 5.99985 13.9838
      vertex 0 5.99985 12.6
    endloop
  endfacet
  facet normal 0 1 -2.22045e-16
    outer loop
      vertex 2.10344 5.99985 8.47176
      vertex 4.6001 5.99985 10
      vertex 1.52824 5.99985 7.89656
    endloop
  endfacet
  facet normal 0 1 -2.22045e-16
    outer loop
      vertex 2.10344 5.99985 11.5282
      vertex 4.6001 5.99985 10
      vertex 2.47275 5.99985 10.8034
    endloop
  endfacet
  facet normal 0 1 -2.22045e-16
    outer loop
      vertex 2.47275 5.99985 9.19656
      vertex 4.6001 5.99985 10
      vertex 2.10344 5.99985 8.47176
    endloop
  endfacet
  facet normal 0 1 -2.22045e-16
    outer loop
      vertex 2.6 5.99985 10
      vertex 4.6001 5.99985 10
      vertex 2.47275 5.99985 9.19656
    endloop
  endfacet
  facet normal 0 1 -2.22045e-16
    outer loop
      vertex 2.47275 5.99985 10.8034
      vertex 4.6001 5.99985 10
      vertex 2.6 5.99985 10
    endloop
  endfacet
  facet normal 0 1 -2.22045e-16
    outer loop
      vertex 2.30005 5.99985 13.9838
      vertex 4.6001 5.99985 10
      vertex 2.10344 5.99985 11.5282
    endloop
  endfacet
  facet normal 0 1 -2.22045e-16
    outer loop
      vertex 2.30005 5.99985 13.9838
      vertex 2.10344 5.99985 11.5282
      vertex 1.52824 5.99985 12.1034
    endloop
  endfacet
  facet normal 0 1 -2.22045e-16
    outer loop
      vertex 2.30005 5.99985 13.9838
      vertex 1.52824 5.99985 12.1034
      vertex 0.803444 5.99985 12.4727
    endloop
  endfacet
  facet normal 0 1 -2.22045e-16
    outer loop
      vertex 2.30005 5.99985 13.9838
      vertex 0.803444 5.99985 12.4727
      vertex -2.30005 5.99985 13.9838
    endloop
  endfacet
  facet normal 0 1 -2.22045e-16
    outer loop
      vertex -1.52824 5.99985 12.1034
      vertex -2.30005 5.99985 13.9838
      vertex -0.803444 5.99985 12.4727
    endloop
  endfacet
  facet normal 0 1 -2.22045e-16
    outer loop
      vertex -2.10344 5.99985 11.5282
      vertex -2.30005 5.99985 13.9838
      vertex -1.52824 5.99985 12.1034
    endloop
  endfacet
  facet normal 0 1 -2.22045e-16
    outer loop
      vertex -2.47275 5.99985 10.8034
      vertex -2.30005 5.99985 13.9838
      vertex -2.10344 5.99985 11.5282
    endloop
  endfacet
  facet normal 0 1 -2.22045e-16
    outer loop
      vertex -2.30005 5.99985 13.9838
      vertex -2.47275 5.99985 10.8034
      vertex -4.6001 5.99985 10
    endloop
  endfacet
  facet normal 0 1 -2.22045e-16
    outer loop
      vertex -2.47275 5.99985 10.8034
      vertex -2.6 5.99985 10
      vertex -4.6001 5.99985 10
    endloop
  endfacet
  facet normal 0 1 -2.22045e-16
    outer loop
      vertex -2.10344 5.99985 8.47176
      vertex -2.30005 5.99985 6.0162
      vertex -2.47275 5.99985 9.19656
    endloop
  endfacet
  facet normal 0 1 -2.22045e-16
    outer loop
      vertex 0 5.99985 38.6
      vertex -2.30005 5.99985 39.9838
      vertex 0.803444 5.99985 38.4727
    endloop
  endfacet
  facet normal 0 1 -2.22045e-16
    outer loop
      vertex 1.52824 5.99985 33.8966
      vertex 4.6001 5.99985 36
      vertex 2.30005 5.99985 32.0162
    endloop
  endfacet
  facet normal 0 1 -2.22045e-16
    outer loop
      vertex -0.803444 5.99985 33.5273
      vertex 2.30005 5.99985 32.0162
      vertex -2.30005 5.99985 32.0162
    endloop
  endfacet
  facet normal 0 1 -2.22045e-16
    outer loop
      vertex -2.47275 5.99985 35.1966
      vertex -2.30005 5.99985 32.0162
      vertex -4.6001 5.99985 36
    endloop
  endfacet
  facet normal 0 1 -2.22045e-16
    outer loop
      vertex -2.6 5.99985 36
      vertex -2.47275 5.99985 35.1966
      vertex -4.6001 5.99985 36
    endloop
  endfacet
  facet normal 0 1 -2.22045e-16
    outer loop
      vertex 1.52824 5.99985 33.8966
      vertex 2.30005 5.99985 32.0162
      vertex 0.803444 5.99985 33.5273
    endloop
  endfacet
  facet normal 0 1 -2.22045e-16
    outer loop
      vertex 0 5.99985 33.4
      vertex 2.30005 5.99985 32.0162
      vertex -0.803444 5.99985 33.5273
    endloop
  endfacet
  facet normal 0 1 -2.22045e-16
    outer loop
      vertex -2.10344 5.99985 34.4718
      vertex -1.52824 5.99985 33.8966
      vertex -2.30005 5.99985 32.0162
    endloop
  endfacet
  facet normal 0 1 -2.22045e-16
    outer loop
      vertex -1.52824 5.99985 33.8966
      vertex -0.803444 5.99985 33.5273
      vertex -2.30005 5.99985 32.0162
    endloop
  endfacet
  facet normal 0 1 -2.22045e-16
    outer loop
      vertex 0.803444 5.99985 33.5273
      vertex 2.30005 5.99985 32.0162
      vertex 0 5.99985 33.4
    endloop
  endfacet
  facet normal 0 1 -2.22045e-16
    outer loop
      vertex -0.803444 5.99985 38.4727
      vertex -2.30005 5.99985 39.9838
      vertex 0 5.99985 38.6
    endloop
  endfacet
  facet normal 0 1 -2.22045e-16
    outer loop
      vertex 2.10344 5.99985 34.4718
      vertex 4.6001 5.99985 36
      vertex 1.52824 5.99985 33.8966
    endloop
  endfacet
  facet normal 0 1 -2.22045e-16
    outer loop
      vertex 2.10344 5.99985 37.5282
      vertex 4.6001 5.99985 36
      vertex 2.47275 5.99985 36.8034
    endloop
  endfacet
  facet normal 0 1 -2.22045e-16
    outer loop
      vertex 2.47275 5.99985 35.1966
      vertex 4.6001 5.99985 36
      vertex 2.10344 5.99985 34.4718
    endloop
  endfacet
  facet normal 0 1 -2.22045e-16
    outer loop
      vertex 2.6 5.99985 36
      vertex 4.6001 5.99985 36
      vertex 2.47275 5.99985 35.1966
    endloop
  endfacet
  facet normal 0 1 -2.22045e-16
    outer loop
      vertex 2.47275 5.99985 36.8034
      vertex 4.6001 5.99985 36
      vertex 2.6 5.99985 36
    endloop
  endfacet
  facet normal 0 1 -2.22045e-16
    outer loop
      vertex 2.30005 5.99985 39.9838
      vertex 4.6001 5.99985 36
      vertex 2.10344 5.99985 37.5282
    endloop
  endfacet
  facet normal 0 1 -2.22045e-16
    outer loop
      vertex 2.30005 5.99985 39.9838
      vertex 2.10344 5.99985 37.5282
      vertex 1.52824 5.99985 38.1034
    endloop
  endfacet
  facet normal 0 1 -2.22045e-16
    outer loop
      vertex 2.30005 5.99985 39.9838
      vertex 1.52824 5.99985 38.1034
      vertex 0.803444 5.99985 38.4727
    endloop
  endfacet
  facet normal 0 1 -2.22045e-16
    outer loop
      vertex 2.30005 5.99985 39.9838
      vertex 0.803444 5.99985 38.4727
      vertex -2.30005 5.99985 39.9838
    endloop
  endfacet
  facet normal 0 1 -2.22045e-16
    outer loop
      vertex -1.52824 5.99985 38.1034
      vertex -2.30005 5.99985 39.9838
      vertex -0.803444 5.99985 38.4727
    endloop
  endfacet
  facet normal 0 1 -2.22045e-16
    outer loop
      vertex -2.10344 5.99985 37.5282
      vertex -2.30005 5.99985 39.9838
      vertex -1.52824 5.99985 38.1034
    endloop
  endfacet
  facet normal 0 1 -2.22045e-16
    outer loop
      vertex -2.47275 5.99985 36.8034
      vertex -2.30005 5.99985 39.9838
      vertex -2.10344 5.99985 37.5282
    endloop
  endfacet
  facet normal 0 1 -2.22045e-16
    outer loop
      vertex -2.30005 5.99985 39.9838
      vertex -2.47275 5.99985 36.8034
      vertex -4.6001 5.99985 36
    endloop
  endfacet
  facet normal 0 1 -2.22045e-16
    outer loop
      vertex -2.47275 5.99985 36.8034
      vertex -2.6 5.99985 36
      vertex -4.6001 5.99985 36
    endloop
  endfacet
  facet normal 0 1 -2.22045e-16
    outer loop
      vertex -2.10344 5.99985 34.4718
      vertex -2.30005 5.99985 32.0162
      vertex -2.47275 5.99985 35.1966
    endloop
  endfacet
endsolid OpenSCAD_Model
