solid OpenSCAD_Model
  facet normal 0 1 -0
    outer loop
      vertex 6.39484 3 0
      vertex -6.39484 3 12
      vertex 6.39484 3 12
    endloop
  endfacet
  facet normal 0 1 0
    outer loop
      vertex -6.39484 3 12
      vertex 6.39484 3 0
      vertex -6.39484 3 0
    endloop
  endfacet
  facet normal 0 0 1
    outer loop
      vertex 16.483 0.431524 12
      vertex 16.483 -0.431524 12
      vertex 16.5 0 12
    endloop
  endfacet
  facet normal 0 0 1
    outer loop
      vertex 16.4323 0.860389 12
      vertex 16.483 -0.431524 12
      vertex 16.483 0.431524 12
    endloop
  endfacet
  facet normal 0 0 1
    outer loop
      vertex 16.4323 0.860389 12
      vertex 16.4323 -0.860389 12
      vertex 16.483 -0.431524 12
    endloop
  endfacet
  facet normal 0 0 1
    outer loop
      vertex 16.348 1.28395 12
      vertex 16.4323 -0.860389 12
      vertex 16.4323 0.860389 12
    endloop
  endfacet
  facet normal 0 0 1
    outer loop
      vertex 16.348 1.28395 12
      vertex 16.348 -1.28395 12
      vertex 16.4323 -0.860389 12
    endloop
  endfacet
  facet normal 0 0 1
    outer loop
      vertex 16.2308 1.69959 12
      vertex 16.348 -1.28395 12
      vertex 16.348 1.28395 12
    endloop
  endfacet
  facet normal 0 0 1
    outer loop
      vertex 16.2308 1.69959 12
      vertex 16.2308 -1.69959 12
      vertex 16.348 -1.28395 12
    endloop
  endfacet
  facet normal 0 0 1
    outer loop
      vertex 16.0813 2.10476 12
      vertex 16.2308 -1.69959 12
      vertex 16.2308 1.69959 12
    endloop
  endfacet
  facet normal 0 0 1
    outer loop
      vertex 16.0813 2.10476 12
      vertex 16.0813 -2.10476 12
      vertex 16.2308 -1.69959 12
    endloop
  endfacet
  facet normal 0 0 1
    outer loop
      vertex 15.9005 2.49695 12
      vertex 16.0813 -2.10476 12
      vertex 16.0813 2.10476 12
    endloop
  endfacet
  facet normal 0 0 1
    outer loop
      vertex 15.9005 2.49695 12
      vertex 15.9005 -2.49695 12
      vertex 16.0813 -2.10476 12
    endloop
  endfacet
  facet normal 0 0 1
    outer loop
      vertex 15.6895 2.87374 12
      vertex 15.9005 -2.49695 12
      vertex 15.9005 2.49695 12
    endloop
  endfacet
  facet normal 0 0 1
    outer loop
      vertex 15.6895 2.87374 12
      vertex 15.6895 -2.87374 12
      vertex 15.9005 -2.49695 12
    endloop
  endfacet
  facet normal 0 0 1
    outer loop
      vertex 15.4496 3.23282 12
      vertex 15.6895 -2.87374 12
      vertex 15.6895 2.87374 12
    endloop
  endfacet
  facet normal 0 0 1
    outer loop
      vertex 15.4496 3.23282 12
      vertex 15.4496 -3.23282 12
      vertex 15.6895 -2.87374 12
    endloop
  endfacet
  facet normal 0 0 1
    outer loop
      vertex 15.1822 3.57196 12
      vertex 15.4496 -3.23282 12
      vertex 15.4496 3.23282 12
    endloop
  endfacet
  facet normal 0 0 1
    outer loop
      vertex 15.1822 3.57196 12
      vertex 15.1822 -3.57196 12
      vertex 15.4496 -3.23282 12
    endloop
  endfacet
  facet normal 0 0 1
    outer loop
      vertex 14.8891 3.88909 12
      vertex 15.1822 -3.57196 12
      vertex 15.1822 3.57196 12
    endloop
  endfacet
  facet normal 0 0 1
    outer loop
      vertex 14.8891 3.88909 12
      vertex 14.8891 -3.88909 12
      vertex 15.1822 -3.57196 12
    endloop
  endfacet
  facet normal 0 0 1
    outer loop
      vertex 14.572 4.18223 12
      vertex 14.8891 -3.88909 12
      vertex 14.8891 3.88909 12
    endloop
  endfacet
  facet normal 0 0 1
    outer loop
      vertex 14.572 4.18223 12
      vertex 14.572 -4.18223 12
      vertex 14.8891 -3.88909 12
    endloop
  endfacet
  facet normal 0 0 1
    outer loop
      vertex 14.2328 4.44959 12
      vertex 14.572 -4.18223 12
      vertex 14.572 4.18223 12
    endloop
  endfacet
  facet normal 0 0 1
    outer loop
      vertex 14.2328 4.44959 12
      vertex 14.2328 -4.44959 12
      vertex 14.572 -4.18223 12
    endloop
  endfacet
  facet normal 0 0 1
    outer loop
      vertex 13.8737 4.68952 12
      vertex 14.2328 -4.44959 12
      vertex 14.2328 4.44959 12
    endloop
  endfacet
  facet normal 0 0 1
    outer loop
      vertex 13.8737 4.68952 12
      vertex 13.8737 -4.68952 12
      vertex 14.2328 -4.44959 12
    endloop
  endfacet
  facet normal 0 0 1
    outer loop
      vertex 13.4969 4.90054 12
      vertex 13.8737 -4.68952 12
      vertex 13.8737 4.68952 12
    endloop
  endfacet
  facet normal 0 0 1
    outer loop
      vertex 13.4969 4.90054 12
      vertex 13.4969 -4.90054 12
      vertex 13.8737 -4.68952 12
    endloop
  endfacet
  facet normal 0 0 1
    outer loop
      vertex 13.1048 5.08134 12
      vertex 13.4969 -4.90054 12
      vertex 13.4969 4.90054 12
    endloop
  endfacet
  facet normal 0 0 1
    outer loop
      vertex 13.1048 5.08134 12
      vertex 13.1048 -5.08134 12
      vertex 13.4969 -4.90054 12
    endloop
  endfacet
  facet normal 0 0 1
    outer loop
      vertex 12.6996 5.23081 12
      vertex 13.1048 -5.08134 12
      vertex 13.1048 5.08134 12
    endloop
  endfacet
  facet normal 0 0 1
    outer loop
      vertex 12.6996 5.23081 12
      vertex 12.6996 -5.23081 12
      vertex 13.1048 -5.08134 12
    endloop
  endfacet
  facet normal 0 0 1
    outer loop
      vertex 12.2839 5.34803 12
      vertex 12.6996 -5.23081 12
      vertex 12.6996 5.23081 12
    endloop
  endfacet
  facet normal 0 0 1
    outer loop
      vertex 12.2839 5.34803 12
      vertex 12.2839 -5.34803 12
      vertex 12.6996 -5.23081 12
    endloop
  endfacet
  facet normal 0 0 1
    outer loop
      vertex 11.8604 5.43229 12
      vertex 12.2839 -5.34803 12
      vertex 12.2839 5.34803 12
    endloop
  endfacet
  facet normal 0 0 1
    outer loop
      vertex 11.8604 5.43229 12
      vertex 11.8604 -5.43229 12
      vertex 12.2839 -5.34803 12
    endloop
  endfacet
  facet normal 0 0 1
    outer loop
      vertex 11.4315 5.48304 12
      vertex 11.8604 -5.43229 12
      vertex 11.8604 5.43229 12
    endloop
  endfacet
  facet normal 0 0 1
    outer loop
      vertex 11.4315 5.48304 12
      vertex 11.4315 -5.48304 12
      vertex 11.8604 -5.43229 12
    endloop
  endfacet
  facet normal 0 0 1
    outer loop
      vertex 11 5.5 12
      vertex 11.4315 -5.48304 12
      vertex 11.4315 5.48304 12
    endloop
  endfacet
  facet normal 0 0 1
    outer loop
      vertex 11 5.5 12
      vertex 11 -5.5 12
      vertex 11.4315 -5.48304 12
    endloop
  endfacet
  facet normal -0 0 1
    outer loop
      vertex 10.5685 5.48304 12
      vertex 11 -5.5 12
      vertex 11 5.5 12
    endloop
  endfacet
  facet normal 0 0 1
    outer loop
      vertex 10.5685 5.48304 12
      vertex 10.5685 -5.48304 12
      vertex 11 -5.5 12
    endloop
  endfacet
  facet normal -0 0 1
    outer loop
      vertex 10.1396 5.43229 12
      vertex 10.5685 -5.48304 12
      vertex 10.5685 5.48304 12
    endloop
  endfacet
  facet normal 0 0 1
    outer loop
      vertex 10.1396 5.43229 12
      vertex 10.1396 -5.43229 12
      vertex 10.5685 -5.48304 12
    endloop
  endfacet
  facet normal -0 0 1
    outer loop
      vertex 9.71605 5.34803 12
      vertex 10.1396 -5.43229 12
      vertex 10.1396 5.43229 12
    endloop
  endfacet
  facet normal 0 0 1
    outer loop
      vertex 9.71605 5.34803 12
      vertex 9.71605 -5.34803 12
      vertex 10.1396 -5.43229 12
    endloop
  endfacet
  facet normal -0 0 1
    outer loop
      vertex 9.30041 5.23081 12
      vertex 9.71605 -5.34803 12
      vertex 9.71605 5.34803 12
    endloop
  endfacet
  facet normal 0 0 1
    outer loop
      vertex 9.30041 5.23081 12
      vertex 9.30041 -5.23081 12
      vertex 9.71605 -5.34803 12
    endloop
  endfacet
  facet normal -0 0 1
    outer loop
      vertex 8.89524 5.08134 12
      vertex 9.30041 -5.23081 12
      vertex 9.30041 5.23081 12
    endloop
  endfacet
  facet normal 0 0 1
    outer loop
      vertex 8.89524 5.08134 12
      vertex 8.89524 -5.08134 12
      vertex 9.30041 -5.23081 12
    endloop
  endfacet
  facet normal -0 0 1
    outer loop
      vertex 8.50305 4.90054 12
      vertex 8.89524 -5.08134 12
      vertex 8.89524 5.08134 12
    endloop
  endfacet
  facet normal 0 0 1
    outer loop
      vertex 8.50305 4.90054 12
      vertex 8.50305 -4.90054 12
      vertex 8.89524 -5.08134 12
    endloop
  endfacet
  facet normal -0 0 1
    outer loop
      vertex 8.12626 4.68952 12
      vertex 8.50305 -4.90054 12
      vertex 8.50305 4.90054 12
    endloop
  endfacet
  facet normal 0 0 1
    outer loop
      vertex 8.12626 4.68952 12
      vertex 8.12626 -4.68952 12
      vertex 8.50305 -4.90054 12
    endloop
  endfacet
  facet normal -0 0 1
    outer loop
      vertex 7.76718 4.44959 12
      vertex 8.12626 -4.68952 12
      vertex 8.12626 4.68952 12
    endloop
  endfacet
  facet normal 0 0 1
    outer loop
      vertex 7.76718 4.44959 12
      vertex 7.76718 -4.44959 12
      vertex 8.12626 -4.68952 12
    endloop
  endfacet
  facet normal -0 0 1
    outer loop
      vertex 7.42803 4.18223 12
      vertex 7.76718 -4.44959 12
      vertex 7.76718 4.44959 12
    endloop
  endfacet
  facet normal 0 0 1
    outer loop
      vertex 7.42803 4.18223 12
      vertex 7.42803 -4.18223 12
      vertex 7.76718 -4.44959 12
    endloop
  endfacet
  facet normal -0 0 1
    outer loop
      vertex 7.11091 3.88909 12
      vertex 7.42803 -4.18223 12
      vertex 7.42803 4.18223 12
    endloop
  endfacet
  facet normal 0 0 1
    outer loop
      vertex 7.11091 3.88909 12
      vertex 7.11091 -3.88909 12
      vertex 7.42803 -4.18223 12
    endloop
  endfacet
  facet normal -0 0 1
    outer loop
      vertex 6.81777 3.57196 12
      vertex 7.11091 -3.88909 12
      vertex 7.11091 3.88909 12
    endloop
  endfacet
  facet normal 0 0 1
    outer loop
      vertex 6.81777 3.57196 12
      vertex 6.81777 -3.57196 12
      vertex 7.11091 -3.88909 12
    endloop
  endfacet
  facet normal 0 0 1
    outer loop
      vertex 6.39484 3 12
      vertex 6.81777 3.57196 12
      vertex 6.55041 3.23282 12
    endloop
  endfacet
  facet normal 0 0 1
    outer loop
      vertex 6.81777 3.57196 12
      vertex 6.39484 3 12
      vertex 6.81777 -3.57196 12
    endloop
  endfacet
  facet normal -0 0 1
    outer loop
      vertex 6.39484 -3 12
      vertex 6.81777 -3.57196 12
      vertex 6.39484 3 12
    endloop
  endfacet
  facet normal 0 0 1
    outer loop
      vertex 6.81777 -3.57196 12
      vertex 6.39484 -3 12
      vertex 6.55041 -3.23282 12
    endloop
  endfacet
  facet normal -0 0 1
    outer loop
      vertex -6.39484 3 12
      vertex 6.39484 -3 12
      vertex 6.39484 3 12
    endloop
  endfacet
  facet normal 0 0 1
    outer loop
      vertex -6.39484 3 12
      vertex -6.39484 -3 12
      vertex 6.39484 -3 12
    endloop
  endfacet
  facet normal 0 0 1
    outer loop
      vertex -6.81777 3.57196 12
      vertex -6.39484 3 12
      vertex -6.55041 3.23282 12
    endloop
  endfacet
  facet normal 0 0 1
    outer loop
      vertex -6.39484 3 12
      vertex -6.81777 3.57196 12
      vertex -6.39484 -3 12
    endloop
  endfacet
  facet normal 0 0 1
    outer loop
      vertex -6.81777 -3.57196 12
      vertex -6.39484 -3 12
      vertex -6.81777 3.57196 12
    endloop
  endfacet
  facet normal 0 0 1
    outer loop
      vertex -6.39484 -3 12
      vertex -6.81777 -3.57196 12
      vertex -6.55041 -3.23282 12
    endloop
  endfacet
  facet normal 0 0 1
    outer loop
      vertex -7.11091 3.88909 12
      vertex -6.81777 -3.57196 12
      vertex -6.81777 3.57196 12
    endloop
  endfacet
  facet normal 0 0 1
    outer loop
      vertex -7.11091 3.88909 12
      vertex -7.11091 -3.88909 12
      vertex -6.81777 -3.57196 12
    endloop
  endfacet
  facet normal 0 0 1
    outer loop
      vertex -7.42803 4.18223 12
      vertex -7.11091 -3.88909 12
      vertex -7.11091 3.88909 12
    endloop
  endfacet
  facet normal 0 0 1
    outer loop
      vertex -7.42803 4.18223 12
      vertex -7.42803 -4.18223 12
      vertex -7.11091 -3.88909 12
    endloop
  endfacet
  facet normal 0 0 1
    outer loop
      vertex -7.76718 4.44959 12
      vertex -7.42803 -4.18223 12
      vertex -7.42803 4.18223 12
    endloop
  endfacet
  facet normal 0 0 1
    outer loop
      vertex -7.76718 4.44959 12
      vertex -7.76718 -4.44959 12
      vertex -7.42803 -4.18223 12
    endloop
  endfacet
  facet normal 0 0 1
    outer loop
      vertex -8.12626 4.68952 12
      vertex -7.76718 -4.44959 12
      vertex -7.76718 4.44959 12
    endloop
  endfacet
  facet normal 0 0 1
    outer loop
      vertex -8.12626 4.68952 12
      vertex -8.12626 -4.68952 12
      vertex -7.76718 -4.44959 12
    endloop
  endfacet
  facet normal 0 0 1
    outer loop
      vertex -8.50305 4.90054 12
      vertex -8.12626 -4.68952 12
      vertex -8.12626 4.68952 12
    endloop
  endfacet
  facet normal 0 0 1
    outer loop
      vertex -8.50305 4.90054 12
      vertex -8.50305 -4.90054 12
      vertex -8.12626 -4.68952 12
    endloop
  endfacet
  facet normal 0 0 1
    outer loop
      vertex -8.89524 5.08134 12
      vertex -8.50305 -4.90054 12
      vertex -8.50305 4.90054 12
    endloop
  endfacet
  facet normal 0 0 1
    outer loop
      vertex -8.89524 5.08134 12
      vertex -8.89524 -5.08134 12
      vertex -8.50305 -4.90054 12
    endloop
  endfacet
  facet normal 0 0 1
    outer loop
      vertex -9.30041 5.23081 12
      vertex -8.89524 -5.08134 12
      vertex -8.89524 5.08134 12
    endloop
  endfacet
  facet normal 0 0 1
    outer loop
      vertex -9.30041 5.23081 12
      vertex -9.30041 -5.23081 12
      vertex -8.89524 -5.08134 12
    endloop
  endfacet
  facet normal 0 0 1
    outer loop
      vertex -9.71605 5.34803 12
      vertex -9.30041 -5.23081 12
      vertex -9.30041 5.23081 12
    endloop
  endfacet
  facet normal 0 0 1
    outer loop
      vertex -9.71605 5.34803 12
      vertex -9.71605 -5.34803 12
      vertex -9.30041 -5.23081 12
    endloop
  endfacet
  facet normal 0 0 1
    outer loop
      vertex -10.1396 5.43229 12
      vertex -9.71605 -5.34803 12
      vertex -9.71605 5.34803 12
    endloop
  endfacet
  facet normal 0 0 1
    outer loop
      vertex -10.1396 5.43229 12
      vertex -10.1396 -5.43229 12
      vertex -9.71605 -5.34803 12
    endloop
  endfacet
  facet normal 0 0 1
    outer loop
      vertex -10.5685 5.48304 12
      vertex -10.1396 -5.43229 12
      vertex -10.1396 5.43229 12
    endloop
  endfacet
  facet normal 0 0 1
    outer loop
      vertex -10.5685 5.48304 12
      vertex -10.5685 -5.48304 12
      vertex -10.1396 -5.43229 12
    endloop
  endfacet
  facet normal 0 0 1
    outer loop
      vertex -11 5.5 12
      vertex -10.5685 -5.48304 12
      vertex -10.5685 5.48304 12
    endloop
  endfacet
  facet normal 0 0 1
    outer loop
      vertex -11 5.5 12
      vertex -11 -5.5 12
      vertex -10.5685 -5.48304 12
    endloop
  endfacet
  facet normal -0 0 1
    outer loop
      vertex -11.4315 5.48304 12
      vertex -11 -5.5 12
      vertex -11 5.5 12
    endloop
  endfacet
  facet normal 0 0 1
    outer loop
      vertex -11.4315 5.48304 12
      vertex -11.4315 -5.48304 12
      vertex -11 -5.5 12
    endloop
  endfacet
  facet normal -0 0 1
    outer loop
      vertex -11.8604 5.43229 12
      vertex -11.4315 -5.48304 12
      vertex -11.4315 5.48304 12
    endloop
  endfacet
  facet normal 0 0 1
    outer loop
      vertex -11.8604 5.43229 12
      vertex -11.8604 -5.43229 12
      vertex -11.4315 -5.48304 12
    endloop
  endfacet
  facet normal -0 0 1
    outer loop
      vertex -12.2839 5.34803 12
      vertex -11.8604 -5.43229 12
      vertex -11.8604 5.43229 12
    endloop
  endfacet
  facet normal 0 0 1
    outer loop
      vertex -12.2839 5.34803 12
      vertex -12.2839 -5.34803 12
      vertex -11.8604 -5.43229 12
    endloop
  endfacet
  facet normal -0 0 1
    outer loop
      vertex -12.6996 5.23081 12
      vertex -12.2839 -5.34803 12
      vertex -12.2839 5.34803 12
    endloop
  endfacet
  facet normal 0 0 1
    outer loop
      vertex -12.6996 5.23081 12
      vertex -12.6996 -5.23081 12
      vertex -12.2839 -5.34803 12
    endloop
  endfacet
  facet normal -0 0 1
    outer loop
      vertex -13.1048 5.08134 12
      vertex -12.6996 -5.23081 12
      vertex -12.6996 5.23081 12
    endloop
  endfacet
  facet normal 0 0 1
    outer loop
      vertex -13.1048 5.08134 12
      vertex -13.1048 -5.08134 12
      vertex -12.6996 -5.23081 12
    endloop
  endfacet
  facet normal -0 0 1
    outer loop
      vertex -13.4969 4.90054 12
      vertex -13.1048 -5.08134 12
      vertex -13.1048 5.08134 12
    endloop
  endfacet
  facet normal 0 0 1
    outer loop
      vertex -13.4969 4.90054 12
      vertex -13.4969 -4.90054 12
      vertex -13.1048 -5.08134 12
    endloop
  endfacet
  facet normal -0 0 1
    outer loop
      vertex -13.8737 4.68952 12
      vertex -13.4969 -4.90054 12
      vertex -13.4969 4.90054 12
    endloop
  endfacet
  facet normal 0 0 1
    outer loop
      vertex -13.8737 4.68952 12
      vertex -13.8737 -4.68952 12
      vertex -13.4969 -4.90054 12
    endloop
  endfacet
  facet normal -0 0 1
    outer loop
      vertex -14.2328 4.44959 12
      vertex -13.8737 -4.68952 12
      vertex -13.8737 4.68952 12
    endloop
  endfacet
  facet normal 0 0 1
    outer loop
      vertex -14.2328 4.44959 12
      vertex -14.2328 -4.44959 12
      vertex -13.8737 -4.68952 12
    endloop
  endfacet
  facet normal -0 0 1
    outer loop
      vertex -14.572 4.18223 12
      vertex -14.2328 -4.44959 12
      vertex -14.2328 4.44959 12
    endloop
  endfacet
  facet normal 0 0 1
    outer loop
      vertex -14.572 4.18223 12
      vertex -14.572 -4.18223 12
      vertex -14.2328 -4.44959 12
    endloop
  endfacet
  facet normal -0 0 1
    outer loop
      vertex -14.8891 3.88909 12
      vertex -14.572 -4.18223 12
      vertex -14.572 4.18223 12
    endloop
  endfacet
  facet normal 0 0 1
    outer loop
      vertex -14.8891 3.88909 12
      vertex -14.8891 -3.88909 12
      vertex -14.572 -4.18223 12
    endloop
  endfacet
  facet normal -0 0 1
    outer loop
      vertex -15.1822 3.57196 12
      vertex -14.8891 -3.88909 12
      vertex -14.8891 3.88909 12
    endloop
  endfacet
  facet normal 0 0 1
    outer loop
      vertex -15.1822 3.57196 12
      vertex -15.1822 -3.57196 12
      vertex -14.8891 -3.88909 12
    endloop
  endfacet
  facet normal -0 0 1
    outer loop
      vertex -15.4496 3.23282 12
      vertex -15.1822 -3.57196 12
      vertex -15.1822 3.57196 12
    endloop
  endfacet
  facet normal 0 0 1
    outer loop
      vertex -15.4496 3.23282 12
      vertex -15.4496 -3.23282 12
      vertex -15.1822 -3.57196 12
    endloop
  endfacet
  facet normal -0 0 1
    outer loop
      vertex -15.6895 2.87374 12
      vertex -15.4496 -3.23282 12
      vertex -15.4496 3.23282 12
    endloop
  endfacet
  facet normal 0 0 1
    outer loop
      vertex -15.6895 2.87374 12
      vertex -15.6895 -2.87374 12
      vertex -15.4496 -3.23282 12
    endloop
  endfacet
  facet normal -0 0 1
    outer loop
      vertex -15.9005 2.49695 12
      vertex -15.6895 -2.87374 12
      vertex -15.6895 2.87374 12
    endloop
  endfacet
  facet normal 0 0 1
    outer loop
      vertex -15.9005 2.49695 12
      vertex -15.9005 -2.49695 12
      vertex -15.6895 -2.87374 12
    endloop
  endfacet
  facet normal -0 0 1
    outer loop
      vertex -16.0813 2.10476 12
      vertex -15.9005 -2.49695 12
      vertex -15.9005 2.49695 12
    endloop
  endfacet
  facet normal 0 0 1
    outer loop
      vertex -16.0813 2.10476 12
      vertex -16.0813 -2.10476 12
      vertex -15.9005 -2.49695 12
    endloop
  endfacet
  facet normal -0 0 1
    outer loop
      vertex -16.2308 1.69959 12
      vertex -16.0813 -2.10476 12
      vertex -16.0813 2.10476 12
    endloop
  endfacet
  facet normal 0 0 1
    outer loop
      vertex -16.2308 1.69959 12
      vertex -16.2308 -1.69959 12
      vertex -16.0813 -2.10476 12
    endloop
  endfacet
  facet normal -0 0 1
    outer loop
      vertex -16.348 1.28395 12
      vertex -16.2308 -1.69959 12
      vertex -16.2308 1.69959 12
    endloop
  endfacet
  facet normal 0 0 1
    outer loop
      vertex -16.348 1.28395 12
      vertex -16.348 -1.28395 12
      vertex -16.2308 -1.69959 12
    endloop
  endfacet
  facet normal -0 0 1
    outer loop
      vertex -16.4323 0.860389 12
      vertex -16.348 -1.28395 12
      vertex -16.348 1.28395 12
    endloop
  endfacet
  facet normal 0 0 1
    outer loop
      vertex -16.4323 0.860389 12
      vertex -16.4323 -0.860389 12
      vertex -16.348 -1.28395 12
    endloop
  endfacet
  facet normal -0 0 1
    outer loop
      vertex -16.483 0.431524 12
      vertex -16.4323 -0.860389 12
      vertex -16.4323 0.860389 12
    endloop
  endfacet
  facet normal 0 0 1
    outer loop
      vertex -16.483 0.431524 12
      vertex -16.483 -0.431524 12
      vertex -16.4323 -0.860389 12
    endloop
  endfacet
  facet normal 0 -0 1
    outer loop
      vertex -16.483 -0.431524 12
      vertex -16.483 0.431524 12
      vertex -16.5 0 12
    endloop
  endfacet
  facet normal 0 0 -1
    outer loop
      vertex 16.483 -0.431524 0
      vertex 16.483 0.431524 0
      vertex 16.5 0 0
    endloop
  endfacet
  facet normal 0 0 -1
    outer loop
      vertex 16.4323 -0.860389 0
      vertex 16.483 0.431524 0
      vertex 16.483 -0.431524 0
    endloop
  endfacet
  facet normal 0 0 -1
    outer loop
      vertex 16.4323 -0.860389 0
      vertex 16.4323 0.860389 0
      vertex 16.483 0.431524 0
    endloop
  endfacet
  facet normal 0 0 -1
    outer loop
      vertex 16.348 -1.28395 0
      vertex 16.4323 0.860389 0
      vertex 16.4323 -0.860389 0
    endloop
  endfacet
  facet normal 0 0 -1
    outer loop
      vertex 16.348 -1.28395 0
      vertex 16.348 1.28395 0
      vertex 16.4323 0.860389 0
    endloop
  endfacet
  facet normal 0 0 -1
    outer loop
      vertex 16.2308 -1.69959 0
      vertex 16.348 1.28395 0
      vertex 16.348 -1.28395 0
    endloop
  endfacet
  facet normal 0 0 -1
    outer loop
      vertex 16.2308 -1.69959 0
      vertex 16.2308 1.69959 0
      vertex 16.348 1.28395 0
    endloop
  endfacet
  facet normal 0 0 -1
    outer loop
      vertex 16.0813 -2.10476 0
      vertex 16.2308 1.69959 0
      vertex 16.2308 -1.69959 0
    endloop
  endfacet
  facet normal 0 0 -1
    outer loop
      vertex 16.0813 -2.10476 0
      vertex 16.0813 2.10476 0
      vertex 16.2308 1.69959 0
    endloop
  endfacet
  facet normal 0 0 -1
    outer loop
      vertex 15.9005 -2.49695 0
      vertex 16.0813 2.10476 0
      vertex 16.0813 -2.10476 0
    endloop
  endfacet
  facet normal 0 0 -1
    outer loop
      vertex 15.9005 -2.49695 0
      vertex 15.9005 2.49695 0
      vertex 16.0813 2.10476 0
    endloop
  endfacet
  facet normal 0 0 -1
    outer loop
      vertex 15.6895 -2.87374 0
      vertex 15.9005 2.49695 0
      vertex 15.9005 -2.49695 0
    endloop
  endfacet
  facet normal 0 0 -1
    outer loop
      vertex 15.6895 -2.87374 0
      vertex 15.6895 2.87374 0
      vertex 15.9005 2.49695 0
    endloop
  endfacet
  facet normal 0 0 -1
    outer loop
      vertex 15.4496 -3.23282 0
      vertex 15.6895 2.87374 0
      vertex 15.6895 -2.87374 0
    endloop
  endfacet
  facet normal 0 0 -1
    outer loop
      vertex 15.4496 -3.23282 0
      vertex 15.4496 3.23282 0
      vertex 15.6895 2.87374 0
    endloop
  endfacet
  facet normal 0 0 -1
    outer loop
      vertex 15.1822 -3.57196 0
      vertex 15.4496 3.23282 0
      vertex 15.4496 -3.23282 0
    endloop
  endfacet
  facet normal 0 0 -1
    outer loop
      vertex 15.1822 -3.57196 0
      vertex 15.1822 3.57196 0
      vertex 15.4496 3.23282 0
    endloop
  endfacet
  facet normal 0 0 -1
    outer loop
      vertex 14.8891 -3.88909 0
      vertex 15.1822 3.57196 0
      vertex 15.1822 -3.57196 0
    endloop
  endfacet
  facet normal 0 0 -1
    outer loop
      vertex 14.8891 -3.88909 0
      vertex 14.8891 3.88909 0
      vertex 15.1822 3.57196 0
    endloop
  endfacet
  facet normal 0 0 -1
    outer loop
      vertex 14.572 -4.18223 0
      vertex 14.8891 3.88909 0
      vertex 14.8891 -3.88909 0
    endloop
  endfacet
  facet normal 0 0 -1
    outer loop
      vertex 14.572 -4.18223 0
      vertex 14.572 4.18223 0
      vertex 14.8891 3.88909 0
    endloop
  endfacet
  facet normal 0 0 -1
    outer loop
      vertex 14.2328 -4.44959 0
      vertex 14.572 4.18223 0
      vertex 14.572 -4.18223 0
    endloop
  endfacet
  facet normal 0 0 -1
    outer loop
      vertex 14.2328 -4.44959 0
      vertex 14.2328 4.44959 0
      vertex 14.572 4.18223 0
    endloop
  endfacet
  facet normal 0 0 -1
    outer loop
      vertex 13.8737 -4.68952 0
      vertex 14.2328 4.44959 0
      vertex 14.2328 -4.44959 0
    endloop
  endfacet
  facet normal 0 0 -1
    outer loop
      vertex 13.8737 -4.68952 0
      vertex 13.8737 4.68952 0
      vertex 14.2328 4.44959 0
    endloop
  endfacet
  facet normal 0 0 -1
    outer loop
      vertex 13.4969 -4.90054 0
      vertex 13.8737 4.68952 0
      vertex 13.8737 -4.68952 0
    endloop
  endfacet
  facet normal 0 0 -1
    outer loop
      vertex 13.4969 -4.90054 0
      vertex 13.4969 4.90054 0
      vertex 13.8737 4.68952 0
    endloop
  endfacet
  facet normal 0 0 -1
    outer loop
      vertex 13.1048 -5.08134 0
      vertex 13.4969 4.90054 0
      vertex 13.4969 -4.90054 0
    endloop
  endfacet
  facet normal 0 0 -1
    outer loop
      vertex 13.1048 -5.08134 0
      vertex 13.1048 5.08134 0
      vertex 13.4969 4.90054 0
    endloop
  endfacet
  facet normal 0 0 -1
    outer loop
      vertex 12.6996 -5.23081 0
      vertex 13.1048 5.08134 0
      vertex 13.1048 -5.08134 0
    endloop
  endfacet
  facet normal 0 0 -1
    outer loop
      vertex 12.6996 -5.23081 0
      vertex 12.6996 5.23081 0
      vertex 13.1048 5.08134 0
    endloop
  endfacet
  facet normal 0 0 -1
    outer loop
      vertex 12.2839 -5.34803 0
      vertex 12.6996 5.23081 0
      vertex 12.6996 -5.23081 0
    endloop
  endfacet
  facet normal 0 0 -1
    outer loop
      vertex 12.2839 -5.34803 0
      vertex 12.2839 5.34803 0
      vertex 12.6996 5.23081 0
    endloop
  endfacet
  facet normal 0 0 -1
    outer loop
      vertex 11.8604 -5.43229 0
      vertex 12.2839 5.34803 0
      vertex 12.2839 -5.34803 0
    endloop
  endfacet
  facet normal 0 0 -1
    outer loop
      vertex 11.8604 -5.43229 0
      vertex 11.8604 5.43229 0
      vertex 12.2839 5.34803 0
    endloop
  endfacet
  facet normal 0 0 -1
    outer loop
      vertex 11.4315 -5.48304 0
      vertex 11.8604 5.43229 0
      vertex 11.8604 -5.43229 0
    endloop
  endfacet
  facet normal 0 0 -1
    outer loop
      vertex 11.4315 -5.48304 0
      vertex 11.4315 5.48304 0
      vertex 11.8604 5.43229 0
    endloop
  endfacet
  facet normal 0 0 -1
    outer loop
      vertex 11 -5.5 0
      vertex 11.4315 5.48304 0
      vertex 11.4315 -5.48304 0
    endloop
  endfacet
  facet normal 0 0 -1
    outer loop
      vertex 11 -5.5 0
      vertex 11 5.5 0
      vertex 11.4315 5.48304 0
    endloop
  endfacet
  facet normal 0 0 -1
    outer loop
      vertex 10.5685 -5.48304 0
      vertex 11 5.5 0
      vertex 11 -5.5 0
    endloop
  endfacet
  facet normal 0 0 -1
    outer loop
      vertex 10.5685 -5.48304 0
      vertex 10.5685 5.48304 0
      vertex 11 5.5 0
    endloop
  endfacet
  facet normal 0 0 -1
    outer loop
      vertex 10.1396 -5.43229 0
      vertex 10.5685 5.48304 0
      vertex 10.5685 -5.48304 0
    endloop
  endfacet
  facet normal 0 0 -1
    outer loop
      vertex 10.1396 -5.43229 0
      vertex 10.1396 5.43229 0
      vertex 10.5685 5.48304 0
    endloop
  endfacet
  facet normal 0 0 -1
    outer loop
      vertex 9.71605 -5.34803 0
      vertex 10.1396 5.43229 0
      vertex 10.1396 -5.43229 0
    endloop
  endfacet
  facet normal 0 0 -1
    outer loop
      vertex 9.71605 -5.34803 0
      vertex 9.71605 5.34803 0
      vertex 10.1396 5.43229 0
    endloop
  endfacet
  facet normal 0 0 -1
    outer loop
      vertex 9.30041 -5.23081 0
      vertex 9.71605 5.34803 0
      vertex 9.71605 -5.34803 0
    endloop
  endfacet
  facet normal 0 0 -1
    outer loop
      vertex 9.30041 -5.23081 0
      vertex 9.30041 5.23081 0
      vertex 9.71605 5.34803 0
    endloop
  endfacet
  facet normal 0 0 -1
    outer loop
      vertex 8.89524 -5.08134 0
      vertex 9.30041 5.23081 0
      vertex 9.30041 -5.23081 0
    endloop
  endfacet
  facet normal 0 0 -1
    outer loop
      vertex 8.89524 -5.08134 0
      vertex 8.89524 5.08134 0
      vertex 9.30041 5.23081 0
    endloop
  endfacet
  facet normal 0 0 -1
    outer loop
      vertex 8.50305 -4.90054 0
      vertex 8.89524 5.08134 0
      vertex 8.89524 -5.08134 0
    endloop
  endfacet
  facet normal 0 0 -1
    outer loop
      vertex 8.50305 -4.90054 0
      vertex 8.50305 4.90054 0
      vertex 8.89524 5.08134 0
    endloop
  endfacet
  facet normal 0 0 -1
    outer loop
      vertex 8.12626 -4.68952 0
      vertex 8.50305 4.90054 0
      vertex 8.50305 -4.90054 0
    endloop
  endfacet
  facet normal 0 0 -1
    outer loop
      vertex 8.12626 -4.68952 0
      vertex 8.12626 4.68952 0
      vertex 8.50305 4.90054 0
    endloop
  endfacet
  facet normal 0 0 -1
    outer loop
      vertex 7.76718 -4.44959 0
      vertex 8.12626 4.68952 0
      vertex 8.12626 -4.68952 0
    endloop
  endfacet
  facet normal 0 0 -1
    outer loop
      vertex 7.76718 -4.44959 0
      vertex 7.76718 4.44959 0
      vertex 8.12626 4.68952 0
    endloop
  endfacet
  facet normal 0 0 -1
    outer loop
      vertex 7.42803 -4.18223 0
      vertex 7.76718 4.44959 0
      vertex 7.76718 -4.44959 0
    endloop
  endfacet
  facet normal 0 0 -1
    outer loop
      vertex 7.42803 -4.18223 0
      vertex 7.42803 4.18223 0
      vertex 7.76718 4.44959 0
    endloop
  endfacet
  facet normal 0 0 -1
    outer loop
      vertex 7.11091 -3.88909 0
      vertex 7.42803 4.18223 0
      vertex 7.42803 -4.18223 0
    endloop
  endfacet
  facet normal 0 0 -1
    outer loop
      vertex 7.11091 -3.88909 0
      vertex 7.11091 3.88909 0
      vertex 7.42803 4.18223 0
    endloop
  endfacet
  facet normal 0 0 -1
    outer loop
      vertex 6.81777 -3.57196 0
      vertex 7.11091 3.88909 0
      vertex 7.11091 -3.88909 0
    endloop
  endfacet
  facet normal 0 0 -1
    outer loop
      vertex 6.81777 -3.57196 0
      vertex 6.81777 3.57196 0
      vertex 7.11091 3.88909 0
    endloop
  endfacet
  facet normal 0 0 -1
    outer loop
      vertex 6.39484 -3 0
      vertex 6.81777 -3.57196 0
      vertex 6.55041 -3.23282 0
    endloop
  endfacet
  facet normal 0 0 -1
    outer loop
      vertex 6.81777 -3.57196 0
      vertex 6.39484 -3 0
      vertex 6.81777 3.57196 0
    endloop
  endfacet
  facet normal 0 0 -1
    outer loop
      vertex 6.39484 3 0
      vertex 6.81777 3.57196 0
      vertex 6.39484 -3 0
    endloop
  endfacet
  facet normal 0 0 -1
    outer loop
      vertex 6.81777 3.57196 0
      vertex 6.39484 3 0
      vertex 6.55041 3.23282 0
    endloop
  endfacet
  facet normal 0 0 -1
    outer loop
      vertex -6.39484 -3 0
      vertex 6.39484 3 0
      vertex 6.39484 -3 0
    endloop
  endfacet
  facet normal 0 0 -1
    outer loop
      vertex -6.39484 -3 0
      vertex -6.39484 3 0
      vertex 6.39484 3 0
    endloop
  endfacet
  facet normal 0 0 -1
    outer loop
      vertex -6.81777 -3.57196 0
      vertex -6.39484 -3 0
      vertex -6.55041 -3.23282 0
    endloop
  endfacet
  facet normal -0 0 -1
    outer loop
      vertex -6.39484 -3 0
      vertex -6.81777 -3.57196 0
      vertex -6.39484 3 0
    endloop
  endfacet
  facet normal 0 0 -1
    outer loop
      vertex -6.81777 3.57196 0
      vertex -6.39484 3 0
      vertex -6.81777 -3.57196 0
    endloop
  endfacet
  facet normal 0 0 -1
    outer loop
      vertex -6.39484 3 0
      vertex -6.81777 3.57196 0
      vertex -6.55041 3.23282 0
    endloop
  endfacet
  facet normal 0 0 -1
    outer loop
      vertex -7.11091 -3.88909 0
      vertex -6.81777 3.57196 0
      vertex -6.81777 -3.57196 0
    endloop
  endfacet
  facet normal 0 0 -1
    outer loop
      vertex -7.11091 -3.88909 0
      vertex -7.11091 3.88909 0
      vertex -6.81777 3.57196 0
    endloop
  endfacet
  facet normal 0 0 -1
    outer loop
      vertex -7.42803 -4.18223 0
      vertex -7.11091 3.88909 0
      vertex -7.11091 -3.88909 0
    endloop
  endfacet
  facet normal 0 0 -1
    outer loop
      vertex -7.42803 -4.18223 0
      vertex -7.42803 4.18223 0
      vertex -7.11091 3.88909 0
    endloop
  endfacet
  facet normal 0 0 -1
    outer loop
      vertex -7.76718 -4.44959 0
      vertex -7.42803 4.18223 0
      vertex -7.42803 -4.18223 0
    endloop
  endfacet
  facet normal 0 0 -1
    outer loop
      vertex -7.76718 -4.44959 0
      vertex -7.76718 4.44959 0
      vertex -7.42803 4.18223 0
    endloop
  endfacet
  facet normal 0 0 -1
    outer loop
      vertex -8.12626 -4.68952 0
      vertex -7.76718 4.44959 0
      vertex -7.76718 -4.44959 0
    endloop
  endfacet
  facet normal 0 0 -1
    outer loop
      vertex -8.12626 -4.68952 0
      vertex -8.12626 4.68952 0
      vertex -7.76718 4.44959 0
    endloop
  endfacet
  facet normal 0 0 -1
    outer loop
      vertex -8.50305 -4.90054 0
      vertex -8.12626 4.68952 0
      vertex -8.12626 -4.68952 0
    endloop
  endfacet
  facet normal 0 0 -1
    outer loop
      vertex -8.50305 -4.90054 0
      vertex -8.50305 4.90054 0
      vertex -8.12626 4.68952 0
    endloop
  endfacet
  facet normal 0 0 -1
    outer loop
      vertex -8.89524 -5.08134 0
      vertex -8.50305 4.90054 0
      vertex -8.50305 -4.90054 0
    endloop
  endfacet
  facet normal 0 0 -1
    outer loop
      vertex -8.89524 -5.08134 0
      vertex -8.89524 5.08134 0
      vertex -8.50305 4.90054 0
    endloop
  endfacet
  facet normal 0 0 -1
    outer loop
      vertex -9.30041 -5.23081 0
      vertex -8.89524 5.08134 0
      vertex -8.89524 -5.08134 0
    endloop
  endfacet
  facet normal 0 0 -1
    outer loop
      vertex -9.30041 -5.23081 0
      vertex -9.30041 5.23081 0
      vertex -8.89524 5.08134 0
    endloop
  endfacet
  facet normal 0 0 -1
    outer loop
      vertex -9.71605 -5.34803 0
      vertex -9.30041 5.23081 0
      vertex -9.30041 -5.23081 0
    endloop
  endfacet
  facet normal 0 0 -1
    outer loop
      vertex -9.71605 -5.34803 0
      vertex -9.71605 5.34803 0
      vertex -9.30041 5.23081 0
    endloop
  endfacet
  facet normal 0 0 -1
    outer loop
      vertex -10.1396 -5.43229 0
      vertex -9.71605 5.34803 0
      vertex -9.71605 -5.34803 0
    endloop
  endfacet
  facet normal 0 0 -1
    outer loop
      vertex -10.1396 -5.43229 0
      vertex -10.1396 5.43229 0
      vertex -9.71605 5.34803 0
    endloop
  endfacet
  facet normal 0 0 -1
    outer loop
      vertex -10.5685 -5.48304 0
      vertex -10.1396 5.43229 0
      vertex -10.1396 -5.43229 0
    endloop
  endfacet
  facet normal 0 0 -1
    outer loop
      vertex -10.5685 -5.48304 0
      vertex -10.5685 5.48304 0
      vertex -10.1396 5.43229 0
    endloop
  endfacet
  facet normal 0 0 -1
    outer loop
      vertex -11 -5.5 0
      vertex -10.5685 5.48304 0
      vertex -10.5685 -5.48304 0
    endloop
  endfacet
  facet normal 0 0 -1
    outer loop
      vertex -11 -5.5 0
      vertex -11 5.5 0
      vertex -10.5685 5.48304 0
    endloop
  endfacet
  facet normal 0 0 -1
    outer loop
      vertex -11.4315 -5.48304 0
      vertex -11 5.5 0
      vertex -11 -5.5 0
    endloop
  endfacet
  facet normal 0 0 -1
    outer loop
      vertex -11.4315 -5.48304 0
      vertex -11.4315 5.48304 0
      vertex -11 5.5 0
    endloop
  endfacet
  facet normal 0 0 -1
    outer loop
      vertex -11.8604 -5.43229 0
      vertex -11.4315 5.48304 0
      vertex -11.4315 -5.48304 0
    endloop
  endfacet
  facet normal 0 0 -1
    outer loop
      vertex -11.8604 -5.43229 0
      vertex -11.8604 5.43229 0
      vertex -11.4315 5.48304 0
    endloop
  endfacet
  facet normal 0 0 -1
    outer loop
      vertex -12.2839 -5.34803 0
      vertex -11.8604 5.43229 0
      vertex -11.8604 -5.43229 0
    endloop
  endfacet
  facet normal 0 0 -1
    outer loop
      vertex -12.2839 -5.34803 0
      vertex -12.2839 5.34803 0
      vertex -11.8604 5.43229 0
    endloop
  endfacet
  facet normal 0 0 -1
    outer loop
      vertex -12.6996 -5.23081 0
      vertex -12.2839 5.34803 0
      vertex -12.2839 -5.34803 0
    endloop
  endfacet
  facet normal 0 0 -1
    outer loop
      vertex -12.6996 -5.23081 0
      vertex -12.6996 5.23081 0
      vertex -12.2839 5.34803 0
    endloop
  endfacet
  facet normal 0 0 -1
    outer loop
      vertex -13.1048 -5.08134 0
      vertex -12.6996 5.23081 0
      vertex -12.6996 -5.23081 0
    endloop
  endfacet
  facet normal 0 0 -1
    outer loop
      vertex -13.1048 -5.08134 0
      vertex -13.1048 5.08134 0
      vertex -12.6996 5.23081 0
    endloop
  endfacet
  facet normal 0 0 -1
    outer loop
      vertex -13.4969 -4.90054 0
      vertex -13.1048 5.08134 0
      vertex -13.1048 -5.08134 0
    endloop
  endfacet
  facet normal 0 0 -1
    outer loop
      vertex -13.4969 -4.90054 0
      vertex -13.4969 4.90054 0
      vertex -13.1048 5.08134 0
    endloop
  endfacet
  facet normal 0 0 -1
    outer loop
      vertex -13.8737 -4.68952 0
      vertex -13.4969 4.90054 0
      vertex -13.4969 -4.90054 0
    endloop
  endfacet
  facet normal 0 0 -1
    outer loop
      vertex -13.8737 -4.68952 0
      vertex -13.8737 4.68952 0
      vertex -13.4969 4.90054 0
    endloop
  endfacet
  facet normal 0 0 -1
    outer loop
      vertex -14.2328 -4.44959 0
      vertex -13.8737 4.68952 0
      vertex -13.8737 -4.68952 0
    endloop
  endfacet
  facet normal 0 0 -1
    outer loop
      vertex -14.2328 -4.44959 0
      vertex -14.2328 4.44959 0
      vertex -13.8737 4.68952 0
    endloop
  endfacet
  facet normal 0 0 -1
    outer loop
      vertex -14.572 -4.18223 0
      vertex -14.2328 4.44959 0
      vertex -14.2328 -4.44959 0
    endloop
  endfacet
  facet normal 0 0 -1
    outer loop
      vertex -14.572 -4.18223 0
      vertex -14.572 4.18223 0
      vertex -14.2328 4.44959 0
    endloop
  endfacet
  facet normal 0 0 -1
    outer loop
      vertex -14.8891 -3.88909 0
      vertex -14.572 4.18223 0
      vertex -14.572 -4.18223 0
    endloop
  endfacet
  facet normal 0 0 -1
    outer loop
      vertex -14.8891 -3.88909 0
      vertex -14.8891 3.88909 0
      vertex -14.572 4.18223 0
    endloop
  endfacet
  facet normal 0 0 -1
    outer loop
      vertex -15.1822 -3.57196 0
      vertex -14.8891 3.88909 0
      vertex -14.8891 -3.88909 0
    endloop
  endfacet
  facet normal 0 0 -1
    outer loop
      vertex -15.1822 -3.57196 0
      vertex -15.1822 3.57196 0
      vertex -14.8891 3.88909 0
    endloop
  endfacet
  facet normal 0 0 -1
    outer loop
      vertex -15.4496 -3.23282 0
      vertex -15.1822 3.57196 0
      vertex -15.1822 -3.57196 0
    endloop
  endfacet
  facet normal 0 0 -1
    outer loop
      vertex -15.4496 -3.23282 0
      vertex -15.4496 3.23282 0
      vertex -15.1822 3.57196 0
    endloop
  endfacet
  facet normal 0 0 -1
    outer loop
      vertex -15.6895 -2.87374 0
      vertex -15.4496 3.23282 0
      vertex -15.4496 -3.23282 0
    endloop
  endfacet
  facet normal 0 0 -1
    outer loop
      vertex -15.6895 -2.87374 0
      vertex -15.6895 2.87374 0
      vertex -15.4496 3.23282 0
    endloop
  endfacet
  facet normal 0 0 -1
    outer loop
      vertex -15.9005 -2.49695 0
      vertex -15.6895 2.87374 0
      vertex -15.6895 -2.87374 0
    endloop
  endfacet
  facet normal 0 0 -1
    outer loop
      vertex -15.9005 -2.49695 0
      vertex -15.9005 2.49695 0
      vertex -15.6895 2.87374 0
    endloop
  endfacet
  facet normal 0 0 -1
    outer loop
      vertex -16.0813 -2.10476 0
      vertex -15.9005 2.49695 0
      vertex -15.9005 -2.49695 0
    endloop
  endfacet
  facet normal 0 0 -1
    outer loop
      vertex -16.0813 -2.10476 0
      vertex -16.0813 2.10476 0
      vertex -15.9005 2.49695 0
    endloop
  endfacet
  facet normal 0 0 -1
    outer loop
      vertex -16.2308 -1.69959 0
      vertex -16.0813 2.10476 0
      vertex -16.0813 -2.10476 0
    endloop
  endfacet
  facet normal 0 0 -1
    outer loop
      vertex -16.2308 -1.69959 0
      vertex -16.2308 1.69959 0
      vertex -16.0813 2.10476 0
    endloop
  endfacet
  facet normal 0 0 -1
    outer loop
      vertex -16.348 -1.28395 0
      vertex -16.2308 1.69959 0
      vertex -16.2308 -1.69959 0
    endloop
  endfacet
  facet normal 0 0 -1
    outer loop
      vertex -16.348 -1.28395 0
      vertex -16.348 1.28395 0
      vertex -16.2308 1.69959 0
    endloop
  endfacet
  facet normal 0 0 -1
    outer loop
      vertex -16.4323 -0.860389 0
      vertex -16.348 1.28395 0
      vertex -16.348 -1.28395 0
    endloop
  endfacet
  facet normal 0 0 -1
    outer loop
      vertex -16.4323 -0.860389 0
      vertex -16.4323 0.860389 0
      vertex -16.348 1.28395 0
    endloop
  endfacet
  facet normal 0 0 -1
    outer loop
      vertex -16.483 -0.431524 0
      vertex -16.4323 0.860389 0
      vertex -16.4323 -0.860389 0
    endloop
  endfacet
  facet normal 0 0 -1
    outer loop
      vertex -16.483 -0.431524 0
      vertex -16.483 0.431524 0
      vertex -16.4323 0.860389 0
    endloop
  endfacet
  facet normal 0 -0 -1
    outer loop
      vertex -16.483 0.431524 0
      vertex -16.483 -0.431524 0
      vertex -16.5 0 0
    endloop
  endfacet
  facet normal 0 -1 0
    outer loop
      vertex -6.39484 -3 0
      vertex 6.39484 -3 12
      vertex -6.39484 -3 12
    endloop
  endfacet
  facet normal 0 -1 -0
    outer loop
      vertex 6.39484 -3 12
      vertex -6.39484 -3 0
      vertex 6.39484 -3 0
    endloop
  endfacet
  facet normal 0.346107 0.938195 -0
    outer loop
      vertex -8.89524 5.08134 0
      vertex -9.30041 5.23081 12
      vertex -8.89524 5.08134 12
    endloop
  endfacet
  facet normal 0.346107 0.938195 0
    outer loop
      vertex -9.30041 5.23081 12
      vertex -8.89524 5.08134 0
      vertex -9.30041 5.23081 0
    endloop
  endfacet
  facet normal -0.117506 0.993072 0
    outer loop
      vertex -11.4315 5.48304 0
      vertex -11.8604 5.43229 12
      vertex -11.4315 5.48304 12
    endloop
  endfacet
  facet normal -0.117506 0.993072 0
    outer loop
      vertex -11.8604 5.43229 12
      vertex -11.4315 5.48304 0
      vertex -11.8604 5.43229 0
    endloop
  endfacet
  facet normal 0.488634 0.872489 -0
    outer loop
      vertex -8.12626 4.68952 0
      vertex -8.50305 4.90054 12
      vertex -8.12626 4.68952 12
    endloop
  endfacet
  facet normal 0.488634 0.872489 0
    outer loop
      vertex -8.50305 4.90054 12
      vertex -8.12626 4.68952 0
      vertex -8.50305 4.90054 0
    endloop
  endfacet
  facet normal -0.0392744 -0.999228 0
    outer loop
      vertex -11.4315 -5.48304 0
      vertex -11 -5.5 12
      vertex -11.4315 -5.48304 12
    endloop
  endfacet
  facet normal -0.0392744 -0.999228 -0
    outer loop
      vertex -11 -5.5 12
      vertex -11.4315 -5.48304 0
      vertex -11 -5.5 0
    endloop
  endfacet
  facet normal -0.67882 -0.734304 0
    outer loop
      vertex -14.8891 -3.88909 0
      vertex -14.572 -4.18223 12
      vertex -14.8891 -3.88909 12
    endloop
  endfacet
  facet normal -0.67882 -0.734304 -0
    outer loop
      vertex -14.572 -4.18223 12
      vertex -14.8891 -3.88909 0
      vertex -14.572 -4.18223 0
    endloop
  endfacet
  facet normal 0.0392744 -0.999228 0
    outer loop
      vertex -11 -5.5 0
      vertex -10.5685 -5.48304 12
      vertex -11 -5.5 12
    endloop
  endfacet
  facet normal 0.0392744 -0.999228 0
    outer loop
      vertex -10.5685 -5.48304 12
      vertex -11 -5.5 0
      vertex -10.5685 -5.48304 0
    endloop
  endfacet
  facet normal 0.678797 0.734326 -0
    outer loop
      vertex -7.11091 3.88909 0
      vertex -7.42803 4.18223 12
      vertex -7.11091 3.88909 12
    endloop
  endfacet
  facet normal 0.678797 0.734326 0
    outer loop
      vertex -7.42803 4.18223 12
      vertex -7.11091 3.88909 0
      vertex -7.42803 4.18223 0
    endloop
  endfacet
  facet normal -0.938173 0.346168 0
    outer loop
      vertex -16.2308 1.69959 0
      vertex -16.0813 2.10476 12
      vertex -16.0813 2.10476 0
    endloop
  endfacet
  facet normal -0.938173 0.346168 0
    outer loop
      vertex -16.0813 2.10476 12
      vertex -16.2308 1.69959 0
      vertex -16.2308 1.69959 12
    endloop
  endfacet
  facet normal 0.195114 0.980781 -0
    outer loop
      vertex -9.71605 5.34803 0
      vertex -10.1396 5.43229 12
      vertex -9.71605 5.34803 12
    endloop
  endfacet
  facet normal 0.195114 0.980781 0
    outer loop
      vertex -10.1396 5.43229 12
      vertex -9.71605 5.34803 0
      vertex -10.1396 5.43229 0
    endloop
  endfacet
  facet normal 0.418656 0.908145 -0
    outer loop
      vertex -8.50305 4.90054 0
      vertex -8.89524 5.08134 12
      vertex -8.50305 4.90054 12
    endloop
  endfacet
  facet normal 0.418656 0.908145 0
    outer loop
      vertex -8.89524 5.08134 12
      vertex -8.50305 4.90054 0
      vertex -8.89524 5.08134 0
    endloop
  endfacet
  facet normal -0.0392744 0.999228 0
    outer loop
      vertex -11 5.5 0
      vertex -11.4315 5.48304 12
      vertex -11 5.5 12
    endloop
  endfacet
  facet normal -0.0392744 0.999228 0
    outer loop
      vertex -11.4315 5.48304 12
      vertex -11 5.5 0
      vertex -11.4315 5.48304 0
    endloop
  endfacet
  facet normal -0.195136 0.980776 0
    outer loop
      vertex -11.8604 5.43229 0
      vertex -12.2839 5.34803 12
      vertex -11.8604 5.43229 12
    endloop
  endfacet
  facet normal -0.195136 0.980776 0
    outer loop
      vertex -12.2839 5.34803 12
      vertex -11.8604 5.43229 0
      vertex -12.2839 5.34803 0
    endloop
  endfacet
  facet normal -0.993085 -0.117401 0
    outer loop
      vertex -16.4323 -0.860389 0
      vertex -16.483 -0.431524 12
      vertex -16.483 -0.431524 0
    endloop
  endfacet
  facet normal -0.993085 -0.117401 0
    outer loop
      vertex -16.483 -0.431524 12
      vertex -16.4323 -0.860389 0
      vertex -16.4323 -0.860389 12
    endloop
  endfacet
  facet normal 0.678797 -0.734326 0
    outer loop
      vertex -7.42803 -4.18223 0
      vertex -7.11091 -3.88909 12
      vertex -7.42803 -4.18223 12
    endloop
  endfacet
  facet normal 0.678797 -0.734326 0
    outer loop
      vertex -7.11091 -3.88909 12
      vertex -7.42803 -4.18223 0
      vertex -7.11091 -3.88909 0
    endloop
  endfacet
  facet normal 0.418656 -0.908145 0
    outer loop
      vertex -8.89524 -5.08134 0
      vertex -8.50305 -4.90054 12
      vertex -8.89524 -5.08134 12
    endloop
  endfacet
  facet normal 0.418656 -0.908145 0
    outer loop
      vertex -8.50305 -4.90054 12
      vertex -8.89524 -5.08134 0
      vertex -8.50305 -4.90054 0
    endloop
  endfacet
  facet normal 0.271435 -0.962457 0
    outer loop
      vertex -9.71605 -5.34803 0
      vertex -9.30041 -5.23081 12
      vertex -9.71605 -5.34803 12
    endloop
  endfacet
  facet normal 0.271435 -0.962457 0
    outer loop
      vertex -9.30041 -5.23081 12
      vertex -9.71605 -5.34803 0
      vertex -9.30041 -5.23081 0
    endloop
  endfacet
  facet normal -0.418735 0.908108 0
    outer loop
      vertex -13.1048 5.08134 0
      vertex -13.4969 4.90054 12
      vertex -13.1048 5.08134 12
    endloop
  endfacet
  facet normal -0.418735 0.908108 0
    outer loop
      vertex -13.4969 4.90054 12
      vertex -13.1048 5.08134 0
      vertex -13.4969 4.90054 0
    endloop
  endfacet
  facet normal 0.271435 0.962457 -0
    outer loop
      vertex -9.30041 5.23081 0
      vertex -9.71605 5.34803 12
      vertex -9.30041 5.23081 12
    endloop
  endfacet
  facet normal 0.271435 0.962457 0
    outer loop
      vertex -9.71605 5.34803 12
      vertex -9.30041 5.23081 0
      vertex -9.71605 5.34803 0
    endloop
  endfacet
  facet normal 0.488634 -0.872489 0
    outer loop
      vertex -8.50305 -4.90054 0
      vertex -8.12626 -4.68952 12
      vertex -8.50305 -4.90054 12
    endloop
  endfacet
  facet normal 0.488634 -0.872489 0
    outer loop
      vertex -8.12626 -4.68952 12
      vertex -8.50305 -4.90054 0
      vertex -8.12626 -4.68952 0
    endloop
  endfacet
  facet normal -0.734382 -0.678736 0
    outer loop
      vertex -14.8891 -3.88909 0
      vertex -15.1822 -3.57196 12
      vertex -15.1822 -3.57196 0
    endloop
  endfacet
  facet normal -0.734382 -0.678736 0
    outer loop
      vertex -15.1822 -3.57196 12
      vertex -14.8891 -3.88909 0
      vertex -14.8891 -3.88909 12
    endloop
  endfacet
  facet normal -0.55555 0.831483 0
    outer loop
      vertex -13.8737 4.68952 0
      vertex -14.2328 4.44959 12
      vertex -13.8737 4.68952 12
    endloop
  endfacet
  facet normal -0.55555 0.831483 0
    outer loop
      vertex -14.2328 4.44959 12
      vertex -13.8737 4.68952 0
      vertex -14.2328 4.44959 0
    endloop
  endfacet
  facet normal 0.346107 -0.938195 0
    outer loop
      vertex -9.30041 -5.23081 0
      vertex -8.89524 -5.08134 12
      vertex -9.30041 -5.23081 12
    endloop
  endfacet
  facet normal 0.346107 -0.938195 0
    outer loop
      vertex -8.89524 -5.08134 12
      vertex -9.30041 -5.23081 0
      vertex -8.89524 -5.08134 0
    endloop
  endfacet
  facet normal 0.619088 0.785322 -0
    outer loop
      vertex -7.42803 4.18223 0
      vertex -7.76718 4.44959 12
      vertex -7.42803 4.18223 12
    endloop
  endfacet
  facet normal 0.619088 0.785322 0
    outer loop
      vertex -7.76718 4.44959 12
      vertex -7.42803 4.18223 0
      vertex -7.76718 4.44959 0
    endloop
  endfacet
  facet normal -0.908145 0.418656 0
    outer loop
      vertex -16.0813 2.10476 0
      vertex -15.9005 2.49695 12
      vertex -15.9005 2.49695 0
    endloop
  endfacet
  facet normal -0.908145 0.418656 0
    outer loop
      vertex -15.9005 2.49695 12
      vertex -16.0813 2.10476 0
      vertex -16.0813 2.10476 12
    endloop
  endfacet
  facet normal -0.488625 0.872494 0
    outer loop
      vertex -13.4969 4.90054 0
      vertex -13.8737 4.68952 12
      vertex -13.4969 4.90054 12
    endloop
  endfacet
  facet normal -0.488625 0.872494 0
    outer loop
      vertex -13.8737 4.68952 12
      vertex -13.4969 4.90054 0
      vertex -13.8737 4.68952 0
    endloop
  endfacet
  facet normal -0.346084 0.938203 0
    outer loop
      vertex -12.6996 5.23081 0
      vertex -13.1048 5.08134 12
      vertex -12.6996 5.23081 12
    endloop
  endfacet
  facet normal -0.346084 0.938203 0
    outer loop
      vertex -13.1048 5.08134 12
      vertex -12.6996 5.23081 0
      vertex -13.1048 5.08134 0
    endloop
  endfacet
  facet normal 0.117506 -0.993072 0
    outer loop
      vertex -10.5685 -5.48304 0
      vertex -10.1396 -5.43229 12
      vertex -10.5685 -5.48304 12
    endloop
  endfacet
  facet normal 0.117506 -0.993072 0
    outer loop
      vertex -10.1396 -5.43229 12
      vertex -10.5685 -5.48304 0
      vertex -10.1396 -5.43229 0
    endloop
  endfacet
  facet normal -0.117506 -0.993072 0
    outer loop
      vertex -11.8604 -5.43229 0
      vertex -11.4315 -5.48304 12
      vertex -11.8604 -5.43229 12
    endloop
  endfacet
  facet normal -0.117506 -0.993072 -0
    outer loop
      vertex -11.4315 -5.48304 12
      vertex -11.8604 -5.43229 0
      vertex -11.4315 -5.48304 0
    endloop
  endfacet
  facet normal -0.962469 -0.271392 0
    outer loop
      vertex -16.2308 -1.69959 0
      vertex -16.348 -1.28395 12
      vertex -16.348 -1.28395 0
    endloop
  endfacet
  facet normal -0.962469 -0.271392 0
    outer loop
      vertex -16.348 -1.28395 12
      vertex -16.2308 -1.69959 0
      vertex -16.2308 -1.69959 12
    endloop
  endfacet
  facet normal -0.271399 0.962467 0
    outer loop
      vertex -12.2839 5.34803 0
      vertex -12.6996 5.23081 12
      vertex -12.2839 5.34803 12
    endloop
  endfacet
  facet normal -0.271399 0.962467 0
    outer loop
      vertex -12.6996 5.23081 12
      vertex -12.2839 5.34803 0
      vertex -12.6996 5.23081 0
    endloop
  endfacet
  facet normal -0.980764 -0.195198 0
    outer loop
      vertex -16.348 -1.28395 0
      vertex -16.4323 -0.860389 12
      vertex -16.4323 -0.860389 0
    endloop
  endfacet
  facet normal -0.980764 -0.195198 0
    outer loop
      vertex -16.4323 -0.860389 12
      vertex -16.348 -1.28395 0
      vertex -16.348 -1.28395 12
    endloop
  endfacet
  facet normal 0.0392744 0.999228 -0
    outer loop
      vertex -10.5685 5.48304 0
      vertex -11 5.5 12
      vertex -10.5685 5.48304 12
    endloop
  endfacet
  facet normal 0.0392744 0.999228 0
    outer loop
      vertex -11 5.5 12
      vertex -10.5685 5.48304 0
      vertex -11 5.5 0
    endloop
  endfacet
  facet normal -0.962469 0.271392 0
    outer loop
      vertex -16.348 1.28395 0
      vertex -16.2308 1.69959 12
      vertex -16.2308 1.69959 0
    endloop
  endfacet
  facet normal -0.962469 0.271392 0
    outer loop
      vertex -16.2308 1.69959 12
      vertex -16.348 1.28395 0
      vertex -16.348 1.28395 12
    endloop
  endfacet
  facet normal -0.785268 0.619156 0
    outer loop
      vertex -15.4496 3.23282 0
      vertex -15.1822 3.57196 12
      vertex -15.1822 3.57196 0
    endloop
  endfacet
  facet normal -0.785268 0.619156 0
    outer loop
      vertex -15.1822 3.57196 12
      vertex -15.4496 3.23282 0
      vertex -15.4496 3.23282 12
    endloop
  endfacet
  facet normal 0.117506 0.993072 -0
    outer loop
      vertex -10.1396 5.43229 0
      vertex -10.5685 5.48304 12
      vertex -10.1396 5.43229 12
    endloop
  endfacet
  facet normal 0.117506 0.993072 0
    outer loop
      vertex -10.5685 5.48304 12
      vertex -10.1396 5.43229 0
      vertex -10.5685 5.48304 0
    endloop
  endfacet
  facet normal -0.619032 -0.785366 0
    outer loop
      vertex -14.572 -4.18223 0
      vertex -14.2328 -4.44959 12
      vertex -14.572 -4.18223 12
    endloop
  endfacet
  facet normal -0.619032 -0.785366 -0
    outer loop
      vertex -14.2328 -4.44959 12
      vertex -14.572 -4.18223 0
      vertex -14.2328 -4.44959 0
    endloop
  endfacet
  facet normal -0.734382 0.678736 0
    outer loop
      vertex -15.1822 3.57196 0
      vertex -14.8891 3.88909 12
      vertex -14.8891 3.88909 0
    endloop
  endfacet
  facet normal -0.734382 0.678736 0
    outer loop
      vertex -14.8891 3.88909 12
      vertex -15.1822 3.57196 0
      vertex -15.1822 3.57196 12
    endloop
  endfacet
  facet normal -0.999225 -0.0393647 0
    outer loop
      vertex -16.483 -0.431524 0
      vertex -16.5 0 12
      vertex -16.5 0 0
    endloop
  endfacet
  facet normal -0.999225 -0.0393647 0
    outer loop
      vertex -16.5 0 12
      vertex -16.483 -0.431524 0
      vertex -16.483 -0.431524 12
    endloop
  endfacet
  facet normal 0.831462 -0.555582 0
    outer loop
      vertex -6.55041 -3.23282 12
      vertex -6.39484 -3 0
      vertex -6.39484 -3 12
    endloop
  endfacet
  facet normal 0.831462 -0.555582 0
    outer loop
      vertex -6.39484 -3 0
      vertex -6.55041 -3.23282 12
      vertex -6.55041 -3.23282 0
    endloop
  endfacet
  facet normal -0.980764 0.195198 0
    outer loop
      vertex -16.4323 0.860389 0
      vertex -16.348 1.28395 12
      vertex -16.348 1.28395 0
    endloop
  endfacet
  facet normal -0.980764 0.195198 0
    outer loop
      vertex -16.348 1.28395 12
      vertex -16.4323 0.860389 0
      vertex -16.4323 0.860389 12
    endloop
  endfacet
  facet normal 0.785313 -0.619099 0
    outer loop
      vertex -6.81777 -3.57196 12
      vertex -6.55041 -3.23282 0
      vertex -6.55041 -3.23282 12
    endloop
  endfacet
  facet normal 0.785313 -0.619099 0
    outer loop
      vertex -6.55041 -3.23282 0
      vertex -6.81777 -3.57196 12
      vertex -6.81777 -3.57196 0
    endloop
  endfacet
  facet normal -0.831501 0.555523 0
    outer loop
      vertex -15.6895 2.87374 0
      vertex -15.4496 3.23282 12
      vertex -15.4496 3.23282 0
    endloop
  endfacet
  facet normal -0.831501 0.555523 0
    outer loop
      vertex -15.4496 3.23282 12
      vertex -15.6895 2.87374 0
      vertex -15.6895 2.87374 12
    endloop
  endfacet
  facet normal 0.734336 -0.678786 0
    outer loop
      vertex -7.11091 -3.88909 12
      vertex -6.81777 -3.57196 0
      vertex -6.81777 -3.57196 12
    endloop
  endfacet
  facet normal 0.734336 -0.678786 0
    outer loop
      vertex -6.81777 -3.57196 0
      vertex -7.11091 -3.88909 12
      vertex -7.11091 -3.88909 0
    endloop
  endfacet
  facet normal -0.908145 -0.418656 0
    outer loop
      vertex -15.9005 -2.49695 0
      vertex -16.0813 -2.10476 12
      vertex -16.0813 -2.10476 0
    endloop
  endfacet
  facet normal -0.908145 -0.418656 0
    outer loop
      vertex -16.0813 -2.10476 12
      vertex -15.9005 -2.49695 0
      vertex -15.9005 -2.49695 12
    endloop
  endfacet
  facet normal -0.938173 -0.346168 0
    outer loop
      vertex -16.0813 -2.10476 0
      vertex -16.2308 -1.69959 12
      vertex -16.2308 -1.69959 0
    endloop
  endfacet
  facet normal -0.938173 -0.346168 0
    outer loop
      vertex -16.2308 -1.69959 12
      vertex -16.0813 -2.10476 0
      vertex -16.0813 -2.10476 12
    endloop
  endfacet
  facet normal -0.999225 0.0393647 0
    outer loop
      vertex -16.5 0 0
      vertex -16.483 0.431524 12
      vertex -16.483 0.431524 0
    endloop
  endfacet
  facet normal -0.999225 0.0393647 0
    outer loop
      vertex -16.483 0.431524 12
      vertex -16.5 0 0
      vertex -16.5 0 12
    endloop
  endfacet
  facet normal 0.831462 0.555582 0
    outer loop
      vertex -6.39484 3 12
      vertex -6.55041 3.23282 0
      vertex -6.55041 3.23282 12
    endloop
  endfacet
  facet normal 0.831462 0.555582 0
    outer loop
      vertex -6.55041 3.23282 0
      vertex -6.39484 3 12
      vertex -6.39484 3 0
    endloop
  endfacet
  facet normal -0.619032 0.785366 0
    outer loop
      vertex -14.2328 4.44959 0
      vertex -14.572 4.18223 12
      vertex -14.2328 4.44959 12
    endloop
  endfacet
  facet normal -0.619032 0.785366 0
    outer loop
      vertex -14.572 4.18223 12
      vertex -14.2328 4.44959 0
      vertex -14.572 4.18223 0
    endloop
  endfacet
  facet normal 0.195114 -0.980781 0
    outer loop
      vertex -10.1396 -5.43229 0
      vertex -9.71605 -5.34803 12
      vertex -10.1396 -5.43229 12
    endloop
  endfacet
  facet normal 0.195114 -0.980781 0
    outer loop
      vertex -9.71605 -5.34803 12
      vertex -10.1396 -5.43229 0
      vertex -9.71605 -5.34803 0
    endloop
  endfacet
  facet normal 0.555571 0.831469 -0
    outer loop
      vertex -7.76718 4.44959 0
      vertex -8.12626 4.68952 12
      vertex -7.76718 4.44959 12
    endloop
  endfacet
  facet normal 0.555571 0.831469 0
    outer loop
      vertex -8.12626 4.68952 12
      vertex -7.76718 4.44959 0
      vertex -8.12626 4.68952 0
    endloop
  endfacet
  facet normal -0.67882 0.734304 0
    outer loop
      vertex -14.572 4.18223 0
      vertex -14.8891 3.88909 12
      vertex -14.572 4.18223 12
    endloop
  endfacet
  facet normal -0.67882 0.734304 0
    outer loop
      vertex -14.8891 3.88909 12
      vertex -14.572 4.18223 0
      vertex -14.8891 3.88909 0
    endloop
  endfacet
  facet normal -0.55555 -0.831483 0
    outer loop
      vertex -14.2328 -4.44959 0
      vertex -13.8737 -4.68952 12
      vertex -14.2328 -4.44959 12
    endloop
  endfacet
  facet normal -0.55555 -0.831483 -0
    outer loop
      vertex -13.8737 -4.68952 12
      vertex -14.2328 -4.44959 0
      vertex -13.8737 -4.68952 0
    endloop
  endfacet
  facet normal -0.872508 0.488599 0
    outer loop
      vertex -15.9005 2.49695 0
      vertex -15.6895 2.87374 12
      vertex -15.6895 2.87374 0
    endloop
  endfacet
  facet normal -0.872508 0.488599 0
    outer loop
      vertex -15.6895 2.87374 12
      vertex -15.9005 2.49695 0
      vertex -15.9005 2.49695 12
    endloop
  endfacet
  facet normal -0.271399 -0.962467 0
    outer loop
      vertex -12.6996 -5.23081 0
      vertex -12.2839 -5.34803 12
      vertex -12.6996 -5.23081 12
    endloop
  endfacet
  facet normal -0.271399 -0.962467 -0
    outer loop
      vertex -12.2839 -5.34803 12
      vertex -12.6996 -5.23081 0
      vertex -12.2839 -5.34803 0
    endloop
  endfacet
  facet normal -0.195136 -0.980776 0
    outer loop
      vertex -12.2839 -5.34803 0
      vertex -11.8604 -5.43229 12
      vertex -12.2839 -5.34803 12
    endloop
  endfacet
  facet normal -0.195136 -0.980776 -0
    outer loop
      vertex -11.8604 -5.43229 12
      vertex -12.2839 -5.34803 0
      vertex -11.8604 -5.43229 0
    endloop
  endfacet
  facet normal 0.619088 -0.785322 0
    outer loop
      vertex -7.76718 -4.44959 0
      vertex -7.42803 -4.18223 12
      vertex -7.76718 -4.44959 12
    endloop
  endfacet
  facet normal 0.619088 -0.785322 0
    outer loop
      vertex -7.42803 -4.18223 12
      vertex -7.76718 -4.44959 0
      vertex -7.42803 -4.18223 0
    endloop
  endfacet
  facet normal 0.555571 -0.831469 0
    outer loop
      vertex -8.12626 -4.68952 0
      vertex -7.76718 -4.44959 12
      vertex -8.12626 -4.68952 12
    endloop
  endfacet
  facet normal 0.555571 -0.831469 0
    outer loop
      vertex -7.76718 -4.44959 12
      vertex -8.12626 -4.68952 0
      vertex -7.76718 -4.44959 0
    endloop
  endfacet
  facet normal -0.872508 -0.488599 0
    outer loop
      vertex -15.6895 -2.87374 0
      vertex -15.9005 -2.49695 12
      vertex -15.9005 -2.49695 0
    endloop
  endfacet
  facet normal -0.872508 -0.488599 0
    outer loop
      vertex -15.9005 -2.49695 12
      vertex -15.6895 -2.87374 0
      vertex -15.6895 -2.87374 12
    endloop
  endfacet
  facet normal -0.993085 0.117401 0
    outer loop
      vertex -16.483 0.431524 0
      vertex -16.4323 0.860389 12
      vertex -16.4323 0.860389 0
    endloop
  endfacet
  facet normal -0.993085 0.117401 0
    outer loop
      vertex -16.4323 0.860389 12
      vertex -16.483 0.431524 0
      vertex -16.483 0.431524 12
    endloop
  endfacet
  facet normal -0.831501 -0.555523 0
    outer loop
      vertex -15.4496 -3.23282 0
      vertex -15.6895 -2.87374 12
      vertex -15.6895 -2.87374 0
    endloop
  endfacet
  facet normal -0.831501 -0.555523 0
    outer loop
      vertex -15.6895 -2.87374 12
      vertex -15.4496 -3.23282 0
      vertex -15.4496 -3.23282 12
    endloop
  endfacet
  facet normal 0.734336 0.678786 0
    outer loop
      vertex -6.81777 3.57196 12
      vertex -7.11091 3.88909 0
      vertex -7.11091 3.88909 12
    endloop
  endfacet
  facet normal 0.734336 0.678786 0
    outer loop
      vertex -7.11091 3.88909 0
      vertex -6.81777 3.57196 12
      vertex -6.81777 3.57196 0
    endloop
  endfacet
  facet normal -0.785268 -0.619156 0
    outer loop
      vertex -15.1822 -3.57196 0
      vertex -15.4496 -3.23282 12
      vertex -15.4496 -3.23282 0
    endloop
  endfacet
  facet normal -0.785268 -0.619156 0
    outer loop
      vertex -15.4496 -3.23282 12
      vertex -15.1822 -3.57196 0
      vertex -15.1822 -3.57196 12
    endloop
  endfacet
  facet normal 0.785313 0.619099 0
    outer loop
      vertex -6.55041 3.23282 12
      vertex -6.81777 3.57196 0
      vertex -6.81777 3.57196 12
    endloop
  endfacet
  facet normal 0.785313 0.619099 0
    outer loop
      vertex -6.81777 3.57196 0
      vertex -6.55041 3.23282 12
      vertex -6.55041 3.23282 0
    endloop
  endfacet
  facet normal -0.418735 -0.908108 0
    outer loop
      vertex -13.4969 -4.90054 0
      vertex -13.1048 -5.08134 12
      vertex -13.4969 -4.90054 12
    endloop
  endfacet
  facet normal -0.418735 -0.908108 -0
    outer loop
      vertex -13.1048 -5.08134 12
      vertex -13.4969 -4.90054 0
      vertex -13.1048 -5.08134 0
    endloop
  endfacet
  facet normal -0.488625 -0.872494 0
    outer loop
      vertex -13.8737 -4.68952 0
      vertex -13.4969 -4.90054 12
      vertex -13.8737 -4.68952 12
    endloop
  endfacet
  facet normal -0.488625 -0.872494 -0
    outer loop
      vertex -13.4969 -4.90054 12
      vertex -13.8737 -4.68952 0
      vertex -13.4969 -4.90054 0
    endloop
  endfacet
  facet normal -0.346084 -0.938203 0
    outer loop
      vertex -13.1048 -5.08134 0
      vertex -12.6996 -5.23081 12
      vertex -13.1048 -5.08134 12
    endloop
  endfacet
  facet normal -0.346084 -0.938203 -0
    outer loop
      vertex -12.6996 -5.23081 12
      vertex -13.1048 -5.08134 0
      vertex -12.6996 -5.23081 0
    endloop
  endfacet
  facet normal -0.346107 -0.938195 0
    outer loop
      vertex 8.89524 -5.08134 0
      vertex 9.30041 -5.23081 12
      vertex 8.89524 -5.08134 12
    endloop
  endfacet
  facet normal -0.346107 -0.938195 -0
    outer loop
      vertex 9.30041 -5.23081 12
      vertex 8.89524 -5.08134 0
      vertex 9.30041 -5.23081 0
    endloop
  endfacet
  facet normal 0.117506 -0.993072 0
    outer loop
      vertex 11.4315 -5.48304 0
      vertex 11.8604 -5.43229 12
      vertex 11.4315 -5.48304 12
    endloop
  endfacet
  facet normal 0.117506 -0.993072 0
    outer loop
      vertex 11.8604 -5.43229 12
      vertex 11.4315 -5.48304 0
      vertex 11.8604 -5.43229 0
    endloop
  endfacet
  facet normal -0.488634 -0.872489 0
    outer loop
      vertex 8.12626 -4.68952 0
      vertex 8.50305 -4.90054 12
      vertex 8.12626 -4.68952 12
    endloop
  endfacet
  facet normal -0.488634 -0.872489 -0
    outer loop
      vertex 8.50305 -4.90054 12
      vertex 8.12626 -4.68952 0
      vertex 8.50305 -4.90054 0
    endloop
  endfacet
  facet normal 0.0392744 0.999228 -0
    outer loop
      vertex 11.4315 5.48304 0
      vertex 11 5.5 12
      vertex 11.4315 5.48304 12
    endloop
  endfacet
  facet normal 0.0392744 0.999228 0
    outer loop
      vertex 11 5.5 12
      vertex 11.4315 5.48304 0
      vertex 11 5.5 0
    endloop
  endfacet
  facet normal 0.67882 0.734304 -0
    outer loop
      vertex 14.8891 3.88909 0
      vertex 14.572 4.18223 12
      vertex 14.8891 3.88909 12
    endloop
  endfacet
  facet normal 0.67882 0.734304 0
    outer loop
      vertex 14.572 4.18223 12
      vertex 14.8891 3.88909 0
      vertex 14.572 4.18223 0
    endloop
  endfacet
  facet normal -0.0392744 0.999228 0
    outer loop
      vertex 11 5.5 0
      vertex 10.5685 5.48304 12
      vertex 11 5.5 12
    endloop
  endfacet
  facet normal -0.0392744 0.999228 0
    outer loop
      vertex 10.5685 5.48304 12
      vertex 11 5.5 0
      vertex 10.5685 5.48304 0
    endloop
  endfacet
  facet normal -0.678797 -0.734326 0
    outer loop
      vertex 7.11091 -3.88909 0
      vertex 7.42803 -4.18223 12
      vertex 7.11091 -3.88909 12
    endloop
  endfacet
  facet normal -0.678797 -0.734326 -0
    outer loop
      vertex 7.42803 -4.18223 12
      vertex 7.11091 -3.88909 0
      vertex 7.42803 -4.18223 0
    endloop
  endfacet
  facet normal 0.938173 -0.346168 0
    outer loop
      vertex 16.0813 -2.10476 12
      vertex 16.2308 -1.69959 0
      vertex 16.2308 -1.69959 12
    endloop
  endfacet
  facet normal 0.938173 -0.346168 0
    outer loop
      vertex 16.2308 -1.69959 0
      vertex 16.0813 -2.10476 12
      vertex 16.0813 -2.10476 0
    endloop
  endfacet
  facet normal -0.195114 -0.980781 0
    outer loop
      vertex 9.71605 -5.34803 0
      vertex 10.1396 -5.43229 12
      vertex 9.71605 -5.34803 12
    endloop
  endfacet
  facet normal -0.195114 -0.980781 -0
    outer loop
      vertex 10.1396 -5.43229 12
      vertex 9.71605 -5.34803 0
      vertex 10.1396 -5.43229 0
    endloop
  endfacet
  facet normal -0.418656 -0.908145 0
    outer loop
      vertex 8.50305 -4.90054 0
      vertex 8.89524 -5.08134 12
      vertex 8.50305 -4.90054 12
    endloop
  endfacet
  facet normal -0.418656 -0.908145 -0
    outer loop
      vertex 8.89524 -5.08134 12
      vertex 8.50305 -4.90054 0
      vertex 8.89524 -5.08134 0
    endloop
  endfacet
  facet normal 0.0392744 -0.999228 0
    outer loop
      vertex 11 -5.5 0
      vertex 11.4315 -5.48304 12
      vertex 11 -5.5 12
    endloop
  endfacet
  facet normal 0.0392744 -0.999228 0
    outer loop
      vertex 11.4315 -5.48304 12
      vertex 11 -5.5 0
      vertex 11.4315 -5.48304 0
    endloop
  endfacet
  facet normal 0.195136 -0.980776 0
    outer loop
      vertex 11.8604 -5.43229 0
      vertex 12.2839 -5.34803 12
      vertex 11.8604 -5.43229 12
    endloop
  endfacet
  facet normal 0.195136 -0.980776 0
    outer loop
      vertex 12.2839 -5.34803 12
      vertex 11.8604 -5.43229 0
      vertex 12.2839 -5.34803 0
    endloop
  endfacet
  facet normal 0.993085 0.117401 0
    outer loop
      vertex 16.483 0.431524 12
      vertex 16.4323 0.860389 0
      vertex 16.4323 0.860389 12
    endloop
  endfacet
  facet normal 0.993085 0.117401 0
    outer loop
      vertex 16.4323 0.860389 0
      vertex 16.483 0.431524 12
      vertex 16.483 0.431524 0
    endloop
  endfacet
  facet normal -0.678797 0.734326 0
    outer loop
      vertex 7.42803 4.18223 0
      vertex 7.11091 3.88909 12
      vertex 7.42803 4.18223 12
    endloop
  endfacet
  facet normal -0.678797 0.734326 0
    outer loop
      vertex 7.11091 3.88909 12
      vertex 7.42803 4.18223 0
      vertex 7.11091 3.88909 0
    endloop
  endfacet
  facet normal -0.418656 0.908145 0
    outer loop
      vertex 8.89524 5.08134 0
      vertex 8.50305 4.90054 12
      vertex 8.89524 5.08134 12
    endloop
  endfacet
  facet normal -0.418656 0.908145 0
    outer loop
      vertex 8.50305 4.90054 12
      vertex 8.89524 5.08134 0
      vertex 8.50305 4.90054 0
    endloop
  endfacet
  facet normal -0.271435 0.962457 0
    outer loop
      vertex 9.71605 5.34803 0
      vertex 9.30041 5.23081 12
      vertex 9.71605 5.34803 12
    endloop
  endfacet
  facet normal -0.271435 0.962457 0
    outer loop
      vertex 9.30041 5.23081 12
      vertex 9.71605 5.34803 0
      vertex 9.30041 5.23081 0
    endloop
  endfacet
  facet normal 0.418735 -0.908108 0
    outer loop
      vertex 13.1048 -5.08134 0
      vertex 13.4969 -4.90054 12
      vertex 13.1048 -5.08134 12
    endloop
  endfacet
  facet normal 0.418735 -0.908108 0
    outer loop
      vertex 13.4969 -4.90054 12
      vertex 13.1048 -5.08134 0
      vertex 13.4969 -4.90054 0
    endloop
  endfacet
  facet normal -0.271435 -0.962457 0
    outer loop
      vertex 9.30041 -5.23081 0
      vertex 9.71605 -5.34803 12
      vertex 9.30041 -5.23081 12
    endloop
  endfacet
  facet normal -0.271435 -0.962457 -0
    outer loop
      vertex 9.71605 -5.34803 12
      vertex 9.30041 -5.23081 0
      vertex 9.71605 -5.34803 0
    endloop
  endfacet
  facet normal -0.488634 0.872489 0
    outer loop
      vertex 8.50305 4.90054 0
      vertex 8.12626 4.68952 12
      vertex 8.50305 4.90054 12
    endloop
  endfacet
  facet normal -0.488634 0.872489 0
    outer loop
      vertex 8.12626 4.68952 12
      vertex 8.50305 4.90054 0
      vertex 8.12626 4.68952 0
    endloop
  endfacet
  facet normal 0.734382 0.678736 0
    outer loop
      vertex 15.1822 3.57196 12
      vertex 14.8891 3.88909 0
      vertex 14.8891 3.88909 12
    endloop
  endfacet
  facet normal 0.734382 0.678736 0
    outer loop
      vertex 14.8891 3.88909 0
      vertex 15.1822 3.57196 12
      vertex 15.1822 3.57196 0
    endloop
  endfacet
  facet normal 0.55555 -0.831483 0
    outer loop
      vertex 13.8737 -4.68952 0
      vertex 14.2328 -4.44959 12
      vertex 13.8737 -4.68952 12
    endloop
  endfacet
  facet normal 0.55555 -0.831483 0
    outer loop
      vertex 14.2328 -4.44959 12
      vertex 13.8737 -4.68952 0
      vertex 14.2328 -4.44959 0
    endloop
  endfacet
  facet normal -0.346107 0.938195 0
    outer loop
      vertex 9.30041 5.23081 0
      vertex 8.89524 5.08134 12
      vertex 9.30041 5.23081 12
    endloop
  endfacet
  facet normal -0.346107 0.938195 0
    outer loop
      vertex 8.89524 5.08134 12
      vertex 9.30041 5.23081 0
      vertex 8.89524 5.08134 0
    endloop
  endfacet
  facet normal -0.619088 -0.785322 0
    outer loop
      vertex 7.42803 -4.18223 0
      vertex 7.76718 -4.44959 12
      vertex 7.42803 -4.18223 12
    endloop
  endfacet
  facet normal -0.619088 -0.785322 -0
    outer loop
      vertex 7.76718 -4.44959 12
      vertex 7.42803 -4.18223 0
      vertex 7.76718 -4.44959 0
    endloop
  endfacet
  facet normal 0.908145 -0.418656 0
    outer loop
      vertex 15.9005 -2.49695 12
      vertex 16.0813 -2.10476 0
      vertex 16.0813 -2.10476 12
    endloop
  endfacet
  facet normal 0.908145 -0.418656 0
    outer loop
      vertex 16.0813 -2.10476 0
      vertex 15.9005 -2.49695 12
      vertex 15.9005 -2.49695 0
    endloop
  endfacet
  facet normal 0.488625 -0.872494 0
    outer loop
      vertex 13.4969 -4.90054 0
      vertex 13.8737 -4.68952 12
      vertex 13.4969 -4.90054 12
    endloop
  endfacet
  facet normal 0.488625 -0.872494 0
    outer loop
      vertex 13.8737 -4.68952 12
      vertex 13.4969 -4.90054 0
      vertex 13.8737 -4.68952 0
    endloop
  endfacet
  facet normal 0.346084 -0.938203 0
    outer loop
      vertex 12.6996 -5.23081 0
      vertex 13.1048 -5.08134 12
      vertex 12.6996 -5.23081 12
    endloop
  endfacet
  facet normal 0.346084 -0.938203 0
    outer loop
      vertex 13.1048 -5.08134 12
      vertex 12.6996 -5.23081 0
      vertex 13.1048 -5.08134 0
    endloop
  endfacet
  facet normal -0.117506 0.993072 0
    outer loop
      vertex 10.5685 5.48304 0
      vertex 10.1396 5.43229 12
      vertex 10.5685 5.48304 12
    endloop
  endfacet
  facet normal -0.117506 0.993072 0
    outer loop
      vertex 10.1396 5.43229 12
      vertex 10.5685 5.48304 0
      vertex 10.1396 5.43229 0
    endloop
  endfacet
  facet normal 0.117506 0.993072 -0
    outer loop
      vertex 11.8604 5.43229 0
      vertex 11.4315 5.48304 12
      vertex 11.8604 5.43229 12
    endloop
  endfacet
  facet normal 0.117506 0.993072 0
    outer loop
      vertex 11.4315 5.48304 12
      vertex 11.8604 5.43229 0
      vertex 11.4315 5.48304 0
    endloop
  endfacet
  facet normal 0.962469 0.271392 0
    outer loop
      vertex 16.348 1.28395 12
      vertex 16.2308 1.69959 0
      vertex 16.2308 1.69959 12
    endloop
  endfacet
  facet normal 0.962469 0.271392 0
    outer loop
      vertex 16.2308 1.69959 0
      vertex 16.348 1.28395 12
      vertex 16.348 1.28395 0
    endloop
  endfacet
  facet normal 0.271399 -0.962467 0
    outer loop
      vertex 12.2839 -5.34803 0
      vertex 12.6996 -5.23081 12
      vertex 12.2839 -5.34803 12
    endloop
  endfacet
  facet normal 0.271399 -0.962467 0
    outer loop
      vertex 12.6996 -5.23081 12
      vertex 12.2839 -5.34803 0
      vertex 12.6996 -5.23081 0
    endloop
  endfacet
  facet normal 0.980764 0.195198 0
    outer loop
      vertex 16.4323 0.860389 12
      vertex 16.348 1.28395 0
      vertex 16.348 1.28395 12
    endloop
  endfacet
  facet normal 0.980764 0.195198 0
    outer loop
      vertex 16.348 1.28395 0
      vertex 16.4323 0.860389 12
      vertex 16.4323 0.860389 0
    endloop
  endfacet
  facet normal -0.0392744 -0.999228 0
    outer loop
      vertex 10.5685 -5.48304 0
      vertex 11 -5.5 12
      vertex 10.5685 -5.48304 12
    endloop
  endfacet
  facet normal -0.0392744 -0.999228 -0
    outer loop
      vertex 11 -5.5 12
      vertex 10.5685 -5.48304 0
      vertex 11 -5.5 0
    endloop
  endfacet
  facet normal 0.962469 -0.271392 0
    outer loop
      vertex 16.2308 -1.69959 12
      vertex 16.348 -1.28395 0
      vertex 16.348 -1.28395 12
    endloop
  endfacet
  facet normal 0.962469 -0.271392 0
    outer loop
      vertex 16.348 -1.28395 0
      vertex 16.2308 -1.69959 12
      vertex 16.2308 -1.69959 0
    endloop
  endfacet
  facet normal 0.785268 -0.619156 0
    outer loop
      vertex 15.1822 -3.57196 12
      vertex 15.4496 -3.23282 0
      vertex 15.4496 -3.23282 12
    endloop
  endfacet
  facet normal 0.785268 -0.619156 0
    outer loop
      vertex 15.4496 -3.23282 0
      vertex 15.1822 -3.57196 12
      vertex 15.1822 -3.57196 0
    endloop
  endfacet
  facet normal -0.117506 -0.993072 0
    outer loop
      vertex 10.1396 -5.43229 0
      vertex 10.5685 -5.48304 12
      vertex 10.1396 -5.43229 12
    endloop
  endfacet
  facet normal -0.117506 -0.993072 -0
    outer loop
      vertex 10.5685 -5.48304 12
      vertex 10.1396 -5.43229 0
      vertex 10.5685 -5.48304 0
    endloop
  endfacet
  facet normal 0.619032 0.785366 -0
    outer loop
      vertex 14.572 4.18223 0
      vertex 14.2328 4.44959 12
      vertex 14.572 4.18223 12
    endloop
  endfacet
  facet normal 0.619032 0.785366 0
    outer loop
      vertex 14.2328 4.44959 12
      vertex 14.572 4.18223 0
      vertex 14.2328 4.44959 0
    endloop
  endfacet
  facet normal 0.734382 -0.678736 0
    outer loop
      vertex 14.8891 -3.88909 12
      vertex 15.1822 -3.57196 0
      vertex 15.1822 -3.57196 12
    endloop
  endfacet
  facet normal 0.734382 -0.678736 0
    outer loop
      vertex 15.1822 -3.57196 0
      vertex 14.8891 -3.88909 12
      vertex 14.8891 -3.88909 0
    endloop
  endfacet
  facet normal 0.999225 0.0393647 0
    outer loop
      vertex 16.5 0 12
      vertex 16.483 0.431524 0
      vertex 16.483 0.431524 12
    endloop
  endfacet
  facet normal 0.999225 0.0393647 0
    outer loop
      vertex 16.483 0.431524 0
      vertex 16.5 0 12
      vertex 16.5 0 0
    endloop
  endfacet
  facet normal -0.831462 0.555582 0
    outer loop
      vertex 6.39484 3 0
      vertex 6.55041 3.23282 12
      vertex 6.55041 3.23282 0
    endloop
  endfacet
  facet normal -0.831462 0.555582 0
    outer loop
      vertex 6.55041 3.23282 12
      vertex 6.39484 3 0
      vertex 6.39484 3 12
    endloop
  endfacet
  facet normal 0.980764 -0.195198 0
    outer loop
      vertex 16.348 -1.28395 12
      vertex 16.4323 -0.860389 0
      vertex 16.4323 -0.860389 12
    endloop
  endfacet
  facet normal 0.980764 -0.195198 0
    outer loop
      vertex 16.4323 -0.860389 0
      vertex 16.348 -1.28395 12
      vertex 16.348 -1.28395 0
    endloop
  endfacet
  facet normal -0.785313 0.619099 0
    outer loop
      vertex 6.55041 3.23282 0
      vertex 6.81777 3.57196 12
      vertex 6.81777 3.57196 0
    endloop
  endfacet
  facet normal -0.785313 0.619099 0
    outer loop
      vertex 6.81777 3.57196 12
      vertex 6.55041 3.23282 0
      vertex 6.55041 3.23282 12
    endloop
  endfacet
  facet normal 0.831501 -0.555523 0
    outer loop
      vertex 15.4496 -3.23282 12
      vertex 15.6895 -2.87374 0
      vertex 15.6895 -2.87374 12
    endloop
  endfacet
  facet normal 0.831501 -0.555523 0
    outer loop
      vertex 15.6895 -2.87374 0
      vertex 15.4496 -3.23282 12
      vertex 15.4496 -3.23282 0
    endloop
  endfacet
  facet normal -0.734336 0.678786 0
    outer loop
      vertex 6.81777 3.57196 0
      vertex 7.11091 3.88909 12
      vertex 7.11091 3.88909 0
    endloop
  endfacet
  facet normal -0.734336 0.678786 0
    outer loop
      vertex 7.11091 3.88909 12
      vertex 6.81777 3.57196 0
      vertex 6.81777 3.57196 12
    endloop
  endfacet
  facet normal 0.908145 0.418656 0
    outer loop
      vertex 16.0813 2.10476 12
      vertex 15.9005 2.49695 0
      vertex 15.9005 2.49695 12
    endloop
  endfacet
  facet normal 0.908145 0.418656 0
    outer loop
      vertex 15.9005 2.49695 0
      vertex 16.0813 2.10476 12
      vertex 16.0813 2.10476 0
    endloop
  endfacet
  facet normal 0.938173 0.346168 0
    outer loop
      vertex 16.2308 1.69959 12
      vertex 16.0813 2.10476 0
      vertex 16.0813 2.10476 12
    endloop
  endfacet
  facet normal 0.938173 0.346168 0
    outer loop
      vertex 16.0813 2.10476 0
      vertex 16.2308 1.69959 12
      vertex 16.2308 1.69959 0
    endloop
  endfacet
  facet normal 0.999225 -0.0393647 0
    outer loop
      vertex 16.483 -0.431524 12
      vertex 16.5 0 0
      vertex 16.5 0 12
    endloop
  endfacet
  facet normal 0.999225 -0.0393647 0
    outer loop
      vertex 16.5 0 0
      vertex 16.483 -0.431524 12
      vertex 16.483 -0.431524 0
    endloop
  endfacet
  facet normal -0.831462 -0.555582 0
    outer loop
      vertex 6.55041 -3.23282 0
      vertex 6.39484 -3 12
      vertex 6.39484 -3 0
    endloop
  endfacet
  facet normal -0.831462 -0.555582 0
    outer loop
      vertex 6.39484 -3 12
      vertex 6.55041 -3.23282 0
      vertex 6.55041 -3.23282 12
    endloop
  endfacet
  facet normal 0.619032 -0.785366 0
    outer loop
      vertex 14.2328 -4.44959 0
      vertex 14.572 -4.18223 12
      vertex 14.2328 -4.44959 12
    endloop
  endfacet
  facet normal 0.619032 -0.785366 0
    outer loop
      vertex 14.572 -4.18223 12
      vertex 14.2328 -4.44959 0
      vertex 14.572 -4.18223 0
    endloop
  endfacet
  facet normal -0.195114 0.980781 0
    outer loop
      vertex 10.1396 5.43229 0
      vertex 9.71605 5.34803 12
      vertex 10.1396 5.43229 12
    endloop
  endfacet
  facet normal -0.195114 0.980781 0
    outer loop
      vertex 9.71605 5.34803 12
      vertex 10.1396 5.43229 0
      vertex 9.71605 5.34803 0
    endloop
  endfacet
  facet normal -0.555571 -0.831469 0
    outer loop
      vertex 7.76718 -4.44959 0
      vertex 8.12626 -4.68952 12
      vertex 7.76718 -4.44959 12
    endloop
  endfacet
  facet normal -0.555571 -0.831469 -0
    outer loop
      vertex 8.12626 -4.68952 12
      vertex 7.76718 -4.44959 0
      vertex 8.12626 -4.68952 0
    endloop
  endfacet
  facet normal 0.67882 -0.734304 0
    outer loop
      vertex 14.572 -4.18223 0
      vertex 14.8891 -3.88909 12
      vertex 14.572 -4.18223 12
    endloop
  endfacet
  facet normal 0.67882 -0.734304 0
    outer loop
      vertex 14.8891 -3.88909 12
      vertex 14.572 -4.18223 0
      vertex 14.8891 -3.88909 0
    endloop
  endfacet
  facet normal 0.55555 0.831483 -0
    outer loop
      vertex 14.2328 4.44959 0
      vertex 13.8737 4.68952 12
      vertex 14.2328 4.44959 12
    endloop
  endfacet
  facet normal 0.55555 0.831483 0
    outer loop
      vertex 13.8737 4.68952 12
      vertex 14.2328 4.44959 0
      vertex 13.8737 4.68952 0
    endloop
  endfacet
  facet normal 0.872508 -0.488599 0
    outer loop
      vertex 15.6895 -2.87374 12
      vertex 15.9005 -2.49695 0
      vertex 15.9005 -2.49695 12
    endloop
  endfacet
  facet normal 0.872508 -0.488599 0
    outer loop
      vertex 15.9005 -2.49695 0
      vertex 15.6895 -2.87374 12
      vertex 15.6895 -2.87374 0
    endloop
  endfacet
  facet normal 0.271399 0.962467 -0
    outer loop
      vertex 12.6996 5.23081 0
      vertex 12.2839 5.34803 12
      vertex 12.6996 5.23081 12
    endloop
  endfacet
  facet normal 0.271399 0.962467 0
    outer loop
      vertex 12.2839 5.34803 12
      vertex 12.6996 5.23081 0
      vertex 12.2839 5.34803 0
    endloop
  endfacet
  facet normal 0.195136 0.980776 -0
    outer loop
      vertex 12.2839 5.34803 0
      vertex 11.8604 5.43229 12
      vertex 12.2839 5.34803 12
    endloop
  endfacet
  facet normal 0.195136 0.980776 0
    outer loop
      vertex 11.8604 5.43229 12
      vertex 12.2839 5.34803 0
      vertex 11.8604 5.43229 0
    endloop
  endfacet
  facet normal -0.619088 0.785322 0
    outer loop
      vertex 7.76718 4.44959 0
      vertex 7.42803 4.18223 12
      vertex 7.76718 4.44959 12
    endloop
  endfacet
  facet normal -0.619088 0.785322 0
    outer loop
      vertex 7.42803 4.18223 12
      vertex 7.76718 4.44959 0
      vertex 7.42803 4.18223 0
    endloop
  endfacet
  facet normal -0.555571 0.831469 0
    outer loop
      vertex 8.12626 4.68952 0
      vertex 7.76718 4.44959 12
      vertex 8.12626 4.68952 12
    endloop
  endfacet
  facet normal -0.555571 0.831469 0
    outer loop
      vertex 7.76718 4.44959 12
      vertex 8.12626 4.68952 0
      vertex 7.76718 4.44959 0
    endloop
  endfacet
  facet normal 0.872508 0.488599 0
    outer loop
      vertex 15.9005 2.49695 12
      vertex 15.6895 2.87374 0
      vertex 15.6895 2.87374 12
    endloop
  endfacet
  facet normal 0.872508 0.488599 0
    outer loop
      vertex 15.6895 2.87374 0
      vertex 15.9005 2.49695 12
      vertex 15.9005 2.49695 0
    endloop
  endfacet
  facet normal 0.993085 -0.117401 0
    outer loop
      vertex 16.4323 -0.860389 12
      vertex 16.483 -0.431524 0
      vertex 16.483 -0.431524 12
    endloop
  endfacet
  facet normal 0.993085 -0.117401 0
    outer loop
      vertex 16.483 -0.431524 0
      vertex 16.4323 -0.860389 12
      vertex 16.4323 -0.860389 0
    endloop
  endfacet
  facet normal 0.831501 0.555523 0
    outer loop
      vertex 15.6895 2.87374 12
      vertex 15.4496 3.23282 0
      vertex 15.4496 3.23282 12
    endloop
  endfacet
  facet normal 0.831501 0.555523 0
    outer loop
      vertex 15.4496 3.23282 0
      vertex 15.6895 2.87374 12
      vertex 15.6895 2.87374 0
    endloop
  endfacet
  facet normal -0.734336 -0.678786 0
    outer loop
      vertex 7.11091 -3.88909 0
      vertex 6.81777 -3.57196 12
      vertex 6.81777 -3.57196 0
    endloop
  endfacet
  facet normal -0.734336 -0.678786 0
    outer loop
      vertex 6.81777 -3.57196 12
      vertex 7.11091 -3.88909 0
      vertex 7.11091 -3.88909 12
    endloop
  endfacet
  facet normal 0.785268 0.619156 0
    outer loop
      vertex 15.4496 3.23282 12
      vertex 15.1822 3.57196 0
      vertex 15.1822 3.57196 12
    endloop
  endfacet
  facet normal 0.785268 0.619156 0
    outer loop
      vertex 15.1822 3.57196 0
      vertex 15.4496 3.23282 12
      vertex 15.4496 3.23282 0
    endloop
  endfacet
  facet normal -0.785313 -0.619099 0
    outer loop
      vertex 6.81777 -3.57196 0
      vertex 6.55041 -3.23282 12
      vertex 6.55041 -3.23282 0
    endloop
  endfacet
  facet normal -0.785313 -0.619099 0
    outer loop
      vertex 6.55041 -3.23282 12
      vertex 6.81777 -3.57196 0
      vertex 6.81777 -3.57196 12
    endloop
  endfacet
  facet normal 0.418735 0.908108 -0
    outer loop
      vertex 13.4969 4.90054 0
      vertex 13.1048 5.08134 12
      vertex 13.4969 4.90054 12
    endloop
  endfacet
  facet normal 0.418735 0.908108 0
    outer loop
      vertex 13.1048 5.08134 12
      vertex 13.4969 4.90054 0
      vertex 13.1048 5.08134 0
    endloop
  endfacet
  facet normal 0.488625 0.872494 -0
    outer loop
      vertex 13.8737 4.68952 0
      vertex 13.4969 4.90054 12
      vertex 13.8737 4.68952 12
    endloop
  endfacet
  facet normal 0.488625 0.872494 0
    outer loop
      vertex 13.4969 4.90054 12
      vertex 13.8737 4.68952 0
      vertex 13.4969 4.90054 0
    endloop
  endfacet
  facet normal 0.346084 0.938203 -0
    outer loop
      vertex 13.1048 5.08134 0
      vertex 12.6996 5.23081 12
      vertex 13.1048 5.08134 12
    endloop
  endfacet
  facet normal 0.346084 0.938203 0
    outer loop
      vertex 12.6996 5.23081 12
      vertex 13.1048 5.08134 0
      vertex 12.6996 5.23081 0
    endloop
  endfacet
endsolid OpenSCAD_Model
